<?xml version="1.0" encoding="UTF-8"?>
<svg id="Layer_2" data-name="Layer 2" xmlns="http://www.w3.org/2000/svg" viewBox="0 0 356.68 350.65">
  <defs>
    <style>
      .cls-1 {
        fill: #fff;
      }
    </style>
  </defs>
  <g id="Layer_1-2" data-name="Layer 1-2">
    <g id="gsIv86.tif">
      <g>
        <g>
          <path class="cls-1" d="M339.65,283.79l-.08-16.62-33.82.04-.05-16.8,16.95-.06v-16.62h-33.84l-.05,16.74h-16.94v-16.91l16.95.04v-33.14l-16.91-.03-.07,16.59-16.91.03-.04,16.69h-16.91l-.14-16.61-16.82-.11-.07-16.57h-16.9l-.1,16.59h-50.8l-.07-16.41-17.22-.38.02-16.52-33.59-.03-.05,16.58,16.92.05-.02,16.7h-34.15l-.07-16.57-33.54-.06-.13,16.64-34.11-.02-.06-16.43-16.85-.15v-33.58l16.8-.21v-16.07l-16.87-.2.13-16.82h50.96l.07,16.68,16.76-.09.09-16.59,67.8-.02v-33.35l17.02-.17.14-33.25h16.91l.04,16.7,16.92-.05.07-16.66,16.89-.16.06-16.61h16.97v33.68s-16.94-.05-16.94-.05l-.05,16.15.56.42,16.42.02v16.71h-16.95l-.05-16.13-.46-.57-16.51.02v49.97h16.95l.09-16.68h50.82l.06,16.7,16.93.04v33.27h16.95l.02-33.27,16.93-.04.04-16.71h16.93l.04,16.74h33.88l.02,16.68-16.98.05v33.27l17.01.05v33.4l-16.98.05.02,16.56,16.96.04.02,33.39-17.01.03h0ZM170,100.2h-16.96v50.07h16.96s0-50.07,0-50.07ZM102.14,166.72l16.68-.07-.1-16.27-50.47-.06-.02,33.29,33.64-.07.27-16.82h0ZM153.05,150.32h-16.97v16.61h16.97v-16.61ZM186.98,150.32h-16.97v16.61h16.97v-16.61ZM220.95,150.32h-17v33.31h17v-33.31ZM254.86,150.31h-16.96v16.62h16.96v-16.62h0ZM322.68,150.32h-16.96v33.31h16.96v-33.31ZM34.41,200.35l16.76-.21v-33.14l-33.78.03v16.51l16.88.07s.14,16.74.14,16.74ZM170,166.97h-16.96v16.67h16.96v-16.67ZM254.86,183.68h-16.96v16.67h16.96v-16.67h0ZM339.64,200.38h-33.91v16.67h33.91v-16.67Z"/>
          <polygon class="cls-1" points="254.86 283.79 237.9 283.79 237.9 250.38 254.86 250.38 254.86 283.79"/>
          <polygon class="cls-1" points="220.94 283.79 203.96 283.79 203.94 267.1 220.95 267.1 220.94 283.79"/>
          <polygon class="cls-1" points="288.77 283.79 271.82 283.79 271.82 267.09 288.77 267.09 288.77 283.79"/>
          <polygon class="cls-1" points="153.1 217.03 153.08 283.79 135.97 283.75 135.98 217.07 153.1 217.03"/>
          <path class="cls-1" d="M203.96,283.79l-.03,33.39h17.01v-33.38h16.96v16.68h16.96v-16.68h16.96v33.37l33.86.02.04-16.63-16.93-.04v-16.72h50.87l.05,16.6,16.94-.03.03,50.22-16.98.02-.1-16.6h-16.85l-.07,16.62-16.89-.02-.11-16.66h-33.77l-.11,16.7h-50.78l-.1-16.62h-16.89l-.09,16.59-16.94-.02v-49.94l-16.94-.09-.04,16.69-16.9.05-.02,16.56,16.93.04-.03,16.74-34.04-.02.05-50.27,17.04-.16.06-16.39h50.88l-.03-.02ZM339.64,300.52h-16.96v16.66h16.96v-16.66ZM254.86,317.21h-16.96v16.66h16.96v-16.66h0ZM322.68,317.21h-16.96v16.67h16.96v-16.67Z"/>
          <rect class="cls-1" x="203.94" y="233.42" width="17.01" height="17.03"/>
          <rect class="cls-1" x="169.99" y="250.37" width="16.99" height="16.96"/>
          <g>
            <path class="cls-1" d="M119.12,233.47v117.15H.02v-117.15h119.1ZM102.09,250.45H17.31v83.42h84.78v-83.42Z"/>
            <rect class="cls-1" x="34.06" y="267.08" width="51.11" height="50.13"/>
          </g>
        </g>
        <g>
          <rect class="cls-1" x="203.94" y=".02" width="17.01" height="33.42"/>
          <rect class="cls-1" x="135.67" y="33.44" width="17.38" height="16.7"/>
          <g>
            <rect class="cls-1" x="170" y=".02" width="16.98" height="16.97"/>
            <rect class="cls-1" x="170" y="33.44" width="16.98" height="16.7"/>
          </g>
          <g>
            <path class="cls-1" d="M356.65.02v116.89h-118.75V.02h118.75ZM339.64,16.78h-84.78v83.42h84.78V16.78Z"/>
            <rect class="cls-1" x="271.82" y="33.44" width="50.87" height="50.36"/>
          </g>
          <g>
            <path class="cls-1" d="M119.11,0l.02,116.91H.02S0,.02,0,.02l119.11-.02ZM102.09,16.78H17.31v83.42h84.78V16.78Z"/>
            <rect class="cls-1" x="34.06" y="33.3" width="51.24" height="50.39" transform="translate(-.3 .3) rotate(-.29)"/>
          </g>
        </g>
      </g>
    </g>
  </g>
</svg>