<svg width="797" height="81" viewBox="0 0 797 81" fill="none" xmlns="http://www.w3.org/2000/svg">
<path d="M51.8616 0.21875L52.3931 0.396544C52.7071 3.09836 52.4425 6.62762 52.4314 9.37939L52.4256 25.7375L52.4953 80.6976C35.5957 80.8569 17.5725 80.7391 0.612266 80.7217C-0.338339 80.2657 0.102079 77.1906 0.100625 76.349C0.0923888 72.301 0.105471 68.2521 0.105956 64.2041L0.0676822 0.233809L51.8616 0.21875Z" fill="white"/>
<path d="M677.52 0.203125C692.826 0.264426 708.131 0.267481 723.436 0.212725C723.019 7.36026 723.494 14.8926 723.359 22.0888C723 41.6018 723.896 61.3103 723.252 80.8031C718.698 80.6046 708.402 80.7006 703.392 80.7202C695.393 80.7529 685.311 80.598 677.496 80.8424C678.024 77.7269 677.671 72.1804 677.671 68.9465L677.656 45.9705L677.675 16.33C677.68 11.2645 678.024 5.20819 677.52 0.203125Z" fill="white"/>
<path d="M631.486 0.164062C639.112 0.457259 655.764 0.262226 663.831 0.276188L663.88 13.3804L657.111 13.3182C657.116 17.1755 656.733 23.2079 657.402 26.9045C655.183 26.798 652.702 26.735 650.454 26.6556C650.512 31.3245 650.488 35.9933 650.377 40.662C657.019 40.6014 663.972 40.6526 670.634 40.6579C670.382 43.8259 670.319 50.7223 670.736 53.771L650.309 53.7524C650.934 57.9678 650.076 62.8542 650.667 67.2835L643.845 67.0964L643.865 80.7965C635.449 80.5195 619.901 80.7333 611.107 80.7289C611.601 79.3255 611.761 68.6234 610.855 67.4583C609.077 67.1103 607.202 67.2085 605.211 67.2155L604.566 67.0098C604.392 62.7804 604.736 58.0738 604.784 53.793C601.955 53.7487 600.482 53.7965 597.652 53.92C598.113 51.2603 598.016 48.6462 598.035 45.9886C598.045 44.6064 597.439 42.443 597.967 41.1847C598.239 41.0436 598.505 40.9026 598.776 40.7617C604.402 40.4258 618.937 40.8625 623.792 40.4495C623.23 49.0681 623.806 58.8188 623.733 67.5667L637.707 67.5122C638.429 58.5867 637.314 49.4001 638.191 40.4351L624.625 40.4522C624.79 32.0276 623.845 21.9856 624.518 13.8199C626.122 13.215 627.648 14.0392 630.202 13.4423C632.048 12.4161 630.526 2.61216 631.486 0.164062ZM630.487 27.1215L637.726 27.1058C637.881 22.7151 637.542 17.6681 637.93 13.4059C635.614 13.3993 633.138 13.3655 630.836 13.4351C630.032 16.7329 630.463 23.5473 630.487 27.1215Z" fill="white"/>
<path d="M338.809 0C341.417 0.243894 342.342 0.176918 344.985 0.0972923C344.743 4.51182 344.887 9.3273 345.009 13.7473C347.303 13.7549 349.922 13.6646 352.245 13.6085C352.293 9.11417 352.283 4.61958 352.217 0.125214C355.758 0.287301 361.175 0.243011 364.865 0.261772C364.527 13.6269 364.869 27.2633 364.846 40.6546C367.245 40.6692 369.234 40.6136 371.621 40.5442C371.342 44.8363 371.561 49.5332 371.659 53.8358L364.806 53.7101L364.896 67.6383L371.678 67.5176C371.301 70.7958 371.581 75.0875 371.581 78.4407L371.644 80.716C367.249 80.7291 363.079 80.7335 358.686 80.8513C359.263 76.8179 358.872 71.4143 358.946 67.2449L351.486 67.1441C351.457 71.1396 351.053 76.8574 351.599 80.7138C347.297 80.7291 343.176 80.7269 338.879 80.8644C339.215 78.2832 338.947 74.5489 338.94 71.8955L338.909 54.7527L338.809 0ZM344.913 40.6696L351.596 40.6354C351.193 45.1426 351.739 49.7059 351.386 54.1658C353.063 54.1479 357.325 54.1427 358.795 54.0229C358.865 50.4197 358.506 43.7801 359.178 40.4556C356.951 40.4539 354.47 40.4231 352.268 40.4916C352.223 35.9768 352.089 31.3367 352.336 26.8279L344.931 26.6926C344.647 30.9614 344.592 36.3978 344.913 40.6696Z" fill="white"/>
<path d="M564.566 0.236356C574.019 0.252499 588.263 0.449487 597.309 0.148437C596.645 2.64366 597.052 10.9356 597.255 13.6586C599.363 13.6686 601.79 13.6182 603.922 13.5975C603.685 16.5271 603.447 24.162 604.145 26.8777C601.907 26.8446 599.668 26.7994 597.435 26.7425C597.081 30.4908 596.887 36.8798 597.314 40.5762C595.346 40.5319 593.748 40.4922 591.776 40.3768C590.657 39.7956 591.233 28.6107 591.219 26.8878C588.859 26.8114 586.301 26.7785 583.922 26.7268C583.723 31.2244 583.864 35.9777 583.811 40.4974C581.877 40.4651 579.944 40.449 578.016 40.4488L578.026 26.7697L570.618 26.7866C570.695 30.9286 571.083 36.6538 570.492 40.6645C572.788 40.6632 575.124 40.6015 577.42 40.555C576.766 44.3018 577.507 49.9896 577.246 54.0772C579.445 54.1221 581.693 54.0431 583.898 53.9916C583.801 58.5288 583.806 63.0661 583.912 67.6032L590.695 67.4909C590.564 70.9573 589.998 77.5322 590.598 80.7624C583.714 80.6686 571.296 80.6271 564.6 80.83C565.269 54.2724 564.721 26.8265 564.566 0.236356Z" fill="white"/>
<path d="M226.009 0.207669C230.183 0.187163 234.659 0.241706 238.857 0.259158C238.385 8.49396 238.694 18.5161 238.882 26.7814L232.164 26.6867C231.757 35.6589 232.096 45.1365 232.09 54.1394C240.978 54.197 249.869 54.187 258.756 54.1093C257.9 57.8921 258.872 65.0355 258.496 69.0279C258.325 70.8407 258.199 79.2182 258.694 80.7293C252.203 80.714 245.713 80.7402 239.223 80.8035C239.654 76.788 239.175 71.4712 239.309 67.2543C236.857 67.256 234.611 67.1779 232.169 67.1007C232.036 70.3276 232.732 77.5602 231.961 80.4021L230.877 80.7511C228.975 80.7184 227.877 80.7795 226.009 80.8646L226.008 69.1869C225.987 64.2412 225.714 58.6707 226.208 53.7799C219.508 53.7009 212.234 53.7683 205.491 53.7727C204.977 57.6772 205.373 63.571 205.517 67.5649L212.183 67.5739C211.628 70.8392 211.818 77.3416 212.071 80.7162C207.829 80.7075 203.562 80.7926 199.32 80.8602C199.916 77.4056 199.383 70.6919 199.357 67.0272C199.277 58.2147 199.342 49.4023 199.55 40.5902C208.427 40.6487 217.305 40.6688 226.182 40.6504C225.579 37.2063 225.973 30.6082 225.964 27.0142L226.009 0.207669Z" fill="white"/>
<path d="M86.7204 0.148437L92.6154 0.271041C92.4443 5.06384 92.5819 10.0255 92.5737 14.8318L119.201 14.7753C118.735 18.1975 119.072 23.4139 119.055 27.0064L119.021 54.1005C121.258 54.1118 123.616 54.056 125.86 54.0215C125.146 57.2201 125.562 64.0707 125.576 67.5578C127.922 67.5681 130.404 67.5373 132.763 67.5258C132.839 63.038 132.833 58.5499 132.745 54.0619C134.625 54.1086 137.023 54.0628 138.946 54.051C138.411 57.4147 138.761 63.9915 138.91 67.5358L145.71 67.4832C145.029 69.7998 145.435 78.0468 145.473 80.8221C136.8 80.5298 121.786 80.7414 112.786 80.7393C113.478 73.398 112.916 64.014 112.912 56.5178L112.964 27.8806C106.171 27.8876 99.3791 27.8705 92.5878 27.8298L92.5529 80.6476C90.1105 80.6018 88.844 80.7196 86.4757 80.8876C86.8119 74.1495 86.4442 66.668 86.4258 59.8763L86.4103 21.3772L86.3865 7.19606C86.387 5.79204 86.2611 1.24072 86.7204 0.148437Z" fill="white"/>
<path d="M438.553 13.6016L444.469 13.6847C443.965 22.077 444.232 32.0123 444.396 40.4515C440.501 40.3496 434.944 40.4207 430.908 40.426C431.203 49.4795 430.971 58.4955 431.189 67.5379L437.773 67.5493C437.841 71.6595 437.371 76.7694 437.802 80.7344C427.037 80.658 415.855 80.7605 405.031 80.7344L405.055 77.1283L405.113 67.6029L425.06 67.5944C425.365 63.1266 425.215 58.276 425.307 53.7657L404.992 53.7431C405.07 49.3796 405.089 45.0161 405.06 40.6524L418.514 40.6507V27.127C424.624 27.247 432.255 27.1527 438.485 27.1538C438.766 22.8172 438.544 17.9775 438.553 13.6016Z" fill="white"/>
<path d="M159.704 0.109375C161.878 0.318146 163.395 0.221932 165.598 0.162595C165.158 2.46039 165.458 6.99163 165.447 9.45937L165.318 27.1436C172.018 27.177 178.718 27.1718 185.418 27.1279C184.86 30.8826 185.244 36.57 185.268 40.4716C179.613 40.3106 171.135 40.4265 165.268 40.4243C165.582 47.5428 165.248 54.6967 165.405 61.8185C165.446 63.6701 165.285 65.4751 165.746 67.3209L158.928 67.2129C158.697 69.1929 159.481 79.9369 157.831 80.7964C155.571 80.4866 155.305 80.84 153.184 80.6524C152.659 79.1672 152.855 75.3869 152.86 73.7086L152.776 67.2254C150.435 67.2062 148.317 67.2561 145.983 67.3078C146.707 64.3135 146.332 57.1579 146.346 53.7903C143.997 53.753 141.793 53.8049 139.449 53.8485C139.596 44.9411 139.626 36.0333 139.541 27.1258C141.533 27.1 143.956 26.9586 145.435 27.4918C145.953 31.2004 145.512 36.7986 145.442 40.6516L159.71 40.6494C159.498 39.0395 159.523 36.9192 159.626 35.2794C160.349 23.7335 158.399 11.5975 159.704 0.109375Z" fill="white"/>
<path d="M451.929 0.119188C453.969 0.257715 455.766 0.164131 457.825 0.109375C457.714 4.66635 457.699 9.22399 457.791 13.7812C460.044 13.779 462.874 13.6614 465.175 13.5923C465.243 9.11905 465.228 4.64585 465.131 0.172861C468.852 0.253795 474.032 0.29503 477.665 0.147123L477.704 13.4485L470.979 13.3093C470.839 22.2058 470.756 31.5608 471.042 40.4385L464.172 40.4322C464.245 43.5943 463.833 51.1775 464.618 53.9166C462.365 53.8302 459.904 53.7918 457.626 53.7379L457.67 57.8298C457.806 63.9328 458.247 74.1325 457.171 80.5481C457.079 81.1153 453.363 80.9059 452.205 80.5569C451.604 78.5243 451.929 71.9848 451.929 69.6877V47.5686L451.929 16.8733C451.89 12.3732 451.265 4.31774 451.929 0.119188Z" fill="white"/>
<path d="M485.138 27.1106L491.195 27.0781C491.161 27.3384 491.132 27.5991 491.112 27.8598C490.918 30.7745 490.797 37.0771 491.146 40.1779C491.374 40.2868 491.602 40.3956 491.829 40.5045C493.995 40.7909 495.41 40.64 497.658 40.5342C497.154 53.4787 497.377 67.7231 497.706 80.6977L476.195 80.7522C474.852 80.7501 473.336 80.8111 471.979 80.8504L471.926 67.2744C469.707 67.191 467.469 67.2249 465.245 67.2384L465.211 54.0478C470.589 54.249 479.823 54.1613 485.318 54.0544C485.894 45.4797 485.167 35.8241 485.138 27.1106Z" fill="white"/>
<path d="M319.022 13.6016C322.803 13.7058 327.658 13.6463 331.52 13.6472C330.973 22.1603 331.463 31.8574 331.48 40.4428L324.851 40.3985C325.087 53.8096 324.482 67.3084 324.814 80.709C321.986 80.7003 314.633 80.8945 312.32 80.7069C312.757 78.3916 312.469 74.2642 312.472 71.7932L312.427 54.0094C314.491 54.1141 316.875 54.0417 318.978 54.0131L318.894 40.4227C314.569 40.3983 310.091 40.4419 305.753 40.46C305.846 36.0051 305.837 31.5498 305.727 27.0949C309.692 27.1754 314.874 27.1091 318.936 27.1026C319.462 23.2201 319.26 17.5447 319.022 13.6016Z" fill="white"/>
<path d="M245.852 0.179688L252.12 0.271321C251.624 8.91254 252.065 18.4211 252.072 27.1293C258.682 27.1551 265.292 27.1494 271.901 27.1123C271.502 30.1396 271.782 34.6065 271.785 37.7099L271.824 57.2725C271.834 59.7476 272.235 65.0594 271.752 67.2442C269.515 67.1039 267.78 67.1517 265.54 67.1748L265.629 53.7528C263.473 53.7408 261.137 53.7729 258.966 53.7855C259.467 49.6465 259.013 44.7451 259.292 40.434C254.912 40.3897 250.359 40.4287 245.966 40.4381L245.852 0.179688Z" fill="white"/>
<path d="M518.21 13.6016C522.149 13.7462 527.289 13.7218 531.189 13.6262C530.792 17.8119 531.068 22.8907 531.068 27.1427C533.219 27.113 535.458 27.1145 537.619 27.1039C537.696 31.5633 537.706 36.0232 537.648 40.4827C529.028 40.3293 519.668 40.4055 510.995 40.4063L511.034 46.6108L511.078 53.882C509.159 53.8011 506.868 53.7989 504.91 53.774C505.186 44.9882 504.978 35.9002 504.939 27.094L518.253 27.1564C518.248 22.7271 518.51 18.0034 518.21 13.6016Z" fill="white"/>
<path d="M385.334 0.210937L398.31 0.27879C397.811 2.52728 397.816 11.2171 398.359 13.4307L391.629 13.2935C391.566 17.7973 391.585 22.301 391.682 26.8048L384.996 26.654C384.615 30.8962 384.866 35.9035 384.857 40.203C383.843 40.5206 374.102 40.4718 372.168 40.4899C371.99 36.1129 372.143 31.5247 372.143 27.1313L378.74 27.1145C378.837 22.6228 378.844 18.1308 378.761 13.6391C380.946 13.7185 383.081 13.6788 385.273 13.6615C385.41 9.17829 385.43 4.6944 385.334 0.210937Z" fill="white"/>
<path d="M299.116 0.164062C302.078 0.308261 308.247 0.239323 311.445 0.246522C311.266 4.56288 311.447 9.10197 311.486 13.4351C309.297 13.378 307.055 13.3444 304.861 13.3007C304.9 15.9515 305.375 24.2487 304.543 26.5299C303.081 26.9322 295.547 26.7553 293.291 26.7404C288.393 26.7282 283.842 26.7145 278.945 26.827C279.339 22.8357 279.056 17.8137 279.072 13.7458C285.728 13.7 292.385 13.7154 299.039 13.7922L299.116 0.164062Z" fill="white"/>
<path d="M73.2383 0.03125C75.358 0.227151 77.2276 0.204902 79.3856 0.225409C78.996 8.62492 79.3299 17.4956 79.3265 25.9342L79.309 80.9391C76.6826 80.4853 75.4461 80.9107 73.435 80.5507C72.5774 72.0376 73.2286 61.4262 73.2339 52.7894L73.2383 0.03125Z" fill="white"/>
<path d="M790.729 0.101562C792.832 0.230927 794.605 0.205402 796.713 0.203875C795.933 18.8903 796.606 38.613 796.616 57.3879L796.689 72.4879C796.703 74.6428 796.955 78.7606 796.485 80.7408C794.513 80.6666 791.897 80.8608 790.768 80.5379C790.288 76.4264 790.579 71.4 790.584 67.2335L790.589 44.7246L790.574 16.3713C790.574 11.1082 790.327 5.31496 790.729 0.101562Z" fill="white"/>
<path d="M59.9055 0.0078125C62.3348 0.160737 63.2452 0.0667228 65.7699 0.363628C66.2912 1.02965 65.9521 16.21 65.9516 18.1094L65.9254 81C63.7486 80.7775 62.3653 80.8342 60.1536 80.8473C59.2902 72.1143 59.9007 61.5049 59.9031 52.6217L59.9055 0.0078125Z" fill="white"/>
<path d="M757.368 0.046875C759.882 0.262191 760.997 0.182561 763.487 0.0942096C762.731 7.31002 763.376 17.2621 763.371 24.6712L763.308 79.9773C763.346 80.2827 763.235 80.3067 763.017 80.6209C760.784 80.9394 759.926 81.0746 757.944 80.5183C756.951 79.6521 757.426 74.1285 757.426 72.7142V55.7311L757.368 0.046875Z" fill="white"/>
<path d="M730.668 0.0234375C732.964 0.260351 734.296 0.180946 736.632 0.140369C736.729 26.7728 737.475 54.3967 736.448 80.9548C734.408 80.6014 733.284 80.6995 731.041 80.597C730.488 77.6808 730.702 73.3216 730.697 70.3196L730.692 53.5017L730.668 0.0234375Z" fill="white"/>
<path d="M770.738 0.0234375C773.369 0.244862 774.081 0.197958 776.717 0.112661C776.305 9.38216 776.634 19.1785 776.634 28.4908L776.625 80.9511C774.178 80.6937 773.35 80.8769 770.874 80.5322C770.394 78.4386 770.675 73.9565 770.68 71.737L770.69 54.7694L770.738 0.0234375Z" fill="white"/>
<path d="M537.979 40.5312C540.349 40.5762 541.531 40.5843 543.9 40.8207C544.515 41.2453 544.176 52.8161 544.167 54.1435L550.935 54.1101C550.494 56.3137 550.819 59.4278 550.746 61.7341C550.547 68.0376 551.167 74.53 550.465 80.81C547.791 80.6027 547.17 80.6333 544.51 80.7162C545.063 77.174 544.651 70.9611 544.685 67.2137C540.281 67.1822 535.882 67.1842 531.478 67.2193C531.54 62.8436 531.536 58.4682 531.473 54.0927C533.435 54.1328 536.08 54.0859 538.11 54.0739C538.168 49.7347 538.479 44.8166 537.979 40.5312Z" fill="white"/>
<path d="M166.172 67.4609C174.352 67.6483 183.776 67.5552 192.049 67.5574C191.678 71.7487 191.938 76.6403 191.987 80.8618C189.178 80.5956 169.833 80.7418 166.278 80.8443L166.172 67.4609Z" fill="white"/>
<path d="M112.777 0.242188L138.94 0.253319C138.445 3.59519 138.824 9.36378 138.792 12.8933L138.833 13.1976C136.756 13.5538 116.463 13.352 112.825 13.3435C113.287 9.98399 113.014 3.70252 112.777 0.242188Z" fill="white"/>
<path d="M172.951 0.1875C180.318 0.238329 191.369 0.394097 198.66 0.226992L198.678 13.7825C197.897 13.3312 198.397 13.5004 197.013 13.3397C195.492 13.5598 194.707 13.6791 193.118 13.6948C191.08 13.0646 176.384 13.3386 172.84 13.3525C172.977 8.96463 173.014 4.57585 172.951 0.1875Z" fill="white"/>
<path d="M485.197 0.179687C490.905 0.333048 498.502 0.255823 504.35 0.272839C504.257 4.65137 504.282 9.03013 504.432 13.4082L497.717 13.3351C497.445 16.8469 497.649 21.0012 497.649 24.5626C497.731 25.407 497.838 25.6496 497.421 26.4568C495.847 27.0602 493.812 26.8942 491.515 26.9059C491.69 22.4262 491.67 17.8864 491.709 13.4036C489.538 13.374 487.266 13.3775 485.086 13.367C485.546 9.99828 485.449 3.60228 485.197 0.179687Z" fill="white"/>
<path d="M385.764 54.0391C387.569 54.1324 389.745 54.1649 391.591 54.2153L391.581 80.6447L383.16 80.7429L378.854 80.817C378.753 76.4967 379.095 71.8082 378.629 67.532L385.234 67.578C385.41 65.5088 384.809 55.0823 385.764 54.0391Z" fill="white"/>
<path d="M531.565 0.1875L544.496 0.278694C543.852 3.8313 544.143 9.17733 544.196 12.8528C544.259 17.1953 543.842 22.6146 544.472 26.8627L537.854 26.7462C538.552 23.2388 538.203 17.1397 538.237 13.3619L531.41 13.3552C531.807 9.31412 531.541 4.30097 531.565 0.1875Z" fill="white"/>
<path d="M650.992 67.4922L663.885 67.5921C663.797 71.9977 663.788 76.4037 663.846 80.8106C660.721 80.5772 654.418 80.743 651.07 80.828C651.506 77.3306 651.273 71.0585 650.992 67.4922Z" fill="white"/>
<path d="M398.254 13.5938C402.895 13.6664 406.752 13.7334 411.403 13.6191C411.083 15.6616 412.033 26.0858 410.754 26.7821C406.67 26.7053 402.508 26.7562 398.414 26.7808C398.874 24.5642 398.724 15.5425 398.254 13.5938Z" fill="white"/>
<path d="M304.34 40.6172L304.714 40.6988C305.546 43.2675 304.443 50.4576 305.115 53.7868L293.111 53.7901L292.373 53.6105C291.81 51.2597 292.387 43.5073 292.341 40.6209C296.229 40.682 300.428 40.6311 304.34 40.6172Z" fill="white"/>
<path d="M126.156 27.1328L132.344 27.1348C131.996 34.3355 132.503 41.5821 132.353 48.7868C132.32 50.3749 132.534 52.3344 132.063 53.8903C130.054 53.8156 128.074 53.8287 126.059 53.8252C126.518 45.174 126.206 35.8297 126.156 27.1328Z" fill="white"/>
<path d="M604.575 0C606.847 0.239531 608.276 0.174738 610.587 0.151178C610.558 1.88483 609.851 12.568 611.425 13.3921C613.412 13.7591 615.088 13.6203 617.268 13.5658C617.108 16.1489 617.7 24.6154 617.041 26.651L616.314 26.8338C614.415 26.8735 613.625 26.9315 611.764 26.7363C610.607 25.7441 611.29 15.621 611.135 13.5435C608.601 13.4268 607.026 13.4323 604.492 13.4456C605.011 9.61854 604.705 3.90514 604.575 0Z" fill="white"/>
<path d="M146.271 0.109375C148.363 0.295022 150.094 0.230006 152.218 0.207972C151.736 7.25406 152.469 19.0107 152.174 26.4951C151.972 26.6138 151.771 26.7324 151.57 26.8513C149.443 26.7442 148.107 26.821 146.008 26.8995C146.63 24.2752 146.345 19.923 146.338 17.1931L146.271 0.109375Z" fill="white"/>
<path d="M511.446 54.0078C513.341 54.1141 515.724 54.0796 517.667 54.0811C517.653 58.0763 517.357 63.3628 517.9 67.2581C515.797 67.2032 513.539 67.256 511.422 67.2813C511.843 63.6405 511.65 57.7234 511.446 54.0078Z" fill="white"/>
<path d="M617.852 0.0078125C620.361 0.245162 621.48 0.176231 623.98 0.111003C623.729 4.18805 623.675 9.49873 624.106 13.5487C622.043 13.4689 619.819 13.4735 617.73 13.4565C618.041 9.1209 617.856 4.37587 617.852 0.0078125Z" fill="white"/>
<path d="M504.953 67.4996L511.223 67.4922C510.578 71.6674 511.315 76.6341 510.922 80.9358C508.185 80.4362 506.61 80.9183 505.23 80.4275C504.537 77.7178 504.939 70.5457 504.953 67.4996Z" fill="white"/>
<path d="M591.121 53.9297C593.437 54.1498 595.07 54.054 597.415 53.9984C596.848 57.2982 597.197 63.5057 597.274 66.9977L596.824 67.2156C594.953 67.3334 593.03 67.309 591.131 67.3142C591.606 63.3938 591.233 57.9345 591.121 53.9297Z" fill="white"/>
<path d="M584.479 40.4453C587.1 40.7433 587.967 40.4071 590.37 40.7019C590.758 42.0457 590.855 52.5493 590.525 53.9679C588.083 53.818 586.838 53.8427 584.387 53.8684C585.065 50.1491 584.716 44.2305 584.479 40.4453Z" fill="white"/>
<path d="M551.352 27.0781L557.5 27.1377C556.904 30.4772 557.311 36.7769 557.233 40.398C556.172 40.4498 552.572 40.4391 551.352 40.4482C551.478 36.0331 551.356 31.5022 551.352 27.0781Z" fill="white"/>
<path d="M425.267 0.109375C427.166 0.226741 429.216 0.168053 431.149 0.148201C431.066 1.78456 431.565 12.8185 430.64 13.3702C428.78 13.3745 427.094 13.4749 425.475 13.1193C424.802 12.0456 424.962 1.58212 425.267 0.109375Z" fill="white"/>
<path d="M597.803 67.4062L603.975 67.5094C603.404 71.2263 603.781 77.1432 603.757 80.9914C601.218 80.5726 599.872 80.974 598.19 80.3763C597.425 78.1075 597.972 70.3742 597.803 67.4062Z" fill="white"/>
<path d="M259.032 0.15625C260.843 0.235875 263.183 0.212532 265.042 0.218204C265.061 2.55243 264.467 11.7962 265.638 13.3793L259.012 13.3206C259.568 10.1592 259.155 3.48198 259.032 0.15625Z" fill="white"/>
<path d="M286.211 54.0537C288.125 54.1793 289.763 54.0912 291.692 54.0391C291.262 57.9161 291.649 63.3099 291.685 67.2881C289.641 67.225 287.768 67.253 285.727 67.2695C285.839 65.0906 285.179 55.3587 286.211 54.0537Z" fill="white"/>
<path d="M299.041 67.5L300.905 67.5074C302.725 67.5133 303.204 67.4256 304.708 67.832C305.277 68.8538 304.947 80.0413 304.444 80.9489C302.008 80.5256 301.385 80.9816 299.312 80.4798C298.418 78.9837 299.023 69.7025 299.041 67.5Z" fill="white"/>
<path d="M439.114 54.0469C440.747 54.0986 442.791 54.097 444.463 54.118C444.293 56.1075 445.18 66.309 443.755 67.2374C441.861 67.1185 440.407 67.1997 438.508 67.2549C438.595 65.3493 437.917 54.9223 439.114 54.0469Z" fill="white"/>
<path d="M193.114 13.6989C194.703 13.6832 195.488 13.5639 197.009 13.3437C198.393 13.5045 197.893 13.3352 198.674 13.7866L198.741 26.797C196.884 26.7758 194.737 26.829 192.857 26.8546C193.055 22.8539 192.388 17.5508 193.114 13.6989Z" fill="white"/>
</svg>
