<svg width="114" height="106" viewBox="0 0 114 106" fill="none" xmlns="http://www.w3.org/2000/svg">
<path d="M103.184 105.417C104.794 104.478 104.387 104.486 104.808 102.72C105.175 101.181 105.397 98.4886 106.278 97.1615C106.636 96.6229 109.109 94.7361 109.808 94.3327C110.822 93.9588 112.969 94.4312 113.946 93.6388L114 93.5938V105.417H103.184Z" fill="white"/>
<path d="M0 0H113.942V88.5491C113.185 88.0439 111.927 88.5252 111.305 87.9504C110.756 87.4424 111.279 82.5948 110.511 81.7145C110.375 81.5582 110.169 81.4591 109.979 81.3846C109.507 81.1982 108.989 81.1297 108.506 80.9695C107.722 80.7085 103.905 79.1327 103.419 78.751C102.6 78.1056 101.875 75.6774 101.19 74.6385C100.604 73.7505 99.7497 73.0082 99.0092 72.2531C98.7989 72.0389 98.4022 71.6394 98.405 71.3234C98.4117 70.5343 103.675 65.0475 103.631 64.0103C103.603 63.3214 102.309 60.852 101.891 60.2389C101.778 60.073 101.626 59.9384 101.477 59.806C100.606 59.604 97.9582 59.5639 97.4614 59.185C96.9262 58.776 96.7626 56.9916 96.6931 56.3105C96.7715 56.1492 96.8488 55.9872 96.924 55.8248C97.3045 54.9898 96.702 53.8616 96.4043 53.0207C95.9108 51.6044 95.399 50.1943 94.8699 48.7909C95.2454 47.7087 96.2713 46.6958 96.6174 45.5916C96.9412 44.5576 95.2159 44.7262 94.5756 44.6414C94.3475 44.0179 94.2434 42.2734 94.4181 41.6418C94.4854 41.3882 94.6301 41.1617 94.8309 40.9933C95.1063 40.7588 95.5837 40.6078 95.7573 40.2776C96.006 39.8059 95.878 39.4189 95.764 38.9485C95.9659 38.5649 96.2652 38.1801 96.3926 37.7557C96.8155 35.8888 97.6978 33.7006 97.931 31.8154C98.1924 29.6961 97.0502 26.4114 96.9512 24.199C96.9412 23.9676 96.7203 23.2452 96.5707 23.1515C95.3155 22.3685 93.2353 23.1028 91.816 22.7449C91.4884 22.6537 91.1061 21.1939 90.8179 20.9351C89.96 20.1041 88.276 20.2597 87.274 19.7422C86.7193 19.4558 86.9056 18.4762 86.3749 17.9119C85.9654 17.4941 85.2516 17.0084 84.7025 16.7849C83.4095 16.2589 81.7671 16.799 80.3929 16.4624C79.5528 16.2566 79.2769 15.633 78.5976 15.3742C77.6484 14.9746 75.9137 15.0288 75.0697 14.5374C74.7031 14.324 73.9492 13.0471 73.4207 12.5698C72.1633 12.5547 70.7112 12.8515 69.445 12.9574C68.6538 13.0236 67.8543 13.456 67.1044 13.7335C66.6621 13.5988 64.2525 13.2265 63.8285 13.392C63.0736 13.6865 60.6701 15.4872 60.0676 16.1541C59.9391 16.2965 59.3966 17.7437 59.1151 18.2237C57.8093 18.6607 55.1769 18.7827 54.0965 19.512C53.7481 19.7472 54.0731 21.7991 54.0569 22.4848L53.7178 22.8116C52.7376 22.8153 51.9695 22.8282 50.9902 22.9019C50.1987 22.9613 49.8092 22.9065 48.9788 23.0696C47.9595 23.2699 45.4069 24.3351 44.527 24.2941C43.7455 24.2577 41.2134 24.2843 40.6364 24.0797C39.287 23.4357 37.7761 22.3764 36.584 21.4706C35.77 20.852 34.6011 18.59 33.6941 18.1656C32.3439 17.5338 30.2616 17.6405 28.8194 17.0842C27.7073 15.9125 27.289 13.9866 26.9754 12.4806C26.8928 12.0836 26.7227 11.5651 26.5247 11.2044C26.3387 10.8658 25.8905 10.8493 25.6684 10.6407C24.968 9.98311 23.5413 8.74813 23.1367 7.92524C24.2177 6.83437 24.3838 6.78535 23.5143 5.43534C23.7635 5.18787 24.9322 4.59606 24.8657 4.30783C24.6491 3.36769 23.5053 2.50907 22.8973 1.76213C22.4147 1.16903 21.9074 1.15995 21.2663 1.51392C20.6522 1.88545 20.0565 2.33037 19.4631 2.73908L15.9068 5.18767C15.2727 5.63272 14.6989 6.09739 14.0064 6.45066C12.7793 7.07669 11.5938 6.50758 10.3884 6.12855C10.0955 6.03646 8.67577 5.58893 8.51292 5.42751C7.16593 4.0922 6.34769 2.15098 5.12316 0.691617C4.87539 0.39808 4.37118 0.185385 3.99603 0.208353C2.88879 0.276144 2.87666 1.32695 2.02054 2.1951C1.13785 2.23953 0.58216 1.95408 0 2.74464V0Z" fill="white"/>
<path d="M0.651594 6.6603C0.509365 6.01485 0.246302 4.16418 0 3.66406V105.383H101.161C100.659 105.137 98.7961 104.684 98.2203 104.578C97.3335 104.413 96.1701 104.54 95.1865 104.417C93.4462 104.2 91.534 103.75 89.8009 103.67C89.535 103.658 87.753 104.102 87.3346 104.191C86.4745 103.948 86.2108 103.547 85.6349 103.307C84.836 102.975 82.9633 103.285 82.0826 103.311C81.0161 103.343 80.2617 102.681 79.1745 102.391C78.1414 102.074 76.879 102.041 75.9326 101.518C75.3969 101.223 75.2556 100.249 75.097 99.6939L74.0777 96.1072C73.6121 94.4947 73.4786 93.6211 71.9224 92.7025C71.2615 92.3124 70.8481 92.407 70.1326 92.4215C70.1343 92.6529 70.1293 92.9351 70.1176 93.1693C70.077 93.9605 69.1156 94.5593 68.5598 95.0428C68.4012 95.1608 68.1325 95.3605 67.9539 95.4284C66.9953 95.7934 65.9867 96.1395 65.0236 96.4783C64.411 96.6942 63.6728 96.9853 63.0335 96.9613C62.4505 96.9391 62.5717 95.6031 61.9291 95.6454C61.4384 95.6771 61.1497 96.0633 60.8125 96.3704C60.4153 96.7605 60.1716 96.8005 59.6425 96.8734C57.8121 97.259 57.8071 96.199 56.3979 95.775C55.8593 95.6137 54.3926 95.7211 53.7287 95.6799C53.0808 95.6971 51.6135 94.7212 51.2509 94.2132C50.3125 92.8989 49.3777 92.639 47.9571 92.0336C47.2658 91.7393 46.315 91.4299 45.6878 90.9648C45.1889 90.5947 45.3598 89.6956 44.8882 89.2866C44.5311 88.9672 44.1537 88.7229 43.7573 88.4586C42.1663 87.3258 40.964 87.3786 39.0662 87.3497L39.0612 87.3466C38.92 87.262 38.6311 87.0887 38.5537 86.9491C37.7509 85.5018 37.0212 83.8337 36.4338 82.2868C36.1806 81.7621 35.951 80.6821 35.6262 80.2197C34.939 79.2409 34.3528 79.6048 34.3363 78.172L34.324 78.1659C34.0993 78.0532 33.8655 77.9358 33.6305 77.7965C32.9056 77.368 33.6166 75.6103 33.4162 75.0577C33.1421 74.3027 31.2554 71.194 30.7349 70.8467C30.2055 70.7867 29.0605 71.4572 28.3605 71.6408L28.2794 71.6613C27.5596 71.5061 27.4261 71.0983 26.9364 70.5385C25.8598 70.4862 25.5849 70.0444 24.99 70.026C24.8172 70.1273 24.595 70.7511 24.353 70.9636C23.9625 71.3069 22.2704 71.1639 21.7044 71.15C21.02 70.7561 20.4455 70.0333 19.8981 69.4668C19.4322 68.985 18.7202 68.5632 18.3735 67.9984C17.8626 67.1671 18.2768 64.3911 17.9207 63.8926C17.697 63.5793 17.1742 63.6361 16.8249 63.581C16.6041 63.5465 16.3896 63.4614 16.264 63.2672C16.023 62.8932 16.1861 60.1351 16.3768 59.6788C16.6598 59.0011 17.3272 58.5526 17.4851 57.8153C17.3857 57.3201 15.5614 54.3982 15.1073 53.8325C14.8905 53.5625 13.9881 53.3968 13.5038 53.0401C12.3396 52.1824 11.1832 51.0023 10.0295 50.177L9.50997 49.8042C9.20492 49.7376 8.86426 49.7162 8.55587 49.608C7.85442 49.362 8.07713 48.228 7.90054 47.7475C7.55871 46.817 6.83106 44.6491 6.213 43.9067C5.34153 42.86 4.95694 42.9119 4.39427 41.5423C4.50652 40.9365 4.81941 40.3337 4.9725 39.7805C5.08859 39.361 4.94969 38.3726 4.92076 37.875L4.94705 37.8217C5.19694 37.3039 5.77053 36.6767 6.11085 36.1403C6.50442 35.6118 6.98439 34.2954 7.51181 33.9079C8.02872 33.5282 8.7294 33.5143 9.35085 33.0055C9.14277 32.3623 8.85803 31.7284 8.62903 31.0909C8.31692 30.2218 8.33628 29.8316 8.8563 29.1005C8.50569 28.9484 7.48305 28.7453 7.31141 28.5854C6.58281 27.9066 6.42658 27.7008 5.47979 27.5442C5.00222 27.4653 4.8535 25.6685 4.71469 25.1992C4.52169 24.5467 4.28403 24.5945 3.6777 24.3277C3.19191 24.0932 3.0655 22.7553 2.95022 22.1863L2.00648 17.5135C1.87558 16.8473 1.64249 15.5484 1.45082 14.8882C1.16329 13.8979 -0.298287 13.2741 0.517954 12.0538C0.858764 11.5443 1.15495 11.0943 1.43552 10.6339C1.19628 9.32529 0.937054 7.95582 0.651594 6.6603Z" fill="white"/>
</svg>
