<svg width="257" height="186" viewBox="0 0 257 186" fill="none" xmlns="http://www.w3.org/2000/svg">
<path d="M74.5222 0H81.6232C83.0641 0.531583 85.2133 0.374265 86.7749 0.669991C91.4161 1.54895 96.2011 3.00694 100.294 5.40259L100.44 5.70215C100.276 5.78056 97.8515 5.72056 97.3314 5.75217C71.6397 7.31431 45.4826 19.3541 36.3305 45.1371C33.2837 53.7211 32.5275 62.2079 32.051 71.2235C31.92 73.3548 31.9965 75.9235 31.8087 77.9626C37.1666 79.936 39.3626 77.8517 44.2658 79.4154C44.7829 79.5802 46.349 80.6607 46.8766 81.0164C48.0079 75.4341 52.1465 73.0222 55.9424 69.3391C53.2556 69.2989 52.8137 69.4248 50.2203 70.2224C50.8447 65.0665 51.3185 63.2694 54.8227 59.4987C53.4375 59.553 51.2389 59.5318 49.9696 59.721C51.0548 57.9558 52.3998 55.5288 53.052 53.5705C55.3963 46.532 55.9345 43.0296 61.927 38.2682C60.3643 32.677 61.7525 31.9855 63.4453 26.8106C63.8573 25.551 63.8839 23.481 63.8802 22.1444C69.0971 22.8284 71.1965 23.9486 74.868 27.5527C75.471 24.8033 76.2594 24.4577 78.3841 22.67C80.0081 24.6171 80.1239 25.3816 81.3203 27.137C81.9514 25.7391 83.9415 20.8803 86.1236 22.0583C87.9348 23.036 88.7071 25.6501 89.7452 27.261C90.619 25.3156 91.0128 24.3421 92.3651 22.7033C94.3844 24.2201 95.3862 24.7777 95.9399 27.1841C96.6764 26.6467 98.6392 24.8901 99.2412 24.5324C100.413 23.8359 105.991 21.7598 107.125 22.368C107.173 23.2381 106.927 23.6191 106.977 24.5183C107.085 26.4651 107.95 27.9786 108.46 29.8169C109.365 29.0302 110.149 28.3619 111.283 27.8923C112.959 29.9628 114.679 32.634 116.202 34.8658L124.146 46.5846C125.355 48.3774 126.948 50.8662 128.257 52.5204C127.471 49.8718 124.108 43.2872 122.893 40.4658C118.351 29.9229 113.14 19.5301 108.668 8.95508C109.625 8.36327 116.107 5.3499 116.907 5.52621C118.267 7.79198 121.08 15.1314 122.211 17.8945L130.719 38.4456C132.092 41.7536 133.755 46.1425 135.235 49.2686C134.803 45.9269 133.934 42.4769 133.175 39.1776L130.721 28.267C130.429 26.9763 129.282 22.6344 129.243 21.6454C129.843 20.8997 136.565 19.8437 137.341 20.2694C137.993 22.0891 138.248 24.0304 138.622 25.9215C139.985 32.8148 141.143 39.785 142.608 46.6563C142.594 47.2659 142.842 48.4993 142.952 49.1491C143.152 47.704 143.22 46.9339 142.922 45.508L142.585 18.4119C142.466 12.1004 142.248 6.39367 142.262 0H151.332L150.735 44.879C150.731 45.4437 150.443 46.9923 150.585 47.1664C151.573 46.2156 154.839 23.1926 156.271 20.1792C156.476 19.7476 163.579 21.2468 164.349 21.2692C163.642 24.5344 157.987 48.5039 158.242 49.2141C158.621 48.9417 174.989 8.63947 176.461 5.38355C178.613 6.03793 182.999 7.97217 184.996 9.03961C183.593 11.5636 181.808 15.7961 180.563 18.5113C177.829 24.35 175.162 30.2199 172.561 36.1195C170.244 41.2985 167.758 46.4014 165.468 51.593C165.217 52.162 164.965 52.7282 164.753 53.3131C168.624 47.7099 172.456 42.0808 176.25 36.4264C177.893 34.0024 180.366 30.1389 182.126 27.9071C184.217 29.1284 187.096 31.1079 189.023 32.6272C186.97 35.9388 183.42 40.5129 181.052 43.6826L171.02 57.3148C172.226 56.457 174.474 54.2258 175.658 53.0916L184.396 44.5779C185.925 43.089 188.176 40.8194 189.84 39.5249C187.131 25.9631 199.981 12.5855 213.554 18.4171C218.761 20.6542 222.305 25.2776 226.134 29.2443C228.468 31.6754 230.825 34.8848 234.707 34.3044C239.271 33.6219 240.772 27.5017 236.877 24.9631C234.133 23.1745 229.861 23.4329 226.664 23.5993C227.929 20.5435 228.863 18.1795 232.257 16.7765C234.469 15.8797 236.944 15.8837 239.153 16.7877C240.195 17.2249 241.004 17.8099 241.893 18.4768C245.958 12.7573 253.909 14.575 257 20.4242C254.183 20.7575 249.947 21.6179 248.133 23.924C246.464 26.1428 246.691 29.3579 246.08 31.9932C243.858 41.5922 232.664 44.5548 225.151 38.7684C218.635 33.7496 215.174 25.2127 206.359 24.4098C207.958 25.8386 210.87 28.8212 212.193 30.5776C207.83 34.3668 203.533 38.477 199.187 42.1909C202.246 46.3418 213.86 53.1409 218.733 54.9932C221.795 54.1469 225.121 52.493 227.949 51.9102C228.385 53.1928 230.857 59.6833 230.638 60.4354C229.916 61.013 229.41 60.5479 229.006 61.0722C229.264 61.5216 232.245 64.0814 232.945 64.8003C238.346 70.3394 239.551 77.7206 237.7 85.0645C236.578 89.5167 233.256 93.3113 229.29 95.5426C225.251 97.8145 220.846 98.8143 216.232 99.0381C214.863 99.1045 213.852 99.2763 212.455 99.0349C217.462 104.339 217.895 108.873 218.187 115.964C218.292 118.469 218.675 121.202 219.838 123.462C220.567 124.879 221.542 126.154 222.722 127.225C224.489 128.84 227.036 130.069 228.596 131.574C228.451 131.435 231.299 139.423 231.306 139.565C231.461 142.978 231.02 146.002 231.945 149.386C230.685 148.94 229.116 148.432 227.944 147.851C229.832 150.135 230.144 152.081 230.091 155.052C228.856 154.623 227.579 154.157 226.343 153.753C228.38 156.484 228.424 158.221 228.39 161.517C227.041 160.801 225.165 160.182 224.228 159.647C223.711 160.462 223.346 161.326 222.994 162.222C221.542 165.924 219.714 169.36 216.603 171.936C223.275 171.576 231.025 172.059 237.865 171.843C237.88 174.111 238.233 184.193 237.538 185.751H19.2502C18.9307 184.757 19.0587 173.857 19.0182 171.885L35.7196 171.877C34.8259 169.895 35.0384 168.194 36.1426 166.305C41.739 156.734 54.1137 156.474 63.5452 159.389C64.4801 157.938 65.5125 156.335 66.2484 154.787C69.0209 148.954 69.6851 145.044 75.0169 140.999C71.9875 138.446 70.4258 134.87 67.3486 132.305C62.2978 128.094 56.2002 125.571 51.2833 121.166C49.2902 119.38 47.7361 117.572 46.047 115.52C41.6201 116.784 35.9365 118.445 31.3435 117.161C28.0707 116.246 27.96 115.453 24.3006 115.597C21.4064 115.711 18.0045 115.254 15.8587 113.093C15.3047 111.058 15.492 110.339 15.9766 108.378C15.7214 107.725 15.2667 106.845 14.955 106.194C15.1261 105.415 15.7696 103.714 16.0609 102.885C14.711 100.544 14.8697 100.215 15.9878 97.8362C13.6996 95.0025 14.3869 92.7247 17.042 90.558C17.0407 89.3802 17.0956 88.1107 17.125 86.9257C15.6081 86.4876 14.0391 86.2564 12.4603 86.2381C5.11132 86.0909 6.41038 87.2054 0 82.4379C1.14906 81.7079 3.69004 79.7405 4.86399 79.2628C6.99385 78.3963 11.1272 79.0554 13.5915 78.7813C15.156 78.6073 15.5019 78.5439 17.0981 78.1379C16.3407 66.7245 18.1621 49.7871 22.3346 39.2559C28.8594 22.7868 42.6695 8.19214 59.8772 2.91957C62.8838 2.01859 65.9356 1.27563 69.02 0.693739C70.4791 0.427979 73.4547 0.5378 74.5222 0ZM108.316 138.307C107.41 140.223 107.285 141.584 107.071 143.658C107.067 143.699 106.569 144.055 106.487 144.033C105.108 144.623 102.111 142.905 101.401 143.011C100.958 144.874 100.732 145.964 99.9028 147.738C98.531 150.67 97.2375 152.009 96.5943 155.208C95.7597 154.428 94.6 153.11 93.8725 152.496C93.8105 155.858 93.492 156.305 91.8105 159.216C91.1387 158.497 90.2935 157.536 89.5694 156.903C89.049 159.05 88.5151 161.959 87.109 163.629C85.9207 163.991 85.2167 161.576 84.1168 161.067C83.5528 161.33 82.9739 162.521 82.6128 163.074C80.3868 166.485 77.9445 169.22 74.9824 172.023C77.0066 171.72 82.5691 171.88 84.8553 171.882L114.417 171.877C116.497 171.867 123.638 172.048 125.298 171.843C125.623 171.206 124.402 169.107 126.4 165.954C128.836 162.073 132.734 159.338 137.213 158.368C139.426 157.868 141.699 157.678 143.964 157.804C146.879 157.974 149.993 158.406 152.803 159.12C153.204 159.222 153.378 159.075 153.655 158.857C154.962 156.228 153.145 150.364 153.025 147.543C152.97 146.253 153.767 143.551 154.151 142.206C149.649 140.701 147.016 139.887 143.238 136.508C142.383 135.744 140.728 133.309 140.023 133.268C131.859 135.599 122.965 136.985 114.519 137.819C112.797 137.989 109.908 138.353 108.316 138.307ZM166.947 120.409C168.27 122.776 168.745 124.531 170.659 126.634C172.64 128.806 175.47 129.664 177.258 131.593C176.747 131.04 179.824 138.776 179.779 138.503C180.435 142.395 179.111 145.595 180.825 149.406C180.196 149.225 177.84 148.433 177.401 148.522C177.644 149.352 178 150.037 178.261 150.841C178.68 152.14 178.663 153.689 178.695 155.062C177.605 154.668 176.289 154.153 175.201 153.818C177.018 157.012 177.026 157.909 176.903 161.587C175.302 160.562 174.28 160.316 172.537 159.626C171.307 164.364 168.777 168.663 165.23 172.037C167.537 171.665 175.875 172.22 176.701 171.678C176.688 171.303 176.688 171.246 176.587 170.886C176.538 167.237 177.277 166.102 179.725 163.466C185.972 156.737 195.87 157.398 204.085 159.118C204.517 159.208 204.737 159.052 205.087 158.838C206.973 155.871 202.599 148.51 205.757 142.175C196.565 139.532 191.075 135.004 185.969 126.636C183.741 122.986 182.942 118.242 178.125 116.85C177.559 116.687 176.005 116.521 175.458 116.67C171.955 116.93 169.795 118.485 166.947 120.409ZM184.7 67.7737C191.636 65.0961 198.776 62.7313 205.696 59.9747C206.896 59.4963 208.242 58.9877 209.469 58.5969C208.316 57.9869 204.566 55.8367 203.645 55.6634C198.993 58.2188 194.173 61.2551 189.529 63.9261C187.37 65.1678 182.671 67.7205 180.933 68.9922L180.975 69.097C182.148 68.8283 183.556 68.2253 184.7 67.7737ZM176.144 63.1382C176.942 62.6226 177.729 62.0926 178.507 61.5485L189.691 54.5479C191.344 53.5166 195.016 51.3702 196.352 50.1938C195.169 49.3532 193.947 47.7589 193.399 47.4225C189.701 50.7948 185.975 54.1368 182.223 57.4484C180.596 58.8974 177.457 61.5489 176.144 63.1382ZM52.6218 82.8079C50.6524 83.2745 49.8295 83.4367 47.8193 83.316C46.7679 83.9164 44.3382 85.7939 43.626 85.965C39.7304 86.901 36.3252 85.5918 32.1656 86.8615L31.9546 89.3154C33.6377 89.6937 35.2016 90.0838 36.8244 90.6823C39.4861 91.7963 41.493 92.6603 44.3084 93.3912C46.1841 93.8781 48.1515 94.1793 49.9506 94.6494C50.5149 92.5873 51.6722 90.9148 52.2499 88.9249C52.4981 88.0702 52.2607 86.242 52.3813 85.2432C52.4801 84.425 53.0422 83.5006 52.8264 82.8655L52.6218 82.8079ZM121.806 56.5642C121.403 55.6063 116.004 48.4194 115.331 48.2111C115.554 48.8157 115.876 49.4723 116.046 50.0912C116.539 51.8918 120.085 55.823 121.806 56.5642ZM204.197 25.0474C201.335 26.1593 199.197 28.0028 197.948 30.8707C197.873 31.0428 197.804 31.2174 197.74 31.3939L197.879 31.5568L198.064 31.5191C199.081 30.4625 203.859 25.9459 204.411 25.2049L204.197 25.0474ZM219.695 64.1906L195.633 72.1903C192.093 73.3703 186.231 75.1159 183.13 76.6162C185.718 76.2725 188.27 75.7834 190.848 75.3962L213.421 71.9571C214.684 71.7599 216.03 71.4342 217.232 71.2577C217.673 73.2781 218.433 78.9408 218.85 80.0947C216.778 80.0169 215.341 80.5229 213.465 80.5123C210.741 80.7226 207.783 81.158 205.057 81.5166C201.798 81.9455 197.021 82.285 193.873 82.993C199.887 84.512 205.299 87.3987 211.218 89.0881C218.06 91.0407 228.331 90.3083 230.389 81.969C231.209 78.6738 230.694 75.1879 228.957 72.2697C227.162 69.3147 224.245 66.9212 221.374 65.0685C221.007 64.8318 220.087 64.2286 219.695 64.1906Z" fill="#685450"/>
<path d="M247.519 16.5035C250.329 16.3611 252.134 17.5874 254.367 19.0926C239.379 22.8128 249.484 29.9427 240.567 37.7936C238.783 39.3639 236.414 39.9588 234.066 40.1102C222.796 40.5526 218.876 24.6599 208.392 23.08C202.025 22.1207 196.049 27.5678 195.399 33.7945C194.499 42.436 200.704 46.7037 207.197 50.6928C219.461 58.228 239.246 63.738 236.677 81.8973C236.095 86.0755 234.321 89.7751 230.948 92.4511C225.732 96.4883 217.649 98.2573 211.183 96.8173C206.067 95.3373 203.987 93.7398 197.977 93.0153C200.02 94.279 203.831 95.6652 206.247 96.7912C211.646 99.0222 215.819 104.941 216.148 110.879C216.712 120.969 216.862 127.078 226.997 131.986C227.218 132.893 227.403 133.717 227.702 134.59C228.151 135.902 229.398 138.317 229.516 139.593C229.752 142.168 229.321 144.238 229.782 146.908C227.976 146.105 225.241 145.176 223.346 144.505C226.21 147.71 227.128 148.809 228.584 152.789C226.321 151.955 223.917 151.19 221.62 150.456C224.519 153.495 225.671 154.944 226.834 158.974C225.486 158.447 224.394 157.993 223.09 157.372C221.256 162.35 219.051 169.12 213.793 171.637C210.657 173.138 206.324 170.71 203.657 171.154C198.451 172.024 192.913 176.183 187.342 174.053C185.409 173.347 185.146 170.571 186.039 169.055C188.402 165.049 194.558 164.857 198.369 163.672C193.665 163.313 185.839 163.967 183.728 169.043C183.193 170.332 183.273 171.398 183.356 172.743C181.806 172.871 181.313 172.83 179.841 172.522C178.12 171.063 177.588 169.474 178.779 167.424C183.351 159.561 192.844 158.579 201.006 160.152C202.782 160.495 204.031 160.516 205.663 161.36C209.815 154.118 203.115 149.441 208.323 140.806C199.508 139.904 192.26 133.78 187.786 126.413C185.065 121.906 183.77 116.206 177.772 115.023C175.855 114.644 174.832 114.911 173.017 115.381C169.255 116.357 166.836 118.775 163.687 120.822C155.433 120.894 146.101 114.664 139.895 109.704C140.134 110.078 140.384 110.445 140.646 110.804C144.646 116.206 154.502 121.678 161.299 122.657C159.867 123.543 158.611 124.326 157.103 125.094C150.658 124.404 144.206 120.938 138.904 117.233C137.692 116.386 136.225 114.768 135.102 113.685C135.195 113.879 135.293 114.071 135.395 114.261C138.54 120.096 147.872 124.891 154.064 126.738C152.196 127.445 150.513 128.493 148.475 128.259C141.201 127.423 135.215 123.352 130.46 118.117C133.321 124.133 139.995 127.503 145.797 130.059C143.727 130.337 141.566 131.7 139.387 131.227C134.363 130.136 128.213 126.145 125.208 122.072L125.07 122.225C125.052 122.697 125.242 123.076 125.471 123.482C127.511 127.089 132.837 131.152 136.755 132.277L134.302 133.038C131.117 133.894 130.057 133.514 127.146 132.103C123.318 130.247 121.386 127.751 118.886 124.448C120.414 129.025 123.311 132.148 127.576 134.329C125.797 134.602 124.025 134.914 122.26 135.267C117.336 132.907 116.359 131.024 113.31 126.796C114.277 130.74 115.694 132.833 118.382 135.713C116.556 135.865 115.372 136.34 113.331 136.298C109.863 133.905 109.128 132.405 107.064 128.836C107.694 131.567 108.398 134.195 109.928 136.55C109.072 136.475 108.193 136.586 107.335 136.663C105.978 138.88 105.898 140.139 105.473 142.613C102.92 142.025 101.639 140.795 99.7814 139.047C100.277 144.476 98.3756 147.301 95.7797 151.96C94.3463 150.121 92.9226 149.041 91.5341 146.846C92.1984 152.164 92.9803 151.143 91.5812 156.568C89.8979 154.899 88.3937 153.206 86.8104 151.444C87.8435 155.176 88.0345 157.708 86.5212 161.346C85.7262 160.089 84.694 158.814 83.736 157.681C82.9026 160.406 79.7184 164.34 77.9141 166.638C74.7434 170.677 71.5249 173.268 66.1813 171.661C62.3204 170.502 59.8227 171.699 56.2704 173.052C51.701 174.676 49.3321 175.492 44.7055 173.289C44.6085 171.789 44.3986 170.273 45.2079 168.93C47.2943 165.468 53.6217 164.81 57.3533 163.77C52.5902 163.587 43.2631 164.105 42.3313 170.478C42.2696 170.9 42.4158 172.002 42.4716 172.468C41.7793 173.135 39.2828 172.707 38.3769 172.48C33.1402 168.011 42.6725 161.264 46.7197 160.173C50.9859 159.022 60.4945 159.378 64.2277 161.339C65.6362 159.247 67.0574 156.998 68.1028 154.705C71.2703 147.755 71.4865 144.969 78.1828 141.003C76.9907 140.356 75.8929 139.55 74.9199 138.606C71.9552 135.68 71.241 132.314 71.2102 128.316L72.6012 130.064C75.4248 128.989 76.8058 127.945 78.6759 125.656C79.4832 128.121 80.9206 130.023 82.8779 131.684C85.5787 130.251 86.8158 128.625 88.3252 126.03C89.9918 128.687 91.0413 129.774 93.8348 131.261C95.6647 129.485 97.0903 127.862 97.943 125.428C98.853 126.443 103.289 130.024 104.713 128.641C105.987 127.403 107.244 124.419 107.29 122.621L107.476 122.449C110.539 124.596 110.654 124.76 114.485 125.243C115.755 122.987 115.835 120.567 115.835 118.041C117.714 119.346 120.576 120.087 122.868 120.187C123.989 116.78 123.986 115.454 123.263 111.977C125.336 112.736 127.645 112.529 129.782 112.335C130.104 107.49 129.309 103.833 126.773 99.5652C127.906 99.7459 128.801 99.7492 129.941 99.7752C130.688 96.2858 130.992 95.8343 130.099 92.3352C133.749 92.9951 136.325 92.4042 139.43 90.5546C138.736 88.8125 137.961 87.5476 136.952 85.9833C141.522 86.9942 152.453 87.1969 157.102 86.4154C166.783 84.7884 174.368 82.8759 184.344 83.1785C195.759 83.5248 203.575 89.288 214.383 91.4618C218.426 92.2644 224.593 91.1243 227.997 88.7255C230.398 87.0334 231.868 83.4079 232.418 80.5092C233.783 61.4083 204.657 59.0967 194.816 46.3198C191.933 42.6527 190.67 37.9701 191.314 33.3508C191.91 28.7801 194.523 24.5167 198.165 21.7264C199.927 20.3772 201.889 19.5105 204.026 18.9435C206.339 18.3294 208.449 18.4588 210.722 19.1293C220.42 21.9901 226.203 35.2376 233.032 36.0542C234.912 36.2791 236.673 35.7515 238.141 34.5601C239.591 33.4064 240.503 31.7082 240.666 29.8625C241.267 22.6811 234.301 21.9573 229.057 21.6194C232.888 16.6474 238.556 15.924 241.972 21.7069C243.526 18.796 244.3 17.5787 247.519 16.5035Z" fill="#685450"/>
<path d="M189.385 115.203C190.976 115.727 194.217 123.446 195.29 125.231C196.184 126.731 197.284 128.097 198.56 129.29C199.904 130.536 201.457 131.395 202.924 132.318C204.711 133.443 212.302 136.81 212.915 138.628C210.445 138.593 204.297 136.074 202.066 134.797C196.426 131.57 192.662 127.045 190.766 120.81C190.191 118.919 189.901 117.086 189.385 115.203Z" fill="#685450"/>
<path d="M80.3342 149.711L80.4929 149.818C82.172 153.145 73.5062 162.022 71.0724 163.935L70.8789 163.855C70.8801 163.815 70.8811 163.775 70.8823 163.734C72.4691 159.755 77.5865 152.276 80.3342 149.711Z" fill="#685450"/>
<path d="M213.294 144.148C214.795 145.166 214.344 149.15 214.22 150.801C213.998 153.711 212.556 156.54 211.378 159.163C211.309 159.282 211.243 159.295 211.109 159.385C210.382 158.409 211.53 151.638 211.639 150.276C211.799 148.311 212.266 145.855 213.294 144.148Z" fill="#685450"/>
<path d="M177.548 107.721C179.298 107.57 181.675 107.734 183.159 108.69C185.015 109.887 185.279 111.248 185.754 113.192C184.61 112.062 184.169 111.671 182.855 110.787C180.508 109.407 177.44 109.278 174.859 110.015C174.425 110.139 174.097 110.227 173.645 110.14L173.675 109.872C174.723 108.597 176.005 108.111 177.548 107.721Z" fill="#685450"/>
<path d="M85.5767 23.5781C87.4637 25.7018 88.0199 28.1751 88.4049 30.9681C90.6812 28.7226 91.2452 27.72 92.8161 24.9184C93.6241 26.0408 94.1432 26.7061 94.5646 28.056C94.1233 29.9699 93.7856 31.0755 93.7318 33.0656C97.9398 27.4409 98.4466 26.0745 105.196 24.1224C105.378 30.7226 110.097 30.3643 106.645 38.8787C112.879 42.0501 113.36 48.5823 115.815 54.47C116.212 55.422 116.901 57.0609 117.486 57.881C114.973 57.881 111.645 57.6469 109.186 57.0377C114.252 60.3987 116.75 62.0536 118.166 68.0599C116.007 67.7293 113.991 67.3876 111.876 66.7871C112.472 68.0577 113.972 71.06 115.073 71.9681C116.882 73.46 124.87 79.1954 123.974 82.1272C123.416 82.6577 122.049 82.446 121.251 82.4676C116.78 82.5887 114.602 79.0192 111.487 77.2921C114.298 80.4745 116.642 82.6866 116.331 87.3932C116.301 87.8375 116.284 88.0418 116.056 88.4447C115.297 88.9295 114.868 88.6549 113.978 88.4895C109.458 87.6499 108.274 84.4257 105.574 81.6122C107.51 85.2511 109.58 88.7515 108.238 93.0818C108.094 93.5295 107.928 93.97 107.741 94.4016C102.546 92.5185 101.646 90.4421 99.5446 85.8513L99.3985 85.853C99.4473 86.739 99.6329 87.5788 99.8151 88.4449C100.559 91.9796 100.245 95.0024 98.331 98.1247C94.2873 95.6085 93.4325 93.2204 92.4509 88.8755C92.3733 89.2764 92.2123 90.8728 92.1462 90.9746C91.7042 95.2901 91.4755 96.8801 88.4465 100.116C85.0111 96.2801 84.6991 93.8585 84.4834 88.82C83.1463 93.5519 83.7342 96.5458 78.6727 99.4796C75.6357 95.7087 76.7717 91.3905 77.2104 86.9263C75.787 91.4122 74.5589 94.7421 69.7462 96.6309C69.6701 96.4994 69.5968 96.3661 69.5263 96.2313C67.851 93.0182 68.9613 89.6656 69.9489 86.4851L69.3934 86.4848C67.3772 89.8195 65.5932 92.0395 61.5916 93.028C61.2713 92.2594 61.1168 91.8663 60.9122 91.0644C61.858 86.3986 61.9177 85.3494 64.1925 81.1836C60.8343 84.6703 59.2878 87.2889 54.1005 88.3271C53.6718 83.3361 55.976 80.723 58.7934 76.8728C55.3752 79.864 53.0575 81.8114 48.1738 81.6086C48.8416 79.946 49.7204 77.7987 50.917 76.4337C54.7658 72.043 56.5863 72.3842 59.1215 66.7556C57.1079 67.3386 54.2526 67.9896 52.1404 67.9982C53.3212 62.5752 55.8608 60.3565 60.5036 57.373L60.7898 57.1905C58.536 57.5988 55.2475 57.901 52.962 57.8642C57.0275 49.9186 55.869 43.4836 64.3727 38.7966C60.3986 32.4262 65.4532 30.318 65.5925 24.0782C71.4539 25.4908 73.7657 28.3627 77.2434 33.2454C77.0051 31.3211 76.851 29.9854 76.3575 28.0912C76.8559 26.5996 77.0181 26.1687 78.1139 24.9713C79.704 27.8016 80.2727 28.8932 82.6591 31.1263C83.0139 27.8452 82.9614 25.8793 85.5767 23.5781Z" fill="#685450"/>
<path d="M92.1442 90.9709C92.0924 90.0972 91.9458 88.5923 92.339 87.8438C92.5599 88.2797 92.5125 88.3601 92.4489 88.8718C92.3713 89.2727 92.2103 90.8691 92.1442 90.9709Z" fill="#685450"/>
<path d="M69.3945 86.49C69.6304 86.0198 69.8475 85.3984 70.2747 85.1797C70.3669 85.6853 70.1604 86.004 69.9501 86.4904L69.3945 86.49Z" fill="#151515"/>
<path d="M65.3148 43.0429C65.6126 43.426 65.3978 43.6543 65.1723 44.0598C64.6533 44.9939 64.8351 46.9115 64.8587 48.0867C66.1862 50.0814 66.9109 50.4662 69.343 51.0445C69.9347 51.1851 70.3764 51.1367 70.917 51.4422C68.2042 53.3593 66.3859 54.2988 66.2279 57.8047C65.9125 64.802 71.8535 69.3949 78.4227 69.3485C81.1925 69.329 83.5627 69.4282 83.5383 66.028C83.1309 65.4469 82.4421 65.6266 81.8992 65.2462C79.6516 63.6711 79.585 62.912 76.7104 63.6642C76.0613 58.6601 77.4585 59.6121 79.7889 56.477C80.7172 54.8056 80.8551 50.589 80.287 48.9191C78.6502 44.1076 73.0245 45.2682 69.369 46.467C73.0025 42.2363 80.2866 42.9167 82.1907 48.428C82.8018 50.1973 82.7798 56.2322 81.4848 57.6575C79.9508 59.3457 79.3914 59.2086 78.1599 61.5752C79.3567 61.4918 79.7395 61.4808 80.95 61.6201C81.6626 62.3788 82.1561 62.9019 82.9573 63.582L86.3171 63.5877C86.7023 63.1539 87.0948 62.7269 87.4947 62.3068C88.7935 60.9592 89.5959 62.2846 90.638 61.1221C90.7279 60.0337 88.41 58.3882 87.6177 57.7752C86.9124 56.0594 86.5066 54.2352 86.4178 52.3821C86.053 44.1195 94.05 40.9629 99.7003 46.3413C98.5952 46.0987 97.6187 45.7679 96.464 45.5698C88.7126 44.2401 86.9747 50.5134 89.2133 56.5682C92.3402 59.1912 92.7341 59.6351 92.4146 63.6908C88.6171 62.4545 89.3613 64.8514 85.6749 65.7617C85.0803 66.657 86.0308 68.6062 86.7962 68.8584C88.9096 69.5546 92.2337 69.5078 94.3749 68.9154C99.9015 67.3863 104.161 61.9873 102.66 56.1052C102.067 53.8206 99.8329 52.4416 97.8149 51.4069C103.632 50.5254 105.593 48.8158 103.532 42.7969C107.462 46.3413 106.992 49.683 102.245 52.0233L103.027 52.8925C105.928 56.8155 105.47 63.7351 101.822 67.0303C103.767 69.7984 106.157 73.5072 107.735 76.4853C105.807 74.9042 102.02 70.3839 100.527 68.1968C99.5758 68.9443 98.6553 69.264 97.5492 69.7318C99.0032 72.9822 100.681 76.9586 101.659 80.3696C99.0867 77.1233 97.8423 73.5114 95.7287 70.5316C95.1168 70.4716 94.1656 70.7443 93.531 70.8878C93.6519 71.5965 93.8562 72.4312 93.8301 73.1709C93.8459 73.448 92.9088 75.8173 92.9121 75.8264C94.2503 79.4373 96.1086 82.9142 96.9653 86.7014C95.3979 84.5027 92.7025 79.7036 91.4154 77.27C90.3281 78.1136 89.5557 78.3707 88.2901 78.7727C88.6954 81.9303 89.1111 86.7169 89.3807 89.9118C88.2795 87.4609 86.7771 82.1197 86.3351 79.4082L83.0014 79.4359C82.0555 81.3054 81.4641 86.2678 80.0144 89.3993C79.9791 86.1738 80.3109 82.1786 81.159 79.0656C79.9397 78.5349 78.6633 78.032 77.603 77.2414C76.8221 79.3008 73.3196 85.0492 71.963 86.7734C73.3763 82.6775 74.4898 79.73 76.3768 75.8286C75.6908 74.6024 74.9234 72.8231 75.5259 71.4281C75.6329 71.1801 75.5717 71.2018 75.5057 70.9398C74.6377 70.6994 74.2842 70.5722 73.468 70.1925C71.9236 73.128 69.4459 77.9896 67.3808 80.2821C68.7014 76.7309 70.0649 73.1958 71.4712 69.6774C70.4925 69.3811 69.5824 68.8937 68.7935 68.2432C66.2776 70.979 64.3237 73.8222 61.5488 76.5216C63.1893 73.0652 65.1387 70.2587 67.225 67.0803C65.5191 65.3119 64.3682 62.242 64.2272 59.8045C64.0366 56.5093 64.8075 54.372 66.8994 51.9266C62.3605 50.0383 61.5318 46.369 65.3148 43.0429Z" fill="#685450"/>
<path d="M84.24 69.8312C84.7947 69.6463 87.3229 70.8902 87.9301 70.9849C88.9855 71.1498 90.1403 70.7861 91.2839 71.0615C91.7624 71.4925 91.703 71.5141 91.7784 72.1765C92.1235 75.2135 87.8936 76.9079 85.4236 77.0545C81.9714 77.1226 79.1727 76.4743 77.3189 73.3226C77.2815 72.6483 77.3389 71.8092 77.3663 71.1212C80.9683 70.644 80.0481 71.5376 84.24 69.8312Z" fill="#685450"/>
<path d="M103.212 27.5938L103.347 27.7317C103.59 30.4392 104.98 32.9906 105.182 35.5432C105.228 36.1311 104.157 38.3688 103.845 39.0228C103.287 37.3569 103.016 36.4319 101.542 35.4811C100.035 34.9573 98.5631 35.6771 97.0703 36.2012C97.2322 31.001 99.1603 30.1712 103.212 27.5938Z" fill="#685450"/>
<path d="M67.0435 27.5C71.4837 29.6239 72.8531 31.4141 73.5016 36.2242C71.9599 35.6998 70.8535 35.1693 69.2366 35.3594C67.5777 36.2 67.6511 37.1005 66.7577 38.7354L66.5909 38.6849C64.5029 35.6904 65.9398 33.153 66.7853 30.1022C66.9537 29.4941 67.0089 28.1787 67.0435 27.5Z" fill="#685450"/>
<path d="M74.6917 47.4585C77.2292 47.2763 78.4156 49.0105 79.4963 50.9911L77.7668 51.4886C76.885 51.5028 75.9618 51.4754 75.0768 51.4629C73.432 50.5193 73.1848 49.934 72.5996 48.2156C73.2832 48.007 74.0171 47.7122 74.6917 47.4585Z" fill="#685450"/>
<path d="M93.1939 47.4535C94.5863 47.3825 95.2427 47.7836 96.5098 48.3422C95.8601 49.9264 95.2223 51.3531 93.3323 51.5105C91.5647 51.5445 91.298 51.4767 89.6387 51.0048C90.8265 48.892 91.0076 48.4835 93.1939 47.4535Z" fill="#685450"/>
<path d="M198.144 174.772C202.674 172.539 201.908 173.754 203.727 177.178C204.122 177.918 205.399 178.675 206.165 179.139C205.327 176.972 204.963 175.902 204.563 173.617C206.008 173.621 207.454 173.634 208.901 173.654C209.839 176.92 209.969 177.268 212.738 179.178C211.853 177.036 211.702 176.148 211.303 173.821C212.829 173.754 213.92 173.636 215.516 173.638C215.535 173.732 215.557 173.828 215.58 173.922C216.314 177.001 216.748 177.571 219.462 179.217C218.387 176.407 218.378 177.014 217.774 173.632L222.27 173.641C222.357 175.35 223.327 178.37 225.339 178.53C225.601 177.792 224.486 174.984 224.201 173.668L228.61 173.609C228.643 173.776 228.682 173.94 228.726 174.104C229.515 177.06 230.047 177.654 232.617 179.144C231.643 177.011 231.388 175.911 230.777 173.632L236.479 173.644C236.386 177.004 236.459 180.684 236.455 184.069L20.4545 184.059L20.4473 173.634C21.8567 173.631 23.2662 173.638 24.6756 173.658C24.7454 173.934 24.8168 174.21 24.8895 174.486C25.5272 176.897 26.3711 177.854 28.5 179.094C27.7223 177.267 27.26 175.603 26.9305 173.639C28.3728 173.624 29.8151 173.631 31.2572 173.656C31.3512 174.161 31.4601 174.664 31.5837 175.162C32.0863 177.194 33.3157 178.11 35.0211 179.136C34.473 177.24 33.8154 175.603 33.4448 173.624C34.6919 173.595 36.3529 173.37 37.4985 173.925C38.4225 174.374 38.2203 175.507 38.5422 176.338C38.9182 177.31 40.0341 178.264 40.977 178.651C41.1255 178.712 41.1535 178.66 41.2951 178.603C41.3885 177.479 40.4914 176.171 40.3539 174.992C40.4067 174.894 40.4327 174.775 40.5122 174.698C40.5183 174.691 42.8669 173.988 43.1489 173.88C43.6574 174.406 44.2365 174.834 44.8177 175.275C45.4251 177.366 46.6508 178.153 48.3898 179.286C48.1011 178.539 47.2151 177.364 47.2578 176.58C47.2716 176.328 47.3896 176.299 47.5674 176.143C48.6459 176.151 50.3801 175.838 51.3879 176.077C52.1163 176.249 53.0212 178.317 54.3125 178.764L54.5432 178.608C54.2933 177.635 53.9479 176.69 53.512 175.784C54.8586 175.268 56.2479 174.832 57.6123 174.361C58.2392 176.841 59.2734 177.857 61.3796 179.131C60.7012 177.339 60.1561 175.529 59.6165 173.691C61.1641 173.617 62.7071 173.629 64.2559 173.641C64.4408 174.884 64.653 176.225 65.4574 177.238C65.8807 177.772 66.6146 178.441 67.3097 178.508C67.664 178.019 66.5739 174.528 66.445 173.607C67.6975 173.678 69.6248 173.548 70.754 174.001C71.1877 174.523 71.113 175.214 71.236 175.85C71.5278 177.358 73.3782 178.441 74.5565 179.23C73.9417 177.376 73.2848 175.586 72.7932 173.688C74.2661 173.631 75.7428 173.629 77.2169 173.609C77.5526 174.883 77.8807 176.213 78.7342 177.252C79.1814 177.797 79.8814 178.527 80.5917 178.603C80.9449 177.561 79.7616 174.772 79.4616 173.638C80.9314 173.626 82.4013 173.633 83.871 173.659C84.2199 175.037 84.51 176.494 85.5109 177.568C85.9178 178.005 86.4905 178.534 87.1095 178.562C87.3898 177.935 86.3027 174.605 86.1439 173.634C87.5735 173.604 89.0039 173.614 90.433 173.666C90.4528 173.764 90.4744 173.861 90.4976 173.959C91.1262 176.56 91.9811 177.706 94.2554 179.099C93.6199 177.304 93.0505 175.497 92.6369 173.638C93.7726 173.612 95.8751 173.336 96.9094 173.789C97.1557 173.897 98.1531 177.839 99.7374 178.699C100.141 178.736 100.238 178.779 100.602 178.579C100.516 177.144 99.4816 175.044 99.0117 173.651C100.625 173.634 102.237 173.631 103.85 173.643C103.852 174.137 103.882 174.615 103.985 175.1C104.424 177.171 105.872 178.157 107.533 179.23C106.849 177.381 106.217 175.576 105.743 173.658L110.214 173.621C110.482 174.931 110.736 176.224 111.614 177.285C112.065 177.83 112.692 178.48 113.413 178.554C113.726 177.637 112.603 174.785 112.387 173.638C113.838 173.622 115.289 173.627 116.74 173.654C117.62 176.607 118.077 177.543 120.736 179.193C119.879 177.326 119.441 175.652 119.101 173.622C120.561 173.617 122.022 173.639 123.482 173.651C123.557 174.586 123.768 175.645 124.205 176.479C124.662 177.353 125.605 178.359 126.565 178.67C127.238 178.19 125.461 174.965 125.768 173.865C125.807 173.727 125.973 173.686 126.093 173.619C127.435 173.508 128.831 174.252 130.047 174.75C130.316 175.335 130.593 175.917 130.879 176.494C131.373 177.484 132.217 178.374 133.29 178.732C133.894 178.305 132.167 175.187 132.409 174.159L132.648 174.019C134.169 174.487 135.529 175.517 137.043 176.094C137.633 177.001 138.643 178.318 139.735 178.599L139.967 178.416C139.996 177.684 139.433 176.915 139.086 176.289C145.456 175.49 142.463 176.276 146.94 179.155C146.485 177.824 146.068 176.456 145.394 175.216C146.819 174.661 148.237 174.11 149.701 173.664C149.752 174.033 149.817 174.395 149.91 174.755C150.485 176.969 151.568 177.948 153.461 179.072C152.814 177.302 152.216 175.498 151.868 173.644C153.361 173.619 154.854 173.622 156.347 173.654C156.411 173.954 156.479 174.253 156.55 174.551C157.13 177.001 158.161 177.936 160.243 179.222C159.548 177.341 158.933 175.895 158.629 173.882C160.105 173.897 161.58 173.72 163.048 173.577C163.065 174.09 163.097 174.6 163.202 175.105C163.626 177.167 165.057 178.132 166.699 179.215C166.092 177.354 165.41 175.583 164.975 173.666L169.398 173.607C169.646 174.802 170.066 175.877 170.603 176.964C171.315 177.962 172.361 178.534 173.406 179.121C172.555 177.354 172.078 175.517 171.567 173.632C173.026 173.621 174.488 173.639 175.947 173.648C176.907 176.922 177.047 177.401 179.956 179.198C178.874 176.685 178.756 176.294 178.247 173.533C179.416 174.06 180.36 174.44 181.637 174.526C181.782 174.536 182.731 174.637 182.771 174.775C183.457 177.137 184.477 177.889 186.461 179.124C185.783 177.405 185.404 176.091 184.916 174.3C186.822 175.704 187.573 175.924 189.836 176.109C190.66 177.79 191.394 178.196 193.006 179.05L191.835 176.062C193.738 175.963 194.332 175.832 196.226 175.441C196.586 176.582 197.877 178.559 199.11 178.702C199.45 178.029 198.464 175.874 198.144 174.772Z" fill="#685450"/>
<path d="M142.167 54.2357C143.365 54.0374 145.402 54.1415 146.676 54.1116C163.336 53.7209 178.182 64.8187 180.936 81.4336C172.312 81.3725 162.876 84.0797 154.049 85.0901C152.714 85.2232 151.373 85.2987 150.031 85.3164C146.177 85.3679 140.176 84.8352 136.249 84.2084C134.989 84.0074 132.223 81.2398 130.642 80.397C128.601 79.3084 126.024 78.6076 124.113 77.4955C122.962 76.4831 121.713 75.3718 120.619 74.3108C119.774 73.4907 115.399 70.9644 116.791 69.7104C118.06 69.4274 119.018 69.8863 120.26 70.2912C119.854 68.8964 119.79 67.6157 119.312 66.1992C120.66 64.8511 121.891 63.4439 123.363 62.2287C129.083 57.505 134.936 55.2032 142.167 54.2357Z" fill="#685450"/>
<path d="M165.69 121.648C165.707 121.657 166.892 124.006 167.062 124.392C167.449 125.272 168.385 126.269 168.741 127.029C170.51 129.181 172.879 130.441 175.204 131.882C176.129 132.454 175.774 133.759 176.311 134.584C179.146 138.932 177.538 142.463 178.434 146.895C176.471 146.079 174.003 145.24 171.975 144.491C174.544 147.455 176.069 148.913 177.03 152.793C175.125 151.966 172.324 151.114 170.331 150.532C173.377 153.758 174.109 154.826 175.537 158.99C174.287 158.504 172.842 157.994 171.711 157.302C169.921 162.294 167.494 169.475 162.214 171.791C159.536 172.966 154.364 170.666 151.592 171.287C145.69 172.607 139.75 177.334 134.17 172.601C133.903 165.611 142.072 164.933 147.317 163.733C143.991 163.549 139.707 163.882 136.626 165.219C136.459 165.285 136.294 165.358 136.134 165.44C134.193 166.441 132.634 167.635 132.319 169.981C132.195 170.901 132.296 171.546 132.001 172.459C129.5 174.053 125.397 171.102 127.085 167.989C131.516 159.818 140.196 158.43 148.646 159.966C150.734 160.346 152.44 160.424 154.445 161.33C158.472 152.83 151.676 149.742 156.967 140.817C150.138 140.239 146.508 137.397 141.938 132.751C143.347 132.5 144.803 131.954 146.107 131.374C147.338 133.725 149.004 134.782 151.237 135.964C149.63 133.609 149.21 133.664 148.087 130.842L150.331 129.998C151.333 132.224 152.664 132.81 154.739 133.852C153.359 132.017 152.988 131.451 152.225 129.297C152.833 129.022 153.583 128.764 154.22 128.529C155.306 130.306 156.293 130.82 158.111 131.576C157.184 130.302 156.523 128.9 155.82 127.491C159.402 126.101 162.516 123.799 165.69 121.648Z" fill="#685450"/>
<path d="M165.532 148.805L165.951 149.013C166.026 149.142 166.122 149.332 166.136 149.476C166.677 155.057 164.626 158.917 161.569 163.099C161.422 163.274 161.437 163.228 161.21 163.338L161.092 163.07C161.303 159.719 163.621 151.595 165.532 148.805Z" fill="#685450"/>
<path d="M125.333 79.9219C129.989 81.5501 133.724 83.9498 136.553 88.1849C136.896 88.6976 137.14 89.3644 136.981 89.9831C136.343 90.6029 134.017 90.8317 133.108 90.863C129.656 90.9816 127.62 88.7084 125.325 86.5019C128.086 91.5618 129.171 91.4221 128.756 98.019C122.92 97.841 121.698 94.8358 117.964 91.2268C120.706 95.6925 121.565 98.3126 120.401 103.568C115.225 103.125 113.457 99.9929 110.873 96.0645C112.328 100.966 113.408 104.002 111.033 108.922C110.673 108.785 110.318 108.637 109.967 108.478C106.204 106.739 104.319 102.984 102.963 99.3201C103.397 104.49 104.557 107.998 101.414 112.78C95.7406 110.06 96.1644 106.791 94.2068 102.238C94.8535 106.897 94.23 111.433 90.872 114.98C86.6425 112.402 85.5226 107.618 85.8953 103.036C83.8263 109.008 85.1528 110.861 79.6437 115.615C76.7255 111.576 75.8316 107.887 76.6272 102.914C75.3963 105.575 75.223 106.662 73.5172 109.299C71.9833 111.253 71.2504 112.054 68.9519 113.014C68.738 112.75 68.5331 112.478 68.3371 112.2C65.891 108.67 67.3597 104.332 68.0209 100.525C66.5798 102.518 62.62 109.323 59.4473 108.452C56.7014 106.571 59.1927 98.8572 59.8898 96.3536C57.175 100.602 56.4515 101.852 51.28 102.734C50.2386 97.3695 51.5022 94.6635 53.7477 89.834C55.2542 89.902 56.3578 89.7531 57.7493 89.1034C58.6149 88.6995 58.6156 88.0226 59.5708 87.9792C59.9352 88.2798 59.1476 91.4889 59.6249 92.8602C61.0817 97.0451 65.7196 92.3204 66.793 92.7737C66.7579 94.2871 68.1887 97.2105 68.8822 98.6423C71.4884 98.0127 73.0121 96.9418 74.9528 95.1787C75.5878 97.9372 76.342 99.4839 78.3919 101.486C80.2174 100.639 82.6241 99.0684 83.5562 97.1575C83.7204 96.8208 83.5782 96.8937 83.9151 96.5929C84.4355 96.8595 85.1539 98.8747 85.6851 99.5272C86.5144 100.546 87.4349 101.246 88.4421 102.065C90.9815 100.431 92.1731 98.4342 93.0869 95.6528C95.2937 98.371 95.9404 98.3826 98.6671 100.123C100.419 98.1926 101.511 95.7686 101.949 93.2027C102.22 93.0103 103.274 94.1024 103.787 94.4148C105.698 95.5793 106.492 95.9453 108.673 95.9582C110.178 93.0387 110.355 92.118 110.297 88.8808C111.583 89.5956 114.52 90.701 115.954 90.4885C118.606 90.0951 117.977 85.4579 117.679 83.6243C121.762 84.2355 121.602 84.6557 125.934 83.343C125.793 82.0133 125.741 81.1934 125.333 79.9219Z" fill="#685450"/>
<path d="M74.0868 1.75509C74.6831 1.65936 76.5171 1.68236 77.2323 1.66661C82.5027 1.55059 89.5306 2.4032 94.3386 4.5043C77.9514 4.95288 58.2162 13.2175 46.8787 25.0344C33.0842 39.4122 29.9474 58.4241 30.4872 77.5637C29.5902 77.3628 26.0907 76.6164 25.5752 76.0489C25.3521 74.9274 25.477 73.5526 25.4796 72.3945C25.5357 48.1375 32.3837 27.8844 53.3401 13.8589C56.3648 11.8809 59.0883 10.5627 62.1925 8.83249C56.2319 10.0908 48.294 15.0642 43.869 19.0651C33.6587 28.2963 27.5833 40.7551 25.2821 54.2178C24.0305 61.5405 23.7194 68.7772 23.4478 76.1945C21.7841 76.7586 20.4968 77.1326 18.7921 77.5639C18.4879 56.9941 20.2655 40.1505 33.4335 23.386C41.054 13.7161 51.5916 6.76372 63.4798 3.56256C66.8479 2.68203 70.6131 2.172 74.0868 1.75509Z" fill="#685450"/>
<path d="M122.682 97.9922C126.878 100.275 128.169 106.294 128.134 110.74C123.14 110.806 122.787 110.178 119.194 106.85C120.613 109.333 123.547 115.753 121.503 118.373C121.23 118.464 121.062 118.468 120.792 118.391C116.084 117.054 114.858 115.284 112.506 111.447C114.118 116.077 114.906 118.725 113.495 123.485C108.437 122.323 106.707 119.587 104.965 115.028C105.233 119.576 107.177 122.938 103.708 127.253C98.507 125.359 97.9613 122.286 96.8958 117.436C96.7873 122.487 97.4537 125.257 93.5302 129.268C89.1827 126.211 88.5387 122.944 88.4825 118.024C87.1482 122.939 88.2649 125.8 82.9998 129.695C79.6309 125.723 79.4883 123.331 79.8181 118.388C79.3157 119.778 78.8786 121.289 78.37 122.724C77.2738 125.21 75.539 126.86 73.1425 128.077C70.3736 124.161 70.609 120.805 71.3338 116.279C70.626 117.935 69.9239 119.424 68.697 120.75C67.9284 121.618 65.2601 124.198 64.1651 122.789C63.2945 121.669 62.9316 117.718 63.0575 116.267C63.2789 113.71 63.3657 110.904 64.0892 108.463C64.191 108.12 65.1677 107.236 65.4817 106.944C65.4685 110.751 65.9581 111.887 68.2376 114.917L68.4737 114.858C71.4807 114.085 73.4605 112.504 75.0312 109.843C76.025 113.462 76.8685 114.83 79.3564 117.615C82.8179 115.045 83.1091 115.251 85.3777 111.065C86.4996 113.574 88.6443 115.691 91.0281 117.018C93.5215 114.948 94.555 112.904 95.5915 109.911C97.1487 112.528 99.0807 113.446 101.705 114.609C104.218 112.466 104.649 110.103 105.345 107.031C105.47 107.183 105.601 107.33 105.737 107.472C111.375 113.334 114.147 109.388 114.157 102.861C120.437 107.529 123.144 105.268 122.682 97.9922Z" fill="#685450"/>
<path d="M23.5616 90.5875C24.1119 90.4852 25.9674 90.5059 26.5652 90.5008C32.3876 90.4527 36.756 92.5106 42.0514 94.4178C43.8727 95.0738 47.435 95.8893 49.4247 96.3077C49.0549 99.4606 49.0337 101.361 50.1549 104.342C52.7021 104.36 54.0543 104.024 56.3678 103.013C56.4812 105.421 57.0331 111.577 60.6386 110.177C61.0818 110.005 61.5544 109.828 61.994 109.646C61.4681 113.61 61.1067 117.822 61.9314 121.771C63.0133 126.953 66.5993 124.462 69.5169 122.661C69.5541 123.515 69.704 124.342 69.6916 125.201C69.6534 127.841 69.3805 129.845 69.8598 132.471C67.772 130.329 65.2867 128.58 62.7466 127.017C56.8292 123.378 50.4924 119.641 46.7996 113.465C41.29 115.554 35.0845 116.677 29.3488 114.92C29.7708 114.694 30.1885 114.46 30.6021 114.218C33.7923 112.334 34.2815 111.203 32.3296 108.087L32.4457 107.999C32.7369 107.775 33.2168 107.492 33.423 107.201C34.406 105.811 34.3387 103.807 32.8276 102.812C32.6186 102.674 32.6871 102.705 32.6215 102.478C33.6946 101.5 34.2239 100.988 34.017 99.4009C33.893 98.4392 33.3736 97.5727 32.5838 97.0097C29.384 94.6981 20.5465 99.499 17.042 96.1479C13.3692 92.6361 21.0714 90.8998 23.5616 90.5875Z" fill="#685450"/>
<path d="M115.803 7.57031L116.216 7.64455C117.23 10.7018 119.661 15.8615 120.926 19.0727C125.536 30.7779 130.697 42.346 135.317 54.0542C134.352 54.2621 132.146 55.2114 131.371 55.0455L131.171 54.6178C129.384 50.4039 127.223 45.9134 125.303 41.7396L118.232 26.117C115.752 20.7137 113.078 15.1049 110.746 9.65537L115.803 7.57031Z" fill="#685450"/>
<path d="M177.402 7.46875C179.365 8.24757 180.901 8.96388 182.799 9.87781C182.019 11.2451 180.866 13.8957 180.158 15.4179C178.396 19.2248 176.656 23.0413 174.937 26.8673L162.333 54.4729L162.073 55.0222C161.335 55.4804 159.583 54.3469 158.252 54.1382L158.074 54.112C158.974 52.2923 159.77 50.0909 160.537 48.1851L164.054 39.6833L177.402 7.46875Z" fill="#685450"/>
<path d="M143.781 1.6875L149.668 1.6896C149.668 14.1131 148.771 26.4713 148.982 38.9051C149.053 43.0494 148.763 47.5303 148.627 51.6932C148.609 52.1209 148.676 51.9952 148.439 52.278C147.73 52.4069 145.527 52.345 144.628 52.3552L144.286 29.0894C144.189 19.694 144.208 11.1615 143.781 1.6875Z" fill="#685450"/>
<path d="M24.4176 77.7908C24.9502 77.6269 31.0538 79.6194 31.9253 79.8639C35.353 80.8253 39.4173 80.4373 42.9459 80.4346C43.9625 81.0652 44.9669 81.7151 45.9588 82.3839C45.0874 83.1233 44.0622 83.8292 43.1483 84.5601C41.104 84.5332 36.3892 84.3705 34.4902 84.6476C31.8695 85.0302 27.4813 86.4947 24.7811 87.305C24.0259 87.4867 16.6636 84.8781 15.2114 84.7063C12.152 84.3446 8.94409 84.5515 5.84422 84.4868C4.79882 83.8267 3.89209 83.1497 2.89844 82.4154C3.9125 81.7498 4.93088 81.0911 5.9535 80.4388C8.11917 80.4351 10.2863 80.4437 12.4514 80.4403C16.4519 80.4344 20.5242 78.8289 24.4176 77.7908Z" fill="#685450"/>
<path d="M211.367 59.5703C212.891 60.2127 216.335 62.2065 217.897 63.0501L184.69 74.0984C183.558 74.4316 182.284 74.9336 181.164 75.3485C180.768 74.0898 180.097 72.6481 179.424 71.5139C182.585 70.4373 185.905 69.0719 189.071 67.9158C196.532 65.2105 203.964 62.4286 211.367 59.5703Z" fill="#685450"/>
<path d="M215.741 73.2891C216.173 73.5936 216.449 77.1784 216.841 78.341C214.18 78.9173 211.981 79.0455 209.299 79.3606L197.714 80.6725C192.095 81.2541 189.016 82.0538 183.267 81.3884L183.051 81.4096C182.624 81.1922 182.178 79.3139 181.791 78.4738C183.25 78.4166 188.331 77.4685 190.03 77.2083L207.328 74.5385C210.01 74.1318 213.093 73.5573 215.741 73.2891Z" fill="#685450"/>
<path d="M182.536 30.0547C184.096 31.1697 185.199 31.8875 186.747 33.1149C180.98 41.3288 174.283 50.1641 168.297 58.2683C168.172 58.4785 168.219 58.3883 167.915 58.5219C166.889 58.0597 165.483 57.1165 164.49 56.49C165.021 55.849 165.598 55.0525 166.059 54.3618C171.48 46.2305 177.172 38.2161 182.536 30.0547Z" fill="#685450"/>
<path d="M157.286 21.7422C158.549 22.0577 161.163 22.5345 162.405 22.6011C161.288 26.7334 160.43 31.3222 159.481 35.514C158.214 41.1091 156.866 46.7176 155.652 52.3204C155.661 52.5716 155.56 52.7846 155.475 53.0256C154.637 53.4486 152.528 52.7348 151.57 52.4899C151.728 50.2413 152.76 46.0121 153.177 43.6033C154.427 36.3817 156.191 28.9547 157.286 21.7422Z" fill="#685450"/>
<path d="M135.925 21.7578L136.174 21.9597C136.184 22.7234 136.559 24.0455 136.719 24.87L137.867 30.9821C139.199 38.0332 140.492 45.5181 141.896 52.5195C140.866 52.7261 138.644 53.4072 137.877 52.9655C137.626 51.6731 137.342 50.387 137.043 49.1051C134.992 40.307 133.295 31.3484 131.064 22.5981C132.155 22.5698 134.786 22.0168 135.925 21.7578Z" fill="#685450"/>
<path d="M110.676 29.9219C111.171 30.3257 113.896 34.4835 114.494 35.3595C117.417 39.6052 120.313 43.8695 123.182 48.1522C124.912 50.7187 127.082 54.1042 128.968 56.4807L126.335 57.9916L125.4 58.683C123.979 56.4848 121.552 53.3625 119.968 51.1927C116.4 46.2789 112.799 41.3896 109.164 36.5253C109.7 34.1178 109.662 33.6118 109.185 31.2548C109.829 30.7879 110.114 30.4936 110.676 29.9219Z" fill="#685450"/>
<path d="M197.684 51.4609C197.775 51.4773 201.665 54.2846 202.116 54.5782C199.553 56.2232 196.447 57.9355 193.792 59.4894C188.994 62.3237 184.173 65.1226 179.333 67.8858C178.941 68.0848 178.359 68.4523 177.963 68.6863C177.201 67.5407 176.299 66.4519 175.402 65.4114C177.765 64.2808 184.439 59.8359 186.833 58.2886C189.847 56.3401 194.916 53.4579 197.684 51.4609Z" fill="#685450"/>
<path d="M190.046 41.3438C190.381 41.5394 192.062 45.1772 192.513 45.9594L178.625 58.4513C177.776 59.2142 174.118 62.6257 173.398 62.9942C172.388 62.1225 171.369 61.1599 170.381 60.255C171.109 59.8051 174.732 56.2592 175.56 55.4413C180.163 50.8946 185.641 46.0335 190.046 41.3438Z" fill="#685450"/>
<path d="M205.887 26.2344C206.597 26.7942 209.089 29.5446 209.98 30.4111C207.319 32.42 202.784 36.7438 200.128 39.1387L198.366 40.8305C197.185 38.3745 197.05 37.4415 197.082 34.7488C199.949 31.8404 202.883 29.0015 205.887 26.2344Z" fill="#685450"/>
<path d="M28.6608 97.9681C29.1543 97.8951 30.4631 97.9303 31.0187 97.9309C35.3384 101.137 28.7359 102.427 26.348 102.921C24.6039 103.282 22.6195 103.206 20.8493 103.055C19.8339 102.888 17.0635 102.249 16.9622 100.971C16.813 99.0875 17.0162 98.307 19.0839 98.7811C22.2788 99.5138 25.532 98.6381 28.6608 97.9681Z" fill="#685450"/>
<path d="M30.9309 103.312C31.7 103.61 32.5853 104.885 32.5195 105.787C32.1675 106.434 31.668 106.732 30.998 107.022C27.2292 108.657 22.4259 109.355 18.5307 107.896C18.1553 107.714 17.4523 107.393 17.2851 107.03C15.1871 102.323 19.9965 104.765 22.285 104.85C24.6949 104.94 28.877 104.557 30.9309 103.312Z" fill="#685450"/>
<path d="M30.7775 109.062C31.1687 109.323 31.4983 109.826 31.7453 110.219C32.6717 111.693 30.0395 112.661 29.0603 113.035C26.0139 114.198 21.3239 114.272 18.3825 112.919C17.3578 112.328 16.5026 110.88 17.0782 109.788C18.2046 109.014 20.1744 110.392 22.114 110.402C25.4068 110.418 27.6168 109.942 30.7775 109.062Z" fill="#685450"/>
<path d="M226.462 54.0078C227.369 54.4631 228.377 58.2084 228.796 59.454C228.215 59.5734 227.66 59.7454 227.091 59.9116L224.712 58.4692C223.459 57.6927 221.707 56.7041 220.385 56.1253C221.793 55.7637 224.912 54.5373 226.462 54.0078Z" fill="#685450"/>
<path d="M118.401 55.9609C119.288 56.4852 121.723 59.2828 123.054 60.3044C122.301 60.882 120.596 62.7208 119.878 62.9017L119.53 62.6342C118.362 61.7081 117.239 60.5687 116.164 59.5235C117.567 59.5339 119.118 59.5057 120.493 59.7061C119.74 58.6417 118.886 57.1666 118.401 55.9609Z" fill="#685450"/>
<path d="M115.33 48.2031C116.003 48.4114 121.401 55.5983 121.805 56.5562C120.084 55.815 116.538 51.8838 116.045 50.0832C115.875 49.4643 115.553 48.8077 115.33 48.2031Z" fill="#685450"/>
<path d="M18.7632 87.3906C19.7889 87.8012 21.6277 88.1738 22.951 88.6475L22.9187 88.83L22.4157 88.9503C21.1607 89.252 19.9969 89.533 18.7617 89.906L18.7632 87.3906Z" fill="#685450"/>
<path d="M30.1947 87.5391L30.4932 87.7544C30.5398 88.4658 30.6441 88.3832 30.3359 88.9086C29.6298 89.1869 28.3349 88.8711 27.4606 88.7638C27.1161 88.7273 26.7716 88.6882 26.4277 88.6467L26.504 88.4814C27.3901 88.0956 29.1782 87.76 30.1947 87.5391Z" fill="#685450"/>
<path d="M142.922 45.5C143.22 46.9259 143.152 47.696 142.952 49.1412C142.842 48.4914 142.593 47.2579 142.608 46.6483L142.772 46.7755C142.985 46.5489 142.912 45.9033 142.922 45.5Z" fill="#685450"/>
</svg>
