<?xml version="1.0" encoding="UTF-8"?>
<svg id="Layer_1" data-name="Layer 1" xmlns="http://www.w3.org/2000/svg" viewBox="0 0 115 106">
  <defs>
    <style>
      .cls-1 {
        fill: #fff;
      }
    </style>
  </defs>
  <path class="cls-1" d="M114.69,93.22l-.4.2-.17,1.35-2.29.02c-.67.24-1.29.4-2.02.49-.77.09-1.2.76-1.04,1.45l-.55-.17c-.25-.08-.34.21-.51.28l-1.55.64-.45,2.76c-.15-.01-.55.16-.51.28.1.43-.07.73-.1,1.11l-.16,2.01c-.03.42-.22.35-.42.55-.24.23-.41.82-.8.8-.65-.02-1.07-.46-1.59-.58l-3.09-.7-.22-.85c-.08-.31-.44-.27-.69-.2-.18.05-.55.22-.37.56.08.15.42.36.21.57-.49-.44-1.18-.76-1.31-.71-.12.05-.23.18-.32.45-.47-.64-1.1-.5-1.67-.36-.76-.75-1.45.3-2.44-.76l-2.26.52c-.56.13-.68-.17-.95-.54-.49-.66-3.08-.87-3.68-.7-.61.18-1.27.53-1.79-.06-.15-.17-.21-.68-.62-.66-.36.01-.64.3-.9.45,0-.29.03-.5-.05-.67-.09-.17-.41-.04-.61-.06l-2.12-.26c-.11-1.47-1.32-1.61-.58-2.62-.54-.66-.85-1.55-.75-2.45.07-.67-.17-1.52-.49-2.13-.13-.26-.48-.39-.28-.77l-.62-.25c.05-.21.02-.43-.15-.56-.11-.08-.36-.17-.56-.2l-2.36-.38c-.36-.06-1.02.23-1.36.35-1.57,1.61-2.95.27-3.18,1.9-.09.66-.91.78-1.4.52-.35-.19-.61-.02-.78.28-.08.14-.48.14-.62.26-.62.53-1.22.99-1.89,1.36l-1.05-.13c-.27-.95-1.29-.13-1.5-.94-.04-.17-.24-.45-.47-.39-.59.16-1.08-.17-1.62-.15-.6.02-1.51.79-3.12-.86-.15-.15-.1-.7-.3-.77l-2.23-.8-2.19-1.43c-.25-.17-.62-.15-.72-.54l.65-.28c-.36-.21-.53-.36-.71-.66-.7-1.15-1.78-.54-2.56-1.48-.37-.45-.77-.5-1.29-.53-1.97-.1-1.87.23-2.9-1.16-.19-.26-.97-.37-.92-.87.05-.5.05-.83-.32-1.19-.65-.64-.94-1.56-.9-2.43.03-.73-.49-.93-1.05-1.08-.38-.1-.65-.78-.51-1.09.25.1.46.18.58.08.24-.21.12-.42,0-.59-.41-.57-.78-.46-1.37-.39-.39.04-.22-.69-.03-.9.1-.39-.07-.87-.06-1.32-.51-.18-.71-.65-1.06-.96-1.09-.94-1.12-1.72-2.03-2.31.01-.63-.02-1.24-.43-1.74-.63-.77-1.92.85-3.1,1.17-.3.01-.27-.64-.38-.82-.23-.35-1.02-.17-1.36-.1-.15-.13-.17-.26-.23-.46-1.3-.24-1.55-1.34-1.91-1.09-.41.28,0,.71.15.95.26.42.06.95,0,1.37-.63.22-1.36-.06-1.45.08l-.24.41c-.13.21-.86.1-1.03-.17-.17-.25-.36-.71-.46-.96.08-.4.07-.61-.23-.93-.26-.28-.47-.4-.88-.34-.13-.19-.14-.6-.27-.73-.16-.17-.48-.26-.83-.23l-.02-3.68-2.05-.02.1-2.86.91-2.67c-.39-.44-.67-.97-1.03-1.44l-.59-.76c-.08-.1-.28-.18-.37-.23-.15-.1.29-.53-.6-1.25.13-.56-.38-1.25-.96-1.09-.38.1-.65.26-1-.05l-2.3-2-1.54-1.02c-.96-.64-1.94,0-2.14-.5-.04-.1.12-.23.33-.43l-.66-.47c.38-.08.64-.12.81-.34.44-.57-.69-1.13-.85-2.07-.09-.53-.84-.02-.87-.35-.01-.13.09-.18.23-.26.23-.14-.02-.49-.16-.58-.22-.13-.53-.04-.83.3.02-.44-.31-.57-.44-.81l-.7-1.2c-.21-.36-.35-.68-.93-.65.12-.58.52-.94.86-1.38-.04-.56.33-.98.11-1.3-.07-.1-.25-.15-.47-.07-.19-.29-.26-.57-.34-.88.25-.04.43-.13.48-.24.09-.18.05-.47.03-.79.29.11.81.41,1.16.21.13-.31-.15-.87-.36-1.08l.22-.71c.36-.07.53-.35.47-.72.21.06.34.1.45.1.37-.02.03-1.4.65-1.29.48.09,1.05.1,1.23-.42.06-.16.15-.39.08-.51-.05-.11-.25-.19-.4-.25.1-.13.18-.25.2-.35.09-.49-1.45-.77-.67-2.91,1.67-.02,2.21-.95,1.72-.99-.17-.02-.36.18-.79.2-.13,0-.26-.34-.39-.35-.97-.11-2.02.6-2.24.08-.25-.58-.94-1.28-1.6-1.24-.22.01-.7.39-.79.02.04-.3.1-.59,0-.94l-.56-2.18c-.31.09-.54.16-.74.14-.2-.02-.24-.38-.34-.5-.62-.75.23-1.09-.12-1.72-.4-.72-1.75-.3-.93-1.2.15-.34.05-.83,0-1.17-.17-.09-.44-.2-.56-.32-.14-.13-.18-1.06.15-1.62-.33-.45-.88-.77-1.33-1.07v-1.23c0-.12-.2-.28-.19-.38,0-.1.18-.25.24-.38.11-.23-.1-.41-.27-.53-.12-.08-.41-.01-.56-.04-.41-.69-.53-.83-1.38-.76-.1-.87.57-1.43.88-2.19.16-.4.06-.91.59-1.17.09-.04-.03-.33-.11-.37-.3-.13-.5.11-.7,0-.43-.22.08-1.38-.2-1.87-.3-.53-.14-1.01-.11-1.57-.13-.35-.8-.76-.7-1.31.07-.37.25-.77.18-1.19l-.6-.36c0-.52-.13-.95-.4-1.43v101.72h115v-14.49c-.98.33-.16,1.64-.31,1.71Z"/>
  <path class="cls-1" d="M0,0v4.28c.89-.53,1.59.23,2.17-.21.36-.28.06-2.08.98-2.64.08-.05.19-.18.31-.15.12.03.15.19.26.27l1.54,1.14c.21.3.1.93.48,1.18.56.38.94.91,1.06,1.63l.97.24.93,1.49c.26.42,1.03.25,1.44.35l1.76.44c.41.1.88.38,1.28.09,1.11-.8,1.95.53,2.31-.4.14-.36.4-.44.64-.72l.97-1.12c1.22.36.76-1.01,1.94-1.34.34-.09.68-.33.85-.63.23-.42.65-.41.99-.63l1.72-1.17c.3-.2.7-.18,1.09-.31l2.17,2.4c-.42.5-1.22.4-1.39.87-.35.93,1.33,1.14,1.14,1.94-.16.7-2,.34-1.83,1.3.1.58.94.66,1.23.96.22.24.19.59.42.77.23.18.44.22.83.03.25.65,1.05,1.64,1.16,1.68.23.09.56.06.73-.18.16-.23.83-.25.83,0,0,1.15.18,2.19.4,3.29.2,1,.35,2.06,1.08,2.65.54.43,1.21.87,1.93,1.02.77.16,1.57.32,2.34.3.43-.01.62-.15,1.03.18l1.2.38c.21.61.29,1.34.76,1.78l.85.79,3.4,2.18,4.91,1.14c.76.18,1.49-.22,2.23-.39l3.62-.83c1.94-.45,3.77-1.11,5.79-1.04.43.01.74-.26,1.15-.27-.65.62-1.5.29-2.31.6.57.42,1.6.55,2.22.23.47-.24.09-.93.02-1.26l-.58-2.55,1.65.05,1.07-.28,1.01-.53c.49,0,.73,0,1.13-.31.37-.29.58-.58.42-1.12-.1-.33.14-.91.49-1.07.63-.29.92-.88,1.46-1.23.58-.38,1.22-.67,1.84-1,.5-.26,1.32-.34,1.89-.34l1.47.32c1.06-.16,1.65.12,1.94-.17.09-.09-.12-.4-.09-.52.2-.68,1.07-.88,1.69-.57l.84-.29c.36.4.84.41,1.31.55,1,.29.96-.5,1.31-.55.19-.02.28.11.38.3l.67,1.3-.06.57c-.02.18.33.31.58.35l1.72.29c.8.13,1.78.81,2.72.89.07.23.09.55.17.7.13.24,1.15.52,1.45.41.18-.07.31-.25.53-.62.51.79.97.45,1.54.36.77-.13,1.64.52,2.17.97.33.28.56.08.85.08.26,0,.38.55.32.78-.14.54.18.89.5,1.27.18.21.26.52.64.48.1,0,.26.24.25.42.65-.15,1.15.08,1.65.5l.97.35c.29.72.74,1.28,1.23,1.87l.47.92,4.94.04c.57,0-.3,1.71.25,2.81.56,1.13-.34,1.94-.17,2.09l.34.3c.42.61.12,1.25.14,1.93,0,.27.48.65.25,1.02-.32.5-.58,1.05-.54,1.67-.26.04-.41.14-.48.24-.23.36.25.72.08,1.44l-.42,1.77c-.1.42-.69.71-.59,1.26-.29.13-.5.46-.78.58l-.72.3c.36.54.81.88,1.13,1.53-1.1-.21-2.22.36-2.39,1.47l.15,2.18c.03.45-.3.88.08,1.29.81.86,2,.1,2.36.81-.21.07-.46.1-.49.21l-.12.45-1.11,1.3c-.39.46-.57.91-.39,1.53l1.51,5.24c.17.59-.18,1.11-.18,1.65l.02,1.87c0,.66,0,1.24.18,1.95l4.68.67c.54.08.79.35.81.91l.43,1.61-.12,1.21-5.69,6.82,2.57,3.02c.26.3.43.34.39.83-.04.56.6,1,.78,1.44l.32.76c.67,1.6,1.95,3.11,3.66,3.35l1.24.37c.54.16.82.8,1.19,1.19.42.08.77-.07,1.23-.13l-.09,1.64c.14,1.25.5,2.46.36,3.75-.04.34-.33.84-.17,1.33.86.66,2.05-.28,2.66.13.26.18.5.41.53.75V0H0Z"/>
</svg>