<svg width="1236" height="919" viewBox="0 0 1236 919" fill="none" xmlns="http://www.w3.org/2000/svg">
<path d="M277.013 688.73C291.846 683.582 303.455 677.789 309.256 657.2C314.417 677.793 326.022 683.582 340.856 688.73C326.022 693.878 314.413 699.026 309.256 719.618C303.452 699.026 291.843 693.878 277.013 688.73ZM309.256 821.93C318.929 812.279 328.603 789.756 323.446 762.73C358.269 775.598 375.038 754.365 375.038 735.704C375.038 717.042 360.849 708.033 350.532 708.033C342.792 708.033 335.055 714.467 333.766 719.615C349.244 717.684 354.404 726.694 354.404 735.7C354.404 742.779 345.375 749.858 338.926 749.858C330.542 749.858 321.513 740.848 321.513 731.197C321.513 708.033 336.99 699.023 351.824 699.023C376.33 699.023 386.647 717.684 387.292 735.7C387.936 749.213 375.683 768.519 363.429 767.875C365.365 780.102 359.561 790.398 353.756 790.398C351.176 784.605 343.439 773.023 332.474 772.381C340.859 794.259 331.83 823.217 309.256 838.016C286.038 823.217 277.013 794.259 285.394 772.381C274.429 773.026 266.692 784.608 264.756 790.398C258.308 790.398 253.147 780.102 254.439 767.875C242.186 768.519 230.577 749.213 230.577 735.7C231.221 717.684 242.186 699.023 266.045 699.023C281.522 699.023 296.356 708.033 296.356 731.197C296.356 740.848 287.327 749.858 279.59 749.858C272.497 749.858 263.468 742.779 263.468 735.7C263.468 726.69 268.628 717.684 284.106 719.615C283.462 714.467 275.077 708.033 267.984 708.033C257.667 708.033 242.834 717.684 242.834 735.704C242.834 753.723 260.247 775.598 294.426 762.73C289.266 789.756 299.587 812.279 309.26 821.93H309.256ZM317.641 886.279C321.51 886.924 325.378 886.279 329.25 886.279C330.538 883.707 330.538 881.131 330.538 877.269C351.176 906.871 382.131 892.068 396.965 915.878C416.311 897.216 396.965 870.19 378.907 865.687C388.58 856.677 382.776 832.227 403.413 827.079C386 805.845 365.365 821.286 362.785 832.227C353.112 827.723 335.055 832.227 335.055 846.384C335.055 854.105 339.567 863.115 349.888 863.115C353.756 863.115 358.917 857.967 360.205 854.105C369.234 859.253 353.756 869.549 363.429 879.2C351.176 876.628 322.801 860.539 322.801 845.095C322.801 833.513 343.439 827.079 345.372 801.98C350.532 803.266 351.176 811.631 349.24 816.779C360.849 816.134 374.391 803.911 375.035 780.743C399.541 773.023 407.279 738.917 398.253 716.394C405.994 715.108 416.955 708.029 409.218 691.94C390.516 712.533 381.487 693.227 358.269 688.723C381.487 684.22 390.513 664.269 409.218 684.861C416.955 668.776 405.994 662.338 398.253 661.052C407.282 638.529 399.541 603.783 375.035 596.704C374.391 573.539 360.846 561.312 349.24 560.026C351.176 565.819 350.529 574.184 345.372 575.47C343.436 550.375 322.801 543.941 322.801 532.355C322.801 516.911 351.176 500.826 363.429 497.609C353.756 507.905 369.234 518.201 360.205 523.349C358.917 519.487 353.756 514.339 349.888 514.339C339.571 513.694 335.055 523.349 335.055 531.069C335.055 545.227 353.112 549.73 362.785 545.227C365.365 555.523 386.003 571.608 403.413 550.375C382.776 545.227 388.58 520.773 378.907 511.122C396.965 507.26 416.311 480.233 396.965 461.572C382.131 485.382 351.176 470.582 330.538 499.539C330.538 496.322 330.538 493.747 329.25 491.174C325.382 490.53 321.51 490.53 317.641 491.174C321.51 477.661 316.353 466.72 309.256 459C302.164 466.72 296.359 477.661 300.228 491.174C296.359 490.53 293.135 490.53 288.619 491.174C287.974 493.747 287.33 496.322 287.33 499.539C267.337 470.582 235.737 485.382 220.904 461.572C202.202 480.233 220.904 507.26 239.606 511.122C229.289 520.773 235.093 545.227 214.455 550.375C232.513 571.608 252.503 555.523 255.728 545.227C265.401 549.73 282.814 545.227 282.814 531.069C282.814 523.349 278.301 513.694 267.981 514.339C264.112 514.339 258.952 519.487 258.308 523.349C249.279 518.201 264.756 507.905 254.439 497.609C266.692 500.826 295.711 516.914 295.711 532.355C295.711 543.937 274.429 550.372 272.493 575.47C267.981 574.184 266.689 565.819 269.269 560.026C257.016 561.312 243.474 573.539 242.827 596.704C218.32 603.783 210.583 638.529 219.609 661.052C211.872 662.338 200.907 668.773 208.644 684.861C227.99 664.269 237.019 684.217 259.593 688.723C237.022 693.227 227.993 712.533 208.644 691.94C200.904 708.029 211.868 715.105 219.609 716.394C210.58 738.917 218.32 773.023 242.827 780.743C243.471 803.907 257.016 816.134 269.269 816.779C266.689 811.631 267.981 803.266 272.493 801.98C274.429 827.075 295.711 833.509 295.711 845.095C295.711 860.539 266.692 876.624 254.439 879.2C264.756 869.549 249.279 859.253 258.308 854.105C258.952 857.967 264.112 863.115 267.981 863.115C278.298 863.115 282.814 854.105 282.814 846.384C282.814 832.227 265.401 827.723 255.728 832.227C252.503 821.286 232.51 805.845 214.455 827.079C235.093 832.227 229.289 856.68 239.606 865.687C220.904 870.19 202.202 897.216 220.904 915.878C235.737 892.068 267.337 906.868 287.33 877.269C287.33 881.131 287.974 883.703 288.619 886.279C293.131 886.279 296.359 886.924 300.228 886.279C296.359 899.792 302.164 910.733 309.256 918.453C316.349 910.733 321.51 899.792 317.641 886.279ZM332.474 605.076C343.439 603.789 351.176 592.849 353.756 587.059C359.561 587.059 365.365 596.71 363.429 609.582C375.683 608.296 387.936 628.243 387.292 641.112C386.647 659.128 376.327 677.789 351.824 677.789C336.99 677.789 321.513 669.424 321.513 645.615C321.513 636.605 330.542 627.599 338.926 627.599C345.375 627.599 354.404 634.033 354.404 641.756C354.404 650.122 349.244 659.131 333.766 657.2C335.055 662.993 342.795 669.428 350.532 669.428C360.849 669.428 375.038 659.131 375.038 641.756C375.038 622.451 358.273 601.862 323.446 614.73C328.606 587.704 318.933 564.539 309.256 555.53C299.583 564.539 289.263 587.704 294.423 614.73C260.244 601.862 242.83 622.451 242.83 641.756C242.83 659.131 257.664 669.428 267.981 669.428C275.074 669.428 283.458 662.993 284.102 657.2C268.625 659.131 263.465 650.122 263.465 641.756C263.465 634.036 272.493 627.599 279.586 627.599C287.327 627.599 296.352 636.608 296.352 645.615C296.352 669.424 281.519 677.789 266.041 677.789C242.179 677.789 231.218 659.128 230.574 641.112C230.574 628.243 242.183 608.293 254.436 609.582C253.147 596.714 258.304 587.059 264.753 587.059C266.689 592.852 274.426 603.789 285.391 605.076C277.006 583.197 286.035 554.24 309.253 538.796C331.823 554.24 340.852 583.197 332.471 605.076H332.474Z" fill="#A91D29"/>
<path d="M895.013 688.73C909.846 683.582 921.455 677.789 927.256 657.2C932.417 677.793 944.022 683.582 958.856 688.73C944.022 693.878 932.413 699.026 927.256 719.618C921.452 699.026 909.843 693.878 895.013 688.73ZM927.256 821.93C936.929 812.279 946.602 789.756 941.446 762.73C976.269 775.598 993.038 754.365 993.038 735.704C993.038 717.042 978.849 708.033 968.532 708.033C960.792 708.033 953.055 714.467 951.766 719.615C967.244 717.684 972.404 726.694 972.404 735.7C972.404 742.779 963.375 749.858 956.926 749.858C948.542 749.858 939.513 740.848 939.513 731.197C939.513 708.033 954.99 699.023 969.824 699.023C994.33 699.023 1004.65 717.684 1005.29 735.7C1005.94 749.213 993.683 768.519 981.429 767.875C983.365 780.102 977.561 790.398 971.756 790.398C969.176 784.605 961.439 773.023 950.474 772.381C958.859 794.259 949.83 823.217 927.256 838.016C904.038 823.217 895.013 794.259 903.394 772.381C892.429 773.026 884.692 784.608 882.756 790.398C876.308 790.398 871.147 780.102 872.439 767.875C860.186 768.519 848.577 749.213 848.577 735.7C849.221 717.684 860.186 699.023 884.045 699.023C899.522 699.023 914.356 708.033 914.356 731.197C914.356 740.848 905.327 749.858 897.59 749.858C890.497 749.858 881.468 742.779 881.468 735.7C881.468 726.69 886.628 717.684 902.106 719.615C901.462 714.467 893.077 708.033 885.984 708.033C875.667 708.033 860.834 717.684 860.834 735.704C860.834 753.723 878.247 775.598 912.426 762.73C907.266 789.756 917.587 812.279 927.26 821.93H927.256ZM935.641 886.279C939.51 886.924 943.378 886.279 947.25 886.279C948.538 883.707 948.538 881.131 948.538 877.269C969.176 906.871 1000.13 892.068 1014.96 915.878C1034.31 897.217 1014.96 870.19 996.907 865.687C1006.58 856.677 1000.78 832.227 1021.41 827.079C1004 805.845 983.365 821.286 980.785 832.227C971.112 827.723 953.055 832.227 953.055 846.384C953.055 854.105 957.567 863.115 967.888 863.115C971.756 863.115 976.917 857.967 978.205 854.105C987.234 859.253 971.756 869.549 981.429 879.2C969.176 876.628 940.801 860.539 940.801 845.095C940.801 833.513 961.439 827.079 963.372 801.98C968.532 803.266 969.176 811.631 967.24 816.779C978.849 816.134 992.391 803.911 993.035 780.743C1017.54 773.023 1025.28 738.917 1016.25 716.394C1023.99 715.108 1034.95 708.029 1027.22 691.94C1008.52 712.533 999.487 693.227 976.269 688.723C999.487 684.22 1008.51 664.269 1027.22 684.861C1034.95 668.776 1023.99 662.338 1016.25 661.052C1025.28 638.529 1017.54 603.783 993.035 596.704C992.391 573.539 978.846 561.312 967.24 560.026C969.176 565.819 968.529 574.184 963.372 575.47C961.436 550.375 940.801 543.941 940.801 532.355C940.801 516.911 969.176 500.826 981.429 497.609C971.756 507.905 987.234 518.201 978.205 523.349C976.917 519.487 971.756 514.339 967.888 514.339C957.571 513.694 953.055 523.349 953.055 531.069C953.055 545.227 971.112 549.73 980.785 545.227C983.365 555.523 1004 571.608 1021.41 550.375C1000.78 545.227 1006.58 520.773 996.907 511.122C1014.96 507.26 1034.31 480.234 1014.96 461.572C1000.13 485.382 969.176 470.582 948.538 499.539C948.538 496.322 948.538 493.747 947.25 491.174C943.382 490.53 939.51 490.53 935.641 491.174C939.51 477.661 934.353 466.72 927.256 459C920.164 466.72 914.359 477.661 918.228 491.174C914.359 490.53 911.135 490.53 906.619 491.174C905.974 493.747 905.33 496.322 905.33 499.539C885.337 470.582 853.737 485.382 838.904 461.572C820.202 480.234 838.904 507.26 857.606 511.122C847.289 520.773 853.093 545.227 832.455 550.375C850.513 571.608 870.503 555.523 873.728 545.227C883.401 549.73 900.814 545.227 900.814 531.069C900.814 523.349 896.301 513.694 885.981 514.339C882.112 514.339 876.952 519.487 876.308 523.349C867.279 518.201 882.756 507.905 872.439 497.609C884.692 500.826 913.711 516.914 913.711 532.355C913.711 543.937 892.429 550.372 890.493 575.47C885.981 574.184 884.689 565.819 887.269 560.026C875.016 561.312 861.474 573.539 860.827 596.704C836.32 603.783 828.583 638.529 837.609 661.052C829.872 662.338 818.907 668.773 826.644 684.861C845.99 664.269 855.019 684.217 877.593 688.723C855.022 693.227 845.993 712.533 826.644 691.94C818.904 708.029 829.868 715.105 837.609 716.394C828.58 738.917 836.32 773.023 860.827 780.743C861.471 803.907 875.016 816.134 887.269 816.779C884.689 811.631 885.981 803.266 890.493 801.98C892.429 827.075 913.711 833.509 913.711 845.095C913.711 860.539 884.692 876.624 872.439 879.2C882.756 869.549 867.279 859.253 876.308 854.105C876.952 857.967 882.112 863.115 885.981 863.115C896.298 863.115 900.814 854.105 900.814 846.384C900.814 832.227 883.401 827.723 873.728 832.227C870.503 821.286 850.51 805.845 832.455 827.079C853.093 832.227 847.289 856.68 857.606 865.687C838.904 870.19 820.202 897.217 838.904 915.878C853.737 892.068 885.337 906.868 905.33 877.269C905.33 881.131 905.974 883.703 906.619 886.279C911.131 886.279 914.359 886.924 918.228 886.279C914.359 899.792 920.164 910.733 927.256 918.453C934.349 910.733 939.51 899.792 935.641 886.279ZM950.474 605.076C961.439 603.789 969.176 592.849 971.756 587.059C977.561 587.059 983.365 596.71 981.429 609.582C993.683 608.296 1005.94 628.243 1005.29 641.112C1004.65 659.128 994.327 677.789 969.824 677.789C954.99 677.789 939.513 669.424 939.513 645.615C939.513 636.605 948.542 627.599 956.926 627.599C963.375 627.599 972.404 634.033 972.404 641.756C972.404 650.122 967.244 659.131 951.766 657.2C953.055 662.993 960.795 669.428 968.532 669.428C978.849 669.428 993.038 659.131 993.038 641.756C993.038 622.451 976.273 601.862 941.446 614.73C946.606 587.704 936.933 564.539 927.256 555.53C917.583 564.539 907.263 587.704 912.423 614.73C878.244 601.862 860.83 622.451 860.83 641.756C860.83 659.131 875.664 669.428 885.981 669.428C893.074 669.428 901.458 662.993 902.102 657.2C886.625 659.131 881.465 650.122 881.465 641.756C881.465 634.036 890.493 627.599 897.586 627.599C905.327 627.599 914.352 636.608 914.352 645.615C914.352 669.424 899.519 677.789 884.041 677.789C860.179 677.789 849.218 659.128 848.574 641.112C848.574 628.243 860.183 608.293 872.436 609.582C871.147 596.714 876.304 587.059 882.753 587.059C884.689 592.852 892.426 603.789 903.391 605.076C895.006 583.197 904.035 554.24 927.253 538.796C949.823 554.24 958.852 583.197 950.471 605.076H950.474Z" fill="#A91D29"/>
<path d="M483.013 688.73C497.846 683.582 509.455 677.789 515.256 657.2C520.417 677.793 532.022 683.582 546.856 688.73C532.022 693.878 520.413 699.026 515.256 719.618C509.452 699.026 497.843 693.878 483.013 688.73ZM515.256 821.93C524.929 812.279 534.603 789.756 529.446 762.73C564.269 775.598 581.038 754.365 581.038 735.704C581.038 717.042 566.849 708.033 556.532 708.033C548.792 708.033 541.055 714.467 539.766 719.615C555.244 717.684 560.404 726.694 560.404 735.7C560.404 742.779 551.375 749.858 544.926 749.858C536.542 749.858 527.513 740.848 527.513 731.197C527.513 708.033 542.99 699.023 557.824 699.023C582.33 699.023 592.647 717.684 593.292 735.7C593.936 749.213 581.683 768.519 569.429 767.875C571.365 780.102 565.561 790.398 559.756 790.398C557.176 784.605 549.439 773.023 538.474 772.381C546.859 794.259 537.83 823.217 515.256 838.016C492.038 823.217 483.013 794.259 491.394 772.381C480.429 773.026 472.692 784.608 470.756 790.398C464.308 790.398 459.147 780.102 460.439 767.875C448.186 768.519 436.577 749.213 436.577 735.7C437.221 717.684 448.186 699.023 472.045 699.023C487.522 699.023 502.356 708.033 502.356 731.197C502.356 740.848 493.327 749.858 485.59 749.858C478.497 749.858 469.468 742.779 469.468 735.7C469.468 726.69 474.628 717.684 490.106 719.615C489.462 714.467 481.077 708.033 473.984 708.033C463.667 708.033 448.834 717.684 448.834 735.704C448.834 753.723 466.247 775.598 500.426 762.73C495.266 789.756 505.587 812.279 515.26 821.93H515.256ZM523.641 886.279C527.51 886.924 531.378 886.279 535.25 886.279C536.538 883.707 536.538 881.131 536.538 877.269C557.176 906.871 588.131 892.068 602.965 915.878C622.311 897.216 602.965 870.19 584.907 865.687C594.58 856.677 588.776 832.227 609.413 827.079C592 805.845 571.365 821.286 568.785 832.227C559.112 827.723 541.055 832.227 541.055 846.384C541.055 854.105 545.567 863.115 555.888 863.115C559.756 863.115 564.917 857.967 566.205 854.105C575.234 859.253 559.756 869.549 569.429 879.2C557.176 876.628 528.801 860.539 528.801 845.095C528.801 833.513 549.439 827.079 551.372 801.98C556.532 803.266 557.176 811.631 555.24 816.779C566.849 816.134 580.391 803.911 581.035 780.743C605.541 773.023 613.279 738.917 604.253 716.394C611.994 715.108 622.955 708.029 615.218 691.94C596.516 712.533 587.487 693.227 564.269 688.723C587.487 684.22 596.513 664.269 615.218 684.861C622.955 668.776 611.994 662.338 604.253 661.052C613.282 638.529 605.541 603.783 581.035 596.704C580.391 573.539 566.846 561.312 555.24 560.026C557.176 565.819 556.529 574.184 551.372 575.47C549.436 550.375 528.801 543.941 528.801 532.355C528.801 516.911 557.176 500.826 569.429 497.609C559.756 507.905 575.234 518.201 566.205 523.349C564.917 519.487 559.756 514.339 555.888 514.339C545.571 513.694 541.055 523.349 541.055 531.069C541.055 545.227 559.112 549.73 568.785 545.227C571.365 555.523 592.003 571.608 609.413 550.375C588.776 545.227 594.58 520.773 584.907 511.122C602.965 507.26 622.311 480.233 602.965 461.572C588.131 485.382 557.176 470.582 536.538 499.539C536.538 496.322 536.538 493.747 535.25 491.174C531.382 490.53 527.51 490.53 523.641 491.174C527.51 477.661 522.353 466.72 515.256 459C508.164 466.72 502.359 477.661 506.228 491.174C502.359 490.53 499.135 490.53 494.619 491.174C493.974 493.747 493.33 496.322 493.33 499.539C473.337 470.582 441.737 485.382 426.904 461.572C408.202 480.233 426.904 507.26 445.606 511.122C435.289 520.773 441.093 545.227 420.455 550.375C438.513 571.608 458.503 555.523 461.728 545.227C471.401 549.73 488.814 545.227 488.814 531.069C488.814 523.349 484.301 513.694 473.981 514.339C470.112 514.339 464.952 519.487 464.308 523.349C455.279 518.201 470.756 507.905 460.439 497.609C472.692 500.826 501.711 516.914 501.711 532.355C501.711 543.937 480.429 550.372 478.493 575.47C473.981 574.184 472.689 565.819 475.269 560.026C463.016 561.312 449.474 573.539 448.827 596.704C424.32 603.783 416.583 638.529 425.609 661.052C417.872 662.338 406.907 668.773 414.644 684.861C433.99 664.269 443.019 684.217 465.593 688.723C443.022 693.227 433.993 712.533 414.644 691.94C406.904 708.029 417.868 715.105 425.609 716.394C416.58 738.917 424.32 773.023 448.827 780.743C449.471 803.907 463.016 816.134 475.269 816.779C472.689 811.631 473.981 803.266 478.493 801.98C480.429 827.075 501.711 833.509 501.711 845.095C501.711 860.539 472.692 876.624 460.439 879.2C470.756 869.549 455.279 859.253 464.308 854.105C464.952 857.967 470.112 863.115 473.981 863.115C484.298 863.115 488.814 854.105 488.814 846.384C488.814 832.227 471.401 827.723 461.728 832.227C458.503 821.286 438.51 805.845 420.455 827.079C441.093 832.227 435.289 856.68 445.606 865.687C426.904 870.19 408.202 897.216 426.904 915.878C441.737 892.068 473.337 906.868 493.33 877.269C493.33 881.131 493.974 883.703 494.619 886.279C499.131 886.279 502.359 886.924 506.228 886.279C502.359 899.792 508.164 910.733 515.256 918.453C522.349 910.733 527.51 899.792 523.641 886.279ZM538.474 605.076C549.439 603.789 557.176 592.849 559.756 587.059C565.561 587.059 571.365 596.71 569.429 609.582C581.683 608.296 593.936 628.243 593.292 641.112C592.647 659.128 582.327 677.789 557.824 677.789C542.99 677.789 527.513 669.424 527.513 645.615C527.513 636.605 536.542 627.599 544.926 627.599C551.375 627.599 560.404 634.033 560.404 641.756C560.404 650.122 555.244 659.131 539.766 657.2C541.055 662.993 548.795 669.428 556.532 669.428C566.849 669.428 581.038 659.131 581.038 641.756C581.038 622.451 564.273 601.862 529.446 614.73C534.606 587.704 524.933 564.539 515.256 555.53C505.583 564.539 495.263 587.704 500.423 614.73C466.244 601.862 448.83 622.451 448.83 641.756C448.83 659.131 463.664 669.428 473.981 669.428C481.074 669.428 489.458 662.993 490.102 657.2C474.625 659.131 469.465 650.122 469.465 641.756C469.465 634.036 478.493 627.599 485.586 627.599C493.327 627.599 502.352 636.608 502.352 645.615C502.352 669.424 487.519 677.789 472.041 677.789C448.179 677.789 437.218 659.128 436.574 641.112C436.574 628.243 448.183 608.293 460.436 609.582C459.147 596.714 464.304 587.059 470.753 587.059C472.689 592.852 480.426 603.789 491.391 605.076C483.006 583.197 492.035 554.24 515.253 538.796C537.823 554.24 546.852 583.197 538.471 605.076H538.474Z" fill="#A91D29"/>
<path d="M1101.01 688.73C1115.85 683.582 1127.46 677.789 1133.26 657.2C1138.42 677.793 1150.02 683.582 1164.86 688.73C1150.02 693.878 1138.41 699.026 1133.26 719.618C1127.45 699.026 1115.84 693.878 1101.01 688.73ZM1133.26 821.93C1142.93 812.279 1152.6 789.756 1147.45 762.73C1182.27 775.598 1199.04 754.365 1199.04 735.704C1199.04 717.042 1184.85 708.033 1174.53 708.033C1166.79 708.033 1159.05 714.467 1157.77 719.615C1173.24 717.684 1178.4 726.694 1178.4 735.7C1178.4 742.779 1169.38 749.858 1162.93 749.858C1154.54 749.858 1145.51 740.848 1145.51 731.197C1145.51 708.033 1160.99 699.023 1175.82 699.023C1200.33 699.023 1210.65 717.684 1211.29 735.7C1211.94 749.213 1199.68 768.519 1187.43 767.875C1189.37 780.102 1183.56 790.398 1177.76 790.398C1175.18 784.605 1167.44 773.023 1156.47 772.381C1164.86 794.259 1155.83 823.217 1133.26 838.016C1110.04 823.217 1101.01 794.259 1109.39 772.381C1098.43 773.026 1090.69 784.608 1088.76 790.398C1082.31 790.398 1077.15 780.102 1078.44 767.875C1066.19 768.519 1054.58 749.213 1054.58 735.7C1055.22 717.684 1066.19 699.023 1090.04 699.023C1105.52 699.023 1120.36 708.033 1120.36 731.197C1120.36 740.848 1111.33 749.858 1103.59 749.858C1096.5 749.858 1087.47 742.779 1087.47 735.7C1087.47 726.69 1092.63 717.684 1108.11 719.615C1107.46 714.467 1099.08 708.033 1091.98 708.033C1081.67 708.033 1066.83 717.684 1066.83 735.704C1066.83 753.723 1084.25 775.598 1118.43 762.73C1113.27 789.756 1123.59 812.279 1133.26 821.93H1133.26ZM1141.64 886.279C1145.51 886.924 1149.38 886.279 1153.25 886.279C1154.54 883.707 1154.54 881.131 1154.54 877.269C1175.18 906.871 1206.13 892.068 1220.96 915.878C1240.31 897.217 1220.96 870.19 1202.91 865.687C1212.58 856.677 1206.78 832.227 1227.41 827.079C1210 805.845 1189.37 821.286 1186.79 832.227C1177.11 827.723 1159.05 832.227 1159.05 846.384C1159.05 854.105 1163.57 863.115 1173.89 863.115C1177.76 863.115 1182.92 857.967 1184.21 854.105C1193.23 859.253 1177.76 869.549 1187.43 879.2C1175.18 876.628 1146.8 860.539 1146.8 845.095C1146.8 833.513 1167.44 827.079 1169.37 801.98C1174.53 803.266 1175.18 811.631 1173.24 816.779C1184.85 816.134 1198.39 803.911 1199.04 780.743C1223.54 773.023 1231.28 738.917 1222.25 716.394C1229.99 715.108 1240.95 708.029 1233.22 691.94C1214.52 712.533 1205.49 693.227 1182.27 688.723C1205.49 684.22 1214.51 664.269 1233.22 684.861C1240.95 668.776 1229.99 662.338 1222.25 661.052C1231.28 638.529 1223.54 603.783 1199.04 596.704C1198.39 573.539 1184.85 561.312 1173.24 560.026C1175.18 565.819 1174.53 574.184 1169.37 575.47C1167.44 550.375 1146.8 543.941 1146.8 532.355C1146.8 516.911 1175.18 500.826 1187.43 497.609C1177.76 507.905 1193.23 518.201 1184.21 523.349C1182.92 519.487 1177.76 514.339 1173.89 514.339C1163.57 513.694 1159.05 523.349 1159.05 531.069C1159.05 545.227 1177.11 549.73 1186.79 545.227C1189.37 555.523 1210 571.608 1227.41 550.375C1206.78 545.227 1212.58 520.773 1202.91 511.122C1220.96 507.26 1240.31 480.234 1220.96 461.572C1206.13 485.382 1175.18 470.582 1154.54 499.539C1154.54 496.322 1154.54 493.747 1153.25 491.174C1149.38 490.53 1145.51 490.53 1141.64 491.174C1145.51 477.661 1140.35 466.72 1133.26 459C1126.16 466.72 1120.36 477.661 1124.23 491.174C1120.36 490.53 1117.13 490.53 1112.62 491.174C1111.97 493.747 1111.33 496.322 1111.33 499.539C1091.34 470.582 1059.74 485.382 1044.9 461.572C1026.2 480.234 1044.9 507.26 1063.61 511.122C1053.29 520.773 1059.09 545.227 1038.46 550.375C1056.51 571.608 1076.5 555.523 1079.73 545.227C1089.4 549.73 1106.81 545.227 1106.81 531.069C1106.81 523.349 1102.3 513.694 1091.98 514.339C1088.11 514.339 1082.95 519.487 1082.31 523.349C1073.28 518.201 1088.76 507.905 1078.44 497.609C1090.69 500.826 1119.71 516.914 1119.71 532.355C1119.71 543.937 1098.43 550.372 1096.49 575.47C1091.98 574.184 1090.69 565.819 1093.27 560.026C1081.02 561.312 1067.47 573.539 1066.83 596.704C1042.32 603.783 1034.58 638.529 1043.61 661.052C1035.87 662.338 1024.91 668.773 1032.64 684.861C1051.99 664.269 1061.02 684.217 1083.59 688.723C1061.02 693.227 1051.99 712.533 1032.64 691.94C1024.9 708.029 1035.87 715.105 1043.61 716.394C1034.58 738.917 1042.32 773.023 1066.83 780.743C1067.47 803.907 1081.02 816.134 1093.27 816.779C1090.69 811.631 1091.98 803.266 1096.49 801.98C1098.43 827.075 1119.71 833.509 1119.71 845.095C1119.71 860.539 1090.69 876.624 1078.44 879.2C1088.76 869.549 1073.28 859.253 1082.31 854.105C1082.95 857.967 1088.11 863.115 1091.98 863.115C1102.3 863.115 1106.81 854.105 1106.81 846.384C1106.81 832.227 1089.4 827.723 1079.73 832.227C1076.5 821.286 1056.51 805.845 1038.46 827.079C1059.09 832.227 1053.29 856.68 1063.61 865.687C1044.9 870.19 1026.2 897.217 1044.9 915.878C1059.74 892.068 1091.34 906.868 1111.33 877.269C1111.33 881.131 1111.97 883.703 1112.62 886.279C1117.13 886.279 1120.36 886.924 1124.23 886.279C1120.36 899.792 1126.16 910.733 1133.26 918.453C1140.35 910.733 1145.51 899.792 1141.64 886.279ZM1156.47 605.076C1167.44 603.789 1175.18 592.849 1177.76 587.059C1183.56 587.059 1189.37 596.71 1187.43 609.582C1199.68 608.296 1211.94 628.243 1211.29 641.112C1210.65 659.128 1200.33 677.789 1175.82 677.789C1160.99 677.789 1145.51 669.424 1145.51 645.615C1145.51 636.605 1154.54 627.599 1162.93 627.599C1169.38 627.599 1178.4 634.033 1178.4 641.756C1178.4 650.122 1173.24 659.131 1157.77 657.2C1159.05 662.993 1166.79 669.428 1174.53 669.428C1184.85 669.428 1199.04 659.131 1199.04 641.756C1199.04 622.451 1182.27 601.862 1147.45 614.73C1152.61 587.704 1142.93 564.539 1133.26 555.53C1123.58 564.539 1113.26 587.704 1118.42 614.73C1084.24 601.862 1066.83 622.451 1066.83 641.756C1066.83 659.131 1081.66 669.428 1091.98 669.428C1099.07 669.428 1107.46 662.993 1108.1 657.2C1092.62 659.131 1087.46 650.122 1087.46 641.756C1087.46 634.036 1096.49 627.599 1103.59 627.599C1111.33 627.599 1120.35 636.608 1120.35 645.615C1120.35 669.424 1105.52 677.789 1090.04 677.789C1066.18 677.789 1055.22 659.128 1054.57 641.112C1054.57 628.243 1066.18 608.293 1078.44 609.582C1077.15 596.714 1082.3 587.059 1088.75 587.059C1090.69 592.852 1098.43 603.789 1109.39 605.076C1101.01 583.197 1110.04 554.24 1133.25 538.796C1155.82 554.24 1164.85 583.197 1156.47 605.076H1156.47Z" fill="#A91D29"/>
<path d="M483.013 229.73C497.846 224.582 509.455 218.789 515.256 198.2C520.417 218.793 532.022 224.582 546.856 229.73C532.022 234.878 520.413 240.026 515.256 260.618C509.452 240.026 497.843 234.878 483.013 229.73ZM515.256 362.93C524.929 353.279 534.603 330.756 529.446 303.73C564.269 316.598 581.038 295.365 581.038 276.704C581.038 258.042 566.849 249.033 556.532 249.033C548.792 249.033 541.055 255.467 539.766 260.615C555.244 258.684 560.404 267.694 560.404 276.7C560.404 283.779 551.375 290.858 544.926 290.858C536.542 290.858 527.513 281.848 527.513 272.197C527.513 249.033 542.99 240.023 557.824 240.023C582.33 240.023 592.647 258.684 593.292 276.7C593.936 290.213 581.683 309.519 569.429 308.875C571.365 321.102 565.561 331.398 559.756 331.398C557.176 325.605 549.439 314.023 538.474 313.381C546.859 335.259 537.83 364.217 515.256 379.016C492.038 364.217 483.013 335.259 491.394 313.381C480.429 314.026 472.692 325.608 470.756 331.398C464.308 331.398 459.147 321.102 460.439 308.875C448.186 309.519 436.577 290.213 436.577 276.7C437.221 258.684 448.186 240.023 472.045 240.023C487.522 240.023 502.356 249.033 502.356 272.197C502.356 281.848 493.327 290.858 485.59 290.858C478.497 290.858 469.468 283.779 469.468 276.7C469.468 267.69 474.628 258.684 490.106 260.615C489.462 255.467 481.077 249.033 473.984 249.033C463.667 249.033 448.834 258.684 448.834 276.704C448.834 294.723 466.247 316.598 500.426 303.73C495.266 330.756 505.587 353.279 515.26 362.93H515.256ZM523.641 427.279C527.51 427.924 531.378 427.279 535.25 427.279C536.538 424.707 536.538 422.131 536.538 418.269C557.176 447.871 588.131 433.068 602.965 456.878C622.311 438.216 602.965 411.19 584.907 406.687C594.58 397.677 588.776 373.227 609.413 368.079C592 346.845 571.365 362.286 568.785 373.227C559.112 368.723 541.055 373.227 541.055 387.384C541.055 395.105 545.567 404.115 555.888 404.115C559.756 404.115 564.917 398.967 566.205 395.105C575.234 400.253 559.756 410.549 569.429 420.2C557.176 417.628 528.801 401.539 528.801 386.095C528.801 374.513 549.439 368.079 551.372 342.98C556.532 344.266 557.176 352.631 555.24 357.779C566.849 357.134 580.391 344.911 581.035 321.743C605.541 314.023 613.279 279.917 604.253 257.394C611.994 256.108 622.955 249.029 615.218 232.94C596.516 253.533 587.487 234.227 564.269 229.723C587.487 225.22 596.513 205.269 615.218 225.861C622.955 209.776 611.994 203.338 604.253 202.052C613.282 179.529 605.541 144.783 581.035 137.704C580.391 114.539 566.846 102.312 555.24 101.026C557.176 106.819 556.529 115.184 551.372 116.47C549.436 91.3749 528.801 84.9407 528.801 73.3551C528.801 57.9111 557.176 41.8256 569.429 38.6085C559.756 48.9046 575.234 59.2006 566.205 64.3486C564.917 60.4867 559.756 55.3387 555.888 55.3387C545.571 54.694 541.055 64.3486 541.055 72.0689C541.055 86.2268 559.112 90.7301 568.785 86.2268C571.365 96.5229 592.003 112.608 609.413 91.3749C588.776 86.2269 594.58 61.7729 584.907 52.1216C602.965 48.2598 622.311 21.2335 602.965 2.57234C588.131 26.3815 557.176 11.5822 536.538 40.5394C536.538 37.3223 536.538 34.7466 535.25 32.1743C531.382 31.5296 527.51 31.5296 523.641 32.1743C527.51 18.6612 522.353 7.72035 515.256 0C508.164 7.72035 502.359 18.6612 506.228 32.1743C502.359 31.5296 499.135 31.5296 494.619 32.1743C493.974 34.7466 493.33 37.3223 493.33 40.5394C473.337 11.5822 441.737 26.3815 426.904 2.57234C408.202 21.2335 426.904 48.2598 445.606 52.1216C435.289 61.7729 441.093 86.2269 420.455 91.3749C438.513 112.608 458.503 96.5229 461.728 86.2268C471.401 90.7301 488.814 86.2268 488.814 72.0689C488.814 64.3486 484.301 54.694 473.981 55.3387C470.112 55.3387 464.952 60.4867 464.308 64.3486C455.279 59.2006 470.756 48.9046 460.439 38.6085C472.692 41.8256 501.711 57.9144 501.711 73.3551C501.711 84.9373 480.429 91.3715 478.493 116.47C473.981 115.184 472.689 106.819 475.269 101.026C463.016 102.312 449.474 114.539 448.827 137.704C424.32 144.783 416.583 179.529 425.609 202.052C417.872 203.338 406.907 209.773 414.644 225.861C433.99 205.269 443.019 225.217 465.593 229.723C443.022 234.227 433.993 253.533 414.644 232.94C406.904 249.029 417.868 256.105 425.609 257.394C416.58 279.917 424.32 314.023 448.827 321.743C449.471 344.907 463.016 357.134 475.269 357.779C472.689 352.631 473.981 344.266 478.493 342.98C480.429 368.075 501.711 374.509 501.711 386.095C501.711 401.539 472.692 417.624 460.439 420.2C470.756 410.549 455.279 400.253 464.308 395.105C464.952 398.967 470.112 404.115 473.981 404.115C484.298 404.115 488.814 395.105 488.814 387.384C488.814 373.227 471.401 368.723 461.728 373.227C458.503 362.286 438.51 346.845 420.455 368.079C441.093 373.227 435.289 397.68 445.606 406.687C426.904 411.19 408.202 438.216 426.904 456.878C441.737 433.068 473.337 447.868 493.33 418.269C493.33 422.131 493.974 424.703 494.619 427.279C499.131 427.279 502.359 427.924 506.228 427.279C502.359 440.792 508.164 451.733 515.256 459.453C522.349 451.733 527.51 440.792 523.641 427.279ZM538.474 146.076C549.439 144.789 557.176 133.849 559.756 128.059C565.561 128.059 571.365 137.71 569.429 150.582C581.683 149.296 593.936 169.243 593.292 182.112C592.647 200.128 582.327 218.789 557.824 218.789C542.99 218.789 527.513 210.424 527.513 186.615C527.513 177.605 536.542 168.599 544.926 168.599C551.375 168.599 560.404 175.033 560.404 182.756C560.404 191.122 555.244 200.131 539.766 198.2C541.055 203.993 548.795 210.428 556.532 210.428C566.849 210.428 581.038 200.131 581.038 182.756C581.038 163.451 564.273 142.862 529.446 155.73C534.606 128.704 524.933 105.539 515.256 96.5296C505.583 105.539 495.263 128.704 500.423 155.73C466.244 142.862 448.83 163.451 448.83 182.756C448.83 200.131 463.664 210.428 473.981 210.428C481.074 210.428 489.458 203.993 490.102 198.2C474.625 200.131 469.465 191.122 469.465 182.756C469.465 175.036 478.493 168.599 485.586 168.599C493.327 168.599 502.352 177.608 502.352 186.615C502.352 210.424 487.519 218.789 472.041 218.789C448.179 218.789 437.218 200.128 436.574 182.112C436.574 169.243 448.183 149.293 460.436 150.582C459.147 137.714 464.304 128.059 470.753 128.059C472.689 133.852 480.426 144.789 491.391 146.076C483.006 124.197 492.035 95.2401 515.253 79.796C537.823 95.2401 546.852 124.197 538.471 146.076H538.474Z" fill="#A91D29"/>
<path d="M1101.01 229.73C1115.85 224.582 1127.46 218.789 1133.26 198.2C1138.42 218.793 1150.02 224.582 1164.86 229.73C1150.02 234.878 1138.41 240.026 1133.26 260.618C1127.45 240.026 1115.84 234.878 1101.01 229.73ZM1133.26 362.93C1142.93 353.279 1152.6 330.756 1147.45 303.73C1182.27 316.598 1199.04 295.365 1199.04 276.704C1199.04 258.042 1184.85 249.033 1174.53 249.033C1166.79 249.033 1159.05 255.467 1157.77 260.615C1173.24 258.684 1178.4 267.694 1178.4 276.7C1178.4 283.779 1169.38 290.858 1162.93 290.858C1154.54 290.858 1145.51 281.848 1145.51 272.197C1145.51 249.033 1160.99 240.023 1175.82 240.023C1200.33 240.023 1210.65 258.684 1211.29 276.7C1211.94 290.213 1199.68 309.519 1187.43 308.875C1189.37 321.102 1183.56 331.398 1177.76 331.398C1175.18 325.605 1167.44 314.023 1156.47 313.381C1164.86 335.259 1155.83 364.217 1133.26 379.016C1110.04 364.217 1101.01 335.259 1109.39 313.381C1098.43 314.026 1090.69 325.608 1088.76 331.398C1082.31 331.398 1077.15 321.102 1078.44 308.875C1066.19 309.519 1054.58 290.213 1054.58 276.7C1055.22 258.684 1066.19 240.023 1090.04 240.023C1105.52 240.023 1120.36 249.033 1120.36 272.197C1120.36 281.848 1111.33 290.858 1103.59 290.858C1096.5 290.858 1087.47 283.779 1087.47 276.7C1087.47 267.69 1092.63 258.684 1108.11 260.615C1107.46 255.467 1099.08 249.033 1091.98 249.033C1081.67 249.033 1066.83 258.684 1066.83 276.704C1066.83 294.723 1084.25 316.598 1118.43 303.73C1113.27 330.756 1123.59 353.279 1133.26 362.93H1133.26ZM1141.64 427.279C1145.51 427.924 1149.38 427.279 1153.25 427.279C1154.54 424.707 1154.54 422.131 1154.54 418.269C1175.18 447.871 1206.13 433.068 1220.96 456.878C1240.31 438.217 1220.96 411.19 1202.91 406.687C1212.58 397.677 1206.78 373.227 1227.41 368.079C1210 346.845 1189.37 362.286 1186.79 373.227C1177.11 368.723 1159.05 373.227 1159.05 387.384C1159.05 395.105 1163.57 404.115 1173.89 404.115C1177.76 404.115 1182.92 398.967 1184.21 395.105C1193.23 400.253 1177.76 410.549 1187.43 420.2C1175.18 417.628 1146.8 401.539 1146.8 386.095C1146.8 374.513 1167.44 368.079 1169.37 342.98C1174.53 344.266 1175.18 352.631 1173.24 357.779C1184.85 357.134 1198.39 344.911 1199.04 321.743C1223.54 314.023 1231.28 279.917 1222.25 257.394C1229.99 256.108 1240.95 249.029 1233.22 232.94C1214.52 253.533 1205.49 234.227 1182.27 229.723C1205.49 225.22 1214.51 205.269 1233.22 225.861C1240.95 209.776 1229.99 203.338 1222.25 202.052C1231.28 179.529 1223.54 144.783 1199.04 137.704C1198.39 114.539 1184.85 102.312 1173.24 101.026C1175.18 106.819 1174.53 115.184 1169.37 116.47C1167.44 91.3749 1146.8 84.9407 1146.8 73.3551C1146.8 57.9111 1175.18 41.8256 1187.43 38.6085C1177.76 48.9046 1193.23 59.2006 1184.21 64.3486C1182.92 60.4867 1177.76 55.3387 1173.89 55.3387C1163.57 54.694 1159.05 64.3486 1159.05 72.0689C1159.05 86.2268 1177.11 90.7301 1186.79 86.2268C1189.37 96.5229 1210 112.608 1227.41 91.3749C1206.78 86.2269 1212.58 61.7729 1202.91 52.1216C1220.96 48.2598 1240.31 21.2335 1220.96 2.57234C1206.13 26.3815 1175.18 11.5822 1154.54 40.5394C1154.54 37.3223 1154.54 34.7466 1153.25 32.1743C1149.38 31.5296 1145.51 31.5296 1141.64 32.1743C1145.51 18.6612 1140.35 7.72035 1133.26 0C1126.16 7.72035 1120.36 18.6612 1124.23 32.1743C1120.36 31.5296 1117.13 31.5296 1112.62 32.1743C1111.97 34.7466 1111.33 37.3223 1111.33 40.5394C1091.34 11.5822 1059.74 26.3815 1044.9 2.57234C1026.2 21.2335 1044.9 48.2598 1063.61 52.1216C1053.29 61.7729 1059.09 86.2269 1038.46 91.3749C1056.51 112.608 1076.5 96.5229 1079.73 86.2268C1089.4 90.7301 1106.81 86.2268 1106.81 72.0689C1106.81 64.3486 1102.3 54.694 1091.98 55.3387C1088.11 55.3387 1082.95 60.4867 1082.31 64.3486C1073.28 59.2006 1088.76 48.9046 1078.44 38.6085C1090.69 41.8256 1119.71 57.9144 1119.71 73.3551C1119.71 84.9373 1098.43 91.3715 1096.49 116.47C1091.98 115.184 1090.69 106.819 1093.27 101.026C1081.02 102.312 1067.47 114.539 1066.83 137.704C1042.32 144.783 1034.58 179.529 1043.61 202.052C1035.87 203.338 1024.91 209.773 1032.64 225.861C1051.99 205.269 1061.02 225.217 1083.59 229.723C1061.02 234.227 1051.99 253.533 1032.64 232.94C1024.9 249.029 1035.87 256.105 1043.61 257.394C1034.58 279.917 1042.32 314.023 1066.83 321.743C1067.47 344.907 1081.02 357.134 1093.27 357.779C1090.69 352.631 1091.98 344.266 1096.49 342.98C1098.43 368.075 1119.71 374.509 1119.71 386.095C1119.71 401.539 1090.69 417.624 1078.44 420.2C1088.76 410.549 1073.28 400.253 1082.31 395.105C1082.95 398.967 1088.11 404.115 1091.98 404.115C1102.3 404.115 1106.81 395.105 1106.81 387.384C1106.81 373.227 1089.4 368.723 1079.73 373.227C1076.5 362.286 1056.51 346.845 1038.46 368.079C1059.09 373.227 1053.29 397.68 1063.61 406.687C1044.9 411.19 1026.2 438.217 1044.9 456.878C1059.74 433.068 1091.34 447.868 1111.33 418.269C1111.33 422.131 1111.97 424.703 1112.62 427.279C1117.13 427.279 1120.36 427.924 1124.23 427.279C1120.36 440.792 1126.16 451.733 1133.26 459.453C1140.35 451.733 1145.51 440.792 1141.64 427.279ZM1156.47 146.076C1167.44 144.789 1175.18 133.849 1177.76 128.059C1183.56 128.059 1189.37 137.71 1187.43 150.582C1199.68 149.296 1211.94 169.243 1211.29 182.112C1210.65 200.128 1200.33 218.789 1175.82 218.789C1160.99 218.789 1145.51 210.424 1145.51 186.615C1145.51 177.605 1154.54 168.599 1162.93 168.599C1169.38 168.599 1178.4 175.033 1178.4 182.756C1178.4 191.122 1173.24 200.131 1157.77 198.2C1159.05 203.993 1166.79 210.428 1174.53 210.428C1184.85 210.428 1199.04 200.131 1199.04 182.756C1199.04 163.451 1182.27 142.862 1147.45 155.73C1152.61 128.704 1142.93 105.539 1133.26 96.5296C1123.58 105.539 1113.26 128.704 1118.42 155.73C1084.24 142.862 1066.83 163.451 1066.83 182.756C1066.83 200.131 1081.66 210.428 1091.98 210.428C1099.07 210.428 1107.46 203.993 1108.1 198.2C1092.62 200.131 1087.46 191.122 1087.46 182.756C1087.46 175.036 1096.49 168.599 1103.59 168.599C1111.33 168.599 1120.35 177.608 1120.35 186.615C1120.35 210.424 1105.52 218.789 1090.04 218.789C1066.18 218.789 1055.22 200.128 1054.57 182.112C1054.57 169.243 1066.18 149.293 1078.44 150.582C1077.15 137.714 1082.3 128.059 1088.75 128.059C1090.69 133.852 1098.43 144.789 1109.39 146.076C1101.01 124.197 1110.04 95.2401 1133.25 79.796C1155.82 95.2401 1164.85 124.197 1156.47 146.076H1156.47Z" fill="#A91D29"/>
<path d="M277.013 229.73C291.846 224.582 303.455 218.789 309.256 198.2C314.417 218.793 326.022 224.582 340.856 229.73C326.022 234.878 314.413 240.026 309.256 260.618C303.452 240.026 291.843 234.878 277.013 229.73ZM309.256 362.93C318.929 353.279 328.603 330.756 323.446 303.73C358.269 316.598 375.038 295.365 375.038 276.704C375.038 258.042 360.849 249.033 350.532 249.033C342.792 249.033 335.055 255.467 333.766 260.615C349.244 258.684 354.404 267.694 354.404 276.7C354.404 283.779 345.375 290.858 338.926 290.858C330.542 290.858 321.513 281.848 321.513 272.197C321.513 249.033 336.99 240.023 351.824 240.023C376.33 240.023 386.647 258.684 387.292 276.7C387.936 290.213 375.683 309.519 363.429 308.875C365.365 321.102 359.561 331.398 353.756 331.398C351.176 325.605 343.439 314.023 332.474 313.381C340.859 335.259 331.83 364.217 309.256 379.016C286.038 364.217 277.013 335.259 285.394 313.381C274.429 314.026 266.692 325.608 264.756 331.398C258.308 331.398 253.147 321.102 254.439 308.875C242.186 309.519 230.577 290.213 230.577 276.7C231.221 258.684 242.186 240.023 266.045 240.023C281.522 240.023 296.356 249.033 296.356 272.197C296.356 281.848 287.327 290.858 279.59 290.858C272.497 290.858 263.468 283.779 263.468 276.7C263.468 267.69 268.628 258.684 284.106 260.615C283.462 255.467 275.077 249.033 267.984 249.033C257.667 249.033 242.834 258.684 242.834 276.704C242.834 294.723 260.247 316.598 294.426 303.73C289.266 330.756 299.587 353.279 309.26 362.93H309.256ZM317.641 427.279C321.51 427.924 325.378 427.279 329.25 427.279C330.538 424.707 330.538 422.131 330.538 418.269C351.176 447.871 382.131 433.068 396.965 456.878C416.311 438.216 396.965 411.19 378.907 406.687C388.58 397.677 382.776 373.227 403.413 368.079C386 346.845 365.365 362.286 362.785 373.227C353.112 368.723 335.055 373.227 335.055 387.384C335.055 395.105 339.567 404.115 349.888 404.115C353.756 404.115 358.917 398.967 360.205 395.105C369.234 400.253 353.756 410.549 363.429 420.2C351.176 417.628 322.801 401.539 322.801 386.095C322.801 374.513 343.439 368.079 345.372 342.98C350.532 344.266 351.176 352.631 349.24 357.779C360.849 357.134 374.391 344.911 375.035 321.743C399.541 314.023 407.279 279.917 398.253 257.394C405.994 256.108 416.955 249.029 409.218 232.94C390.516 253.533 381.487 234.227 358.269 229.723C381.487 225.22 390.513 205.269 409.218 225.861C416.955 209.776 405.994 203.338 398.253 202.052C407.282 179.529 399.541 144.783 375.035 137.704C374.391 114.539 360.846 102.312 349.24 101.026C351.176 106.819 350.529 115.184 345.372 116.47C343.436 91.3749 322.801 84.9407 322.801 73.3551C322.801 57.9111 351.176 41.8256 363.429 38.6085C353.756 48.9046 369.234 59.2006 360.205 64.3486C358.917 60.4867 353.756 55.3387 349.888 55.3387C339.571 54.694 335.055 64.3486 335.055 72.0689C335.055 86.2268 353.112 90.7301 362.785 86.2268C365.365 96.5229 386.003 112.608 403.413 91.3749C382.776 86.2269 388.58 61.7729 378.907 52.1216C396.965 48.2598 416.311 21.2335 396.965 2.57234C382.131 26.3815 351.176 11.5822 330.538 40.5394C330.538 37.3223 330.538 34.7466 329.25 32.1743C325.382 31.5296 321.51 31.5296 317.641 32.1743C321.51 18.6612 316.353 7.72035 309.256 0C302.164 7.72035 296.359 18.6612 300.228 32.1743C296.359 31.5296 293.135 31.5296 288.619 32.1743C287.974 34.7466 287.33 37.3223 287.33 40.5394C267.337 11.5822 235.737 26.3815 220.904 2.57234C202.202 21.2335 220.904 48.2598 239.606 52.1216C229.289 61.7729 235.093 86.2269 214.455 91.3749C232.513 112.608 252.503 96.5229 255.728 86.2268C265.401 90.7301 282.814 86.2268 282.814 72.0689C282.814 64.3486 278.301 54.694 267.981 55.3387C264.112 55.3387 258.952 60.4867 258.308 64.3486C249.279 59.2006 264.756 48.9046 254.439 38.6085C266.692 41.8256 295.711 57.9144 295.711 73.3551C295.711 84.9373 274.429 91.3715 272.493 116.47C267.981 115.184 266.689 106.819 269.269 101.026C257.016 102.312 243.474 114.539 242.827 137.704C218.32 144.783 210.583 179.529 219.609 202.052C211.872 203.338 200.907 209.773 208.644 225.861C227.99 205.269 237.019 225.217 259.593 229.723C237.022 234.227 227.993 253.533 208.644 232.94C200.904 249.029 211.868 256.105 219.609 257.394C210.58 279.917 218.32 314.023 242.827 321.743C243.471 344.907 257.016 357.134 269.269 357.779C266.689 352.631 267.981 344.266 272.493 342.98C274.429 368.075 295.711 374.509 295.711 386.095C295.711 401.539 266.692 417.624 254.439 420.2C264.756 410.549 249.279 400.253 258.308 395.105C258.952 398.967 264.112 404.115 267.981 404.115C278.298 404.115 282.814 395.105 282.814 387.384C282.814 373.227 265.401 368.723 255.728 373.227C252.503 362.286 232.51 346.845 214.455 368.079C235.093 373.227 229.289 397.68 239.606 406.687C220.904 411.19 202.202 438.216 220.904 456.878C235.737 433.068 267.337 447.868 287.33 418.269C287.33 422.131 287.974 424.703 288.619 427.279C293.131 427.279 296.359 427.924 300.228 427.279C296.359 440.792 302.164 451.733 309.256 459.453C316.349 451.733 321.51 440.792 317.641 427.279ZM332.474 146.076C343.439 144.789 351.176 133.849 353.756 128.059C359.561 128.059 365.365 137.71 363.429 150.582C375.683 149.296 387.936 169.243 387.292 182.112C386.647 200.128 376.327 218.789 351.824 218.789C336.99 218.789 321.513 210.424 321.513 186.615C321.513 177.605 330.542 168.599 338.926 168.599C345.375 168.599 354.404 175.033 354.404 182.756C354.404 191.122 349.244 200.131 333.766 198.2C335.055 203.993 342.795 210.428 350.532 210.428C360.849 210.428 375.038 200.131 375.038 182.756C375.038 163.451 358.273 142.862 323.446 155.73C328.606 128.704 318.933 105.539 309.256 96.5296C299.583 105.539 289.263 128.704 294.423 155.73C260.244 142.862 242.83 163.451 242.83 182.756C242.83 200.131 257.664 210.428 267.981 210.428C275.074 210.428 283.458 203.993 284.102 198.2C268.625 200.131 263.465 191.122 263.465 182.756C263.465 175.036 272.493 168.599 279.586 168.599C287.327 168.599 296.352 177.608 296.352 186.615C296.352 210.424 281.519 218.789 266.041 218.789C242.179 218.789 231.218 200.128 230.574 182.112C230.574 169.243 242.183 149.293 254.436 150.582C253.147 137.714 258.304 128.059 264.753 128.059C266.689 133.852 274.426 144.789 285.391 146.076C277.006 124.197 286.035 95.2401 309.253 79.796C331.823 95.2401 340.852 124.197 332.471 146.076H332.474Z" fill="#A91D29"/>
<path d="M895.013 229.73C909.846 224.582 921.455 218.789 927.256 198.2C932.417 218.793 944.022 224.582 958.856 229.73C944.022 234.878 932.413 240.026 927.256 260.618C921.452 240.026 909.843 234.878 895.013 229.73ZM927.256 362.93C936.929 353.279 946.602 330.756 941.446 303.73C976.269 316.598 993.038 295.365 993.038 276.704C993.038 258.042 978.849 249.033 968.532 249.033C960.792 249.033 953.055 255.467 951.766 260.615C967.244 258.684 972.404 267.694 972.404 276.7C972.404 283.779 963.375 290.858 956.926 290.858C948.542 290.858 939.513 281.848 939.513 272.197C939.513 249.033 954.99 240.023 969.824 240.023C994.33 240.023 1004.65 258.684 1005.29 276.7C1005.94 290.213 993.683 309.519 981.429 308.875C983.365 321.102 977.561 331.398 971.756 331.398C969.176 325.605 961.439 314.023 950.474 313.381C958.859 335.259 949.83 364.217 927.256 379.016C904.038 364.217 895.013 335.259 903.394 313.381C892.429 314.026 884.692 325.608 882.756 331.398C876.308 331.398 871.147 321.102 872.439 308.875C860.186 309.519 848.577 290.213 848.577 276.7C849.221 258.684 860.186 240.023 884.045 240.023C899.522 240.023 914.356 249.033 914.356 272.197C914.356 281.848 905.327 290.858 897.59 290.858C890.497 290.858 881.468 283.779 881.468 276.7C881.468 267.69 886.628 258.684 902.106 260.615C901.462 255.467 893.077 249.033 885.984 249.033C875.667 249.033 860.834 258.684 860.834 276.704C860.834 294.723 878.247 316.598 912.426 303.73C907.266 330.756 917.587 353.279 927.26 362.93H927.256ZM935.641 427.279C939.51 427.924 943.378 427.279 947.25 427.279C948.538 424.707 948.538 422.131 948.538 418.269C969.176 447.871 1000.13 433.068 1014.96 456.878C1034.31 438.217 1014.96 411.19 996.907 406.687C1006.58 397.677 1000.78 373.227 1021.41 368.079C1004 346.845 983.365 362.286 980.785 373.227C971.112 368.723 953.055 373.227 953.055 387.384C953.055 395.105 957.567 404.115 967.888 404.115C971.756 404.115 976.917 398.967 978.205 395.105C987.234 400.253 971.756 410.549 981.429 420.2C969.176 417.628 940.801 401.539 940.801 386.095C940.801 374.513 961.439 368.079 963.372 342.98C968.532 344.266 969.176 352.631 967.24 357.779C978.849 357.134 992.391 344.911 993.035 321.743C1017.54 314.023 1025.28 279.917 1016.25 257.394C1023.99 256.108 1034.95 249.029 1027.22 232.94C1008.52 253.533 999.487 234.227 976.269 229.723C999.487 225.22 1008.51 205.269 1027.22 225.861C1034.95 209.776 1023.99 203.338 1016.25 202.052C1025.28 179.529 1017.54 144.783 993.035 137.704C992.391 114.539 978.846 102.312 967.24 101.026C969.176 106.819 968.529 115.184 963.372 116.47C961.436 91.3749 940.801 84.9407 940.801 73.3551C940.801 57.9111 969.176 41.8256 981.429 38.6085C971.756 48.9046 987.234 59.2006 978.205 64.3486C976.917 60.4867 971.756 55.3387 967.888 55.3387C957.571 54.694 953.055 64.3486 953.055 72.0689C953.055 86.2268 971.112 90.7301 980.785 86.2268C983.365 96.5229 1004 112.608 1021.41 91.3749C1000.78 86.2269 1006.58 61.7729 996.907 52.1216C1014.96 48.2598 1034.31 21.2335 1014.96 2.57234C1000.13 26.3815 969.176 11.5822 948.538 40.5394C948.538 37.3223 948.538 34.7466 947.25 32.1743C943.382 31.5296 939.51 31.5296 935.641 32.1743C939.51 18.6612 934.353 7.72035 927.256 0C920.164 7.72035 914.359 18.6612 918.228 32.1743C914.359 31.5296 911.135 31.5296 906.619 32.1743C905.974 34.7466 905.33 37.3223 905.33 40.5394C885.337 11.5822 853.737 26.3815 838.904 2.57234C820.202 21.2335 838.904 48.2598 857.606 52.1216C847.289 61.7729 853.093 86.2269 832.455 91.3749C850.513 112.608 870.503 96.5229 873.728 86.2268C883.401 90.7301 900.814 86.2268 900.814 72.0689C900.814 64.3486 896.301 54.694 885.981 55.3387C882.112 55.3387 876.952 60.4867 876.308 64.3486C867.279 59.2006 882.756 48.9046 872.439 38.6085C884.692 41.8256 913.711 57.9144 913.711 73.3551C913.711 84.9373 892.429 91.3715 890.493 116.47C885.981 115.184 884.689 106.819 887.269 101.026C875.016 102.312 861.474 114.539 860.827 137.704C836.32 144.783 828.583 179.529 837.609 202.052C829.872 203.338 818.907 209.773 826.644 225.861C845.99 205.269 855.019 225.217 877.593 229.723C855.022 234.227 845.993 253.533 826.644 232.94C818.904 249.029 829.868 256.105 837.609 257.394C828.58 279.917 836.32 314.023 860.827 321.743C861.471 344.907 875.016 357.134 887.269 357.779C884.689 352.631 885.981 344.266 890.493 342.98C892.429 368.075 913.711 374.509 913.711 386.095C913.711 401.539 884.692 417.624 872.439 420.2C882.756 410.549 867.279 400.253 876.308 395.105C876.952 398.967 882.112 404.115 885.981 404.115C896.298 404.115 900.814 395.105 900.814 387.384C900.814 373.227 883.401 368.723 873.728 373.227C870.503 362.286 850.51 346.845 832.455 368.079C853.093 373.227 847.289 397.68 857.606 406.687C838.904 411.19 820.202 438.217 838.904 456.878C853.737 433.068 885.337 447.868 905.33 418.269C905.33 422.131 905.974 424.703 906.619 427.279C911.131 427.279 914.359 427.924 918.228 427.279C914.359 440.792 920.164 451.733 927.256 459.453C934.349 451.733 939.51 440.792 935.641 427.279ZM950.474 146.076C961.439 144.789 969.176 133.849 971.756 128.059C977.561 128.059 983.365 137.71 981.429 150.582C993.683 149.296 1005.94 169.243 1005.29 182.112C1004.65 200.128 994.327 218.789 969.824 218.789C954.99 218.789 939.513 210.424 939.513 186.615C939.513 177.605 948.542 168.599 956.926 168.599C963.375 168.599 972.404 175.033 972.404 182.756C972.404 191.122 967.244 200.131 951.766 198.2C953.055 203.993 960.795 210.428 968.532 210.428C978.849 210.428 993.038 200.131 993.038 182.756C993.038 163.451 976.273 142.862 941.446 155.73C946.606 128.704 936.933 105.539 927.256 96.5296C917.583 105.539 907.263 128.704 912.423 155.73C878.244 142.862 860.83 163.451 860.83 182.756C860.83 200.131 875.664 210.428 885.981 210.428C893.074 210.428 901.458 203.993 902.102 198.2C886.625 200.131 881.465 191.122 881.465 182.756C881.465 175.036 890.493 168.599 897.586 168.599C905.327 168.599 914.352 177.608 914.352 186.615C914.352 210.424 899.519 218.789 884.041 218.789C860.179 218.789 849.218 200.128 848.574 182.112C848.574 169.243 860.183 149.293 872.436 150.582C871.147 137.714 876.304 128.059 882.753 128.059C884.689 133.852 892.426 144.789 903.391 146.076C895.006 124.197 904.035 95.2401 927.253 79.796C949.823 95.2401 958.852 124.197 950.471 146.076H950.474Z" fill="#A91D29"/>
<path d="M71.0129 229.73C85.8463 224.582 97.4553 218.789 103.256 198.2C108.417 218.793 120.022 224.582 134.856 229.73C120.022 234.878 108.413 240.026 103.256 260.618C97.4519 240.026 85.8429 234.878 71.0129 229.73ZM103.256 362.93C112.929 353.279 122.603 330.756 117.446 303.73C152.269 316.598 169.038 295.365 169.038 276.704C169.038 258.042 154.849 249.033 144.532 249.033C136.792 249.033 129.055 255.467 127.766 260.615C143.244 258.684 148.404 267.694 148.404 276.7C148.404 283.779 139.375 290.858 132.926 290.858C124.542 290.858 115.513 281.848 115.513 272.197C115.513 249.033 130.99 240.023 145.824 240.023C170.33 240.023 180.647 258.684 181.292 276.7C181.936 290.213 169.683 309.519 157.429 308.875C159.365 321.102 153.561 331.398 147.756 331.398C145.176 325.605 137.439 314.023 126.474 313.381C134.859 335.259 125.83 364.217 103.256 379.016C80.0384 364.217 71.013 335.259 79.3942 313.381C68.4295 314.026 60.6924 325.608 58.7564 331.398C52.3077 331.398 47.1474 321.102 48.4392 308.875C36.186 309.519 24.577 290.213 24.577 276.7C25.2212 258.684 36.186 240.023 60.0448 240.023C75.5223 240.023 90.3557 249.033 90.3557 272.197C90.3557 281.848 81.3268 290.858 73.5898 290.858C66.4969 290.858 57.468 283.779 57.468 276.7C57.468 267.69 62.6283 258.684 78.1058 260.615C77.4616 255.467 69.077 249.033 61.9841 249.033C51.6669 249.033 36.8335 258.684 36.8335 276.704C36.8335 294.723 54.247 316.598 88.4264 303.73C83.2661 330.756 93.5867 353.279 103.26 362.93H103.256ZM111.641 427.279C115.51 427.924 119.378 427.279 123.25 427.279C124.538 424.707 124.538 422.131 124.538 418.269C145.176 447.871 176.131 433.068 190.965 456.878C210.311 438.216 190.965 411.19 172.907 406.687C182.58 397.677 176.776 373.227 197.413 368.079C180 346.845 159.365 362.286 156.785 373.227C147.112 368.723 129.055 373.227 129.055 387.384C129.055 395.105 133.567 404.115 143.888 404.115C147.756 404.115 152.917 398.967 154.205 395.105C163.234 400.253 147.756 410.549 157.429 420.2C145.176 417.628 116.801 401.539 116.801 386.095C116.801 374.513 137.439 368.079 139.372 342.98C144.532 344.266 145.176 352.631 143.24 357.779C154.849 357.134 168.391 344.911 169.035 321.743C193.541 314.023 201.279 279.917 192.253 257.394C199.994 256.108 210.955 249.029 203.218 232.94C184.516 253.533 175.487 234.227 152.269 229.723C175.487 225.22 184.513 205.269 203.218 225.861C210.955 209.776 199.994 203.338 192.253 202.052C201.282 179.529 193.541 144.783 169.035 137.704C168.391 114.539 154.846 102.312 143.24 101.026C145.176 106.819 144.529 115.184 139.372 116.47C137.436 91.3749 116.801 84.9407 116.801 73.3551C116.801 57.9111 145.176 41.8256 157.429 38.6085C147.756 48.9046 163.234 59.2006 154.205 64.3486C152.917 60.4867 147.756 55.3387 143.888 55.3387C133.571 54.694 129.055 64.3486 129.055 72.0689C129.055 86.2268 147.112 90.7301 156.785 86.2268C159.365 96.5229 180.003 112.608 197.413 91.3749C176.776 86.2269 182.58 61.7729 172.907 52.1216C190.965 48.2598 210.311 21.2335 190.965 2.57234C176.131 26.3815 145.176 11.5822 124.538 40.5394C124.538 37.3223 124.538 34.7466 123.25 32.1743C119.382 31.5296 115.51 31.5296 111.641 32.1743C115.51 18.6612 110.353 7.72035 103.256 0C96.1635 7.72035 90.359 18.6612 94.2276 32.1743C90.359 31.5296 87.1347 31.5296 82.6186 32.1743C81.9744 34.7466 81.3302 37.3223 81.3302 40.5394C61.3366 11.5822 29.7373 26.3815 14.9039 2.57234C-3.79794 21.2335 14.9039 48.2598 33.6058 52.1216C23.2886 61.7729 29.0931 86.2269 8.45525 91.3749C26.5129 112.608 46.5032 96.5229 49.7276 86.2268C59.4006 90.7301 76.8141 86.2268 76.8141 72.0689C76.8141 64.3486 72.3014 54.694 61.9808 55.3387C58.1122 55.3387 52.9519 60.4867 52.3077 64.3486C43.2789 59.2006 58.7564 48.9046 48.4392 38.6085C60.6924 41.8256 89.7115 57.9144 89.7115 73.3551C89.7115 84.9373 68.4294 91.3715 66.4935 116.47C61.9808 115.184 60.689 106.819 63.2691 101.026C51.016 102.312 37.4744 114.539 36.8268 137.704C12.3204 144.783 4.58335 179.529 13.6088 202.052C5.87175 203.338 -5.09304 209.773 2.64405 225.861C21.9901 205.269 31.019 225.217 53.5928 229.723C31.0223 234.227 21.9935 253.533 2.64405 232.94C-5.0964 249.029 5.86839 256.105 13.6088 257.394C4.57999 279.917 12.3204 314.023 36.8268 321.743C37.471 344.907 51.016 357.134 63.2691 357.779C60.689 352.631 61.9808 344.266 66.4935 342.98C68.4294 368.075 89.7115 374.509 89.7115 386.095C89.7115 401.539 60.6924 417.624 48.4392 420.2C58.7564 410.549 43.2789 400.253 52.3077 395.105C52.9519 398.967 58.1122 404.115 61.9808 404.115C72.298 404.115 76.8141 395.105 76.8141 387.384C76.8141 373.227 59.4006 368.723 49.7276 373.227C46.5032 362.286 26.5096 346.845 8.45525 368.079C29.0931 373.227 23.2886 397.68 33.6058 406.687C14.9039 411.19 -3.79794 438.216 14.9039 456.878C29.7373 433.068 61.3366 447.868 81.3302 418.269C81.3302 422.131 81.9744 424.703 82.6186 427.279C87.1313 427.279 90.359 427.924 94.2276 427.279C90.359 440.792 96.1635 451.733 103.256 459.453C110.349 451.733 115.51 440.792 111.641 427.279ZM126.474 146.076C137.439 144.789 145.176 133.849 147.756 128.059C153.561 128.059 159.365 137.71 157.429 150.582C169.683 149.296 181.936 169.243 181.292 182.112C180.647 200.128 170.327 218.789 145.824 218.789C130.99 218.789 115.513 210.424 115.513 186.615C115.513 177.605 124.542 168.599 132.926 168.599C139.375 168.599 148.404 175.033 148.404 182.756C148.404 191.122 143.244 200.131 127.766 198.2C129.055 203.993 136.795 210.428 144.532 210.428C154.849 210.428 169.038 200.131 169.038 182.756C169.038 163.451 152.273 142.862 117.446 155.73C122.606 128.704 112.933 105.539 103.256 96.5296C93.5834 105.539 83.2628 128.704 88.4231 155.73C54.2437 142.862 36.8302 163.451 36.8302 182.756C36.8302 200.131 51.6635 210.428 61.9808 210.428C69.0736 210.428 77.4583 203.993 78.1025 198.2C62.625 200.131 57.4647 191.122 57.4647 182.756C57.4647 175.036 66.4935 168.599 73.5864 168.599C81.3268 168.599 90.3523 177.608 90.3523 186.615C90.3523 210.424 75.519 218.789 60.0415 218.789C36.1793 218.789 25.2178 200.128 24.5736 182.112C24.5736 169.243 36.1826 149.293 48.4358 150.582C47.1474 137.714 52.3044 128.059 58.7531 128.059C60.689 133.852 68.4261 144.789 79.3909 146.076C71.0062 124.197 80.0351 95.2401 103.253 79.796C125.823 95.2401 134.852 124.197 126.471 146.076H126.474Z" fill="#A91D29"/>
<path d="M689.013 229.73C703.846 224.582 715.455 218.789 721.256 198.2C726.417 218.793 738.022 224.582 752.856 229.73C738.022 234.878 726.413 240.026 721.256 260.618C715.452 240.026 703.843 234.878 689.013 229.73ZM721.256 362.93C730.929 353.279 740.602 330.756 735.446 303.73C770.269 316.598 787.038 295.365 787.038 276.704C787.038 258.042 772.849 249.033 762.532 249.033C754.792 249.033 747.055 255.467 745.766 260.615C761.244 258.684 766.404 267.694 766.404 276.7C766.404 283.779 757.375 290.858 750.926 290.858C742.542 290.858 733.513 281.848 733.513 272.197C733.513 249.033 748.99 240.023 763.824 240.023C788.33 240.023 798.647 258.684 799.292 276.7C799.936 290.213 787.683 309.519 775.429 308.875C777.365 321.102 771.561 331.398 765.756 331.398C763.176 325.605 755.439 314.023 744.474 313.381C752.859 335.259 743.83 364.217 721.256 379.016C698.038 364.217 689.013 335.259 697.394 313.381C686.429 314.026 678.692 325.608 676.756 331.398C670.308 331.398 665.147 321.102 666.439 308.875C654.186 309.519 642.577 290.213 642.577 276.7C643.221 258.684 654.186 240.023 678.045 240.023C693.522 240.023 708.356 249.033 708.356 272.197C708.356 281.848 699.327 290.858 691.59 290.858C684.497 290.858 675.468 283.779 675.468 276.7C675.468 267.69 680.628 258.684 696.106 260.615C695.462 255.467 687.077 249.033 679.984 249.033C669.667 249.033 654.834 258.684 654.834 276.704C654.834 294.723 672.247 316.598 706.426 303.73C701.266 330.756 711.587 353.279 721.26 362.93H721.256ZM729.641 427.279C733.51 427.924 737.378 427.279 741.25 427.279C742.538 424.707 742.538 422.131 742.538 418.269C763.176 447.871 794.131 433.068 808.965 456.878C828.311 438.217 808.965 411.19 790.907 406.687C800.58 397.677 794.776 373.227 815.413 368.079C798 346.845 777.365 362.286 774.785 373.227C765.112 368.723 747.055 373.227 747.055 387.384C747.055 395.105 751.567 404.115 761.888 404.115C765.756 404.115 770.917 398.967 772.205 395.105C781.234 400.253 765.756 410.549 775.429 420.2C763.176 417.628 734.801 401.539 734.801 386.095C734.801 374.513 755.439 368.079 757.372 342.98C762.532 344.266 763.176 352.631 761.24 357.779C772.849 357.134 786.391 344.911 787.035 321.743C811.541 314.023 819.279 279.917 810.253 257.394C817.994 256.108 828.955 249.029 821.218 232.94C802.516 253.533 793.487 234.227 770.269 229.723C793.487 225.22 802.513 205.269 821.218 225.861C828.955 209.776 817.994 203.338 810.253 202.052C819.282 179.529 811.541 144.783 787.035 137.704C786.391 114.539 772.846 102.312 761.24 101.026C763.176 106.819 762.529 115.184 757.372 116.47C755.436 91.3749 734.801 84.9407 734.801 73.3551C734.801 57.9111 763.176 41.8256 775.429 38.6085C765.756 48.9046 781.234 59.2006 772.205 64.3486C770.917 60.4867 765.756 55.3387 761.888 55.3387C751.571 54.694 747.055 64.3486 747.055 72.0689C747.055 86.2268 765.112 90.7301 774.785 86.2268C777.365 96.5229 798.003 112.608 815.413 91.3749C794.776 86.2269 800.58 61.7729 790.907 52.1216C808.965 48.2598 828.311 21.2335 808.965 2.57234C794.131 26.3815 763.176 11.5822 742.538 40.5394C742.538 37.3223 742.538 34.7466 741.25 32.1743C737.382 31.5296 733.51 31.5296 729.641 32.1743C733.51 18.6612 728.353 7.72035 721.256 0C714.164 7.72035 708.359 18.6612 712.228 32.1743C708.359 31.5296 705.135 31.5296 700.619 32.1743C699.974 34.7466 699.33 37.3223 699.33 40.5394C679.337 11.5822 647.737 26.3815 632.904 2.57234C614.202 21.2335 632.904 48.2598 651.606 52.1216C641.289 61.7729 647.093 86.2269 626.455 91.3749C644.513 112.608 664.503 96.5229 667.728 86.2268C677.401 90.7301 694.814 86.2268 694.814 72.0689C694.814 64.3486 690.301 54.694 679.981 55.3387C676.112 55.3387 670.952 60.4867 670.308 64.3486C661.279 59.2006 676.756 48.9046 666.439 38.6085C678.692 41.8256 707.711 57.9144 707.711 73.3551C707.711 84.9373 686.429 91.3715 684.493 116.47C679.981 115.184 678.689 106.819 681.269 101.026C669.016 102.312 655.474 114.539 654.827 137.704C630.32 144.783 622.583 179.529 631.609 202.052C623.872 203.338 612.907 209.773 620.644 225.861C639.99 205.269 649.019 225.217 671.593 229.723C649.022 234.227 639.993 253.533 620.644 232.94C612.904 249.029 623.868 256.105 631.609 257.394C622.58 279.917 630.32 314.023 654.827 321.743C655.471 344.907 669.016 357.134 681.269 357.779C678.689 352.631 679.981 344.266 684.493 342.98C686.429 368.075 707.711 374.509 707.711 386.095C707.711 401.539 678.692 417.624 666.439 420.2C676.756 410.549 661.279 400.253 670.308 395.105C670.952 398.967 676.112 404.115 679.981 404.115C690.298 404.115 694.814 395.105 694.814 387.384C694.814 373.227 677.401 368.723 667.728 373.227C664.503 362.286 644.51 346.845 626.455 368.079C647.093 373.227 641.289 397.68 651.606 406.687C632.904 411.19 614.202 438.217 632.904 456.878C647.737 433.068 679.337 447.868 699.33 418.269C699.33 422.131 699.974 424.703 700.619 427.279C705.131 427.279 708.359 427.924 712.228 427.279C708.359 440.792 714.164 451.733 721.256 459.453C728.349 451.733 733.51 440.792 729.641 427.279ZM744.474 146.076C755.439 144.789 763.176 133.849 765.756 128.059C771.561 128.059 777.365 137.71 775.429 150.582C787.683 149.296 799.936 169.243 799.292 182.112C798.647 200.128 788.327 218.789 763.824 218.789C748.99 218.789 733.513 210.424 733.513 186.615C733.513 177.605 742.542 168.599 750.926 168.599C757.375 168.599 766.404 175.033 766.404 182.756C766.404 191.122 761.244 200.131 745.766 198.2C747.055 203.993 754.795 210.428 762.532 210.428C772.849 210.428 787.038 200.131 787.038 182.756C787.038 163.451 770.273 142.862 735.446 155.73C740.606 128.704 730.933 105.539 721.256 96.5296C711.583 105.539 701.263 128.704 706.423 155.73C672.244 142.862 654.83 163.451 654.83 182.756C654.83 200.131 669.664 210.428 679.981 210.428C687.074 210.428 695.458 203.993 696.102 198.2C680.625 200.131 675.465 191.122 675.465 182.756C675.465 175.036 684.493 168.599 691.586 168.599C699.327 168.599 708.352 177.608 708.352 186.615C708.352 210.424 693.519 218.789 678.041 218.789C654.179 218.789 643.218 200.128 642.574 182.112C642.574 169.243 654.183 149.293 666.436 150.582C665.147 137.714 670.304 128.059 676.753 128.059C678.689 133.852 686.426 144.789 697.391 146.076C689.006 124.197 698.035 95.2401 721.253 79.796C743.823 95.2401 752.852 124.197 744.471 146.076H744.474Z" fill="#A91D29"/>
<path d="M71.0129 688.73C85.8463 683.582 97.4553 677.789 103.256 657.2C108.417 677.793 120.022 683.582 134.856 688.73C120.022 693.878 108.413 699.026 103.256 719.618C97.4519 699.026 85.8429 693.878 71.0129 688.73ZM103.256 821.93C112.929 812.279 122.603 789.756 117.446 762.73C152.269 775.598 169.038 754.365 169.038 735.704C169.038 717.042 154.849 708.033 144.532 708.033C136.792 708.033 129.055 714.467 127.766 719.615C143.244 717.684 148.404 726.694 148.404 735.7C148.404 742.779 139.375 749.858 132.926 749.858C124.542 749.858 115.513 740.848 115.513 731.197C115.513 708.033 130.99 699.023 145.824 699.023C170.33 699.023 180.647 717.684 181.292 735.7C181.936 749.213 169.683 768.519 157.429 767.875C159.365 780.102 153.561 790.398 147.756 790.398C145.176 784.605 137.439 773.023 126.474 772.381C134.859 794.259 125.83 823.217 103.256 838.016C80.0384 823.217 71.013 794.259 79.3942 772.381C68.4295 773.026 60.6924 784.608 58.7564 790.398C52.3077 790.398 47.1474 780.102 48.4392 767.875C36.186 768.519 24.577 749.213 24.577 735.7C25.2212 717.684 36.186 699.023 60.0448 699.023C75.5223 699.023 90.3557 708.033 90.3557 731.197C90.3557 740.848 81.3268 749.858 73.5898 749.858C66.4969 749.858 57.468 742.779 57.468 735.7C57.468 726.69 62.6283 717.684 78.1058 719.615C77.4616 714.467 69.077 708.033 61.9841 708.033C51.6669 708.033 36.8335 717.684 36.8335 735.704C36.8335 753.723 54.247 775.598 88.4264 762.73C83.2661 789.756 93.5867 812.279 103.26 821.93H103.256ZM111.641 886.279C115.51 886.924 119.378 886.279 123.25 886.279C124.538 883.707 124.538 881.131 124.538 877.269C145.176 906.871 176.131 892.068 190.965 915.878C210.311 897.216 190.965 870.19 172.907 865.687C182.58 856.677 176.776 832.227 197.413 827.079C180 805.845 159.365 821.286 156.785 832.227C147.112 827.723 129.055 832.227 129.055 846.384C129.055 854.105 133.567 863.115 143.888 863.115C147.756 863.115 152.917 857.967 154.205 854.105C163.234 859.253 147.756 869.549 157.429 879.2C145.176 876.628 116.801 860.539 116.801 845.095C116.801 833.513 137.439 827.079 139.372 801.98C144.532 803.266 145.176 811.631 143.24 816.779C154.849 816.134 168.391 803.911 169.035 780.743C193.541 773.023 201.279 738.917 192.253 716.394C199.994 715.108 210.955 708.029 203.218 691.94C184.516 712.533 175.487 693.227 152.269 688.723C175.487 684.22 184.513 664.269 203.218 684.861C210.955 668.776 199.994 662.338 192.253 661.052C201.282 638.529 193.541 603.783 169.035 596.704C168.391 573.539 154.846 561.312 143.24 560.026C145.176 565.819 144.529 574.184 139.372 575.47C137.436 550.375 116.801 543.941 116.801 532.355C116.801 516.911 145.176 500.826 157.429 497.609C147.756 507.905 163.234 518.201 154.205 523.349C152.917 519.487 147.756 514.339 143.888 514.339C133.571 513.694 129.055 523.349 129.055 531.069C129.055 545.227 147.112 549.73 156.785 545.227C159.365 555.523 180.003 571.608 197.413 550.375C176.776 545.227 182.58 520.773 172.907 511.122C190.965 507.26 210.311 480.233 190.965 461.572C176.131 485.382 145.176 470.582 124.538 499.539C124.538 496.322 124.538 493.747 123.25 491.174C119.382 490.53 115.51 490.53 111.641 491.174C115.51 477.661 110.353 466.72 103.256 459C96.1635 466.72 90.359 477.661 94.2276 491.174C90.359 490.53 87.1347 490.53 82.6186 491.174C81.9744 493.747 81.3302 496.322 81.3302 499.539C61.3366 470.582 29.7373 485.382 14.9039 461.572C-3.79794 480.233 14.9039 507.26 33.6058 511.122C23.2886 520.773 29.0931 545.227 8.45525 550.375C26.5129 571.608 46.5032 555.523 49.7276 545.227C59.4006 549.73 76.8141 545.227 76.8141 531.069C76.8141 523.349 72.3014 513.694 61.9808 514.339C58.1122 514.339 52.9519 519.487 52.3077 523.349C43.2789 518.201 58.7564 507.905 48.4392 497.609C60.6924 500.826 89.7115 516.914 89.7115 532.355C89.7115 543.937 68.4294 550.372 66.4935 575.47C61.9808 574.184 60.689 565.819 63.2691 560.026C51.016 561.312 37.4744 573.539 36.8268 596.704C12.3204 603.783 4.58335 638.529 13.6088 661.052C5.87175 662.338 -5.09304 668.773 2.64405 684.861C21.9901 664.269 31.019 684.217 53.5928 688.723C31.0223 693.227 21.9935 712.533 2.64405 691.94C-5.0964 708.029 5.86839 715.105 13.6088 716.394C4.57999 738.917 12.3204 773.023 36.8268 780.743C37.471 803.907 51.016 816.134 63.2691 816.779C60.689 811.631 61.9808 803.266 66.4935 801.98C68.4294 827.075 89.7115 833.509 89.7115 845.095C89.7115 860.539 60.6924 876.624 48.4392 879.2C58.7564 869.549 43.2789 859.253 52.3077 854.105C52.9519 857.967 58.1122 863.115 61.9808 863.115C72.298 863.115 76.8141 854.105 76.8141 846.384C76.8141 832.227 59.4006 827.723 49.7276 832.227C46.5032 821.286 26.5096 805.845 8.45525 827.079C29.0931 832.227 23.2886 856.68 33.6058 865.687C14.9039 870.19 -3.79794 897.216 14.9039 915.878C29.7373 892.068 61.3366 906.868 81.3302 877.269C81.3302 881.131 81.9744 883.703 82.6186 886.279C87.1313 886.279 90.359 886.924 94.2276 886.279C90.359 899.792 96.1635 910.733 103.256 918.453C110.349 910.733 115.51 899.792 111.641 886.279ZM126.474 605.076C137.439 603.789 145.176 592.849 147.756 587.059C153.561 587.059 159.365 596.71 157.429 609.582C169.683 608.296 181.936 628.243 181.292 641.112C180.647 659.128 170.327 677.789 145.824 677.789C130.99 677.789 115.513 669.424 115.513 645.615C115.513 636.605 124.542 627.599 132.926 627.599C139.375 627.599 148.404 634.033 148.404 641.756C148.404 650.122 143.244 659.131 127.766 657.2C129.055 662.993 136.795 669.428 144.532 669.428C154.849 669.428 169.038 659.131 169.038 641.756C169.038 622.451 152.273 601.862 117.446 614.73C122.606 587.704 112.933 564.539 103.256 555.53C93.5834 564.539 83.2628 587.704 88.4231 614.73C54.2437 601.862 36.8302 622.451 36.8302 641.756C36.8302 659.131 51.6635 669.428 61.9808 669.428C69.0736 669.428 77.4583 662.993 78.1025 657.2C62.625 659.131 57.4647 650.122 57.4647 641.756C57.4647 634.036 66.4935 627.599 73.5864 627.599C81.3268 627.599 90.3523 636.608 90.3523 645.615C90.3523 669.424 75.519 677.789 60.0415 677.789C36.1793 677.789 25.2178 659.128 24.5736 641.112C24.5736 628.243 36.1826 608.293 48.4358 609.582C47.1474 596.714 52.3044 587.059 58.7531 587.059C60.689 592.852 68.4261 603.789 79.3909 605.076C71.0062 583.197 80.0351 554.24 103.253 538.796C125.823 554.24 134.852 583.197 126.471 605.076H126.474Z" fill="#A91D29"/>
<path d="M689.013 688.73C703.846 683.582 715.455 677.789 721.256 657.2C726.417 677.793 738.022 683.582 752.856 688.73C738.022 693.878 726.413 699.026 721.256 719.618C715.452 699.026 703.843 693.878 689.013 688.73ZM721.256 821.93C730.929 812.279 740.602 789.756 735.446 762.73C770.269 775.598 787.038 754.365 787.038 735.704C787.038 717.042 772.849 708.033 762.532 708.033C754.792 708.033 747.055 714.467 745.766 719.615C761.244 717.684 766.404 726.694 766.404 735.7C766.404 742.779 757.375 749.858 750.926 749.858C742.542 749.858 733.513 740.848 733.513 731.197C733.513 708.033 748.99 699.023 763.824 699.023C788.33 699.023 798.647 717.684 799.292 735.7C799.936 749.213 787.683 768.519 775.429 767.875C777.365 780.102 771.561 790.398 765.756 790.398C763.176 784.605 755.439 773.023 744.474 772.381C752.859 794.259 743.83 823.217 721.256 838.016C698.038 823.217 689.013 794.259 697.394 772.381C686.429 773.026 678.692 784.608 676.756 790.398C670.308 790.398 665.147 780.102 666.439 767.875C654.186 768.519 642.577 749.213 642.577 735.7C643.221 717.684 654.186 699.023 678.045 699.023C693.522 699.023 708.356 708.033 708.356 731.197C708.356 740.848 699.327 749.858 691.59 749.858C684.497 749.858 675.468 742.779 675.468 735.7C675.468 726.69 680.628 717.684 696.106 719.615C695.462 714.467 687.077 708.033 679.984 708.033C669.667 708.033 654.834 717.684 654.834 735.704C654.834 753.723 672.247 775.598 706.426 762.73C701.266 789.756 711.587 812.279 721.26 821.93H721.256ZM729.641 886.279C733.51 886.924 737.378 886.279 741.25 886.279C742.538 883.707 742.538 881.131 742.538 877.269C763.176 906.871 794.131 892.068 808.965 915.878C828.311 897.217 808.965 870.19 790.907 865.687C800.58 856.677 794.776 832.227 815.413 827.079C798 805.845 777.365 821.286 774.785 832.227C765.112 827.723 747.055 832.227 747.055 846.384C747.055 854.105 751.567 863.115 761.888 863.115C765.756 863.115 770.917 857.967 772.205 854.105C781.234 859.253 765.756 869.549 775.429 879.2C763.176 876.628 734.801 860.539 734.801 845.095C734.801 833.513 755.439 827.079 757.372 801.98C762.532 803.266 763.176 811.631 761.24 816.779C772.849 816.134 786.391 803.911 787.035 780.743C811.541 773.023 819.279 738.917 810.253 716.394C817.994 715.108 828.955 708.029 821.218 691.94C802.516 712.533 793.487 693.227 770.269 688.723C793.487 684.22 802.513 664.269 821.218 684.861C828.955 668.776 817.994 662.338 810.253 661.052C819.282 638.529 811.541 603.783 787.035 596.704C786.391 573.539 772.846 561.312 761.24 560.026C763.176 565.819 762.529 574.184 757.372 575.47C755.436 550.375 734.801 543.941 734.801 532.355C734.801 516.911 763.176 500.826 775.429 497.609C765.756 507.905 781.234 518.201 772.205 523.349C770.917 519.487 765.756 514.339 761.888 514.339C751.571 513.694 747.055 523.349 747.055 531.069C747.055 545.227 765.112 549.73 774.785 545.227C777.365 555.523 798.003 571.608 815.413 550.375C794.776 545.227 800.58 520.773 790.907 511.122C808.965 507.26 828.311 480.234 808.965 461.572C794.131 485.382 763.176 470.582 742.538 499.539C742.538 496.322 742.538 493.747 741.25 491.174C737.382 490.53 733.51 490.53 729.641 491.174C733.51 477.661 728.353 466.72 721.256 459C714.164 466.72 708.359 477.661 712.228 491.174C708.359 490.53 705.135 490.53 700.619 491.174C699.974 493.747 699.33 496.322 699.33 499.539C679.337 470.582 647.737 485.382 632.904 461.572C614.202 480.234 632.904 507.26 651.606 511.122C641.289 520.773 647.093 545.227 626.455 550.375C644.513 571.608 664.503 555.523 667.728 545.227C677.401 549.73 694.814 545.227 694.814 531.069C694.814 523.349 690.301 513.694 679.981 514.339C676.112 514.339 670.952 519.487 670.308 523.349C661.279 518.201 676.756 507.905 666.439 497.609C678.692 500.826 707.711 516.914 707.711 532.355C707.711 543.937 686.429 550.372 684.493 575.47C679.981 574.184 678.689 565.819 681.269 560.026C669.016 561.312 655.474 573.539 654.827 596.704C630.32 603.783 622.583 638.529 631.609 661.052C623.872 662.338 612.907 668.773 620.644 684.861C639.99 664.269 649.019 684.217 671.593 688.723C649.022 693.227 639.993 712.533 620.644 691.94C612.904 708.029 623.868 715.105 631.609 716.394C622.58 738.917 630.32 773.023 654.827 780.743C655.471 803.907 669.016 816.134 681.269 816.779C678.689 811.631 679.981 803.266 684.493 801.98C686.429 827.075 707.711 833.509 707.711 845.095C707.711 860.539 678.692 876.624 666.439 879.2C676.756 869.549 661.279 859.253 670.308 854.105C670.952 857.967 676.112 863.115 679.981 863.115C690.298 863.115 694.814 854.105 694.814 846.384C694.814 832.227 677.401 827.723 667.728 832.227C664.503 821.286 644.51 805.845 626.455 827.079C647.093 832.227 641.289 856.68 651.606 865.687C632.904 870.19 614.202 897.217 632.904 915.878C647.737 892.068 679.337 906.868 699.33 877.269C699.33 881.131 699.974 883.703 700.619 886.279C705.131 886.279 708.359 886.924 712.228 886.279C708.359 899.792 714.164 910.733 721.256 918.453C728.349 910.733 733.51 899.792 729.641 886.279ZM744.474 605.076C755.439 603.789 763.176 592.849 765.756 587.059C771.561 587.059 777.365 596.71 775.429 609.582C787.683 608.296 799.936 628.243 799.292 641.112C798.647 659.128 788.327 677.789 763.824 677.789C748.99 677.789 733.513 669.424 733.513 645.615C733.513 636.605 742.542 627.599 750.926 627.599C757.375 627.599 766.404 634.033 766.404 641.756C766.404 650.122 761.244 659.131 745.766 657.2C747.055 662.993 754.795 669.428 762.532 669.428C772.849 669.428 787.038 659.131 787.038 641.756C787.038 622.451 770.273 601.862 735.446 614.73C740.606 587.704 730.933 564.539 721.256 555.53C711.583 564.539 701.263 587.704 706.423 614.73C672.244 601.862 654.83 622.451 654.83 641.756C654.83 659.131 669.664 669.428 679.981 669.428C687.074 669.428 695.458 662.993 696.102 657.2C680.625 659.131 675.465 650.122 675.465 641.756C675.465 634.036 684.493 627.599 691.586 627.599C699.327 627.599 708.352 636.608 708.352 645.615C708.352 669.424 693.519 677.789 678.041 677.789C654.179 677.789 643.218 659.128 642.574 641.112C642.574 628.243 654.183 608.293 666.436 609.582C665.147 596.714 670.304 587.059 676.753 587.059C678.689 592.852 686.426 603.789 697.391 605.076C689.006 583.197 698.035 554.24 721.253 538.796C743.823 554.24 752.852 583.197 744.471 605.076H744.474Z" fill="#A91D29"/>
</svg>
