<svg width="129" height="90" viewBox="0 0 129 90" fill="none" xmlns="http://www.w3.org/2000/svg">
<path fill-rule="evenodd" clip-rule="evenodd" d="M10.4983 0.33498C10.5174 0.788217 10.5694 1.53429 10.6629 2.29077C10.7575 3.05581 10.8909 3.79879 11.0635 4.26456L16.125 17.9187V17.9205L21.0393 4.24258L21.0521 4.21901C21.288 3.78485 21.8094 2.34926 21.8094 0.349782V0H26.6093L26.6233 0.33498C26.6424 0.788217 26.6944 1.53429 26.7879 2.29077C26.8825 3.05581 27.0159 3.79879 27.1885 4.26456L29.6703 10.9595L27.1373 10.9596L26.3336 8.78496C25.5796 8.18256 23.7003 7.3392 22.2154 8.78496L18.5612 18.9869V25.1664L22.2154 35.3101C22.9501 35.9513 24.8023 36.8491 26.3336 35.3101L30.1039 25.1664V24.2563L32.2446 24.6906V24.6216L34.6807 24.2342V25.1664L38.3349 35.3101C39.0697 35.9513 40.9219 36.8491 42.4532 35.3101L43.7987 31.6899L45.6914 33.463L43.3149 39.8374C43.1815 40.3666 42.9966 41.2367 42.8729 42.139C42.7465 43.0613 42.6899 43.9767 42.7961 44.596L42.8338 44.8158H42.8503L42.8555 44.9424L42.8664 45.0052H42.8582L42.8643 45.1508C42.884 45.6177 42.9073 46.4067 42.9724 47.2085C43.0384 48.022 43.1444 48.7986 43.3135 49.2548L48.375 62.9089V62.9011L53.2893 49.2232L53.3021 49.1997C53.3444 49.1218 53.4012 48.958 53.4602 48.6956C53.5172 48.4416 53.571 48.1203 53.6171 47.7458C53.7093 46.9972 53.7693 46.0521 53.7693 45.0389V45.0052H53.7591L53.7621 44.6525C53.7668 44.0895 53.7475 43.1676 53.6736 42.2409C53.5989 41.3034 53.4712 40.4009 53.2732 39.8531L50.2309 31.4338L53.1385 31.647L54.4581 35.3101C55.1928 35.9513 57.0451 36.8491 58.5764 35.3101L62.3466 25.1664V18.9869L58.5764 8.78496C57.8223 8.18256 55.943 7.3392 54.4581 8.78496L50.8039 18.9869V19.7792L48.3677 19.0936V19.071L46.0068 18.4009L42.4532 8.78496C41.6991 8.18256 39.8198 7.3392 38.3349 8.78496L37.5768 10.9015H34.7665L37.1589 4.24258L37.1717 4.21901C37.4076 3.78485 37.9289 2.34926 37.9289 0.349782V0H42.7288L42.7429 0.33498C42.762 0.788217 42.814 1.53429 42.9075 2.29077C43.002 3.05581 43.1354 3.79879 43.3081 4.26456L48.3477 17.8596L48.3689 17.9171L48.3885 17.8629L53.2821 4.24258L53.2949 4.21901C53.5308 3.78485 54.0521 2.34926 54.0521 0.349782V0H58.852L58.8661 0.33498C58.8852 0.788217 58.9372 1.53429 59.0307 2.29077C59.1252 3.05581 59.2586 3.79879 59.4313 4.26456L64.4928 17.9187V26.2799L59.4381 39.8374C59.3047 40.3666 59.1198 41.2367 58.9961 42.139C58.8696 43.0613 58.8131 43.9767 58.9193 44.596L58.9353 44.6892H58.9753L58.9882 44.9973L58.9895 45.0052H58.9885L58.9893 45.0241C59.009 45.4916 59.0323 46.3098 59.0975 47.1414C59.1637 47.9858 59.2698 48.7902 59.4385 49.2452L64.5 62.8993V62.9085L69.4143 49.2306L69.4271 49.2071C69.4709 49.1265 69.5276 48.9678 69.586 48.7196C69.6427 48.4781 69.6963 48.1733 69.7423 47.8154C69.8343 47.1001 69.8943 46.1879 69.8943 45.1748V45.0052H69.8914L69.8943 44.6525C69.8991 44.0895 69.8797 43.1676 69.8059 42.2409C69.7311 41.3034 69.6034 40.4009 69.4055 39.8531L64.5 26.2779V17.9205L69.4143 4.24258L69.4271 4.21901C69.663 3.78485 70.1843 2.34926 70.1843 0.349782V0H74.9843L74.9983 0.33498C75.0174 0.788217 75.0694 1.53429 75.1629 2.29077C75.2575 3.05581 75.3909 3.79879 75.5635 4.26456L80.625 17.9187V17.9205L85.5393 4.24258L85.5521 4.21901C85.788 3.78485 86.3093 2.34926 86.3093 0.349782V0H91.1093L91.1233 0.33498C91.1424 0.788217 91.1944 1.53429 91.2879 2.29077C91.3825 3.05581 91.5159 3.79879 91.6885 4.26456L96.75 17.9187V17.9205L101.664 4.24258L101.677 4.21901C101.913 3.78485 102.434 2.34926 102.434 0.349782V0H107.234L107.248 0.33498C107.267 0.788217 107.319 1.53429 107.413 2.29077C107.507 3.05581 107.641 3.79879 107.814 4.26456L112.875 17.9187V17.9205L117.789 4.24258L117.802 4.21901C118.038 3.78485 118.559 2.34926 118.559 0.349782V0H123.359L123.373 0.33498C123.392 0.788217 123.444 1.53429 123.538 2.29077C123.632 3.05581 123.766 3.79879 123.939 4.26456L129 17.9187V26.2799L123.945 39.8374C123.812 40.3666 123.627 41.2367 123.503 42.139C123.377 43.0613 123.32 43.9767 123.427 44.596L123.497 45.0052H123.431L123.431 45.0241C123.451 45.4845 123.489 46.3052 123.568 47.1354C123.649 47.9785 123.768 48.7866 123.939 49.2452L129 62.8993V71.2605L123.945 84.8181C123.812 85.3473 123.627 86.2174 123.503 87.1197C123.377 88.042 123.32 88.9573 123.427 89.5767L123.497 89.9859H118.266L118.269 89.6331C118.274 89.0701 118.255 88.1482 118.181 87.2216C118.106 86.284 117.978 85.3816 117.78 84.8338L112.875 71.2586V62.9011L117.789 49.2232L117.802 49.1997C117.844 49.1218 117.901 48.958 117.96 48.6956C118.017 48.4416 118.071 48.1203 118.117 47.7458C118.209 46.9972 118.269 46.0521 118.269 45.0389V45.0052H118.266L118.269 44.6525C118.274 44.0895 118.255 43.1676 118.181 42.2409C118.106 41.3034 117.978 40.4009 117.78 39.8531L112.875 26.2779V26.2799L107.82 39.8374C107.687 40.3666 107.502 41.2367 107.378 42.139C107.252 43.0613 107.195 43.9767 107.302 44.596L107.307 44.6263H107.35L107.364 44.9613V44.9625L107.372 45.0052H107.366C107.385 45.481 107.408 46.2878 107.469 47.1088C107.534 47.9688 107.638 48.7866 107.806 49.2406L112.868 62.8948V71.2559L107.813 84.8135C107.68 85.3427 107.495 86.2128 107.371 87.1151C107.245 88.0374 107.188 88.9528 107.294 89.5721L107.365 89.9813H102.134L102.137 89.6286C102.142 89.0656 102.123 88.1437 102.049 87.217C101.974 86.2795 101.846 85.377 101.648 84.8292L98.6061 76.4099L101.514 76.6231L102.833 80.2862C103.568 80.9274 105.42 81.8252 106.951 80.2862L110.722 70.1425V63.963L106.951 53.7611C106.197 53.1586 104.318 52.3153 102.833 53.7611L102.684 54.1787L100.008 53.8089L101.657 49.2187L101.67 49.1951C101.712 49.118 101.769 48.9514 101.829 48.6826C101.887 48.4229 101.942 48.094 101.989 47.7121C102.082 46.9559 102.143 46.0073 102.144 45.0052H102.141L102.144 44.6525C102.149 44.0895 102.13 43.1676 102.056 42.2409C101.981 41.3034 101.853 40.4009 101.655 39.8531L96.75 26.2779V26.2799L91.6953 39.8374C91.562 40.3666 91.3771 41.2367 91.2534 42.139C91.1269 43.0613 91.0703 43.9767 91.1766 44.596L91.2468 45.0052H86.0164L86.0193 44.6525C86.0241 44.0895 86.0047 43.1676 85.9309 42.2409C85.8561 41.3034 85.7284 40.4009 85.5305 39.8531L80.625 26.2779V26.2799L75.5703 39.8374C75.437 40.3666 75.2521 41.2367 75.1284 42.139C75.0019 43.0613 74.9453 43.9767 75.0516 44.596L75.1218 45.0052H75.1029L75.1143 45.2779C75.134 45.7444 75.1573 46.501 75.2223 47.2698C75.2882 48.049 75.3939 48.7951 75.5635 49.2526L78.0454 55.9479L75.5123 55.9476L74.7086 53.773C73.9546 53.1706 72.0753 52.3272 70.5904 53.773L66.9361 63.975V70.1544L70.5904 80.2981C71.3251 80.9394 73.1773 81.8372 74.7086 80.2981L75.2003 78.9752H77.7514L75.5703 84.8255C75.437 85.3547 75.2521 86.2248 75.1284 87.1271C75.0019 88.0494 74.9453 88.9647 75.0516 89.5841L75.1218 89.9933H69.8914L69.8943 89.6405C69.8991 89.0775 69.8797 88.1556 69.8059 87.229C69.7311 86.2914 69.6034 85.389 69.4055 84.8412L64.5 71.266V71.2605L59.4453 84.8181C59.312 85.3473 59.1271 86.2174 59.0034 87.1197C58.8769 88.042 58.8203 88.9573 58.9266 89.5767L58.9968 89.9859H53.7664L53.7693 89.6331C53.7741 89.0701 53.7547 88.1482 53.6809 87.2216C53.6061 86.284 53.4784 85.3816 53.2805 84.8338L48.375 71.2586V71.2701L43.3203 84.8276C43.187 85.3568 43.0021 86.2269 42.8784 87.1292C42.7519 88.0516 42.6953 88.9669 42.8016 89.5862L42.8718 89.9954H37.6414L37.6443 89.6427C37.6491 89.0797 37.6297 88.1578 37.5559 87.2311C37.4811 86.2936 37.3534 85.3911 37.1555 84.8433L32.25 71.2681V71.2746L27.1953 84.8322C27.062 85.3614 26.8771 86.2315 26.7534 87.1338C26.6269 88.0561 26.5703 88.9714 26.6766 89.5908L26.7468 90H21.5164L21.5193 89.6473C21.5241 89.0842 21.5047 88.1624 21.4309 87.2357C21.3561 86.2981 21.2284 85.3957 21.0305 84.8479L16.125 71.2727V71.2746L11.0703 84.8322C10.937 85.3614 10.7521 86.2315 10.6284 87.1338C10.5019 88.0561 10.4453 88.9714 10.5516 89.5908L10.6218 90H5.39139L5.39433 89.6473C5.39909 89.0842 5.3797 88.1624 5.30586 87.2357C5.23114 86.2981 5.10344 85.3957 4.9055 84.8479L0 71.2727V62.9153L4.91433 49.2373L4.92713 49.2138C4.96943 49.1359 5.02625 48.9721 5.08517 48.7097C5.14221 48.4557 5.19595 48.1344 5.24207 47.7599C5.33426 47.0113 5.39433 46.0663 5.39433 45.0531V45.0052H5.39139L5.39433 44.6525C5.39909 44.0895 5.3797 43.1676 5.30586 42.2409C5.23114 41.3034 5.10344 40.4009 4.9055 39.8531L0 26.2779V17.9205L4.91433 4.24258L4.92713 4.21901C5.16305 3.78485 5.68435 2.34926 5.68435 0.349782V0H10.4843L10.4983 0.33498ZM10.2086 53.7797C9.45459 53.1773 7.57527 52.334 6.09038 53.7797L2.43615 63.9817V70.1612L6.09038 80.3048C6.82509 80.9461 8.67734 81.8439 10.2086 80.3048L13.9789 70.1612V63.9817L10.2086 53.7797ZM26.3336 53.7797C25.5796 53.1773 23.7003 52.334 22.2154 53.7797L18.5612 63.9817V70.1612L22.2154 80.3048C22.9501 80.9461 24.8023 81.8439 26.3336 80.3048L30.1039 70.1612V63.9817L26.3336 53.7797ZM42.4586 53.7752C41.7046 53.1728 39.8253 52.3294 38.3404 53.7752L34.6861 63.9771V70.1566L38.3404 80.3003C39.0751 80.9415 40.9273 81.8393 42.4586 80.3003L46.2289 70.1566V63.9771L42.4586 53.7752ZM58.5836 53.7656C57.8296 53.1632 55.9503 52.3198 54.4654 53.7656L50.8111 63.9676V70.147L54.4654 80.2907C55.2001 80.932 57.0523 81.8298 58.5836 80.2907L62.3539 70.147V63.9676L58.5836 53.7656ZM123.084 53.7656C122.33 53.1632 120.45 52.3198 118.965 53.7656L115.311 63.9676V70.147L118.965 80.2907C119.7 80.932 121.552 81.8298 123.084 80.2907L126.854 70.147V63.9676L123.084 53.7656ZM16.125 26.2799L11.0703 39.8374C10.937 40.3666 10.7521 41.2367 10.6284 42.139C10.5019 43.0613 10.4453 43.9767 10.5516 44.596L10.6218 45.0052H10.6056L10.6143 45.2132C10.634 45.6799 10.6573 46.4544 10.7224 47.2415C10.7884 48.0396 10.8942 48.8026 11.0635 49.2593L16.125 62.9134V62.9153L21.0393 49.2373L21.0521 49.2138C21.0944 49.1359 21.1512 48.9721 21.2102 48.7097C21.2672 48.4557 21.321 48.1344 21.3671 47.7599C21.4593 47.0113 21.5193 46.0663 21.5193 45.0531V45.0052H21.5164L21.5193 44.6525C21.5241 44.0895 21.5047 43.1676 21.4309 42.2409C21.3561 41.3034 21.2284 40.4009 21.0305 39.8531L16.125 26.2779V26.2799ZM32.2279 26.3392L27.1953 39.8374C27.062 40.3666 26.8771 41.2367 26.7534 42.139C26.6269 43.0613 26.5703 43.9767 26.6766 44.596L26.7468 45.0052H26.7306L26.7393 45.2132C26.759 45.6799 26.7823 46.4544 26.8474 47.2415C26.9134 48.0396 27.0192 48.8026 27.1885 49.2593L32.25 62.9134V62.9107L37.1643 49.2328L37.1771 49.2092C37.2208 49.1289 37.2776 48.9698 37.336 48.7203C37.3928 48.4777 37.4463 48.1715 37.4923 47.8121C37.5843 47.0938 37.6443 46.1787 37.6443 45.1656V45.0052H37.636L37.6389 44.6525C37.6437 44.0895 37.6243 43.1676 37.5504 42.2409C37.4757 41.3034 37.348 40.4009 37.1501 39.8531L32.2655 26.3359L32.2475 26.2862L32.2279 26.3392ZM10.2086 8.78496C9.45459 8.18256 7.57527 7.3392 6.09038 8.78496L2.43615 18.9869V25.1664L6.09038 35.3101C6.82509 35.9513 8.67734 36.8491 10.2086 35.3101L13.9789 25.1664V18.9869L10.2086 8.78496ZM74.7086 8.78496C73.9546 8.18256 72.0753 7.3392 70.5904 8.78496L66.9361 18.9869V25.1664L70.5904 35.3101C71.3251 35.9513 73.1773 36.8491 74.7086 35.3101L78.4789 25.1664V18.9869L74.7086 8.78496ZM90.8336 8.78496C90.0796 8.18256 88.2003 7.3392 86.7154 8.78496L83.0611 18.9869V25.1664L86.7154 35.3101C87.4501 35.9513 89.3023 36.8491 90.8336 35.3101L94.6039 25.1664V18.9869L90.8336 8.78496ZM106.959 8.78496C106.205 8.18256 104.325 7.3392 102.84 8.78496L99.1861 18.9869V25.1664L102.84 35.3101C103.575 35.9513 105.427 36.8491 106.959 35.3101L110.729 25.1664V18.9869L106.959 8.78496ZM123.084 8.78496C122.33 8.18256 120.45 7.3392 118.965 8.78496L115.311 18.9869V25.1664L118.965 35.3101C119.7 35.9513 121.552 36.8491 123.084 35.3101L126.854 25.1664V18.9869L123.084 8.78496Z" fill="white"/>
</svg>
