<svg width="123" height="136" viewBox="0 0 123 136" fill="none" xmlns="http://www.w3.org/2000/svg">
<mask id="mask0_287_296" style="mask-type:alpha" maskUnits="userSpaceOnUse" x="0" y="0" width="123" height="136">
<path d="M0 135.773L5.93485e-06 0L123 5.3765e-06L123 135.773L0 135.773Z" fill="#D9D9D9"/>
</mask>
<g mask="url(#mask0_287_296)">
<path d="M105.487 68.4746L426.571 77.544L105.005 69.6279L420.561 87.0879L104.047 70.7617L410.615 96.4219L102.622 71.8642L396.846 105.443L100.746 72.9238L379.402 114.053L98.4404 73.9277L358.475 122.157L95.7305 74.8662L334.294 129.666L92.6455 75.7275L307.125 136.499L89.2188 76.5039L277.265 142.58L85.4883 77.1855L245.04 147.843L81.4951 77.7656L210.804 152.229L77.2832 78.2373L174.933 155.692L72.8984 78.5947L137.818 158.193L68.3887 78.8359L99.8682 159.705L63.8027 78.957L61.4971 160.211L59.1914 78.957L23.126 159.705L54.6064 78.8359L-14.8242 158.193L50.0967 78.5947L-51.9385 155.692L45.7109 78.2373L-87.8096 152.229L41.499 77.7656L-122.045 147.843L37.5059 77.1855L-154.27 142.58L33.7754 76.5039L-184.131 136.499L30.3486 75.7275L-211.3 129.666L27.2637 74.8662L-235.48 122.157L24.5537 73.9277L-256.407 114.053L22.248 72.9238L-273.852 105.443L20.373 71.8642L-287.621 96.4218L18.9482 70.7617L-297.565 87.0879L17.9893 69.6279L-303.576 77.5439L17.5078 68.4746L-305.588 67.8945L17.5078 67.3144L-303.576 58.2451L17.9893 66.1621L-297.565 48.7011L18.9482 65.0273L-287.621 39.3672L20.373 63.9248L-273.852 30.3467L22.248 62.8652L-256.407 21.7363L24.5537 61.8613L-235.48 13.6328L27.2637 60.9228L-211.3 6.12302L30.3486 60.0615L-184.131 -0.709985L33.7754 59.2851L-154.27 -6.79104L37.5059 58.6035L-122.045 -12.0537L41.499 58.0244L-87.8096 -16.4404L45.7109 57.5527L-51.9385 -19.9033L50.0967 57.1943L-14.8242 -22.4043L54.6064 56.9531L23.126 -23.916L59.1914 56.832L61.4971 -24.4219L63.8027 56.832L99.8682 -23.916L68.3887 56.9531L137.818 -22.4043L72.8984 57.1943L174.933 -19.9033L77.2832 57.5527L210.804 -16.4404L81.4951 58.0244L245.04 -12.0537L85.4883 58.6035L277.265 -6.79102L89.2188 59.2851L307.125 -0.709961L92.6455 60.0615L334.294 6.12305L95.7305 60.9228L358.475 13.6328L98.4404 61.8613L379.402 21.7363L100.746 62.8652L396.846 30.3467L102.622 63.9248L410.615 39.3672L104.047 65.0273L420.561 48.7012L105.005 66.1621L426.571 58.2451L105.487 67.3144L428.582 67.8945L105.487 68.4746Z" fill="white"/>
</g>
</svg>
