<?xml version="1.0" encoding="UTF-8"?>
<svg id="Layer_1" data-name="Layer 1" xmlns="http://www.w3.org/2000/svg" viewBox="0 0 123 136">
  <defs>
    <style>
      .cls-1 {
        fill: #fff;
      }
    </style>
  </defs>
  <polygon class="cls-1" points="123 67.35 105.49 67.31 123 66.82 123 65.72 105.01 66.16 123 65.17 123 64.05 104.05 65.03 123 63.44 123 62.3 102.62 63.92 123 61.6 123 60.42 100.75 62.87 123 59.58 123 58.35 98.44 61.86 123 57.31 123 56.01 95.73 60.92 123 54.66 123 53.29 92.65 60.06 123 51.46 123 49.98 89.22 59.28 123 47.41 123 45.81 85.49 58.6 123 41.99 123 40.24 81.5 58.02 123 34.12 123 32.22 77.28 57.55 123 21.29 123 19.34 72.9 57.19 119.55 0 118.22 0 68.39 56.95 90.56 0 89.19 0 63.8 56.83 62.19 0 60.8 0 59.19 56.83 33.81 0 32.44 0 54.61 56.95 4.78 0 3.45 0 50.1 57.19 0 19.34 0 21.29 45.71 57.55 0 32.22 0 34.13 41.5 58.02 0 40.24 0 41.99 37.51 58.6 0 45.81 0 47.42 33.78 59.28 0 49.99 0 51.46 30.35 60.06 0 53.29 0 54.66 27.26 60.92 0 56.02 0 57.31 24.55 61.86 0 58.35 0 59.58 22.25 62.87 0 60.42 0 61.6 20.37 63.92 0 62.3 0 63.44 18.95 65.03 0 64.05 0 65.17 17.99 66.16 0 65.72 0 66.82 17.51 67.31 0 67.35 0 68.44 17.51 68.47 0 68.97 0 70.07 17.99 69.63 0 70.62 0 71.74 18.95 70.76 0 72.35 0 73.49 20.37 71.86 0 74.19 0 75.37 22.25 72.92 0 76.21 0 77.43 24.55 73.93 0 78.48 0 79.77 27.26 74.87 0 81.13 0 82.5 30.35 75.73 0 84.33 0 85.8 33.78 76.5 0 88.37 0 89.97 37.51 77.19 0 93.79 0 95.55 41.5 77.77 0 101.66 0 103.57 45.71 78.24 0 114.49 0 116.45 50.1 78.59 3.28 136 4.59 136 54.61 78.84 32.35 136 33.71 136 59.19 78.96 60.81 136 62.18 136 63.8 78.96 89.28 136 90.64 136 68.39 78.84 118.4 136 119.72 136 72.9 78.59 123 116.45 123 114.5 77.28 78.24 123 103.57 123 101.67 81.5 77.77 123 95.55 123 93.8 85.49 77.19 123 89.98 123 88.37 89.22 76.5 123 85.8 123 84.33 92.65 75.73 123 82.5 123 81.13 95.73 74.87 123 79.77 123 78.48 98.44 73.93 123 77.44 123 76.21 100.75 72.92 123 75.37 123 74.19 102.62 71.86 123 73.49 123 72.35 104.05 70.76 123 71.74 123 70.62 105.01 69.63 123 70.07 123 68.97 105.49 68.47 123 68.44 123 67.35"/>
</svg>