<svg width="215" height="80" viewBox="0 0 215 80" fill="none" xmlns="http://www.w3.org/2000/svg">
<path d="M215 80H0V0H215V80ZM9.7998 20.6885V48.8398C9.7998 50.0298 10.0209 51.1353 10.4629 52.1553C10.9049 53.1411 11.517 54.0247 12.2988 54.8066C13.0808 55.5886 13.9652 56.2006 14.9512 56.6426C15.9711 57.0845 17.0589 57.3057 18.2148 57.3057C19.3708 57.3056 20.4586 57.0846 21.4785 56.6426C22.4985 56.2006 23.3996 55.5886 24.1816 54.8066C24.9635 54.0247 25.5588 53.1411 25.9668 52.1553C26.4088 51.1353 26.6299 50.0298 26.6299 48.8398V20.6885H21.4277V48.3301C21.4277 49.6219 21.1216 50.5735 20.5098 51.1855C19.8978 51.7975 19.1328 52.1035 18.2148 52.1035C17.2968 52.1035 16.5319 51.7975 15.9199 51.1855C15.308 50.5736 15.002 49.622 15.002 48.3301V20.6885H9.7998ZM128.55 20.3818C127.292 20.3819 126.136 20.603 125.082 21.0449C124.062 21.4529 123.178 22.0313 122.43 22.7793C121.682 23.5271 121.104 24.411 120.696 25.4307C120.288 26.4507 120.084 27.5561 120.084 28.7461V48.7383C120.084 50.4041 120.339 51.7812 120.849 52.8691C121.393 53.923 122.073 54.7898 122.889 55.4697C123.705 56.1497 124.623 56.6264 125.643 56.8984C126.663 57.1704 127.666 57.3057 128.652 57.3057C129.808 57.3056 130.879 57.0845 131.865 56.6426C132.885 56.1666 133.769 55.5377 134.517 54.7559C135.265 53.9739 135.843 53.0895 136.251 52.1035C136.693 51.0836 136.914 50.0125 136.914 48.8906V46.6475H131.712V48.4316C131.712 49.1455 131.61 49.7408 131.406 50.2168C131.202 50.6928 130.947 51.0669 130.641 51.3389C130.301 51.6108 129.926 51.8152 129.519 51.9512C129.145 52.0531 128.788 52.1035 128.448 52.1035C127.258 52.1035 126.425 51.747 125.949 51.0332C125.507 50.3192 125.286 49.4349 125.286 48.3809V29.8174C125.286 28.5934 125.49 27.5896 125.898 26.8076C126.341 25.9919 127.207 25.584 128.499 25.584C129.485 25.584 130.267 25.9581 130.845 26.7061C131.423 27.4541 131.712 28.3384 131.712 29.3584V31.0918H136.914V29.0518C136.914 27.7939 136.693 26.6379 136.251 25.584C135.843 24.496 135.265 23.5613 134.517 22.7793C132.987 21.1813 130.998 20.3818 128.55 20.3818ZM146.514 20.3818C145.46 20.3818 144.406 20.5694 143.352 20.9434C142.332 21.3174 141.414 21.8612 140.598 22.5752C139.748 23.3232 139.068 24.258 138.558 25.3799C138.048 26.5018 137.793 27.7939 137.793 29.2559V48.4316C137.793 49.9616 138.048 51.2714 138.558 52.3594C139.068 53.4472 139.748 54.3476 140.598 55.0615C141.414 55.8095 142.332 56.3711 143.352 56.7451C144.406 57.1191 145.46 57.3057 146.514 57.3057C147.568 57.3057 148.605 57.1191 149.625 56.7451C150.679 56.3711 151.631 55.8094 152.48 55.0615C153.296 54.3476 153.96 53.4472 154.47 52.3594C154.98 51.2714 155.234 49.9616 155.234 48.4316V29.2559C155.234 27.7939 154.98 26.5018 154.47 25.3799C153.96 24.2579 153.296 23.3232 152.48 22.5752C151.631 21.8613 150.679 21.3174 149.625 20.9434C148.605 20.5694 147.568 20.3818 146.514 20.3818ZM28.251 20.6885V57H33.4521V35.1719H33.5547L41.5107 57H46.4062V20.6885H41.2041V42.5674H41.1025L33.249 20.6885H28.251ZM48.0557 20.6885V57H55.2979C58.3918 57 60.7547 56.2005 62.3867 54.6025C64.0526 52.9705 64.8857 50.4545 64.8857 47.0547V30.0723C64.8857 27.0803 64.104 24.7677 62.54 23.1357C61.0101 21.5038 58.7488 20.6885 55.7568 20.6885H48.0557ZM66.7109 20.6885V57H82.2148V51.7979H71.9121V41.1387H80.8887V36.2432H71.9121V25.584H82.2148V20.6885H66.7109ZM82.5264 20.6885V57H87.7285V41.4961H90.8398L95.6846 57H101.192L95.582 40.4248C97.248 39.5068 98.4048 38.2997 99.0508 36.8037C99.7307 35.3078 100.07 33.4885 100.07 31.3467C100.07 24.2409 97.0104 20.6885 90.8906 20.6885H82.5264ZM107.278 51.7979V57H112.48V51.7979H107.278ZM154.072 20.6885L161.467 57H166.057L173.503 20.6885H167.995L163.812 46.0352H163.711L159.58 20.6885H154.072ZM173.565 20.6885V57H189.069V51.7979H178.768V41.1387H187.743V36.2432H178.768V25.584H189.069V20.6885H173.565ZM189.382 20.6885V57H194.583V41.4961H197.694L202.539 57H208.048L202.438 40.4248C204.103 39.5068 205.259 38.2997 205.905 36.8037C206.585 35.3077 206.926 33.4886 206.926 31.3467C206.926 24.2409 203.865 20.6885 197.745 20.6885H189.382ZM55.6543 25.584C57.1841 25.584 58.2384 25.975 58.8164 26.7568C59.3944 27.5388 59.6836 28.6443 59.6836 30.0723V47.5654C59.6835 49.1292 59.3776 50.2853 58.7656 51.0332C58.1536 51.7471 57.1162 52.1035 55.6543 52.1035H53.2578V25.584H55.6543ZM146.514 25.584C147.466 25.584 148.282 25.89 148.962 26.502C149.676 27.0799 150.032 27.998 150.032 29.2559V48.4316C150.032 49.6896 149.676 50.6253 148.962 51.2373C148.282 51.8153 147.466 52.1035 146.514 52.1035C145.562 52.1035 144.729 51.8152 144.015 51.2373C143.335 50.6253 142.994 49.6896 142.994 48.4316V29.2559C142.994 27.9979 143.335 27.0799 144.015 26.502C144.729 25.89 145.562 25.584 146.514 25.584ZM90.4316 25.584C92.2334 25.584 93.4575 26.0599 94.1035 27.0117C94.4095 27.5216 94.6138 28.1338 94.7158 28.8477C94.8178 29.5277 94.8682 30.3271 94.8682 31.2451C94.8682 32.1631 94.8178 32.9794 94.7158 33.6934C94.6138 34.3732 94.4262 34.9508 94.1543 35.4268C93.8484 35.9026 93.4237 36.2768 92.8799 36.5488C92.3359 36.7868 91.6045 36.9062 90.6865 36.9062H87.7285V25.584H90.4316ZM197.286 25.584C199.088 25.584 200.312 26.06 200.958 27.0117C201.264 27.5216 201.468 28.1338 201.57 28.8477C201.672 29.5277 201.724 30.3271 201.724 31.2451C201.724 32.1631 201.672 32.9794 201.57 33.6934C201.468 34.373 201.282 34.9509 201.01 35.4268C200.704 35.9028 200.278 36.2768 199.734 36.5488C199.19 36.7868 198.459 36.9062 197.541 36.9062H194.583V25.584H197.286Z" fill="white"/>
</svg>
