<svg width="215" height="80" viewBox="0 0 215 80" fill="none" xmlns="http://www.w3.org/2000/svg">
<g transform="translate(7.7814 0) scale(1.974821) translate(-23.61 -148.42)">
<path d="M47.24,163.06l-.21-.14c.05-.07.09-.13.12-.2l.07-.14.31.27-.17.19-.07-.06s-.04.06-.06.09Z" fill="white"/>
<path d="M48.68,164.01h-.16v-.25h.08c.09-.06.17-.12.25-.19l.15.2c-.09.07-.19.14-.29.21l-.03.02ZM48.07,163.67c-.11-.1-.21-.2-.32-.3l-.03-.02.17-.19.03.02c.11.1.21.2.32.3l-.17.18Z" fill="white"/>
<path d="M49.38,163.46l-.16-.19c.13-.11.24-.22.34-.32l.18.17c-.1.11-.22.22-.35.34ZM50.05,162.74l-.21-.14c.09-.14.15-.27.18-.39l.24.05c-.03.15-.11.31-.22.47ZM49.99,161.81c-.05-.12-.13-.24-.24-.36l.18-.17c.13.14.23.29.29.44l-.23.09ZM47.72,161.41l-.19-.17c.09-.1.18-.19.27-.29l.06-.06.18.17-.05.06c-.1.1-.18.2-.27.29ZM49.41,161.15c-.11-.09-.24-.18-.38-.28l.14-.21c.14.1.27.2.39.29l-.16.2ZM48.38,160.73l-.17-.19c.09-.08.17-.14.23-.18l.03-.02h.22l.08.05-.13.21h-.02s-.08-.01-.08-.01c-.04.03-.1.07-.17.13Z" fill="white"/>
<path d="M47.15,162.09l-.1-.14c-.04-.06-.09-.12-.14-.18l.19-.17s.04.05.07.08c.02-.02.04-.05.06-.07l.19.16c-.05.06-.11.13-.16.19l-.1.13Z" fill="white"/>
<path d="M46.66,161.53l-.05-.04c-.08-.07-.15-.12-.23-.18l.15-.2c.08.06.15.12.22.17l.07.06-.16.19ZM46.08,161.11c-.09-.06-.19-.12-.29-.19l.06-.1v-.14s.03,0,.03,0l.04.02c.11.06.2.13.3.19l-.14.21Z" fill="white"/>
<path d="M44.4,162.37l-.19-.16c.07-.09.15-.18.23-.28l.19.16c-.08.1-.16.19-.23.28ZM44.87,161.82l-.19-.17c.08-.09.16-.18.24-.27l.18.17c-.08.09-.16.18-.24.27ZM45.36,161.28l-.18-.17c.1-.11.19-.19.27-.26l.17.19c-.07.06-.16.15-.25.25Z" fill="white"/>
<path d="M45.19,163.99c-.09-.08-.17-.16-.26-.24l.17-.18c.09.08.17.16.26.24l-.17.18ZM44.68,163.52c-.09-.08-.18-.15-.27-.23l.16-.19c.09.08.18.15.27.23l-.16.19Z" fill="white"/>
<path d="M45.82,164.35h-.26l-.11-.11.17-.18.04.04h.08l.03-.02.15.2-.1.07ZM46.2,164.07l-.15-.2c.1-.07.19-.15.27-.22l.16.19c-.09.07-.18.15-.28.22ZM46.75,163.61l-.17-.18c.09-.08.17-.16.24-.24l.18.17c-.08.08-.16.17-.26.26Z" fill="white"/>
<path d="M47.14,161.04h-.27l-.04-.04s-.1-.11-.17-.17l.18-.18c.05.05.1.1.14.14h.07l.03-.02.16.19-.1.08Z" fill="white"/>
<path d="M47.7,160.56l-.17-.19c.16-.15.31-.29.43-.42l.18.17c-.13.13-.28.28-.44.43ZM48.54,159.64l-.21-.13c.1-.16.13-.27.13-.32,0-.04,0-.09-.02-.14l.24-.08c.03.07.04.15.04.22,0,.13-.05.28-.17.46Z" fill="white"/>
<path d="M45.97,158.93l-.19-.16c.06-.07.12-.14.18-.21.08-.09.16-.17.23-.25l.18.17c-.07.08-.15.16-.23.24-.06.07-.12.13-.18.2ZM48.11,158.61c-.12-.11-.27-.24-.46-.38l.15-.2c.19.15.35.28.48.39l-.17.18ZM46.81,158.08l-.17-.19c.23-.2.3-.25.34-.27h.06s.17-.01.17-.01l.09.06-.14.21-.03-.02h-.06s-.11.08-.26.22Z" fill="white"/>
<path d="M45.55,159.81c-.09-.08-.15-.13-.18-.15l-.05-.04v-.26l.08-.11.2.15-.03.05v.05s.09.07.15.12l-.16.19Z" fill="white"/>
<path d="M46.44,160.61l-.22-.2.17-.19.23.21-.17.18ZM46,160.21l-.23-.2.16-.19.23.2-.17.19Z" fill="white"/>
<path d="M57.01,160.83l-.21-.14c.05-.07.09-.13.12-.2l.07-.14.31.27-.17.19-.07-.06s-.04.06-.06.09Z" fill="white"/>
<path d="M58.45,161.78h-.16v-.25h.08c.09-.06.17-.12.25-.19l.15.2c-.09.07-.19.14-.29.21l-.03.02ZM57.84,161.45c-.11-.1-.22-.2-.32-.3l-.03-.03.17-.18.03.02c.11.1.21.2.32.3l-.17.18Z" fill="white"/>
<path d="M59.15,161.23l-.16-.19c.13-.11.24-.22.34-.32l.18.17c-.1.11-.22.22-.35.34ZM59.82,160.51l-.21-.14c.09-.14.15-.27.18-.39l.24.05c-.03.15-.1.31-.21.47ZM59.75,159.59c-.05-.12-.13-.24-.24-.36l.18-.17c.13.14.23.29.29.44l-.23.09ZM57.49,159.18l-.19-.17c.09-.1.17-.19.27-.29l.06-.06.18.17h0s-.06.06-.06.06c-.09.1-.18.19-.26.29ZM59.18,158.92c-.11-.09-.24-.18-.38-.28l.14-.21c.14.1.27.2.39.29l-.16.2ZM58.14,158.5l-.17-.19c.09-.08.17-.14.23-.18l.03-.02h.22l.08.05-.13.21h-.02s-.08-.01-.08-.01c-.04.03-.1.07-.16.13Z" fill="white"/>
<path d="M56.91,159.87l-.1-.14c-.04-.06-.09-.12-.14-.18l.18-.17s.05.05.07.08c.02-.02.04-.05.06-.07l.19.16c-.05.06-.11.13-.16.19l-.1.13Z" fill="white"/>
<path d="M56.42,159.3l-.07-.06c-.06-.05-.13-.11-.21-.16l.15-.2c.08.06.15.12.22.17l.07.06-.16.19ZM55.85,158.88c-.09-.06-.19-.12-.29-.19l.06-.1v-.14s.03,0,.03,0l.04.02c.11.06.2.13.3.19l-.14.21Z" fill="white"/>
<path d="M54.17,160.14l-.19-.16c.07-.09.15-.18.23-.28l.19.16c-.08.1-.16.19-.23.28ZM54.64,159.59l-.19-.17c.08-.09.16-.18.24-.27l.18.17c-.08.09-.16.18-.24.27ZM55.12,159.06l-.18-.17c.1-.11.19-.19.27-.26l.17.19c-.07.06-.16.15-.25.25Z" fill="white"/>
<path d="M54.96,161.77c-.09-.08-.17-.16-.26-.24l.17-.18c.09.08.17.16.26.24l-.17.18ZM54.44,161.29c-.09-.08-.18-.15-.27-.23l.16-.19c.09.08.18.15.27.23l-.16.19Z" fill="white"/>
<path d="M55.59,162.12h-.26l-.11-.11.18-.18.04.04h.08l.03-.02.15.2-.1.07ZM55.97,161.84l-.15-.2c.1-.07.19-.15.27-.22l.16.19c-.09.07-.18.15-.28.22ZM56.52,161.38l-.17-.18c.09-.08.17-.16.24-.24l.18.17c-.08.08-.16.17-.26.26Z" fill="white"/>
<path d="M56.91,158.81h-.27l-.04-.04s-.1-.11-.17-.17l.18-.18c.05.05.1.1.14.14h.07l.02-.02.16.19-.1.08Z" fill="white"/>
<path d="M57.47,158.33l-.17-.19c.17-.15.31-.29.43-.42l.18.17c-.12.13-.27.27-.44.43ZM58.31,157.41l-.21-.13c.1-.17.13-.27.13-.32,0-.05,0-.09-.02-.14l.24-.08c.03.07.04.15.04.22,0,.13-.05.28-.17.46Z" fill="white"/>
<path d="M55.74,156.7l-.19-.16c.06-.07.12-.14.18-.21.08-.09.16-.17.23-.25l.18.17c-.07.08-.15.16-.23.24-.06.07-.12.13-.18.2ZM57.87,156.38c-.12-.11-.27-.24-.46-.38l.15-.2c.19.15.35.28.48.39l-.17.18ZM56.58,155.85l-.17-.19c.23-.2.3-.25.34-.27h.06s.17-.01.17-.01l.07.05-.05.12-.07.1.07-.1-.06.05v.03h-.1s-.11.08-.26.22Z" fill="white"/>
<path d="M55.32,157.59c-.09-.08-.15-.13-.18-.15l-.05-.04v-.26l.07-.1.21.14-.03.04v.05s.09.07.15.12l-.16.19Z" fill="white"/>
<path d="M56.21,158.38l-.22-.2.17-.19.23.21-.17.18ZM55.77,157.98l-.23-.2.16-.19.23.2-.17.19Z" fill="white"/>
<path d="M50.22,167.84l-.24-.06c.02-.08.04-.16.06-.24l.02-.1.13-.02.24-.07.07.24-.17.05v.03s-.05,0-.05,0c-.01.06-.03.11-.04.16Z" fill="white"/>
<path d="M48.96,169.03c-.11,0-.22-.01-.32-.04l.06-.24c.15.03.31.04.45.01l.04.25c-.07.01-.15.02-.23.02ZM49.7,168.77l-.16-.19c.1-.09.2-.21.27-.36l.22.11c-.09.18-.21.33-.34.44Z" fill="white"/>
<path d="M47.95,168.91l-.21-.13c.04-.07.08-.14.12-.21l.04-.07h.29l.09.07-.14.21s-.02-.02-.03-.02h-.06c-.03.05-.06.11-.09.16Z" fill="white"/>
<path d="M46.94,169.98l-.12-.22c.07-.04.14-.09.2-.14.02-.02.05-.04.07-.06l.17.19s-.05.04-.08.06c-.07.06-.15.11-.24.16ZM47.51,169.5l-.19-.17c.07-.08.15-.17.22-.27l.2.15c-.08.1-.15.2-.23.29Z" fill="white"/>
<path d="M45.73,170.25c-.08,0-.17,0-.26,0l.02-.25c.08,0,.16.01.24,0,.04,0,.07,0,.11,0v.25s-.07,0-.11,0ZM46.21,170.22l-.04-.25c.12-.02.23-.04.33-.07l.07.24c-.12.04-.24.06-.37.08ZM45.1,170.2c-.12-.02-.24-.05-.36-.09l.08-.24c.11.03.22.06.33.08l-.05.25Z" fill="white"/>
<path d="M44.26,172.24h-.25c0-.17.02-.34.02-.51h.25c0,.19-.01.35-.02.51ZM44.3,171.24h-.25s.01-.51.01-.51h.25s-.01.51-.01.51Z" fill="white"/>
<path d="M37.23,181.75v-.25c.16,0,.33-.01.49-.03l.02.25c-.17.01-.34.02-.51.03ZM36.71,181.74c-.17,0-.34-.02-.51-.05l.03-.25c.16.02.33.04.49.04v.25ZM38.24,181.66l-.04-.25c.16-.03.33-.06.48-.09l.06.24c-.16.04-.33.07-.5.1ZM35.7,181.61c-.1-.02-.19-.04-.29-.07-.07-.02-.14-.04-.21-.06l.07-.24c.07.02.13.04.2.06.09.02.18.04.28.06l-.05.25ZM39.24,181.43l-.08-.24c.16-.05.31-.11.46-.17l.1.23c-.16.07-.32.13-.48.18ZM34.72,181.31c-.16-.07-.31-.15-.46-.24l.13-.21c.14.08.28.16.43.23l-.1.23ZM40.18,181.03l-.12-.22c.15-.08.29-.16.43-.25l.13.21c-.14.09-.29.18-.44.26ZM33.83,180.77c-.13-.11-.26-.23-.38-.36l.19-.16c.11.12.22.23.35.33l-.16.19ZM41.05,180.48l-.15-.2c.13-.1.26-.2.38-.31l.17.19c-.13.11-.26.22-.4.32ZM33.14,179.99c-.09-.14-.17-.3-.25-.46l.23-.11c.07.15.15.29.23.43l-.21.13ZM41.82,179.81l-.18-.17c.11-.12.22-.24.33-.37l.19.16c-.11.13-.22.26-.34.38ZM32.71,179.05c-.05-.16-.09-.33-.12-.5l.25-.05c.03.17.07.32.12.47l-.24.07ZM42.47,179.02l-.2-.14c.1-.13.19-.27.27-.41l.21.13c-.09.15-.18.29-.28.43ZM43.01,178.15l-.22-.12c.08-.15.15-.29.21-.45l.23.1c-.07.16-.14.31-.22.46ZM32.51,178.04c-.02-.16-.03-.33-.03-.51h.25c0,.17.01.33.03.49l-.25.02ZM43.42,177.22l-.24-.08c.06-.15.11-.31.16-.47l.24.07c-.05.16-.1.33-.16.48ZM32.74,177.03h-.25c0-.18.02-.35.04-.52l.25.03c-.02.17-.03.33-.04.49ZM43.71,176.24l-.24-.06.02-.1c.03-.13.06-.26.09-.38l.24.05c-.03.13-.06.26-.09.39l-.02.11ZM32.85,176.05l-.25-.04c.03-.16.06-.33.1-.5l.24.05c-.04.17-.07.33-.1.49ZM43.92,175.25l-.25-.05c.03-.17.06-.33.09-.49l.25.04c-.03.16-.06.33-.09.5ZM33.06,175.08l-.24-.06c.04-.16.09-.32.14-.49l.24.07c-.05.16-.09.32-.13.48ZM44.09,174.25l-.25-.03c.02-.16.04-.33.06-.5l.25.03c-.02.17-.04.34-.06.5ZM33.35,174.12l-.24-.08c.05-.16.11-.32.17-.48l.23.09c-.06.16-.11.32-.16.47ZM44.19,173.25l-.25-.02c.01-.16.03-.33.04-.5l.25.02c-.01.17-.02.34-.04.5Z" fill="white"/>
<path d="M33.38,172.91h-.01s.09-.24.09-.24l-.08.24ZM33.35,172.9h-.01s.09-.24.09-.24l-.08.24Z" fill="white"/>
<path d="M32.4,174.78l-.24-.08c.06-.15.11-.31.17-.47l.23.09c-.06.16-.12.31-.17.46ZM32.75,173.86l-.23-.1c.06-.15.13-.3.2-.46l.23.1c-.07.15-.13.3-.19.45Z" fill="white"/>
<path d="M36.24,185.16v-.25c.16,0,.32-.01.48-.02l.02.25c-.17.01-.33.02-.5.02ZM35.73,185.15c-.17-.01-.34-.03-.5-.05l.04-.25c.16.02.32.04.48.05v.25ZM37.24,185.07l-.04-.25c.16-.03.32-.06.48-.09l.06.24c-.16.04-.33.07-.49.1ZM34.73,185.01c-.16-.04-.33-.09-.49-.14l.08-.24c.15.05.31.1.46.14l-.06.24ZM38.22,184.84l-.08-.24c.15-.05.31-.1.46-.17l.09.23c-.16.06-.31.12-.47.17ZM33.78,184.67c-.09-.04-.17-.09-.26-.13-.06-.04-.13-.07-.19-.11l.13-.21c.06.04.12.07.18.11.08.04.16.09.24.13l-.11.23ZM39.15,184.46l-.11-.22c.14-.07.29-.15.43-.23l.13.21c-.15.09-.29.17-.44.24ZM32.91,184.13c-.13-.11-.26-.22-.38-.34l.18-.17c.11.11.23.22.35.32l-.16.2ZM40.01,183.94l-.14-.21c.13-.09.26-.19.39-.29l.16.2c-.13.11-.27.21-.4.3ZM32.2,183.4c-.1-.13-.2-.27-.28-.42l.21-.13c.08.14.17.27.27.4l-.2.15ZM40.8,183.31l-.17-.19c.12-.11.24-.22.35-.34l.18.18c-.12.12-.24.24-.36.35ZM41.5,182.6l-.19-.17c.11-.12.21-.25.31-.37l.2.16c-.11.13-.21.26-.32.38ZM31.68,182.53c-.07-.15-.13-.31-.19-.47l.24-.08c.05.15.11.3.18.45l-.23.1ZM42.13,181.82l-.2-.15c.09-.13.19-.26.28-.4l.21.14c-.09.14-.19.28-.29.41ZM31.36,181.57c-.04-.16-.07-.33-.09-.5l.25-.04c.02.16.05.32.09.48l-.24.06ZM42.68,180.99l-.21-.13c.07-.12.14-.24.21-.37l.03-.06.22.12-.03.06c-.07.13-.15.25-.22.37ZM31.22,180.57c0-.14-.01-.28-.01-.43v-.07h.25v.08c0,.14,0,.28.01.41h-.25ZM43.17,180.12l-.22-.11c.07-.14.15-.29.22-.44l.23.11c-.07.15-.15.3-.22.45ZM31.47,179.58h-.25c0-.18.01-.34.03-.51l.25.02c-.01.16-.02.33-.03.49ZM43.6,179.21l-.23-.1c.06-.15.13-.3.19-.45l.23.09c-.06.16-.13.31-.19.46ZM31.53,178.6l-.25-.02c.02-.17.04-.33.06-.5l.25.03c-.02.16-.04.33-.06.49ZM43.96,178.29l-.23-.09c.06-.15.11-.31.16-.46l.24.08c-.05.16-.11.32-.16.47ZM31.66,177.63l-.25-.04c.03-.16.06-.33.09-.49l.25.05c-.03.16-.06.32-.08.48ZM44.28,177.34l-.24-.07c.05-.16.09-.31.14-.47l.24.07c-.04.16-.09.32-.14.48ZM31.72,176.63l-.12-.03h.13s-.12-.04-.12-.04c.03-.15.07-.29.11-.44l.24.06c-.04.15-.07.29-.11.43l-.13.02ZM44.54,176.38l-.24-.06c.04-.16.08-.32.11-.48l.24.05c-.04.16-.07.32-.11.48ZM32.09,175.71l-.24-.07c.05-.16.1-.32.15-.48l.24.08c-.05.16-.1.31-.15.47ZM44.76,175.41l-.25-.05c.03-.16.06-.32.09-.48l.25.04c-.03.16-.06.33-.09.49ZM44.92,174.43l-.25-.04c.02-.16.04-.32.06-.49l.25.03c-.02.17-.04.33-.06.49ZM45.04,173.44l-.25-.02c.01-.16.03-.33.04-.49h.25c-.01.18-.02.35-.04.51Z" fill="white"/>
<path d="M45.1,172.42h-.25c0-.09,0-.18,0-.26v-.12h.12c.08,0,.16,0,.23-.02l.03.25s-.1.01-.14.01c0,.05,0,.09,0,.14Z" fill="white"/>
<path d="M45.73,172.15l-.09-.23c.13-.05.27-.12.4-.2l.13.21c-.15.09-.29.16-.44.22ZM46.57,171.65l-.15-.2c.12-.09.24-.19.35-.3l.17.18c-.12.11-.24.21-.37.31Z" fill="white"/>
<path d="M47.28,170.99l-.19-.17c.05-.06.1-.12.15-.18l.08-.1.1.09c.06.05.12.1.18.13l-.13.22s-.08-.05-.12-.08c-.03.03-.05.06-.08.1Z" fill="white"/>
<path d="M48.07,171.13v-.25s0,0,0,0c.16,0,.31-.03.47-.09l.09.23c-.19.07-.37.11-.56.11ZM49.12,170.73l-.15-.2c.13-.1.25-.21.38-.35l.18.17c-.14.14-.27.27-.41.37Z" fill="white"/>
<path d="M49.88,169.93l-.2-.15c.05-.06.1-.13.14-.2l.08-.12.11.1s.1.08.17.12l-.11.22s-.09-.05-.13-.07c-.02.03-.05.07-.07.1Z" fill="white"/>
<path d="M51.93,170.16c-.16,0-.32,0-.46,0v-.25c.15,0,.3,0,.46,0v.25ZM51.01,170.12c-.18-.02-.33-.04-.47-.07l.05-.25c.12.03.27.05.44.06l-.02.25Z" fill="white"/>
<path d="M52.39,170.14v-.25c.13,0,.28-.02.43-.04l.03.25c-.15.02-.31.03-.46.04ZM53.31,170.04l-.04-.25c.15-.03.29-.05.44-.09l.05.24c-.15.03-.3.06-.45.09ZM54.22,169.84l-.07-.24c.14-.04.29-.08.43-.13l.08.24c-.15.05-.3.09-.44.13ZM55.1,169.56l-.08-.24c.14-.05.28-.1.42-.16l.09.23c-.14.06-.29.11-.43.16ZM55.95,169.21l-.1-.23c.14-.06.27-.12.41-.19l.11.22c-.14.07-.28.13-.42.19ZM56.78,168.82l-.11-.22c.13-.07.27-.14.4-.21l.12.22c-.14.07-.27.15-.41.22ZM57.58,168.37l-.13-.22c.13-.08.26-.15.39-.23l.13.21c-.13.08-.26.16-.39.24ZM58.37,167.89l-.14-.21c.13-.08.25-.17.38-.25l.14.21c-.13.09-.25.17-.38.25ZM59.12,167.37l-.15-.2c.12-.09.24-.18.37-.27l.15.2c-.12.09-.25.18-.37.27ZM59.86,166.82l-.15-.2c.12-.09.24-.19.36-.28l.16.19c-.12.1-.24.19-.36.29ZM60.57,166.24l-.16-.19c.11-.1.23-.2.35-.3l.16.19c-.12.1-.23.2-.35.3ZM61.26,165.64l-.17-.19c.12-.11.24-.21.35-.3l.16.19c-.11.09-.22.19-.34.29ZM61.96,165.08l-.15-.2.07-.05c.12-.08.23-.15.34-.2l.11.22c-.1.05-.2.11-.31.19l-.06.04ZM62.76,164.57l-.22-.12c.06-.11.12-.25.19-.4l.23.1c-.07.16-.13.3-.2.42ZM63.12,163.71l-.24-.08c.05-.13.09-.28.14-.43l.24.08c-.05.16-.1.3-.15.44Z" fill="white"/>
<path d="M63.4,162.83l-.19-.06h-.03s-.01-.01-.01-.01h0s0-.03,0-.03c-.03.01-.05.03-.08.05l-.13-.22c.08-.05.16-.09.24-.12l.13-.05.11.36-.03.09Z" fill="white"/>
<path d="M61.62,163.98l-.17-.19c.13-.12.25-.23.36-.32l.17.19c-.11.1-.23.2-.36.32ZM62.34,163.34l-.16-.19.04-.03c.13-.11.24-.2.34-.28l.16.2c-.1.08-.21.17-.33.27l-.04.03Z" fill="white"/>
<path d="M52.12,167.8c-.08,0-.16,0-.24,0v-.25c.17,0,.33,0,.48,0v.25c-.08,0-.16,0-.24,0ZM52.86,167.77l-.02-.25c.16-.01.32-.02.47-.04l.03.25c-.16.02-.32.03-.49.04ZM51.39,167.74c-.16-.02-.32-.05-.48-.09l.05-.24c.16.04.31.06.46.08l-.03.25ZM53.83,167.67l-.04-.25c.16-.02.31-.05.47-.08l.04.25c-.16.03-.32.06-.48.08ZM54.78,167.49l-.05-.24c.15-.03.31-.07.46-.11l.06.24c-.16.04-.32.08-.47.11ZM55.72,167.25l-.07-.24c.15-.04.31-.09.46-.14l.08.24c-.15.05-.31.1-.46.14ZM56.65,166.95l-.08-.24c.15-.05.3-.11.45-.17l.09.23c-.15.06-.3.12-.45.17ZM57.55,166.59l-.1-.23c.15-.06.29-.13.44-.2l.11.23c-.15.07-.29.13-.44.2ZM58.43,166.18l-.11-.22c.06-.03.12-.06.18-.09.08-.04.16-.09.24-.13l.12.22c-.08.04-.16.09-.25.13-.06.03-.12.06-.19.09ZM59.29,165.72l-.13-.22c.14-.08.27-.16.41-.25l.13.21c-.14.09-.27.17-.41.25ZM60.11,165.2l-.14-.21c.13-.09.26-.18.39-.28l.15.2c-.13.1-.26.19-.4.28ZM60.89,164.62l-.16-.19c.12-.1.25-.2.36-.31l.17.19c-.12.11-.24.21-.37.31Z" fill="white"/>
<path d="M73.82,166.26l-.25-.04s.02-.1.03-.14l-.18-.06-.07.13-.22-.12.17-.31.59.2-.03.11c-.02.07-.03.15-.05.24Z" fill="white"/>
<path d="M72.56,167.86l-.24-.06c.04-.15.09-.29.14-.42l.02-.05.23.1-.02.05c-.05.12-.09.25-.13.39ZM72.91,166.99l-.22-.11c.04-.07.08-.15.12-.23l.11-.2.22.12-.11.2c-.04.08-.08.15-.11.22Z" fill="white"/>
<path d="M72.23,170.72l-.24-.05c.03-.15.06-.3.08-.44h.13s.12.02.12.02c-.02.16-.05.32-.08.47ZM72.36,169.75l-.25-.02c0-.15.02-.31.02-.48h.25c0,.18-.01.34-.02.49ZM72.41,168.79l-.25-.02c.01-.17.03-.33.06-.49l.25.04c-.02.15-.04.3-.05.47Z" fill="white"/>
<path d="M71.89,171.69l-.22-.12c.04-.07.07-.14.1-.22l.04-.08s.03-.08.04-.11l.25.04v.02c-.03.06-.04.1-.06.14l-.06.12c-.03.07-.06.14-.1.2Z" fill="white"/>
<path d="M71.39,172.28l-.15-.2.03-.02s.07-.05.11-.08l.17.19s-.1.08-.15.11ZM71.68,172.02l-.19-.16s.07-.09.1-.14l.21.13c-.04.06-.08.11-.11.16Z" fill="white"/>
<path d="M70.82,172.59v-.18c-.02-.08-.03-.17-.04-.25l.25-.03s0,.04,0,.06c.02,0,.03-.02.05-.03l.12.22c-.11.07-.19.11-.23.12l-.16.08Z" fill="white"/>
<path d="M70.71,171.69c-.03-.16-.07-.31-.12-.45l.24-.08c.05.14.09.31.12.48l-.25.05ZM70.42,170.82c-.08-.14-.16-.26-.26-.36l.18-.18c.11.11.21.25.3.42l-.22.12Z" fill="white"/>
<path d="M68.82,175.03v-.25c.15,0,.31-.02.45-.05l.04.25c-.15.03-.32.05-.49.05ZM68.32,175.02c-.17-.02-.34-.07-.49-.13l.1-.23c.13.06.28.09.43.11l-.03.25ZM67.38,174.63c-.14-.12-.26-.25-.34-.39l.22-.12c.07.12.16.23.28.32l-.16.2ZM66.88,173.73c0-.06,0-.11,0-.17,0-.11,0-.22.02-.33l.25.03c-.01.1-.02.2-.02.3,0,.05,0,.1,0,.15l-.25.03ZM67.24,172.81l-.24-.07c.05-.15.1-.3.18-.46l.23.1c-.07.15-.12.29-.16.43ZM67.61,171.95l-.22-.11.21-.43.22.11-.21.43ZM68.04,171.09l-.22-.11.07-.14c.06-.11.11-.2.17-.29l.21.14c-.05.08-.11.17-.15.26l-.07.14ZM68.57,170.36l-.15-.2c.14-.11.3-.19.47-.24l.07.24c-.14.04-.27.11-.38.2ZM69.8,170.22c-.13-.05-.27-.09-.42-.1v-.25c.2.01.37.05.52.12l-.1.23Z" fill="white"/>
<path d="M70.05,174.88l-.22-.06s-.02,0-.03.01l-.1-.23c.07-.03.14-.07.2-.1l.21-.13-.02.25c0,.09-.03.18-.05.27Z" fill="white"/>
<path d="M68.53,176.84l-.17-.18.1-.09c.12-.11.23-.22.34-.32l.18.18c-.11.11-.22.22-.35.33l-.1.09ZM69.39,175.96l-.19-.16c.09-.1.17-.2.24-.3.04-.06.08-.12.12-.17l.21.14c-.04.06-.08.12-.13.19-.08.1-.16.21-.25.31Z" fill="white"/>
<path d="M65.58,179.06l-.14-.21c.13-.08.26-.17.4-.26l.11-.07.14.21-.11.07c-.14.09-.27.18-.4.27ZM66.6,178.38l-.15-.2c.16-.12.33-.24.49-.36l.15.2c-.17.12-.33.25-.5.36ZM67.58,177.64l-.16-.2c.16-.13.32-.25.47-.38l.16.19c-.16.13-.31.26-.48.39Z" fill="white"/>
<path d="M64.76,180l-.12-.64.28-.17.13.21-.14.08.04.2s.07-.02.1-.03l.07.24c-.08.02-.16.05-.24.07l-.13.04Z" fill="white"/>
<path d="M65.61,179.74l-.08-.24c.15-.05.31-.1.47-.15l.08.24c-.16.05-.32.1-.48.15ZM66.56,179.43l-.08-.24c.16-.06.31-.11.47-.17l.08.24c-.15.06-.31.11-.47.17Z" fill="white"/>
<path d="M67.5,179.09l-.09-.23c.16-.06.31-.12.46-.18l.09.23c-.15.06-.31.12-.47.18ZM68.43,178.71l-.1-.23c.17-.07.32-.14.44-.21l.12.22c-.13.07-.28.14-.46.22ZM69.34,178.19l-.19-.16c.11-.13.21-.25.31-.38l.2.15c-.1.13-.2.26-.32.4ZM69.94,177.38l-.21-.13c.09-.14.17-.28.24-.42l.22.12c-.08.15-.16.29-.25.44ZM70.41,176.48l-.23-.1c.05-.12.09-.23.13-.35l.03-.11.24.08-.03.08c-.05.15-.09.27-.14.4ZM70.73,175.52l-.24-.07c.05-.17.09-.33.12-.48l.24.06c-.04.15-.08.32-.13.49Z" fill="white"/>
<path d="M70.96,174.53l-.25-.04c.01-.08.03-.16.04-.24v-.05s.05-.03.05-.03c.07-.05.13-.1.2-.15l.15.2c-.05.04-.11.08-.16.12,0,.06-.02.13-.03.2Z" fill="white"/>
<path d="M71.55,173.88l-.17-.18c.12-.11.23-.23.33-.35l.19.16c-.11.13-.23.26-.35.38ZM72.21,173.09l-.21-.14c.1-.14.18-.29.25-.42l.22.12c-.07.14-.16.29-.27.44Z" fill="white"/>
<path d="M72.73,172.21l-.22-.11c.07-.13.13-.28.2-.45l.23.09c-.07.17-.13.33-.21.47ZM73.1,171.25l-.24-.07c.04-.15.09-.31.13-.48l.24.06c-.04.17-.09.34-.13.49ZM73.34,170.26l-.25-.05c.03-.16.06-.32.09-.49l.25.04c-.03.17-.06.34-.09.5ZM73.5,169.26l-.25-.03c.02-.16.04-.33.06-.5l.25.03c-.02.17-.04.34-.06.5ZM73.62,168.26l-.25-.02c.02-.16.03-.33.04-.5l.25.02c-.01.17-.03.34-.04.5ZM73.71,167.26l-.25-.02c.02-.18.03-.35.05-.5l.25.03c-.02.15-.03.32-.05.5Z" fill="white"/>
<path d="M72.08,185.81c-.13-.11-.17-.13-.17-.13l-.07-.03v-.27l.08-.11.2.15-.03.04v.04s.08.06.15.12l-.16.19Z" fill="white"/>
<path d="M72.99,186.61l-.23-.2.17-.19.23.2-.17.18ZM72.54,186.21l-.23-.2.16-.19.23.2-.17.19Z" fill="white"/>
<path d="M73.66,187.05h-.25l-.04-.05c-.04-.05-.1-.11-.16-.18l.18-.17c.05.05.1.1.14.15h.05l.05-.03.15.2-.11.08Z" fill="white"/>
<path d="M74.26,186.59l-.16-.19c.18-.15.33-.28.45-.39l.18.18c-.12.12-.28.26-.46.41ZM75.12,185.67l-.22-.12c.06-.1.08-.2.08-.29,0-.06-.01-.12-.04-.19l.23-.09c.04.1.06.19.06.28,0,.13-.04.26-.11.41Z" fill="white"/>
<path d="M72.51,184.95l-.19-.17c.06-.07.12-.13.18-.2.08-.09.16-.17.24-.25l.18.18c-.08.08-.16.16-.24.24-.06.06-.12.13-.18.19ZM74.62,184.62c-.12-.12-.26-.26-.44-.4l.16-.19c.18.15.34.29.46.42l-.18.17ZM73.35,184.1l-.17-.19c.18-.16.28-.24.35-.28l.03-.02h.23l.06.04-.14.2.05-.07v.07h-.11c-.06.04-.15.12-.28.24Z" fill="white"/>
<path d="M73.55,182.03l-.1-.14c-.04-.06-.09-.12-.14-.18l.18-.17s.05.05.07.08c.02-.02.04-.05.06-.07l.19.16c-.05.06-.11.13-.16.19l-.1.13Z" fill="white"/>
<path d="M73.06,181.48l-.07-.06c-.07-.05-.14-.1-.21-.16l.14-.2c.08.06.15.11.22.16l.07.05-.15.2ZM72.48,181.06c-.09-.06-.18-.12-.28-.19l.06-.09v-.14s.03,0,.03,0l.05.02c.1.06.2.13.29.19l-.14.21Z" fill="white"/>
<path d="M70.81,182.3l-.19-.16c.07-.09.15-.18.23-.28l.19.16c-.08.1-.16.19-.23.27ZM71.27,181.76l-.19-.17c.08-.09.16-.18.25-.27l.18.17c-.08.09-.16.17-.24.26ZM71.76,181.23l-.18-.18c.1-.11.19-.19.27-.26l.17.19c-.07.06-.15.14-.25.24Z" fill="white"/>
<path d="M70.55,183.01c-.06-.05-.13-.1-.19-.16l-.05-.04v-.27l.07-.09.2.15-.02.03v.07s.1.08.15.12l-.16.19Z" fill="white"/>
<path d="M71.52,183.87c-.08-.08-.16-.15-.24-.22l.17-.18c.08.07.16.15.24.22l-.17.18ZM71.05,183.43c-.08-.07-.16-.14-.24-.21l.16-.19c.08.07.16.14.25.22l-.17.19Z" fill="white"/>
<path d="M72.62,184.02l-.15-.2c.1-.07.19-.15.27-.22l.16.19c-.09.07-.18.15-.28.22ZM73.16,183.55l-.17-.18c.09-.08.17-.17.24-.25l.19.17c-.07.08-.16.17-.25.26Z" fill="white"/>
<path d="M73.64,183l-.21-.14c.04-.07.08-.13.11-.2l.07-.15.13.1c.06.05.13.1.19.16l-.16.19s-.05-.04-.07-.06c-.02.03-.04.06-.06.09Z" fill="white"/>
<path d="M75.09,183.94h-.17v-.25h.09c.08-.06.17-.12.24-.18l.15.2c-.09.07-.18.14-.28.21l-.03.02ZM74.47,183.6c-.12-.11-.23-.22-.35-.32l.17-.19c.12.1.23.21.35.33l-.17.18Z" fill="white"/>
<path d="M75.78,183.4l-.16-.19c.13-.11.24-.22.34-.32l.18.17c-.1.11-.22.22-.36.34ZM76.45,182.68l-.21-.14c.09-.14.15-.27.18-.39l.24.06c-.03.15-.11.31-.22.47ZM76.4,181.75c-.05-.12-.13-.24-.24-.36l.18-.17c.13.14.23.29.29.44l-.23.09ZM74.13,181.35l-.18-.18c.12-.13.22-.24.32-.35l.18.17c-.1.1-.2.21-.3.33l-.02.02ZM75.82,181.09c-.11-.09-.24-.19-.38-.28l.14-.2c.14.1.27.2.39.29l-.16.19ZM74.79,180.66l-.17-.19c.1-.09.18-.15.24-.18h.06s.21-.01.21-.01l.07.04-.1.16v.05h-.14s-.08.06-.16.13Z" fill="white"/>
<path d="M88.44,167.8l-.21-.14c.05-.07.09-.13.12-.2l.07-.14.31.27-.17.19-.07-.06s-.04.06-.06.09Z" fill="white"/>
<path d="M89.88,168.75h-.16v-.25h.08c.09-.06.17-.12.25-.19l.15.2c-.09.07-.19.14-.29.21l-.03.02ZM89.28,168.42c-.11-.1-.22-.2-.32-.3l-.03-.02.17-.19.03.02c.11.1.21.2.33.3l-.17.18Z" fill="white"/>
<path d="M90.58,168.2l-.16-.19c.13-.11.24-.22.34-.32l.18.17c-.1.11-.22.22-.35.34ZM91.25,167.48l-.21-.14c.09-.14.15-.27.18-.39l.24.05c-.03.15-.11.31-.21.47ZM91.19,166.56c-.05-.12-.13-.24-.24-.36l.18-.17c.13.14.23.29.29.44l-.23.09ZM88.92,166.15l-.21-.14.03-.04c.11-.12.22-.24.32-.34l.18.17c-.1.11-.21.22-.32.34ZM90.61,165.89c-.11-.09-.24-.18-.38-.28l.14-.21c.14.1.27.2.39.29l-.16.2ZM89.58,165.48l-.17-.19c.09-.09.17-.15.22-.18l.03-.02h.23l.08.05-.13.21h-.02s-.08-.01-.08-.01c-.04.03-.1.08-.16.14Z" fill="white"/>
<path d="M88.35,166.84l-.1-.15c-.04-.06-.08-.12-.14-.18l.19-.17s.04.05.06.07c.02-.02.04-.04.06-.07l.19.16c-.05.07-.11.13-.15.19l-.11.14Z" fill="white"/>
<path d="M87.86,166.27s-.06-.05-.09-.07c-.06-.05-.13-.1-.19-.15l.15-.2c.07.05.14.1.2.15.03.02.06.05.09.08l-.16.19ZM87.28,165.85c-.09-.06-.19-.12-.29-.19l.06-.1v-.14s.03,0,.03,0l.04.02c.1.06.2.13.3.19l-.14.21Z" fill="white"/>
<path d="M85.6,167.11l-.19-.16c.07-.09.15-.18.23-.28l.19.16c-.08.1-.16.19-.23.28ZM86.07,166.56l-.19-.17c.08-.09.16-.18.24-.27l.18.17c-.08.09-.16.18-.24.27ZM86.56,166.03l-.18-.17c.1-.11.19-.19.27-.26l.17.19c-.07.06-.16.15-.25.25Z" fill="white"/>
<path d="M86.4,168.73c-.09-.08-.17-.16-.26-.24l.17-.18c.09.08.17.16.26.24l-.17.18ZM85.88,168.26c-.09-.08-.18-.15-.27-.23l.16-.19c.09.08.18.15.27.23l-.16.19Z" fill="white"/>
<path d="M87.02,169.09h-.26l-.11-.11.18-.18.04.04h.08l.03-.02.15.2-.1.07ZM87.41,168.81l-.15-.2c.1-.07.19-.15.27-.22l.16.19c-.09.07-.18.15-.28.22ZM87.95,168.35l-.17-.18c.09-.08.17-.16.24-.24l.18.17c-.08.08-.16.17-.26.26Z" fill="white"/>
<path d="M108.32,156.95l-.2-.14c.05-.07.09-.13.12-.2l.07-.14.31.27-.16.19-.07-.06s-.04.06-.06.09Z" fill="white"/>
<path d="M109.76,157.9h-.16v-.25h.08c.09-.06.17-.12.25-.19l.15.2c-.09.07-.19.14-.29.21l-.03.02ZM109.15,157.56c-.11-.1-.22-.2-.32-.3l-.03-.03.17-.18.03.02c.11.1.21.2.32.3l-.17.18Z" fill="white"/>
<path d="M110.46,157.35l-.16-.19c.13-.11.24-.22.34-.32l.18.17c-.1.11-.22.22-.35.34ZM111.13,156.63l-.21-.14c.09-.14.15-.27.18-.39l.24.05c-.03.15-.11.31-.21.47ZM111.07,155.7c-.05-.12-.13-.24-.24-.36l.18-.17c.13.14.23.29.29.44l-.23.09ZM108.8,155.29l-.18-.17c.11-.12.22-.24.33-.35l.18.17c-.1.11-.21.22-.32.34ZM110.49,155.04c-.11-.09-.24-.18-.38-.28l.14-.21c.15.1.27.2.39.29l-.16.2ZM109.46,154.63l-.17-.19c.09-.09.17-.15.22-.18l.03-.02h.23l.08.05-.13.21h-.02s-.08-.01-.08-.01c-.04.03-.1.08-.16.14Z" fill="white"/>
<path d="M108.22,155.99l-.1-.15c-.04-.06-.09-.12-.14-.18l.19-.17s.04.05.06.07c.02-.02.04-.04.06-.07l.19.16c-.05.07-.11.13-.15.19l-.11.14Z" fill="white"/>
<path d="M107.74,155.42s-.06-.05-.09-.07c-.06-.05-.12-.09-.19-.14l.15-.2c.07.05.14.1.2.15.03.03.07.05.1.08l-.16.19ZM107.16,155c-.09-.06-.19-.12-.29-.19l.06-.1v-.14s.03,0,.03,0l.04.02c.1.06.2.13.3.19l-.14.21Z" fill="white"/>
<path d="M105.48,156.26l-.19-.16c.07-.09.15-.18.23-.28l.19.16c-.08.1-.16.19-.23.28ZM105.95,155.71l-.19-.17c.08-.09.16-.18.24-.27l.18.17c-.08.09-.16.18-.24.27ZM106.44,155.17l-.18-.17c.1-.11.19-.19.27-.26l.17.19c-.07.06-.16.15-.25.25Z" fill="white"/>
<path d="M105.23,156.96c-.06-.05-.13-.1-.19-.16l-.05-.04v-.27l.07-.09.2.15-.02.03v.07s.1.08.15.12l-.16.19Z" fill="white"/>
<path d="M106.27,157.88c-.09-.08-.17-.16-.26-.24l.17-.18c.09.08.17.16.26.24l-.17.18ZM105.76,157.41c-.09-.08-.18-.15-.27-.23l.16-.19c.09.08.18.15.27.23l-.16.19Z" fill="white"/>
<path d="M106.9,158.24h-.26l-.11-.11.17-.18.04.04h.08l.03-.02.15.2-.1.07ZM107.28,157.96l-.15-.2c.1-.07.19-.15.27-.22l.16.19c-.09.07-.18.15-.28.22ZM107.83,157.5l-.17-.18c.09-.08.17-.16.24-.24l.18.17c-.08.08-.16.17-.26.26Z" fill="white"/>
<path d="M100.51,168.44l-.03-.03-.2-.24.02-.07c.03-.07.06-.15.09-.23l.23.09c-.02.06-.04.11-.06.16l.11.14-.09.07-.07.11Z" fill="white"/>
<path d="M102.04,168.93c-.13-.03-.26-.06-.38-.1l.06-.24c.12.03.25.06.38.1l-.06.24ZM101.28,168.73c-.14-.04-.26-.08-.38-.12l.08-.24c.11.04.23.08.36.12l-.07.24Z" fill="white"/>
<path d="M104.36,169.36c-.11-.01-.22-.03-.34-.05h-.04s.03-.25.03-.25h.05c.12.02.23.04.34.05l-.03.25ZM103.58,169.24c-.13-.02-.26-.04-.39-.07l.04-.25c.13.02.26.05.38.07l-.04.25ZM102.81,169.1h-.06c-.11-.03-.22-.06-.33-.08l.05-.24c.11.02.21.05.32.07h.06s-.05.26-.05.26Z" fill="white"/>
<path d="M104.91,169.57l-.14-.16s-.01,0-.02,0v-.02s0-.01,0-.01h.01s.02-.22.02-.22c.09,0,.17.02.25.03l.29.03-.41.35Z" fill="white"/>
<path d="M103.59,170.68l-.15-.2c.11-.09.22-.17.33-.27l.16.19c-.11.1-.22.19-.34.28ZM104.26,170.13l-.16-.19.33-.28.16.19-.33.28Z" fill="white"/>
<path d="M100.39,171.97v-.25c.13,0,.27-.02.41-.04l.03.25c-.15.02-.29.03-.44.04ZM99.95,171.96c-.15,0-.3-.02-.44-.03l.03-.25c.13.01.27.02.42.03v.25ZM101.26,171.86l-.06-.24c.13-.03.27-.07.4-.11l.08.24c-.14.05-.28.09-.42.12ZM99.08,171.86c-.16-.04-.3-.08-.43-.13l.1-.23c.12.05.25.09.39.12l-.06.24ZM102.1,171.58l-.1-.23.04-.02c.11-.05.22-.1.34-.16l.12.22c-.12.06-.23.12-.35.17l-.05.02ZM102.88,171.18l-.13-.21c.12-.07.24-.15.35-.23l.14.21c-.12.08-.24.16-.37.24Z" fill="white"/>
<path d="M98.24,171.49c-.07-.06-.14-.13-.2-.2l-.04-.05.1-.36-.17-.05s-.05.09-.07.13l-.22-.12c.04-.07.08-.14.12-.22l.05-.09.6.18-.13.47s.07.08.12.11l-.16.2Z" fill="white"/>
<path d="M96.57,172.67l-.17-.19c.13-.12.26-.24.37-.36l.18.17c-.12.13-.25.25-.38.38ZM97.3,171.87l-.2-.15s.06-.09.09-.13c.07-.1.13-.2.19-.31l.21.13c-.06.1-.13.21-.2.31-.03.05-.06.09-.1.14Z" fill="white"/>
<path d="M84.82,175.87h-.41s0-.25,0-.25h.41s.12,0,.12,0v.25h-.12ZM83.88,175.86c-.18,0-.36,0-.53-.01v-.25c.18,0,.35.01.54.01v.25ZM85.47,175.86v-.25c.17,0,.34-.01.52-.02v.25c-.17,0-.34.02-.52.02ZM82.81,175.82c-.18,0-.36-.02-.53-.03l.02-.25c.17.01.34.02.53.03v.25ZM86.53,175.8l-.02-.25c.17-.01.35-.03.52-.04l.02.25c-.18.02-.35.03-.53.04ZM81.75,175.74c-.1-.01-.21-.02-.3-.04-.08,0-.15-.02-.23-.03l.04-.25c.07.01.14.02.22.03.1.01.19.02.3.03l-.03.25ZM87.59,175.7l-.03-.25c.17-.02.35-.04.52-.06l.03.25c-.18.02-.35.04-.53.06ZM88.64,175.57l-.04-.25c.17-.03.35-.05.52-.08l.04.25c-.17.03-.35.06-.53.08ZM80.69,175.56c-.19-.05-.36-.11-.52-.18l.1-.23c.14.06.31.12.48.16l-.06.24ZM89.69,175.39l-.05-.25c.17-.03.35-.07.52-.1l.05.25c-.17.04-.35.07-.52.1ZM90.74,175.18l-.05-.24c.17-.04.34-.08.51-.12l.06.24c-.17.04-.34.08-.52.12ZM79.69,175.11s-.08-.06-.11-.09c-.1-.09-.2-.21-.27-.33l.21-.13c.07.11.14.2.23.28.03.03.06.05.09.08l-.15.2ZM91.77,174.92l-.06-.24c.17-.05.34-.09.51-.14l.07.24c-.17.05-.34.1-.51.14ZM92.79,174.62l-.08-.24c.17-.05.34-.11.5-.17l.08.24c-.16.06-.33.11-.5.17ZM93.79,174.27l-.09-.23c.17-.07.33-.13.48-.2l.1.23c-.16.07-.32.14-.49.2ZM79.08,174.17c-.04-.17-.07-.35-.08-.55h.25c0,.17.03.33.07.48l-.24.06ZM94.8,173.82l-.14-.21.11-.06c.12-.06.24-.13.35-.19l.12.22c-.11.06-.23.13-.36.19l-.09.04ZM95.71,173.32l-.13-.21c.16-.1.3-.2.43-.29l.15.2c-.14.1-.28.2-.45.3Z" fill="white"/>
<path d="M79.25,173.06h-.25c0-.05,0-.1,0-.15l-.13-.02.04-.25.37.06-.02.12c0,.07-.02.15-.02.23Z" fill="white"/>
<path d="M78.86,172.89h-.02s.04-.25.04-.25l-.02.25ZM78.83,172.89h-.02s.04-.25.04-.25l-.02.25Z" fill="white"/>
<path d="M78.62,172.99l-.24-.07c.02-.08.05-.16.07-.24l.03-.11.36.06-.04.25-.14-.02s-.02.09-.04.13Z" fill="white"/>
<path d="M78.25,174.91l-.25-.02c.02-.16.04-.33.06-.5l.25.04c-.02.17-.04.33-.06.48ZM78.39,173.94l-.25-.05c.03-.16.07-.32.11-.49l.24.06c-.04.16-.08.32-.11.48Z" fill="white"/>
<path d="M83.56,178.99c-.17,0-.33,0-.5,0v-.25c.17,0,.33,0,.5,0v.25ZM84.05,178.99v-.25c.16,0,.32,0,.49-.01v.25c-.16,0-.32.01-.49.01ZM82.56,178.96c-.17-.01-.33-.02-.5-.04l.03-.25c.16.02.32.03.49.04l-.02.25ZM85.04,178.95v-.25c.15,0,.31-.02.48-.03l.02.25c-.17.01-.33.02-.49.03ZM86.03,178.88l-.02-.25c.16-.01.32-.03.49-.05l.03.25c-.17.02-.33.03-.49.05ZM81.57,178.86c-.17-.02-.33-.05-.49-.08l.05-.25c.16.03.32.06.48.08l-.04.25ZM87.02,178.78l-.03-.25c.16-.02.33-.04.49-.06l.03.25c-.16.02-.33.04-.49.06ZM80.59,178.67c-.17-.04-.33-.09-.48-.15l.09-.23c.14.05.3.1.46.14l-.06.24ZM88,178.65l-.04-.25c.16-.03.32-.05.48-.08l.04.25c-.16.03-.32.06-.49.08ZM88.97,178.48l-.05-.25c.16-.03.32-.06.48-.1l.05.24c-.16.03-.32.07-.49.1ZM79.64,178.31c-.15-.08-.3-.17-.44-.26l.14-.21c.13.09.26.17.41.24l-.11.22ZM89.94,178.27l-.06-.24.27-.06c.07-.02.14-.03.21-.05l.06.24c-.07.02-.14.04-.21.05l-.27.06ZM90.91,178.03l-.07-.24c.16-.04.32-.09.47-.14l.07.24c-.16.05-.32.09-.48.14ZM91.85,177.73l-.08-.24c.16-.05.31-.11.46-.16l.09.23c-.15.06-.31.11-.47.17ZM78.81,177.73s-.04-.04-.06-.06c-.1-.1-.2-.21-.28-.33l.21-.14c.07.11.16.21.25.3l.06.05-.17.18ZM92.79,177.39l-.09-.23c.15-.06.3-.12.45-.19l.1.23c-.15.07-.3.13-.46.19ZM93.7,176.99l-.11-.22c.15-.07.29-.15.43-.22l.12.22c-.14.08-.29.15-.44.23ZM78.22,176.89c-.06-.15-.12-.32-.16-.49l.24-.06c.04.16.08.31.14.45l-.23.1ZM94.57,176.51l-.13-.21c.14-.09.28-.17.41-.26l.14.21c-.14.09-.28.18-.42.27ZM95.4,175.94l-.15-.2c.1-.08.21-.16.3-.25l.07-.06.17.18-.07.06c-.1.09-.21.17-.31.26ZM77.98,175.89c-.01-.13-.02-.26-.02-.4v-.11s.25,0,.25,0v.11c0,.13,0,.25.01.37l-.25.02ZM96.14,175.27l-.18-.17c.11-.12.21-.24.32-.37l.19.16c-.11.13-.22.26-.33.38ZM96.77,174.49l-.2-.15.1-.14c.06-.08.12-.17.17-.26l.21.13c-.06.09-.12.19-.18.27l-.1.14ZM97.3,173.64l-.22-.12c.08-.14.15-.28.22-.43l.23.11c-.07.15-.15.3-.23.44Z" fill="white"/>
<path d="M97.69,172.73s0-.02-.01-.03l-.16-.07c.03-.08.06-.15.09-.23l.14-.34.1.35c.02.08.05.15.08.23l-.17.07s0,.01,0,.02h-.02s-.03,0-.03,0Z" fill="white"/>
<path d="M99.41,173.99c-.19-.01-.37-.05-.55-.12l.08-.24c.15.06.32.09.48.1l-.02.25ZM98.37,173.62c-.16-.11-.29-.24-.41-.39l.2-.15c.1.13.22.24.35.34l-.14.21Z" fill="white"/>
<path d="M99.96,173.99l-.02-.25c.17-.01.35-.03.51-.06l.04.25c-.17.03-.35.05-.54.07ZM101.03,173.78l-.08-.24c.07-.03.15-.05.22-.09.08-.04.17-.08.25-.12l.11.22c-.09.04-.17.09-.26.12-.08.03-.16.06-.24.09ZM102,173.29l-.14-.21c.14-.09.28-.19.42-.3l.16.2c-.14.11-.29.22-.44.32ZM102.84,172.63l-.17-.19c.13-.11.25-.23.39-.35l.17.18c-.13.13-.26.25-.39.36ZM103.61,171.9l-.17-.18c.12-.12.25-.24.37-.37l.18.18c-.13.13-.25.25-.38.37ZM104.36,171.15l-.18-.17.37-.38.18.18-.37.38ZM105.1,170.4l-.18-.18.37-.37.18.18-.37.37ZM105.84,169.65l-.17-.18c.13-.13.26-.25.38-.37l.17.18c-.12.12-.25.24-.38.37ZM106.6,168.92l-.17-.18c.14-.13.27-.25.39-.36l.17.18c-.12.11-.24.23-.39.36Z" fill="white"/>
<path d="M107.38,168.21l-.16-.19s.09-.08.14-.11v-.07c-.06-.01-.12-.02-.17-.03l.04-.25c.09.01.17.03.25.05l.08.02.06.38-.06.05c-.05.04-.12.1-.19.16Z" fill="white"/>
<path d="M106.75,167.75h-.09c-.11-.02-.24-.03-.36-.04l.02-.25c.12.01.24.02.36.03h.09s-.02.26-.02.26ZM105.85,167.66c-.15-.02-.3-.04-.45-.07l.04-.25c.15.02.3.05.44.07l-.03.25Z" fill="white"/>
<path d="M104.95,167.51c-.15-.03-.3-.05-.45-.08l.05-.25c.15.03.29.06.44.08l-.04.25ZM104.06,167.34h-.06c-.13-.04-.26-.07-.38-.1l.05-.24c.12.03.25.06.38.08h.06s-.05.26-.05.26ZM103.17,167.14c-.13-.03-.26-.06-.38-.09l-.06-.02.06-.24h.05c.14.05.26.08.39.11l-.06.24Z" fill="white"/>
<path d="M102.29,166.91c-.09-.03-.17-.06-.24-.09l-.15-.06.09-.13c.05-.07.1-.14.15-.21l.2.15s-.03.04-.05.06c.02,0,.05.02.08.02l-.08.24Z" fill="white"/>
<path d="M102.64,166.24l-.18-.17c.11-.11.22-.23.34-.34l.17.18c-.12.11-.23.21-.33.32ZM103.32,165.61l-.16-.2c.12-.1.25-.19.38-.29l.15.2c-.13.09-.25.19-.37.28Z" fill="white"/>
<path d="M104.07,165.08l-.13-.21c.13-.08.26-.17.4-.25l.13.21c-.14.08-.27.16-.4.24ZM104.87,164.6l-.12-.22c.14-.07.28-.15.42-.22l.11.22c-.14.07-.28.14-.41.22ZM105.7,164.19l-.11-.23c.14-.07.28-.13.43-.19l.1.23c-.15.06-.29.13-.43.19ZM106.55,163.81l-.1-.23c.14-.06.29-.12.44-.18l.09.23c-.15.06-.29.12-.43.17ZM107.42,163.47l-.09-.23c.15-.05.29-.11.44-.16l.08.24c-.15.05-.3.11-.44.16ZM108.31,163.16l-.08-.24c.11-.04.22-.07.33-.11l.12-.04.08.24-.12.04c-.11.04-.22.07-.33.11ZM109.2,162.87l-.08-.24.45-.14.08.24-.45.14ZM110.12,162.49l-.21-.14c.07-.1.15-.23.25-.39l.21.13c-.1.16-.18.3-.25.4ZM110.61,161.68l-.22-.13c.07-.12.14-.24.21-.36l.02-.04.22.12-.03.05c-.07.12-.14.24-.21.36Z" fill="white"/>
<path d="M111.07,160.8l-.17-.05-.05.03-.04-.08-.13.04-.08-.24.33-.11.17.3v.04s-.02.04-.02.06Z" fill="white"/>
<path d="M108.57,161.52l-.09-.23c.17-.07.35-.14.52-.2l.09.23c-.17.07-.35.13-.52.2ZM109.62,161.12l-.09-.23c.18-.06.35-.13.53-.19l.08.24c-.17.06-.35.13-.53.19Z" fill="white"/>
<path d="M100.84,167.44l-.23-.1c.07-.17.16-.31.24-.44l.04-.06.21.13-.04.07c-.08.13-.16.26-.22.41ZM101.37,166.48l-.21-.14c.09-.14.21-.3.33-.46l.2.15c-.12.16-.23.31-.32.44ZM102.05,165.61l-.19-.16.06-.07c.1-.11.21-.23.32-.34l.18.18c-.11.11-.21.22-.31.33l-.06.07ZM102.82,164.82l-.17-.18c.14-.12.28-.25.43-.37l.16.19c-.15.12-.29.24-.42.36ZM103.67,164.11l-.15-.2c.15-.11.3-.22.46-.33l.14.21c-.15.11-.3.22-.45.33ZM104.58,163.48l-.13-.21c.16-.1.32-.2.48-.29l.13.22c-.16.09-.32.19-.47.29ZM105.54,162.91l-.12-.22.5-.26.11.22-.49.26ZM106.53,162.41l-.11-.22c.17-.08.34-.16.51-.24l.1.23c-.17.08-.34.16-.5.24ZM107.54,161.94l-.1-.23c.17-.07.34-.15.52-.22l.1.23c-.17.07-.34.14-.51.22Z" fill="white"/>
<path d="M53.5,172.82c.11.18.29.27.53.27.21,0,.39-.08.52-.24s.2-.38.2-.64v-2.7c-.48.16-.95.28-1.41.36v2.26c0,.29.06.52.17.7Z" fill="white"/>
<path d="M60.05,169.49c0-.27-.06-.47-.19-.61s-.3-.2-.51-.2-.38.07-.51.2-.19.34-.19.61v.81h1.4v-.81Z" fill="white"/>
<path d="M105.2,165.43h3.1v-1.8c0-.23-.04-.41-.08-.59-1.16.39-2.17.81-3.02,1.24v1.15Z" fill="white"/>
<path d="M107.25,161.92c-.16-.05-.32-.09-.51-.09-.48,0-.85.15-1.13.45-.15.16-.25.37-.32.62.13-.08.26-.16.4-.23.5-.26,1.03-.51,1.56-.75Z" fill="white"/>
<path d="M85.27,167.52v-.17c.13-.18.3-.4.52-.66.17-.2.33-.37.5-.55v-2.51c0-.6-.14-1.05-.42-1.35-.28-.3-.66-.45-1.13-.45s-.85.15-1.13.45c-.28.3-.42.75-.42,1.35v6.17c0,.6.14,1.05.42,1.35.28.3.66.45,1.13.45s.85-.15,1.13-.45c.28-.3.42-.75.42-1.35v-1.4c-.08-.07-.17-.16-.25-.23-.26-.23-.52-.44-.77-.65Z" fill="white"/>
<path d="M47.09,163.06c-.26.33-.69.71-1.27,1.12h-.17c-.28-.28-.55-.53-.81-.76-.22-.19-.44-.37-.65-.55-.09.31-.14.68-.14,1.12v9.78c.05-.44.09-.89.12-1.38.04-.67.06-1.49.08-2.46l.3-.1c.37.17.77.25,1.2.25.6,0,1.06-.13,1.39-.4.02-.01.03-.03.04-.04v-5.95c0-.23-.04-.43-.08-.63Z" fill="white"/>
<path d="M23.61,148.42v40.51h100.99v-40.51H23.61ZM105.15,156.49c.13-.18.3-.4.52-.66.22-.26.44-.5.66-.73.22-.23.37-.37.48-.44h.17c.3.19.57.37.79.54.22.17.39.35.5.52.14-.18.3-.37.48-.56.18-.2.35-.37.51-.53.16-.16.29-.26.36-.31h.15c.51.32.89.6,1.13.85.25.25.37.5.37.75,0,.48-.51,1.09-1.52,1.81h-.17c-.22-.22-.43-.42-.63-.6-.2-.18-.39-.35-.57-.5-.2.41-.7.89-1.49,1.45h-.17c-.28-.28-.55-.53-.81-.76-.26-.23-.52-.44-.77-.65v-.17ZM80.03,164.12c0-.64.04-1.23.12-1.77.08-.54.24-1.01.46-1.43.37-.68.9-1.23,1.6-1.64.69-.41,1.53-.62,2.53-.62s1.83.21,2.53.62c.69.41,1.22.96,1.6,1.64.23.41.38.89.47,1.43.08.54.12,1.13.12,1.77v1.3c.13-.12.23-.21.29-.25h.15c.51.32.89.6,1.13.85.25.25.37.5.37.75,0,.48-.51,1.09-1.52,1.81h-.17c-.09-.09-.17-.16-.26-.24v.96c0,.64-.04,1.23-.12,1.77-.08.54-.24,1.01-.47,1.43-.37.68-.9,1.23-1.6,1.64-.69.41-1.53.62-2.53.62s-1.83-.21-2.53-.62c-.69-.41-1.22-.96-1.6-1.64-.23-.41-.38-.89-.46-1.43-.08-.54-.12-1.13-.12-1.77v-5.18ZM55.24,157.14c.19-.27.4-.52.62-.76.22-.24.43-.45.62-.62.19-.17.31-.27.36-.3h.13c.51.36.87.64,1.09.85.22.21.32.41.32.6,0,.34-.49.92-1.48,1.73h-.17c-.1-.11-.26-.27-.49-.48-.22-.2-.43-.39-.63-.56-.2-.17-.32-.28-.37-.31v-.15ZM53.83,160.38c.13-.18.3-.4.52-.66.22-.26.44-.5.66-.73.22-.23.37-.37.48-.44h.17c.33.2.6.39.81.56.21.17.37.34.49.5.22-.27.46-.55.74-.85.28-.3.48-.49.61-.56h.15c.51.32.89.6,1.13.85.25.25.37.5.37.75,0,.48-.51,1.09-1.52,1.81h-.17c-.22-.22-.43-.42-.63-.6-.2-.18-.39-.35-.57-.5-.2.41-.7.89-1.49,1.45h-.17c-.28-.28-.55-.53-.81-.76-.26-.23-.52-.44-.77-.65v-.17ZM59.35,167.25c.33,0,.62.06.89.17.27.11.49.27.68.46.37.42.56.95.56,1.58v1.96h-2.83v.97c0,.22.06.4.19.52s.3.18.51.18c.27,0,.45-.08.54-.24s.14-.32.16-.48h1.43c0,.63-.19,1.13-.57,1.51-.19.2-.41.35-.67.46-.26.11-.56.17-.88.17-.45,0-.83-.09-1.14-.28-.31-.19-.55-.43-.72-.74-.1-.19-.17-.4-.21-.64-.04-.24-.06-.51-.06-.8v-2.34c0-.29.02-.56.06-.8.04-.24.11-.46.21-.64,0,0,0,0,0,0-.37.21-.74.41-1.11.59-.07.04-.14.06-.21.09v5.48h-1.43v-.64c-.09.1-.18.2-.27.29s-.18.17-.28.23c-.1.07-.22.12-.35.15-.13.04-.29.06-.46.06-.6,0-1.01-.22-1.25-.67-.08-.16-.15-.35-.18-.59-.04-.23-.06-.55-.06-.94v-2.32c-.6,0-1.06-.04-1.36-.11-.08-.02-.14-.04-.2-.07v4.76h-3.16v-3.67c-.26.29-.55.56-.88.79-.42.29-.84.44-1.28.44-.04,1.52-.25,3.01-.63,4.46-.38,1.45-.9,2.76-1.56,3.93-.66,1.17-1.43,2.13-2.3,2.87-1.28,1.08-2.74,1.62-4.36,1.62-.98,0-1.83-.2-2.55-.61-.72-.41-1.28-.98-1.67-1.71s-.58-1.59-.58-2.57c0-1.18.13-2.36.4-3.55.13-.59.32-1.21.55-1.86-.45-.06-.9-.16-1.31-.34-.61-.27-1.15-.64-1.63-1.12-.48-.48-.85-1.02-1.12-1.63-.27-.61-.4-1.28-.4-2v-17.11h3.16v16.8c0,.79.19,1.36.56,1.74.37.37.84.56,1.4.56s1.02-.19,1.4-.56c.37-.37.56-.95.56-1.74v-16.8h3.16v17.11c0,.72-.13,1.39-.39,2-.26.61-.63,1.15-1.1,1.63s-1.02.85-1.64,1.12c-.59.26-1.23.38-1.9.39-.27.95-.42,1.81-.42,2.56,0,.84.13,1.54.38,2.09.25.56.59,1,1.02,1.31.43.32.9.54,1.44.68.53.13,1.07.2,1.62.2,1.14,0,2.16-.24,3.06-.7s1.64-1.12,2.24-1.95c.6-.83,1.02-1.79,1.26-2.87.12-.53.22-1.02.29-1.5h-3.06v-15.72h3.16v1.52h.06c.33-.5.73-.9,1.19-1.22.18-.12.38-.21.59-.29.07-.08.13-.17.21-.25.22-.24.43-.45.62-.62.19-.17.31-.27.36-.3h.13c.51.36.87.64,1.09.85.17.17.26.33.29.48.26.13.51.29.73.51.31.31.56.71.74,1.19.19.49.28,1.08.28,1.78v4.96l.26-.07c.56.15,1.08.23,1.56.23.06,0,.13-.01.19-.01.07-.07.16-.13.25-.19.18-.12.44-.18.8-.18.28,0,.53.06.75.19,0,0,0,0,0,0,.2-.03.39-.08.59-.12v-2.86h1.43v2.47c.83-.27,1.64-.58,2.42-.99,1.03-.53,1.93-1.15,2.7-1.85.44-.41.79-.71,1.03-.91.24-.2.43-.35.56-.45.13-.09.26-.17.39-.22l.06.19c-.13.43-.25.8-.36,1.11-.11.31-.23.56-.34.75-.19.05-.41.16-.65.32-.24.17-.5.37-.78.63-.74.66-1.47,1.25-2.21,1.77.12-.02.23-.04.35-.04ZM64.1,169.49c-.09.2-.14.44-.14.73v4.21h-1.43v-7.1h1.43v.76c.29-.26.57-.47.85-.62.28-.15.62-.22,1.04-.22v1.51c-.14-.06-.28-.08-.43-.08s-.31.03-.48.08c-.17.05-.33.14-.47.26-.15.12-.27.28-.36.48ZM74.84,185.87c-.2.24-.6.58-1.18,1.01h-.15c-.1-.13-.26-.29-.49-.49-.22-.2-.43-.38-.64-.56-.2-.18-.33-.28-.38-.3v-.15c.19-.25.4-.5.63-.74.23-.24.44-.45.63-.62.19-.17.32-.28.38-.31h.15c.9.62,1.35,1.13,1.35,1.52,0,.19-.1.41-.3.65ZM75.08,183.78h-.17c-.43-.43-.84-.8-1.22-1.1-.18.41-.67.9-1.47,1.47h-.17c-.28-.28-.55-.54-.81-.77-.26-.24-.52-.45-.77-.66v-.17c.11-.17.29-.38.51-.65.23-.27.45-.51.68-.74.22-.23.38-.37.47-.42h.17c.32.2.58.39.8.55.22.16.38.33.49.5.15-.19.32-.38.5-.58.18-.2.35-.37.5-.53.16-.16.28-.26.35-.29h.17c.5.32.87.6,1.11.85.25.25.37.5.37.75,0,.48-.51,1.09-1.52,1.81ZM77.92,158.82h-3.16v-1.05c0-.62-.18-1.16-.53-1.61-.35-.45-.83-.68-1.43-.68-.79,0-1.31.24-1.57.73-.26.49-.39,1.1-.39,1.84v11.28c0,.64.14,1.18.42,1.61.14.22.35.39.61.5.01-.03.03-.05.04-.08,0,0,0,0,.01,0,.02-.06.06-.14.08-.2.11-.32.18-.64.22-.96.04-.32.06-.7.08-1.14.01-.34.04-.65.1-.93.05-.28.12-.53.21-.74.09-.22.2-.45.34-.71.14-.26.29-.54.46-.85l.38.13c-.08.32-.14.82-.19,1.5-.09,1.19-.22,2.19-.4,2.99-.1.43-.2.8-.32,1.13.18,0,.36-.03.56-.09.24-.07.46-.19.67-.36.19-.17.34-.39.46-.68.12-.29.19-.65.19-1.08v-1.08h3.16v1.36c0,.68-.13,1.33-.39,1.94-.26.61-.62,1.15-1.07,1.63-.46.48-.99.85-1.6,1.13-.61.28-1.27.42-1.97.42-.6,0-1.21-.08-1.83-.25-.07-.02-.13-.05-.2-.08-.07.45-.2.97-.41,1.6-.24.72-.64,1.42-1.23,2.09-.22.15-.57.33-1.08.54-.5.21-1.05.42-1.64.62-.59.2-1.13.37-1.63.51l-.08-.42c.32-.19.7-.43,1.13-.72.44-.29.89-.61,1.34-.96.46-.35.89-.71,1.28-1.08.4-.37.73-.73,1-1.09.27-.36.41-.68.44-.97-.33.2-.79.3-1.39.3-.43,0-.81-.12-1.12-.37-.32-.25-.48-.57-.48-.98,0-.22.03-.44.1-.68.06-.23.16-.48.29-.73l.46-.92c-.12-.48-.18-1.02-.18-1.64v-12.15c0-.72.12-1.4.37-2.02s.6-1.16,1.05-1.61c.45-.45,1-.81,1.63-1.07.63-.26,1.33-.39,2.09-.39,1.49,0,2.7.49,3.63,1.46.45.48.81,1.04,1.07,1.69.26.65.39,1.36.39,2.12v1.24ZM111.46,167.91h-3.93,0c-.25.22-.67.6-1.26,1.15-.31.3-.67.65-1.06,1.05.01.46.14.83.41,1.09.28.27.66.4,1.13.4.6,0,1-.18,1.19-.53.2-.35.31-.7.36-1.05h3.16c0,1.38-.42,2.5-1.27,3.35-.41.43-.91.77-1.49,1.02-.58.25-1.23.37-1.95.37-.99,0-1.83-.21-2.53-.62-.66-.39-1.17-.91-1.54-1.55-.03.02-.05.05-.08.07-.44.38-.89.67-1.35.88-.45.2-.99.3-1.61.3,0,0,0,0-.01,0,0,0,0,0,0,0,0,0,0,0-.01,0,0,0-.02,0-.03,0-.39,0-.75-.12-1.09-.35-.35-.24-.59-.59-.73-1.08-.04.11-.09.2-.14.31l-.48,1.85h-.58c-.28.37-.58.71-.89.98-.66.57-1.46,1.06-2.4,1.48-.94.41-1.95.75-3.05,1.02-1.09.27-2.21.46-3.34.59-1.14.13-2.23.19-3.28.19s-1.92-.09-2.74-.28c-.83-.18-1.48-.52-1.98-1.01-.49-.49-.74-1.18-.74-2.09,0-.77.16-1.7.48-2.78l.57.1c-.01.09-.02.19-.02.29v.31c0,.67.18,1.17.54,1.5.36.33.96.55,1.8.66.84.11,1.95.16,3.35.16.85,0,1.74-.05,2.66-.15.92-.1,1.83-.24,2.73-.43.9-.18,1.75-.4,2.54-.66.51-.16.97-.34,1.4-.53l-3.93-15.08h3.35l2.11,10.04h.06l2.11-10.04h3.35l-3.09,11.86.15.05-.11.42c.33.42,1.02.63,2.08.63.02,0,.03.01.05.01.62,0,1.23-.14,1.83-.4.03-.01.07-.04.1-.05-.02-.1-.05-.19-.07-.29-.08-.54-.12-1.13-.12-1.77v-.56c-.15-.04-.32-.07-.47-.11-.39-.11-.71-.22-.95-.33l-.15-.19c.08-.22.17-.47.3-.75.08-.19.18-.35.28-.51.04-.08.07-.15.12-.24.19-.34.49-.73.88-1.17v-1.31c0-.64.04-1.23.12-1.77.08-.54.24-1.01.46-1.43.37-.68.9-1.23,1.6-1.64.69-.41,1.53-.62,2.53-.62.72,0,1.38.12,1.97.37.59.25,1.09.59,1.5,1.02.15.17.28.36.4.55.09-.03.18-.07.28-.1l.1.17c-.02.09-.07.2-.13.33.39.74.6,1.59.6,2.55v4.34ZM121.13,162.02c-.31-.12-.63-.19-.96-.19s-.69.06-1.07.17c-.38.11-.73.31-1.04.57-.33.27-.6.62-.81,1.05s-.31.97-.31,1.61v9.33h-3.16v-15.72h3.16v1.67c.64-.58,1.27-1.03,1.89-1.36.62-.33,1.38-.5,2.29-.5v3.35Z" fill="white"/>
<polygon points="44.15 163.07 43.91 162.88 43.91 162.6 43.98 162.51 44.17 162.66 44.16 162.69 44.16 162.76 44.3 162.88 44.15 163.07" fill="white"/>
<polygon points="53.91 160.84 53.67 160.65 53.67 160.38 53.74 160.28 53.94 160.43 53.92 160.46 53.92 160.53 54.07 160.65 53.91 160.84" fill="white"/>
<polygon points="44.32 170.23 44.07 170.22 44.08 169.88 44.4 169.78 44.48 170.02 44.33 170.07 44.32 170.23" fill="white"/>
<polygon points="33.7 173.17 33.46 173.08 33.51 172.96 33.39 172.91 33.49 172.68 33.84 172.82 33.7 173.17" fill="white"/>
<polygon points="33.15 172.96 32.92 172.85 33.08 172.52 33.42 172.65 33.33 172.89 33.2 172.84 33.15 172.96" fill="white"/>
<polygon points="72.23 184.3 71.97 184.3 71.75 184.09 71.93 183.91 72.07 184.05 72.19 184.07 72.25 184.13 72.33 184.23 72.23 184.3" fill="white"/>
<polygon points="85.35 167.81 85.11 167.62 85.11 167.35 85.18 167.25 85.38 167.4 85.36 167.43 85.36 167.5 85.51 167.62 85.35 167.81" fill="white"/>
</g>
</svg>
