<svg width="215" height="80" viewBox="0 0 215 80" fill="none" xmlns="http://www.w3.org/2000/svg">
<path d="M215 80L0 80L0 0L215 0V80ZM111.5 66.1406C111.191 66.3277 110.811 66.5964 110.361 66.9473C109.912 67.2981 109.462 67.6727 109.013 68.0703C108.563 68.468 108.183 68.8543 107.874 69.2285V69.5088C108.352 69.8362 108.746 70.1049 109.055 70.3154C109.364 70.5493 109.672 70.7837 109.981 71.0176C110.291 71.2749 110.684 71.6024 111.162 72H111.542C112.638 71.3217 113.452 70.7481 113.986 70.2803C114.548 69.8124 114.83 69.3683 114.83 68.9473C114.83 68.4795 114.493 67.9882 113.818 67.4736C113.172 66.9591 112.511 66.5149 111.837 66.1406H111.5ZM87.2021 24.0342C86.8649 25.2037 86.3729 26.1283 85.7266 26.8066C85.0802 27.4616 84.2927 27.7891 83.3652 27.7891C82.8876 27.789 82.4241 27.7537 81.9746 27.6836C81.5252 27.5901 81.1738 27.4615 80.9209 27.2979L80.3301 27.4033C79.8524 28.1283 79.2759 28.7011 78.6016 29.1221C77.9271 29.5196 77.1404 29.7187 76.2412 29.7187C75.9321 29.7187 75.6226 29.6952 75.3135 29.6484C75.0326 29.5783 74.7516 29.4968 74.4707 29.4033C73.9367 29.1928 73.4587 29.0869 73.0371 29.0869C72.7562 29.0869 72.517 29.1222 72.3203 29.1924C72.1237 29.2392 71.9131 29.3796 71.6885 29.6133C71.5761 29.7302 71.4352 29.8822 71.2666 30.0693C71.1261 30.2565 70.9575 30.479 70.7607 30.7363C70.564 30.9936 70.3249 31.2977 70.0439 31.6484C69.0885 32.9115 67.9646 33.8705 66.6719 34.5254C65.4073 35.1803 64.0304 35.5077 62.541 35.5078C62.1523 35.5078 61.7872 35.5757 61.4463 35.71C61.3847 35.7067 61.3254 35.7061 61.2686 35.7021C60.9594 35.6554 60.5934 35.5505 60.1719 35.3867V35.1406H58.7393C58.6268 35.6084 58.4156 36.0997 58.1064 36.6143C57.7973 37.1289 57.3897 37.5622 56.8838 37.9131C56.378 38.2637 55.7458 38.4394 54.9873 38.4395C54.3411 38.4395 53.8351 38.3924 53.4697 38.2988C53.1044 38.1819 52.7245 37.9593 52.3311 37.6318L51.3613 37.8076C50.6307 38.8132 49.8162 39.5037 48.917 39.8779C48.0177 40.2288 47.1041 40.4043 46.1768 40.4043C45.5024 40.4043 44.9964 40.369 44.6592 40.2988C44.322 40.2053 43.9142 40.065 43.4365 39.8779L42.4248 40.0879C42.3967 41.9124 42.3402 43.5037 42.2559 44.8604C42.1997 46.1933 42.1014 47.3743 41.9609 48.4033C41.8204 49.4325 41.624 50.4041 41.3711 51.3164C41.1182 52.2052 40.7809 53.129 40.3594 54.0879C39.8254 55.3276 38.9823 56.5326 37.8301 57.7021C36.6779 58.8951 35.1741 59.8657 33.3193 60.6143C31.4646 61.3861 29.188 61.7714 26.4902 61.7715C24.9726 61.7715 23.595 61.6313 22.3584 61.3506C21.1501 61.0933 20.1104 60.6726 19.2393 60.0879C18.368 59.5031 17.6936 58.7305 17.2158 57.7715C16.7663 56.8359 16.541 55.7013 16.541 54.3682C16.5411 53.2689 16.7097 52.041 17.0469 50.6846C17.3841 49.3045 17.9743 47.7838 18.8174 46.123L17.3838 45.7373C15.8382 48.2167 14.7143 50.6494 14.0117 53.0352C13.3372 55.421 13 57.7134 13 59.9121C13 61.9938 13.4355 63.795 14.3066 65.3154C15.1778 66.8358 16.4287 67.9938 18.0586 68.7891C19.7167 69.6078 21.7123 70.0176 24.0449 70.0176C26.3774 70.0176 28.4992 69.7136 30.4102 69.1055C32.3493 68.5207 34.0781 67.655 35.5957 66.5088C37.3099 65.2223 38.7711 63.6083 39.9795 61.667C41.188 59.7489 42.158 57.5498 42.8887 55.0703C43.6474 52.5676 44.1533 49.8309 44.4063 46.8604C45.6146 46.7434 46.683 46.4502 47.6104 45.9824C48.5376 45.5146 49.3244 44.8595 49.9707 44.0176C50.3641 44.2281 50.7996 44.3918 51.2773 44.5088C51.7831 44.6023 52.303 44.6494 52.8369 44.6494C53.8487 44.6494 54.8464 44.4151 55.8301 43.9473C56.8136 43.4561 57.6429 42.7667 58.3174 41.8779C59.1323 42.2288 60.0599 42.4043 61.0996 42.4043C61.6236 42.4043 62.0773 42.2867 62.4619 42.0547C62.844 41.9847 63.2082 41.8863 63.5527 41.7539C64.3114 41.4732 64.9999 41.0869 65.6182 40.5957C66.2083 40.1279 66.7559 39.5896 67.2617 38.9814C67.7957 38.3499 68.3015 37.6714 68.7793 36.9463C69.5943 35.7066 70.1993 35.0869 70.5928 35.0869C70.93 35.0871 71.4501 35.2979 72.1523 35.7187C72.9111 36.1631 73.7543 36.3848 74.6816 36.3848C75.328 36.3847 76.1008 36.1984 77 35.8242C77.8993 35.45 78.7424 34.6656 79.5293 33.4727C80.007 33.613 80.4425 33.7189 80.8359 33.7891C81.2293 33.8358 81.5667 33.8594 81.8477 33.8594C82.9156 33.8594 83.8717 33.5545 84.7148 32.9463C85.5859 32.3147 86.3449 31.2859 86.9912 29.8594C87.6657 28.4325 88.242 26.5373 88.7197 24.1748L87.2021 24.0342ZM114.408 59.6846C114.268 59.7548 114.042 59.9068 113.733 60.1406C113.424 60.3979 113.073 60.702 112.68 61.0527C112.286 61.4036 111.879 61.7781 111.457 62.1758C111.176 61.9185 110.811 61.638 110.361 61.334C109.912 61.0299 109.321 60.6906 108.591 60.3164H108.169C108 60.4101 107.733 60.6083 107.368 60.9121C107.003 61.2162 106.609 61.5554 106.188 61.9297C105.738 62.3272 105.331 62.7137 104.966 63.0879C104.6 63.4622 104.319 63.7779 104.122 64.0352V64.3857C104.543 64.6196 104.895 64.8423 105.176 65.0527C105.457 65.2633 105.809 65.5201 106.23 65.8242C106.624 66.1517 107.214 66.6203 108.001 67.2285H108.338C109.912 66.2695 111.008 65.4037 111.626 64.6318C112.3 65.0997 112.792 65.4507 113.102 65.6846C113.439 65.9418 113.678 66.1292 113.818 66.2461C113.987 66.3629 114.127 66.4799 114.239 66.5967H114.577C115.561 66.0354 116.446 65.4273 117.232 64.7725C118.047 64.1175 118.455 63.4969 118.455 62.9121C118.455 62.3509 118.132 61.8251 117.485 61.334C116.867 60.8428 115.982 60.2927 114.83 59.6846H114.408ZM113.495 28.248C112.68 29.3474 112.047 30.3073 111.598 31.126C111.148 31.9211 110.839 32.6577 110.67 33.3359C110.501 33.9909 110.417 34.6694 110.417 35.3711V38.1426C110.417 39.125 110.319 39.8976 110.122 40.459C109.925 40.9968 109.574 41.3823 109.068 41.6162C108.713 41.7641 108.26 41.8583 107.711 41.9023C107.391 41.0287 106.924 40.2947 106.304 39.7021C105.573 38.977 104.589 38.6143 103.353 38.6143C101.751 38.6143 100.529 39.3281 99.6855 40.7549L97.999 43.5967C97.6338 44.2514 97.3669 44.8596 97.1982 45.4209C97.0297 45.9821 96.9454 46.4736 96.9453 46.8945C96.9453 47.5729 97.1695 48.17 97.6191 48.6846C98.0687 49.1991 98.6452 49.5963 99.3477 49.877C100.05 50.1343 100.781 50.2637 101.54 50.2637C102.271 50.2637 102.945 50.2166 103.563 50.123C104.182 50.0295 104.786 49.901 105.376 49.7373C105.151 50.6261 104.575 51.5381 103.647 52.4736C102.72 53.3859 101.455 54.3104 99.8535 55.2461C98.3923 55.9711 96.9309 56.6959 95.4697 57.4209C94.0364 58.146 92.5884 58.8715 91.127 59.5967L91.5068 60.4736C92.2937 60.3333 93.2776 60.1107 94.458 59.8066C95.6663 59.5026 96.9025 59.1633 98.167 58.7891C99.4317 58.4148 100.556 58.0413 101.54 57.667C102.552 57.3161 103.24 57.023 103.605 56.7891C103.915 56.6019 104.322 56.1694 104.828 55.4912C105.362 54.8129 105.896 53.9824 106.43 53C106.992 51.9942 107.456 50.8951 107.821 49.7021C108.038 49.0445 108.192 48.3826 108.289 47.7178C108.396 47.6418 108.501 47.5624 108.604 47.4766C109.504 46.7047 110.305 45.5584 111.008 44.0381C111.71 42.5177 112.272 40.9734 112.693 39.4062C113.115 37.8392 113.424 36.2369 113.621 34.5996C113.818 32.9624 113.986 31.6405 114.127 30.6348C114.296 29.6056 114.436 28.8918 114.549 28.4941L113.495 28.248ZM204.789 19.4141C200.63 20.2795 197.046 21.309 194.039 22.502C191.032 23.6948 188.559 24.9107 186.62 26.1504C184.709 27.3666 183.248 28.4895 182.236 29.5186C181.59 30.1735 181.055 30.7588 180.634 31.2734C180.212 31.7878 179.904 32.2205 179.707 32.5713C179.562 32.8126 179.464 33.0201 179.412 33.1934C179.369 33.2742 179.325 33.358 179.28 33.4443C178.859 34.2396 178.353 35.3389 177.763 36.7422L178.016 37.2334C178.24 37.3504 178.775 37.4798 179.618 37.6201C180.489 37.7604 181.558 37.8889 182.822 38.0059C184.087 38.0994 185.407 38.1926 186.784 38.2861C188.358 38.3797 189.398 38.4385 189.904 38.4619H190.874C190.34 38.8362 189.805 39.1872 189.271 39.5146C188.738 39.8186 188.19 40.0992 187.628 40.3564C186.167 41.0581 184.649 41.5847 183.075 41.9355C181.529 42.263 179.842 42.4268 178.016 42.4268C177.661 42.4268 177.327 42.4823 177.013 42.5937C176.238 42.5644 175.505 42.5029 174.813 42.4043C173.858 42.2406 173.113 41.9945 172.579 41.667L173.043 40.1934L171.651 39.9824C171.174 40.8711 170.612 41.6901 169.966 42.4385C169.348 43.1636 168.644 43.8077 167.857 44.3691C167.099 44.9303 166.27 45.4101 165.371 45.8076C164.106 46.369 162.532 46.9181 160.649 47.4561C158.795 47.9707 156.742 48.4383 154.494 48.8594C152.246 49.257 149.899 49.5737 147.454 49.8076C145.037 50.0415 142.635 50.1582 140.246 50.1582C138.082 50.1582 136.157 50.0758 134.471 49.9121C132.813 49.7484 131.407 49.515 130.255 49.2109C127.979 48.5794 126.812 47.2576 126.756 45.2461C126.756 44.7784 126.77 44.4391 126.798 44.2285C126.854 43.9946 126.897 43.772 126.925 43.5615L125.449 43.3867C124.55 45.7723 124.101 47.9357 124.101 49.877C124.101 51.4674 124.48 52.7892 125.238 53.8418C125.997 54.8709 127.037 55.6897 128.357 56.2979C129.706 56.906 131.267 57.3276 133.037 57.5615C134.808 57.8188 136.691 57.9473 138.687 57.9473C140.007 57.9473 141.314 57.912 142.606 57.8418C143.927 57.7716 145.235 57.6667 146.527 57.5264C147.82 57.386 149.085 57.2105 150.321 57C151.586 56.8129 152.837 56.5785 154.073 56.2979C157.024 55.6429 159.567 54.8713 161.703 53.9824C163.839 53.0936 165.652 51.9709 167.142 50.6143C168.659 49.2576 169.952 47.5613 171.02 45.5264C171.244 46.6023 171.792 47.5034 172.663 48.2285C173.562 48.9302 174.87 49.2812 176.584 49.2812C176.974 49.2812 177.363 49.2016 177.753 49.0459C179.048 48.9466 180.302 48.6833 181.515 48.251C183.088 47.6896 184.663 46.7894 186.236 45.5498C187.838 44.3101 189.483 42.6718 191.169 40.6367C192.068 39.5609 192.967 38.485 193.866 37.4092C194.766 36.3332 195.651 35.2567 196.522 34.1807L196.48 33.4795C195.89 33.4093 195.37 33.3505 194.921 33.3037C194.471 33.2569 193.979 33.2108 193.445 33.1641C192.911 33.0939 192.265 33.0233 191.506 32.9531C190.747 32.8596 189.763 32.7547 188.555 32.6377C187.936 32.5675 187.332 32.5087 186.742 32.4619C186.18 32.3918 185.632 32.3329 185.099 32.2861C184.593 32.216 184.101 32.1463 183.623 32.0762C183.268 32.0208 182.922 31.9636 182.584 31.9082C182.73 31.7479 182.896 31.5836 183.079 31.4141C183.585 30.9463 184.259 30.455 185.103 29.9404C186.508 29.0516 188.377 28.2211 190.709 27.4492C193.07 26.6773 195.571 26.0106 198.213 25.4492C198.803 25.3089 199.393 25.1795 199.983 25.0625C200.602 24.9456 201.22 24.8406 201.838 24.7471C202.007 24.5599 202.246 24.2324 202.555 23.7646C202.892 23.2734 203.243 22.7469 203.608 22.1855C203.974 21.6008 204.283 21.0743 204.536 20.6064C204.817 20.1388 204.972 19.8464 205 19.7295L204.789 19.4141ZM151.485 32.2266C151.317 32.3201 151.078 32.4957 150.769 32.7529C150.459 33.0102 150.108 33.3143 149.715 33.665C149.321 33.9924 148.929 34.3554 148.535 34.7529C148.254 34.4956 147.888 34.2152 147.438 33.9111C146.989 33.5837 146.399 33.2327 145.668 32.8584H145.246C145.077 32.9521 144.81 33.1512 144.445 33.4551C144.08 33.759 143.687 34.1095 143.266 34.5068C142.816 34.881 142.408 35.2557 142.043 35.6299C141.678 36.0041 141.396 36.3198 141.199 36.5771V36.9287C141.621 37.1626 142.001 37.396 142.338 37.6299C142.647 37.8637 143.012 38.1443 143.434 38.4717C143.855 38.7758 144.404 39.2091 145.078 39.7705H145.415C147.045 38.8582 148.17 38.0043 148.788 37.209C149.125 37.4428 149.477 37.7116 149.842 38.0156C150.235 38.2963 150.727 38.6709 151.317 39.1387H151.654C152.638 38.5774 153.523 37.9693 154.31 37.3145C155.124 36.6597 155.532 36.0397 155.532 35.4551C155.532 34.8937 155.209 34.3672 154.562 33.876C153.944 33.3848 153.059 32.8347 151.907 32.2266H151.485ZM54.9248 22.3779C54.6719 22.5183 54.2503 22.834 53.6602 23.3252C53.07 23.793 52.4798 24.3195 51.8896 24.9043C51.6087 24.6237 51.2435 24.3313 50.7939 24.0273C50.3162 23.6999 49.7538 23.3606 49.1074 23.0098H48.6855C48.545 23.0801 48.3058 23.2674 47.9688 23.5713C47.6035 23.8519 47.1965 24.1914 46.7471 24.5889C46.2975 24.963 45.8758 25.3486 45.4824 25.7461C45.0891 26.1202 44.7795 26.4479 44.5547 26.7285V27.0801C44.9761 27.3139 45.3274 27.5356 45.6084 27.7461C45.8894 27.9566 46.2406 28.2262 46.6621 28.5537C47.0836 28.8578 47.6739 29.3137 48.4326 29.9219H48.7705C50.4004 29.0097 51.5243 28.1556 52.1426 27.3604C52.4797 27.5942 52.8311 27.863 53.1963 28.167C53.5897 28.4477 54.0817 28.8223 54.6719 29.29H55.0088C55.9924 28.7287 56.8781 28.1208 57.665 27.4658C58.4799 26.811 58.8875 26.1911 58.8877 25.6064C58.8877 25.0684 58.606 24.5655 58.0439 24.0977C57.51 23.6065 56.6112 23.0328 55.3467 22.3779H54.9248ZM51.6787 17.6416C51.4258 17.782 51.0745 18.039 50.625 18.4131C50.1753 18.7873 49.726 19.1972 49.2764 19.6416C48.7987 20.0626 48.4326 20.4245 48.1797 20.7285V21.0098C48.7699 21.4074 49.234 21.7349 49.5713 21.9922C49.8802 22.2259 50.1752 22.4596 50.4561 22.6934C50.7371 22.9039 51.0744 23.1735 51.4678 23.501H51.8477C53.0279 22.7291 53.8711 22.0859 54.377 21.5713C54.8828 21.0567 55.1357 20.6233 55.1357 20.2725C55.1356 19.9451 54.9104 19.5939 54.4609 19.2197C54.0393 18.8222 53.2245 18.2962 52.0166 17.6416H51.6787ZM80.1191 14.4707C79.8662 14.6111 79.4446 14.9268 78.8545 15.418C78.2643 15.8858 77.6742 16.4123 77.084 16.9971C76.803 16.7165 76.4378 16.4241 75.9883 16.1201C75.5105 15.7926 74.9481 15.4534 74.3018 15.1025H73.8809C73.7404 15.1727 73.5012 15.36 73.1641 15.6641C72.7987 15.9448 72.3911 16.284 71.9414 16.6816C71.4917 17.0559 71.0702 17.4422 70.6768 17.8398C70.2834 18.2141 69.9738 18.5416 69.749 18.8223V19.1729C70.1706 19.4068 70.5217 19.6293 70.8027 19.8398C71.0838 20.0504 71.4359 20.319 71.8574 20.6465C72.279 20.9506 72.8693 21.4066 73.6279 22.0146H73.9648C75.5948 21.1024 76.7186 20.2484 77.3369 19.4531C77.6742 19.687 78.0263 19.9567 78.3916 20.2607C78.7849 20.5413 79.2764 20.9153 79.8662 21.3828H80.2041C81.1875 20.8215 82.0726 20.2134 82.8594 19.5586C83.6743 18.9037 84.082 18.284 84.082 17.6992C84.082 17.1613 83.8012 16.6582 83.2393 16.1904C82.7053 15.6992 81.8057 15.1257 80.541 14.4707H80.1191ZM199.322 9C199.154 9.09359 198.915 9.26915 198.605 9.52637C198.296 9.78363 197.945 10.0877 197.552 10.4385C197.158 10.7659 196.765 11.1287 196.371 11.5264C196.09 11.2691 195.725 10.9886 195.275 10.6846C194.826 10.3571 194.236 10.0061 193.505 9.63184H193.083C192.914 9.7255 192.647 9.92468 192.282 10.2285C191.917 10.5324 191.524 10.8829 191.103 11.2803C190.653 11.6545 190.245 12.0291 189.88 12.4033C189.515 12.7776 189.233 13.0933 189.036 13.3506V13.7021C189.458 13.9361 189.838 14.1694 190.175 14.4033C190.484 14.6372 190.849 14.9178 191.271 15.2451C191.692 15.5492 192.241 15.9826 192.915 16.5439H193.252C194.882 15.6318 196.006 14.7777 196.624 13.9824C196.961 14.2163 197.313 14.485 197.679 14.7891C198.072 15.0698 198.564 15.4443 199.154 15.9121H199.491C200.475 15.3508 201.36 14.7427 202.146 14.0879C202.961 13.4329 203.369 12.8123 203.369 12.2275C203.369 11.6663 203.046 11.1405 202.399 10.6494C201.781 10.1582 200.896 9.60812 199.744 9H199.322ZM76.873 9.73437C76.6201 9.87477 76.2688 10.1318 75.8193 10.5059C75.3697 10.8801 74.9204 11.2899 74.4707 11.7344C73.993 12.1554 73.6279 12.5182 73.375 12.8223V13.1025C73.965 13.5001 74.4284 13.8277 74.7656 14.085C75.0748 14.3189 75.3703 14.5532 75.6514 14.7871C75.9323 14.9976 76.2698 15.2664 76.6631 15.5937H77.042C78.2223 14.8219 79.0654 14.1787 79.5713 13.6641C80.077 13.1496 80.3299 12.717 80.3301 12.3662C80.3301 12.0388 80.1057 11.6876 79.6562 11.3135C79.2347 10.9158 78.4193 10.3893 77.2109 9.73437H76.873Z" fill="white"/>
</svg>
