<svg width="304" height="87" viewBox="0 0 304 87" fill="none" xmlns="http://www.w3.org/2000/svg">
<path d="M0 21.4961H60.8073V42.992H0V21.4961Z" fill="white"/>
<path d="M242.539 21.4961H303.346V42.992H242.539V21.4961Z" fill="white"/>
<path d="M0 65.25H60.8073V86.746H0V65.25Z" fill="white"/>
<path d="M242.539 65.25H303.346V86.746H242.539V65.25Z" fill="white"/>
<path d="M121.617 21.4961H181.753V42.992H121.617V21.4961Z" fill="white"/>
<path d="M121.617 65.25H181.753V86.746H121.617V65.25Z" fill="white"/>
<path d="M60.8125 0H121.62V21.4959H60.8125V0Z" fill="white"/>
<path d="M60.8125 42.9922H121.62V65.2517H60.8125V42.9922Z" fill="white"/>
<path d="M181.75 0H242.557V21.4959H181.75V0Z" fill="white"/>
<path d="M181.75 42.9922H242.557V65.2517H181.75V42.9922Z" fill="white"/>
</svg>
