<?xml version="1.0" encoding="UTF-8"?>
<svg id="Layer_1" data-name="Layer 1" xmlns="http://www.w3.org/2000/svg" viewBox="0 0 47.58 80">
  <defs>
    <style>
      .cls-1 {
        fill: #fff;
      }
    </style>
  </defs>
  <g id="X4WScY">
    <path class="cls-1" d="M19.45,80l-.03-15.25c-.46-.2-.97-.16-1.53-.16H6.93c-.97.06-1.85.14-2.87,0v-8.66s15.39,0,15.39,0l-.02-8.84c-5.23-1-9.77-3.54-13.29-7.45C-1.4,31.33-2.09,18.66,4.59,9.64c.93-1.26,1.87-2.38,3.02-3.42C11.47,2.71,16.19.53,21.42.02l4.51-.02c5.42.45,10.39,2.76,14.32,6.5,1.53,1.45,2.78,3.07,3.88,4.86,5.49,8.94,4.31,20.85-2.89,28.49-3.5,3.79-7.97,6.28-13.11,7.24v8.84s15.31-.03,15.31-.03l-.02,8.7h-15.27s-.03,15.39-.03,15.39h-8.68ZM39.04,23.69c0-8.42-6.82-15.24-15.24-15.24s-15.24,6.82-15.24,15.24,6.82,15.24,15.24,15.24,15.24-6.82,15.24-15.24Z"/>
  </g>
</svg>