<?xml version="1.0" encoding="UTF-8"?>
<svg id="Layer_2" data-name="Layer 2" xmlns="http://www.w3.org/2000/svg" viewBox="0 0 99.04 37.79">
  <defs>
    <style>
      .cls-1 {
        font-size: 31px;
      }

      .cls-1, .cls-2 {
        fill: #424242;
        font-family: DINCondensed-Bold, 'DIN Condensed';
        font-weight: 700;
      }

      .cls-3 {
        fill: #fff;
        stroke: #424242;
        stroke-miterlimit: 10;
        stroke-width: .25px;
      }

      .cls-2 {
        font-size: 10px;
      }
    </style>
  </defs>
  <g id="Layer_1-2" data-name="Layer 1">
    <g>
      <text class="cls-1" transform="translate(0 26.54)"><tspan x="0" y="0">Un</tspan></text>
      <text class="cls-2" transform="translate(26.1 26.25)"><tspan x="0" y="0">der</tspan></text>
      <text class="cls-1" transform="translate(37.77 26.54)"><tspan x="0" y="0">Cover</tspan></text>
      <g>
        <path class="cls-3" d="M18.6,13.17h.17c.79-.56,1.28-1.04,1.49-1.45.18.15.37.32.57.5.2.18.41.38.63.6h.17c1.02-.72,1.52-1.33,1.52-1.81,0-.25-.12-.5-.37-.75-.25-.25-.63-.53-1.13-.85h-.15c-.13.08-.33.26-.61.56-.28.3-.53.58-.74.85-.11-.17-.28-.33-.49-.5-.21-.17-.48-.36-.81-.56h-.17c-.1.06-.26.21-.48.44-.22.23-.43.47-.66.73-.22.26-.4.48-.52.66v.17c.25.2.51.42.77.65s.53.48.81.76Z"/>
        <path class="cls-3" d="M19.42,9.39c.22.2.38.36.49.48h.17c.99-.81,1.48-1.39,1.48-1.73,0-.19-.11-.39-.32-.6-.22-.21-.58-.49-1.09-.85h-.13c-.05.03-.17.12-.36.3-.19.17-.4.38-.62.62-.22.24-.43.5-.62.76v.15c.05.04.17.14.37.31.2.17.41.36.63.56Z"/>
        <path class="cls-3" d="M28.36,10.95h.17c.79-.56,1.28-1.04,1.49-1.45.18.15.37.32.57.5.2.18.41.38.63.6h.17c1.02-.72,1.52-1.33,1.52-1.81,0-.25-.12-.5-.37-.75-.25-.25-.63-.53-1.13-.85h-.15c-.13.08-.33.26-.61.56-.28.3-.53.58-.74.85-.11-.17-.28-.33-.49-.5-.21-.17-.48-.36-.81-.56h-.17c-.1.06-.26.21-.48.44-.22.23-.43.47-.66.73-.22.26-.4.48-.52.66v.17c.25.2.51.42.77.65s.53.48.81.76Z"/>
        <path class="cls-3" d="M29.19,7.16c.22.2.38.36.49.48h.17c.99-.81,1.48-1.39,1.48-1.73,0-.19-.11-.39-.32-.6-.22-.21-.58-.49-1.09-.85h-.13c-.05.03-.17.12-.36.3-.19.17-.4.38-.62.62-.22.24-.43.5-.62.76v.15c.05.04.17.14.37.31.2.17.41.36.63.56Z"/>
        <path class="cls-3" d="M35.84,11.72c-.13.09-.32.24-.56.45-.24.2-.58.51-1.03.91-.77.7-1.68,1.31-2.7,1.85s-2.1.95-3.21,1.25c-1.11.3-2.19.45-3.23.45-.48,0-1-.08-1.56-.23l-.34.09s0,.01,0,.02h-.05c-.18.9-.58,1.35-1.2,1.35-.29,0-.57-.09-.82-.29h-.17c-.25.47-.55.84-.88,1.1-.33.27-.79.4-1.39.4-.43,0-.83-.08-1.2-.25l-.3.1c-.01.96-.04,1.78-.08,2.46-.04.67-.09,1.29-.17,1.86-.08.57-.19,1.17-.34,1.82-.24,1.08-.66,2.03-1.26,2.87-.6.83-1.34,1.48-2.24,1.95s-1.91.7-3.06.7c-.55,0-1.09-.07-1.62-.2s-1.01-.36-1.44-.68-.76-.76-1.02-1.31c-.25-.56-.38-1.26-.38-2.09,0-1.22.36-2.7,1.07-4.46l-.53-.21c-.67,1.42-1.14,2.73-1.41,3.91-.27,1.19-.4,2.37-.4,3.55,0,.98.19,1.83.58,2.57s.94,1.31,1.67,1.71c.72.41,1.57.61,2.55.61,1.62,0,3.08-.54,4.36-1.62.88-.74,1.64-1.69,2.3-2.87s1.18-2.48,1.56-3.93c.38-1.45.59-2.93.63-4.46.43,0,.86-.15,1.28-.44.42-.29.78-.63,1.09-1.01.11.1.23.17.35.22.12.04.24.07.37.07.62,0,1.24-.45,1.86-1.35.11.11.29.2.57.26.32.08.79.11,1.43.11,1.38,0,2.86-.38,4.42-1.14,1.59-.76,3.19-1.87,4.82-3.33.28-.25.54-.46.78-.63.24-.16.46-.27.65-.32.11-.19.23-.44.34-.75.11-.31.24-.68.36-1.11l-.06-.19c-.13.05-.26.12-.39.22Z"/>
        <path class="cls-3" d="M44.88,22.26c.24-.32.42-.61.54-.87.02-.04.06-.07.08-.11.25-.43.47-1.05.65-1.85.18-.8.31-1.8.4-2.99.05-.69.11-1.19.19-1.5l-.38-.13c-.16.3-.32.59-.46.85-.14.26-.25.5-.34.71-.09.22-.16.46-.21.74-.05.28-.08.59-.1.93-.01.44-.04.82-.08,1.14-.04.32-.11.64-.22.96-.02.06-.05.13-.08.2,0,0,0,0-.01,0-.17.39-.35.65-.56.77-.21.12-.34.19-.39.22-.13-1.6-.67-2.4-1.64-2.4-.56,0-.99.3-1.29.9l-.63,1.26c-.13.25-.22.5-.29.73-.06.24-.1.46-.1.68,0,.41.16.73.48.98.32.25.69.37,1.12.37.6,0,1.06-.1,1.39-.3-.03.29-.17.62-.44.97-.27.36-.6.72-1,1.09-.4.37-.83.73-1.28,1.08-.46.35-.9.67-1.34.96-.44.29-.82.53-1.13.72l.08.42c.5-.14,1.04-.31,1.63-.51.59-.2,1.14-.41,1.64-.62.5-.21.86-.39,1.08-.54.58-.67.99-1.37,1.23-2.09.23-.72.38-1.33.45-1.81.42-.29.76-.61,1.02-.95Z"/>
        <path class="cls-3" d="M46.74,32.69h-.15c-.06.04-.19.14-.38.31-.19.17-.4.38-.63.62-.23.24-.44.49-.63.74v.15c.05.03.18.13.38.3.2.18.42.36.64.56.22.2.38.36.49.49h.15c.58-.43.98-.77,1.18-1.01s.3-.46.3-.65c0-.39-.45-.9-1.35-1.52Z"/>
        <path class="cls-3" d="M48.07,29.36h-.17c-.08.04-.19.14-.35.29-.16.16-.33.34-.5.53-.18.2-.34.39-.5.58-.11-.17-.28-.33-.49-.5s-.48-.35-.8-.55h-.17c-.09.05-.24.19-.47.42-.22.23-.45.48-.68.74-.23.27-.4.48-.51.65v.17c.25.2.51.42.77.66.26.23.53.49.81.77h.17c.8-.57,1.29-1.06,1.47-1.47.38.3.79.67,1.22,1.1h.17c1.02-.72,1.52-1.33,1.52-1.81,0-.25-.12-.5-.37-.75-.25-.25-.62-.53-1.11-.85Z"/>
        <path class="cls-3" d="M59.8,17.92h.17c.79-.56,1.28-1.04,1.49-1.45.18.15.37.32.57.5.2.18.41.38.63.6h.17c1.02-.72,1.52-1.33,1.52-1.81,0-.25-.12-.5-.37-.75-.25-.25-.63-.53-1.13-.85h-.15c-.08.05-.2.16-.36.31-.17.16-.34.34-.51.53-.18.2-.34.38-.48.56-.11-.18-.28-.35-.5-.52-.22-.17-.49-.35-.79-.54h-.17c-.1.06-.26.21-.48.44-.22.23-.43.47-.66.73-.22.26-.4.48-.52.66v.17c.25.2.51.42.77.65s.53.48.81.76Z"/>
        <path class="cls-3" d="M79.68,7.06h.17c.79-.56,1.28-1.04,1.49-1.45.18.15.37.32.57.5.2.18.41.38.63.6h.17c1.02-.72,1.52-1.33,1.52-1.81,0-.25-.12-.5-.37-.75-.25-.25-.63-.53-1.13-.85h-.15c-.08.05-.2.16-.36.31-.17.16-.34.34-.51.53-.18.2-.34.38-.48.56-.11-.18-.28-.35-.5-.52-.22-.17-.49-.35-.79-.54h-.17c-.1.06-.26.21-.48.44-.22.23-.43.47-.66.73-.22.26-.4.48-.52.66v.17c.25.2.51.42.77.65s.53.48.81.76Z"/>
        <path class="cls-3" d="M81.19,10.48c-.9.36-1.75.76-2.55,1.18-.81.43-1.53.89-2.16,1.38-.58.46-1.08.91-1.48,1.36-.4.45-.7.85-.89,1.19-.05.1-.08.16-.12.24-.1.16-.2.32-.28.51-.12.29-.22.54-.3.75l.15.19c.24.11.56.23.95.33.39.11.81.21,1.25.3.44.09.86.16,1.26.22.4.06.73.1.98.12l-1.1.95c-.6.52-1.2.92-1.82,1.19-.59.26-1.2.39-1.83.4-.02,0-.03-.01-.05-.01-1.05,0-1.75-.21-2.08-.63l.11-.42-.38-.11c-.18.33-.37.66-.58.98-.21.32-.5.65-.88.98-.37.33-.9.67-1.59,1.03-.6.3-1.29.58-2.09.84-.79.25-1.64.47-2.54.66s-1.81.33-2.73.43-1.81.15-2.66.15c-1.4,0-2.51-.05-3.35-.16-.84-.11-1.44-.33-1.8-.66-.36-.33-.54-.83-.54-1.5v-.31c0-.11,0-.21.02-.29l-.57-.1c-.32,1.08-.48,2.01-.48,2.78,0,.9.25,1.6.74,2.09.5.49,1.15.83,1.98,1.01.82.18,1.74.28,2.74.28,1.05,0,2.15-.06,3.28-.19,1.14-.13,2.25-.32,3.34-.59,1.09-.27,2.11-.61,3.05-1.02s1.74-.9,2.4-1.48c.41-.36.79-.79,1.14-1.31.36-.52.67-1.13.95-1.83.14.48.38.84.73,1.08.34.23.7.34,1.09.35,0,0,.02,0,.03,0,0,0,0,0,.01,0,0,0,0,0,0,0,0,0,0,0,.01,0,.62,0,1.16-.1,1.61-.3.46-.2.91-.49,1.35-.88.44-.38.92-.84,1.44-1.37.9-.93,1.64-1.67,2.23-2.23.58-.56,1-.94,1.26-1.14l-.04-.23c-.23-.05-.49-.09-.78-.11-.39-.03-.82-.08-1.29-.15-.46-.08-.92-.16-1.36-.26-.44-.09-.84-.19-1.2-.28-.32-.08-.55-.15-.73-.22.98-1.42,3.13-2.68,6.5-3.78l1.37-.44c.09-.13.2-.31.34-.54.14-.23.28-.47.41-.7.13-.23.21-.41.24-.53l-.1-.17c-.88.29-1.76.62-2.66.98Z"/>
      </g>
    </g>
  </g>
</svg>