<svg width="111" height="111" viewBox="0 0 111 111" fill="none" xmlns="http://www.w3.org/2000/svg">
<path d="M111 111H0V0H111V111ZM12.7383 15.0039C12.6381 14.9766 12.556 15.0864 12.4922 15.123C11.762 15.5703 11.9987 16.9937 11.7158 17.2129C11.2595 17.5597 10.7028 16.9581 10 17.3779C10.2188 17.761 10.3193 18.0984 10.3193 18.5088L10.7939 18.792C10.8487 19.1206 10.7032 19.4403 10.6484 19.7324C10.5754 20.1614 11.1047 20.4899 11.2051 20.7637C11.1868 21.2017 11.0587 21.5851 11.2959 22.0049C11.5149 22.3882 11.1138 23.3097 11.4512 23.4834C11.6154 23.5746 11.7707 23.3833 12.0078 23.4834C12.0716 23.5107 12.1719 23.7473 12.0996 23.7754C11.6799 23.9761 11.7614 24.3779 11.6338 24.6973C11.3874 25.2996 10.8584 25.7472 10.9404 26.4316C11.6155 26.3769 11.7067 26.4868 12.0352 27.0342C12.1537 27.0615 12.391 26.9979 12.4824 27.0615C12.6102 27.1528 12.7837 27.2989 12.6924 27.4814C12.6468 27.5817 12.5106 27.7001 12.501 27.7822C12.4918 27.8644 12.6465 27.9927 12.6465 28.084V29.0605C13.0024 29.2978 13.4316 29.5533 13.6963 29.9092C13.4316 30.3473 13.4686 31.0871 13.5781 31.1875C13.6786 31.2878 13.8886 31.3694 14.0254 31.4424C14.0619 31.7069 14.1438 32.0996 14.0254 32.3643C13.3774 33.0761 14.445 32.7479 14.7646 33.3135C15.0384 33.8154 14.3628 34.0807 14.8555 34.6738C14.9284 34.765 14.9652 35.0478 15.1201 35.0664C15.2753 35.0847 15.4586 35.0301 15.7051 34.957L16.1523 36.6816C16.2344 36.9553 16.1797 37.1837 16.1523 37.4209C16.2162 37.7129 16.599 37.4034 16.7725 37.4033C17.3018 37.3668 17.8402 37.9235 18.041 38.3799C18.2146 38.7902 19.0451 38.2244 19.8115 38.3154C19.9119 38.3246 20.0217 38.5895 20.1221 38.5898C20.4598 38.5807 20.6063 38.4163 20.7432 38.4346C21.1261 38.4714 20.706 39.2015 19.3828 39.2197C18.7625 40.9079 19.9851 41.1362 19.9121 41.5195C19.9029 41.5925 19.8389 41.6926 19.7568 41.793C19.8755 41.8477 20.0396 41.9029 20.0762 41.9941C20.1309 42.0854 20.0583 42.2677 20.0127 42.3955C19.8667 42.8062 19.4195 42.7976 19.0361 42.7246C18.5526 42.6425 18.8168 43.7268 18.5254 43.7461C18.4341 43.7461 18.3332 43.7097 18.1689 43.6641C18.2146 43.9561 18.0778 44.1757 17.7949 44.2305L17.6211 44.7959C17.7854 44.9693 18.0047 45.4079 17.9043 45.6543C17.6214 45.8184 17.2106 45.5815 16.9824 45.4902C16.9916 45.7365 17.028 45.9644 16.9551 46.1104C16.9094 46.2016 16.7721 46.2744 16.5713 46.3018C16.6261 46.5482 16.6899 46.7679 16.8359 46.9961C17.0094 46.9322 17.1562 46.9686 17.2109 47.0508C17.384 47.3063 17.0918 47.635 17.1191 48.082C16.8453 48.4379 16.5258 48.7214 16.4346 49.1777C16.9 49.1504 17.0096 49.4056 17.1738 49.6885L17.7305 50.6377C17.8308 50.8293 18.0963 50.9297 18.0781 51.2764C18.3154 51.0119 18.562 50.9387 18.7354 51.0391C18.8449 51.1123 19.0447 51.3866 18.8623 51.4961C18.7532 51.5597 18.6799 51.6052 18.6797 51.7051C18.6979 51.9606 19.2912 51.5596 19.3643 51.9795C19.4921 52.7188 20.3869 53.166 20.04 53.6133C19.9032 53.7866 19.7024 53.8141 19.4014 53.8779L19.9219 54.252C19.7485 54.4071 19.6298 54.5077 19.6572 54.5898C19.8126 54.982 20.5883 54.4805 21.3457 54.9824L22.5596 55.7852L24.376 57.3643C24.6589 57.6106 24.8687 57.4835 25.1699 57.4014C25.6261 57.2737 26.0279 57.8116 25.9277 58.2588C26.6303 58.8246 26.2837 59.163 26.4023 59.2451C26.4756 59.2817 26.6306 59.3458 26.6943 59.4277L27.1592 60.0293C27.4421 60.4035 27.6613 60.8241 27.9717 61.1709L27.251 63.2793L27.1689 65.543L28.793 65.5605L28.8115 68.4727C29.0853 68.4453 29.341 68.5184 29.4688 68.6553C29.569 68.7558 29.5783 69.0845 29.6787 69.2305C29.9982 69.1757 30.1621 69.2761 30.3721 69.4951C30.6093 69.7507 30.6186 69.9149 30.5547 70.2344C30.6368 70.4261 30.783 70.7914 30.9199 70.9922C31.0481 71.2109 31.6318 71.2929 31.7324 71.1289L31.9238 70.7998C31.9971 70.6905 32.5723 70.9097 33.0742 70.7363C33.1198 70.3987 33.2838 69.9789 33.0742 69.6504C32.9556 69.4679 32.6267 69.1204 32.9551 68.9014C33.238 68.7006 33.4299 69.5679 34.4609 69.7598C34.5065 69.9149 34.525 70.0246 34.6436 70.125C34.9174 70.0702 35.5382 69.9332 35.7207 70.207C35.8119 70.3532 35.7852 70.8545 36.0225 70.8545C36.9624 70.6078 37.9756 69.3215 38.4775 69.9326C38.797 70.3342 38.8154 70.8095 38.8154 71.3115C39.5361 71.777 39.564 72.3975 40.4219 73.1367C40.6956 73.3832 40.8602 73.7485 41.2617 73.8945C41.2527 74.2504 41.3887 74.6243 41.3066 74.9346C41.1607 75.0989 41.0241 75.6735 41.334 75.6465C41.7995 75.5917 42.0923 75.5098 42.4209 75.957C42.5121 76.0939 42.6124 76.2587 42.4209 76.4229C42.3296 76.505 42.1647 76.4405 41.9639 76.3584C41.8544 76.5956 42.0642 77.1343 42.3652 77.2168C42.8124 77.3354 43.2235 77.4995 43.1963 78.0742C43.1689 78.7678 43.3972 79.498 43.9082 80C44.2002 80.2829 44.2006 80.548 44.1641 80.9404C44.1276 81.3327 44.7472 81.4153 44.8936 81.625C45.7058 82.7293 45.6242 82.4648 47.1846 82.5469C47.5953 82.5743 47.915 82.6109 48.207 82.9668C48.8276 83.706 49.6766 83.2225 50.2334 84.1348C50.3794 84.3721 50.5169 84.491 50.7998 84.6553L50.2881 84.874C50.3611 85.1844 50.6537 85.1668 50.8545 85.3037L52.5879 86.4355L54.3496 87.0654C54.5047 87.1202 54.4683 87.558 54.5869 87.6768C55.8556 88.982 56.5771 88.3796 57.0518 88.3613C57.4715 88.3431 57.8638 88.6071 58.3291 88.4795C58.5116 88.4339 58.6767 88.6531 58.7041 88.79C58.8684 89.4289 59.6807 88.7809 59.8906 89.5293L60.7207 89.6299C61.2501 89.3378 61.7249 88.9726 62.2178 88.5527C62.3273 88.4524 62.6471 88.4523 62.7109 88.3428C62.8478 88.1056 63.0574 87.9781 63.3311 88.124C63.7144 88.334 64.3625 88.2332 64.4355 87.7129C64.6182 86.417 65.7138 87.4757 66.9551 86.207C67.229 86.1157 67.7493 85.888 68.0322 85.9336L69.8936 86.2344C70.0577 86.2526 70.2495 86.3258 70.3408 86.3896C70.4777 86.4992 70.4965 86.6726 70.46 86.8369L70.9531 87.0381C70.789 87.3392 71.0715 87.4395 71.1719 87.6494C71.4183 88.1331 71.6094 88.8086 71.5547 89.3379C71.4726 90.0497 71.7196 90.7523 72.1484 91.2725C71.5643 92.0847 72.5131 92.1946 72.6045 93.3535L74.2842 93.5635C74.4393 93.5817 74.7036 93.4726 74.7676 93.6094C74.8315 93.7463 74.8047 93.9105 74.8047 94.1387C75.0145 94.02 75.2338 93.7832 75.5166 93.7832C75.8447 93.7652 75.8904 94.1655 76.0088 94.3027C76.4195 94.7682 76.9492 94.4764 77.4238 94.3486C77.8985 94.2208 79.9526 94.385 80.3359 94.9053C80.5458 95.1973 80.6368 95.4344 81.084 95.334L82.873 94.9238C83.6488 95.7634 84.1964 94.9331 84.7988 95.5264C85.2551 95.4169 85.7479 95.3071 86.1221 95.8086C86.1951 95.5989 86.2867 95.4896 86.3779 95.4531C86.4783 95.4166 87.0258 95.6718 87.4092 96.0186L87.4277 96.0098H87.5283C87.6922 95.8455 87.4271 95.6811 87.3633 95.5625C87.2176 95.2888 87.5103 95.1517 87.6562 95.1152C87.857 95.0605 88.1392 95.0244 88.2031 95.2705L88.377 95.9463L90.8232 96.5029C91.2338 96.5943 91.572 96.9407 92.083 96.959C92.3838 96.9767 92.5204 96.5116 92.7119 96.3291C92.867 96.1649 93.0135 96.2197 93.041 95.8916L93.1689 94.3027C93.1964 94.0017 93.3331 93.7644 93.251 93.4268C93.2145 93.3355 93.5336 93.2081 93.6523 93.208L94.0088 91.0264L95.2314 90.5244C95.3683 90.4697 95.4321 90.2419 95.6328 90.3057L96.0713 90.4424C95.9435 89.8948 96.2811 89.3651 96.8926 89.292C97.4676 89.2281 97.9608 89.1009 98.4902 88.9092L100.297 88.8906L100.435 87.8223L100.754 87.667C100.87 87.6098 100.225 86.5808 101 86.3164C100.973 86.0519 100.79 85.8696 100.58 85.7236C100.105 85.4042 99.165 86.1433 98.4805 85.623C98.3527 85.2397 98.5908 84.8379 98.6182 84.5732C98.7277 83.551 98.4445 82.5922 98.335 81.6064L98.4082 80.3105C98.0433 80.3562 97.76 80.4748 97.4316 80.4111C97.1396 80.1008 96.9202 79.5985 96.4912 79.4707L95.5146 79.1787C94.1639 78.987 93.1505 77.8009 92.6211 76.5322L92.3652 75.9297C92.2192 75.583 91.718 75.2361 91.7451 74.7891C91.7725 74.3967 91.6444 74.369 91.4346 74.1318L89.3994 71.7402L93.8984 66.3457L93.9902 65.3877L93.6523 64.1191C93.6341 63.6811 93.4426 63.4614 93.0137 63.3975L89.3174 62.8682C89.1714 62.3024 89.1709 61.8463 89.1709 61.3262L89.1523 59.8477C89.1523 59.4187 89.4357 59.0075 89.2988 58.542L88.1025 54.3984C87.9657 53.9057 88.103 53.5495 88.4131 53.1846L89.29 52.1523L89.3809 51.7969C89.3991 51.7147 89.6004 51.6876 89.7646 51.6328C89.4817 51.076 88.5413 51.6777 87.9023 50.9932C87.6015 50.6647 87.8651 50.3275 87.8379 49.9717L87.7197 48.2461C87.8567 47.37 88.7423 46.9226 89.6094 47.0869C89.3538 46.5667 88.9978 46.302 88.7148 45.873L89.2803 45.6357C89.5085 45.5445 89.6732 45.2801 89.9014 45.1797C89.8192 44.7507 90.284 44.5131 90.3662 44.1846L90.6953 42.7881C90.8321 42.2134 90.4489 41.9303 90.6309 41.6475C90.6856 41.5653 90.8047 41.4825 91.0146 41.4551C90.9874 40.9624 91.1879 40.5242 91.4434 40.1318C91.6258 39.8399 91.2435 39.539 91.2432 39.3291C91.2249 38.7907 91.462 38.2883 91.1338 37.8047L90.8682 37.5674C90.7412 37.4483 91.4438 36.7818 91.0059 35.915C90.5677 35.0479 91.2519 33.6973 90.8047 33.6973L86.8984 33.6699L86.5244 32.9395C86.1319 32.474 85.7751 32.0268 85.5469 31.4609L84.7803 31.1875C84.3788 30.859 83.9777 30.6765 83.4668 30.7949C83.4759 30.6581 83.3478 30.466 83.2656 30.4658C82.9737 30.4932 82.9096 30.2473 82.7637 30.083C82.5173 29.7819 82.2618 29.5079 82.3711 29.0791C82.4167 28.8966 82.3252 28.458 82.1152 28.458C81.8873 28.4581 81.7048 28.613 81.4404 28.3945C81.0206 28.0386 80.3352 27.5275 79.7236 27.6279C79.2766 27.7011 78.9112 27.9652 78.5098 27.3447C78.3364 27.6366 78.2358 27.7831 78.0898 27.8379C77.8519 27.9195 77.0408 27.7003 76.9404 27.5088C76.8766 27.3902 76.8584 27.1347 76.8037 26.9521C76.0553 26.8883 75.2792 26.3495 74.6494 26.249L73.2891 26.0215C73.0974 25.9941 72.8148 25.8931 72.833 25.7471L72.8789 25.2998L72.3496 24.2686C72.2675 24.1225 72.1939 24.013 72.0479 24.0312C71.7741 24.077 71.8105 24.6978 71.0166 24.4697C70.6515 24.3602 70.2683 24.3507 69.9854 24.0312L69.3193 24.2598C68.8356 24.0133 68.1415 24.1685 67.9863 24.707C67.9685 24.7984 68.1318 25.0439 68.0596 25.1172C67.8314 25.3453 67.3658 25.1272 66.5264 25.2549L65.3672 24.999C64.9109 24.999 64.2626 25.0538 63.8701 25.2637C63.3865 25.5283 62.8752 25.7565 62.4189 26.0576C61.9991 26.3406 61.7705 26.806 61.2686 27.0342C60.9949 27.1619 60.8029 27.6181 60.8848 27.8828C61.0125 28.3118 60.8487 28.5404 60.5566 28.7686C60.2372 29.015 60.0454 29.0146 59.6621 29.0146L58.8584 29.4346L58.0098 29.6533L56.7051 29.6172L57.1611 31.6348C57.2161 31.8905 57.5167 32.4373 57.1426 32.6289C56.6588 32.8844 55.8378 32.7749 55.3906 32.4463C56.0295 32.2 56.7048 32.4645 57.2158 31.9717C56.8873 31.9717 56.6404 32.1816 56.3027 32.1816C54.7057 32.127 53.2548 32.648 51.7217 33.0039L48.8555 33.6611C48.2713 33.798 47.6962 34.1167 47.0938 33.9707L43.2148 33.0674L40.5215 31.3428L39.8467 30.7217C39.4725 30.3749 39.4084 29.8001 39.2441 29.3164L38.2949 29.0146C37.9755 28.7501 37.8201 28.8691 37.4824 28.8691C36.871 28.8874 36.2413 28.7596 35.6299 28.6318C35.064 28.5132 34.5345 28.1658 34.1055 27.8281C33.5215 27.3536 33.4022 26.5234 33.2471 25.7295C33.0737 24.8625 32.9278 24.0406 32.9277 23.1279C32.9277 22.9271 32.3983 22.9454 32.2705 23.1279C32.1427 23.3193 31.8778 23.3464 31.6953 23.2734C31.6022 23.2342 30.9739 22.4516 30.7734 21.9414C30.4637 22.0871 30.2995 22.0597 30.1172 21.9141C29.9346 21.768 29.9615 21.4934 29.7881 21.3018C29.5506 21.0647 28.8938 21.0009 28.8115 20.5449C28.6838 19.7784 30.1343 20.0699 30.2627 19.5137C30.4087 18.8839 29.0856 18.7188 29.3594 17.9795C29.4875 17.6149 30.1256 17.6873 30.4541 17.2949L28.7383 15.3965C28.4371 15.4968 28.1181 15.4885 27.8809 15.6436L26.5205 16.5654C26.2467 16.7387 25.9179 16.7389 25.7354 17.0674C25.5984 17.3045 25.325 17.4963 25.0605 17.5693C24.1296 17.8249 24.4939 18.9109 23.5264 18.6279L22.7598 19.5137C22.5773 19.7324 22.3673 19.7963 22.2578 20.0791C21.9749 20.8183 21.3088 19.7688 20.4326 20.3984C20.1133 20.6265 19.7484 20.4074 19.4199 20.3252L18.0322 19.9785C17.7037 19.9055 17.1017 20.0333 16.8916 19.7051L16.1523 18.5273L15.3848 18.3359C15.2844 17.7702 14.993 17.35 14.5459 17.0488C14.2448 16.8572 14.3262 16.3556 14.1621 16.1182L12.9482 15.2139C12.8571 15.15 12.8386 15.0313 12.7383 15.0039Z" fill="white"/>
</svg>
