<svg width="192" height="193" viewBox="0 0 192 193" fill="none" xmlns="http://www.w3.org/2000/svg">
<path d="M192 192.738H0V0H192V192.738ZM15.832 35.3887V35.8652C15.832 38.5912 15.1214 40.5487 14.7998 41.1406L14.7822 41.1729L8.08301 59.8193V71.2139L14.7705 89.7207C15.0403 90.4674 15.2145 91.6976 15.3164 92.9756C15.4171 94.2389 15.443 95.4961 15.4365 96.2637L15.4326 96.7451H15.4365V96.8096C15.4365 98.1908 15.3552 99.4795 15.2295 100.5C15.1666 101.01 15.0934 101.449 15.0156 101.795C14.9353 102.153 14.8575 102.376 14.7998 102.482L14.7822 102.515L8.08301 121.162V132.556L14.7705 151.062C15.0404 151.809 15.2145 153.04 15.3164 154.318C15.417 155.581 15.443 156.838 15.4365 157.605L15.4326 158.087H22.5635L22.4678 157.528C22.323 156.684 22.3999 155.436 22.5723 154.179C22.7409 152.949 22.9931 151.762 23.1748 151.041L30.0664 132.558V132.556L36.7539 151.062C37.0238 151.809 37.1979 153.04 37.2998 154.318C37.4004 155.581 37.4264 156.838 37.4199 157.605L37.416 158.087H44.5469L44.4512 157.528C44.3064 156.684 44.3833 155.436 44.5557 154.179C44.7243 152.949 44.9765 151.762 45.1582 151.041L52.0498 132.558V132.549L58.7373 151.057C59.0071 151.803 59.1813 153.034 59.2832 154.312C59.3839 155.575 59.4098 156.832 59.4033 157.6L59.3994 158.08H66.5303L66.4346 157.522C66.2898 156.678 66.3667 155.43 66.5391 154.173C66.7077 152.943 66.9598 151.757 67.1416 151.035L74.0332 132.552V132.536L80.7207 151.044C80.9905 151.791 81.1648 153.021 81.2666 154.299C81.3673 155.562 81.3932 156.819 81.3867 157.587L81.3828 158.067H88.5137L88.418 157.51C88.2731 156.665 88.3501 155.417 88.5225 154.16C88.6911 152.93 88.9432 151.744 89.125 151.022L96.0166 132.539V132.546L102.704 151.054C102.974 151.8 103.148 153.031 103.25 154.309C103.351 155.572 103.377 156.829 103.37 157.597L103.366 158.077H110.497L110.401 157.52C110.257 156.675 110.333 155.427 110.506 154.17C110.675 152.94 110.927 151.754 111.108 151.032L114.082 143.057H110.604L109.934 144.86C107.846 146.958 105.321 145.735 104.319 144.86L99.3379 131.031V122.606L104.319 108.698C106.344 106.727 108.906 107.877 109.934 108.698L111.029 111.663H114.483L111.1 102.535C110.868 101.911 110.724 100.894 110.634 99.832C110.545 98.7839 110.514 97.7521 110.487 97.1162L110.472 96.7451H110.497L110.401 96.1865C110.257 95.3422 110.333 94.0942 110.506 92.8369C110.675 91.6069 110.927 90.4206 111.108 89.6992L118 71.2158V71.2139L124.688 89.7207C124.957 90.4674 125.132 91.6976 125.233 92.9756C125.334 94.2389 125.361 95.4961 125.354 96.2637L125.35 96.7451H132.48L132.385 96.1865C132.24 95.3422 132.317 94.0942 132.489 92.8369C132.658 91.6069 132.91 90.4206 133.092 89.6992L139.983 71.2158V71.2139L146.671 89.7207C146.941 90.4674 147.115 91.6976 147.217 92.9756C147.317 94.2389 147.344 95.4961 147.338 96.2637L147.333 96.7451H147.338C147.336 98.1109 147.252 99.4039 147.125 100.435C147.061 100.955 146.986 101.404 146.907 101.758C146.826 102.124 146.748 102.352 146.69 102.457L146.673 102.489L144.425 108.747L148.072 109.251L148.276 108.682C150.301 106.711 152.862 107.86 153.891 108.682L159.031 122.59V131.015L153.891 144.844C151.803 146.942 149.278 145.718 148.276 144.844L146.478 139.85L142.514 139.559L146.661 151.037C146.931 151.784 147.105 153.015 147.207 154.293C147.308 155.556 147.335 156.813 147.328 157.58L147.323 158.062H154.454L154.358 157.503C154.214 156.659 154.291 155.411 154.463 154.153C154.632 152.923 154.884 151.737 155.065 151.016L161.957 132.532V121.134L155.057 102.519C154.827 101.899 154.684 100.785 154.597 99.6123C154.513 98.4933 154.482 97.3937 154.456 96.7451H154.464L154.454 96.6865V96.6846L154.435 96.2285H154.375L154.368 96.1865C154.223 95.3422 154.3 94.0942 154.473 92.8369C154.641 91.6069 154.893 90.4206 155.075 89.6992L161.967 71.2158V71.2139L168.654 89.7207C168.924 90.4674 169.098 91.6976 169.2 92.9756C169.301 94.2389 169.328 95.4961 169.321 96.2637L169.316 96.7451H169.321V96.791C169.321 98.172 169.239 99.4601 169.113 100.48C169.05 100.991 168.977 101.429 168.899 101.775C168.819 102.133 168.741 102.357 168.684 102.463L168.666 102.495L161.967 121.143V132.536L168.654 151.044C168.924 151.791 169.098 153.021 169.2 154.299C169.301 155.562 169.328 156.819 169.321 157.587L169.316 158.067H176.447L176.352 157.51C176.207 156.665 176.284 155.417 176.456 154.16C176.625 152.93 176.877 151.744 177.059 151.022L183.95 132.539V121.14L177.05 102.525C176.818 101.9 176.655 100.798 176.545 99.6484C176.437 98.5168 176.385 97.398 176.358 96.7705L176.357 96.7451H176.447L176.352 96.1865C176.207 95.3422 176.284 94.0942 176.456 92.8369C176.625 91.6069 176.877 90.4206 177.059 89.6992L183.95 71.2158V59.8174L177.05 41.2021C176.814 40.5672 176.633 39.5545 176.504 38.5117C176.376 37.4804 176.305 36.4626 176.279 35.8447L176.26 35.3887H169.716V35.8652C169.716 38.5912 169.005 40.5487 168.684 41.1406L168.666 41.1729L161.967 59.8193V59.8174L155.066 41.2021C154.831 40.5672 154.649 39.5545 154.521 38.5117C154.393 37.4804 154.322 36.4626 154.296 35.8447L154.276 35.3887H147.732V35.8652C147.732 38.5912 147.022 40.5487 146.7 41.1406L146.683 41.1729L139.983 59.8193V59.8174L133.083 41.2021C132.848 40.5672 132.666 39.5545 132.537 38.5117C132.41 37.4804 132.339 36.4626 132.312 35.8447L132.293 35.3887H125.749V35.8652C125.749 38.5912 125.038 40.5487 124.717 41.1406L124.699 41.1729L118 59.8193V59.8174L111.1 41.2021C110.864 40.5672 110.683 39.5545 110.554 38.5117C110.426 37.4804 110.355 36.4626 110.329 35.8447L110.31 35.3887H103.766V35.8652C103.766 38.5912 103.055 40.5487 102.733 41.1406L102.716 41.1729L96.0166 59.8193V71.2139L102.704 89.7207C102.974 90.4674 103.148 91.6976 103.25 92.9756C103.351 94.2389 103.377 95.4961 103.37 96.2637L103.366 96.7451H103.37V96.9756C103.37 98.3568 103.288 99.6009 103.163 100.576C103.1 101.064 103.028 101.479 102.95 101.809C102.871 102.147 102.793 102.363 102.733 102.473L102.716 102.505L96.0166 121.152V121.14L89.1162 102.525C88.8863 101.905 88.7416 100.808 88.6514 99.6572C88.5625 98.5235 88.5308 97.4079 88.5039 96.7705L88.5029 96.7451H88.5039L88.502 96.7334L88.4844 96.3135H88.4297L88.4082 96.1865C88.2634 95.3422 88.3403 94.0942 88.5127 92.8369C88.6814 91.6069 88.9335 90.4206 89.1152 89.6992L96.0068 71.2158V59.8174L89.1064 41.2021C88.8711 40.5672 88.6885 39.5546 88.5596 38.5117C88.4321 37.4804 88.362 36.4626 88.3359 35.8447L88.3164 35.3887H81.7725V35.8652C81.7725 38.5912 81.0619 40.5487 80.7402 41.1406L80.7227 41.1729L74.0518 59.7412L74.0244 59.8154L73.9961 59.7363L67.125 41.2021C66.8897 40.5672 66.708 39.5545 66.5791 38.5117C66.4516 37.4804 66.3805 36.4626 66.3545 35.8447L66.3359 35.3887H59.792V35.8652C59.792 38.5912 59.0814 40.5487 58.7598 41.1406L58.7422 41.1729L55.4805 50.251H59.3115L60.3457 47.3652C62.37 45.3945 64.932 46.544 65.96 47.3652L70.8047 60.4746L74.0234 61.3877V61.4189L77.3447 62.3535V61.2734L82.3262 47.3652C84.3505 45.3943 86.9124 46.544 87.9404 47.3652L93.0811 61.2734V69.6982L87.9404 83.5273C85.8529 85.6252 83.3278 84.4016 82.3262 83.5273L80.5273 78.5332L76.5635 78.2422L80.7109 89.7207C80.9808 90.4674 81.155 91.6976 81.2568 92.9756C81.3575 94.2389 81.3834 95.4961 81.377 96.2637L81.373 96.7451H81.3867V96.791C81.3867 98.172 81.3053 99.4601 81.1797 100.48C81.1168 100.991 81.0435 101.429 80.9658 101.775C80.8855 102.133 80.8077 102.357 80.75 102.463L80.7324 102.495L74.0332 121.143V121.153L67.1328 102.538C66.9023 101.916 66.758 100.857 66.668 99.748C66.5793 98.6552 66.5473 97.58 66.5205 96.9434L66.5117 96.7451H66.5234L66.5078 96.6592L66.501 96.4863H66.4785L66.4268 96.1865C66.282 95.3422 66.3598 94.0942 66.5322 92.8369C66.7009 91.6069 66.953 90.4206 67.1348 89.6992L70.374 81.0088L67.7939 78.5918L65.96 83.5273C63.8726 85.6253 61.3476 84.4016 60.3457 83.5273L55.3633 69.6982V68.4277L52.042 68.9551V69.0498L49.124 68.457V69.6982L43.9834 83.5273C41.8958 85.6252 39.3708 84.4016 38.3691 83.5273L33.3877 69.6982V61.2734L38.3691 47.3652C40.3934 45.3943 42.9553 46.544 43.9834 47.3652L45.0791 50.3301H48.5322L45.1494 41.2021C44.9141 40.5672 44.7315 39.5546 44.6025 38.5117C44.4751 37.4804 44.4049 36.4626 44.3789 35.8447L44.3594 35.3887H37.8154V35.8652C37.8154 38.5912 37.1048 40.5487 36.7832 41.1406L36.7656 41.1729L30.0664 59.8193V59.8174L23.166 41.2021C22.9307 40.5672 22.7481 39.5546 22.6191 38.5117C22.4917 37.4804 22.4215 36.4626 22.3955 35.8447L22.376 35.3887H15.832ZM16.3857 108.707C18.41 106.736 20.9719 107.886 22 108.707L27.1406 122.615V131.04L22 144.869C19.9124 146.967 17.3874 145.743 16.3857 144.869L11.4043 131.04V122.615L16.3857 108.707ZM38.3691 108.707C40.3934 106.736 42.9553 107.886 43.9834 108.707L49.124 122.615V131.04L43.9834 144.869C41.8958 146.967 39.3708 145.743 38.3691 144.869L33.3877 131.04V122.615L38.3691 108.707ZM60.3525 108.701C62.3769 106.73 64.9388 107.88 65.9668 108.701L71.1074 122.609V131.034L65.9668 144.863C63.8793 146.961 61.3542 145.737 60.3525 144.863L55.3711 131.034V122.609L60.3525 108.701ZM82.3359 108.688C84.36 106.717 86.922 107.866 87.9502 108.688L93.0908 122.597V131.021L87.9502 144.85C85.8626 146.948 83.3376 145.724 82.3359 144.85L77.3545 131.021V122.597L82.3359 108.688ZM170.27 108.688C172.294 106.717 174.855 107.866 175.884 108.688L181.024 122.597V131.021L175.884 144.85C173.796 146.948 171.271 145.724 170.27 144.85L165.288 131.021V122.597L170.27 108.688ZM36.7539 89.7207C37.0237 90.4674 37.1979 91.6976 37.2998 92.9756C37.4005 94.2389 37.4264 95.4961 37.4199 96.2637L37.416 96.7451H37.4199V96.8096C37.4199 98.1908 37.3386 99.4795 37.2129 100.5C37.15 101.01 37.0768 101.449 36.999 101.795C36.9187 102.153 36.8409 102.376 36.7832 102.482L36.7656 102.515L30.0664 121.162V121.159L23.166 102.544C22.9353 101.921 22.7901 100.881 22.7002 99.793C22.6115 98.7203 22.5805 97.6645 22.5537 97.0283L22.541 96.7451H22.5635L22.4678 96.1865C22.323 95.3422 22.3999 94.0942 22.5723 92.8369C22.7409 91.6069 22.993 90.4206 23.1748 89.6992L30.0664 71.2158V71.2139L36.7539 89.7207ZM52.0703 71.293L58.7295 89.7207C58.9993 90.4674 59.1735 91.6976 59.2754 92.9756C59.3761 94.2389 59.403 95.4961 59.3965 96.2637L59.3926 96.7451H59.4033V96.9629C59.4033 98.3441 59.3217 99.592 59.1963 100.571C59.1336 101.061 59.0608 101.479 58.9834 101.81C58.9038 102.149 58.8261 102.366 58.7666 102.476L58.749 102.508L52.0498 121.155V121.159L45.1494 102.544C44.9187 101.921 44.7745 100.881 44.6846 99.793C44.5959 98.7202 44.5639 97.6646 44.5371 97.0283L44.5244 96.7451H44.5469L44.4512 96.1865C44.3064 95.3422 44.3833 94.0942 44.5557 92.8369C44.7243 91.6069 44.9764 90.4206 45.1582 89.6992L52.0195 71.2969L52.0459 71.2246L52.0703 71.293ZM16.3857 47.3652C18.41 45.3943 20.9719 46.544 22 47.3652L27.1406 61.2734V69.6982L22 83.5273C19.9125 85.6252 17.3874 84.4016 16.3857 83.5273L11.4043 69.6982V61.2734L16.3857 47.3652ZM104.319 47.3652C106.344 45.3943 108.905 46.544 109.934 47.3652L115.074 61.2734V69.6982L109.934 83.5273C107.846 85.6251 105.321 84.4016 104.319 83.5273L99.3379 69.6982V61.2734L104.319 47.3652ZM126.303 47.3652C128.327 45.3943 130.889 46.544 131.917 47.3652L137.058 61.2734V69.6982L131.917 83.5273C129.829 85.6251 127.304 84.4015 126.303 83.5273L121.321 69.6982V61.2734L126.303 47.3652ZM148.286 47.3652C150.31 45.3943 152.872 46.544 153.9 47.3652L159.041 61.2734V69.6982L153.9 83.5273C151.813 85.6251 149.288 84.4015 148.286 83.5273L143.305 69.6982V61.2734L148.286 47.3652ZM170.27 47.3652C172.294 45.3944 174.856 46.544 175.884 47.3652L181.024 61.2734V69.6982L175.884 83.5273C173.796 85.6251 171.271 84.4015 170.27 83.5273L165.288 69.6982V61.2734L170.27 47.3652Z" fill="white"/>
</svg>
