<?xml version="1.0" encoding="UTF-8"?>
<svg id="Layer_1" xmlns="http://www.w3.org/2000/svg" version="1.1" viewBox="0 0 78 78">
  <!-- Generator: Adobe Illustrator 30.4.0, SVG Export Plug-In . SVG Version: 2.1.4 Build 226)  -->
  <defs>
    <style>
      .st0 {
        fill: #fff;
      }
    </style>
  </defs>
  <path class="st0" d="M77.99,42.19l-6-.03-.03,6.01-6-.03.03-6.01,6,.03.03-6.01,5.98.03V0h-35.81l-.03,5.98h0s-6-.02-6-.02l-.03,6-6-.03-.03,6.01-6-.03-.03,6.01-6-.03.03-6.01,6,.03.03-6.01,6,.03.03-6.01,6,.03.03-5.95H0v37.44-1.63s6,.03,6,.03l.03-6,6,.03-.03,6h0s-5.99-.02-5.99-.02l-.03,6-5.98-.03v36.18h35.82l.03-5.99,6,.03.03-6.01,6,.03-.03,6.01-6-.03-.03,5.96h36.19v-37.44,1.63ZM60.07,24.08l6,.03-.03,6.01-6-.03-.03,6h0s-6-.02-6-.02l-.03,6-6-.03.03-6.01,6,.03.03-6,6,.03.03-6.01ZM54.1,18.05l-6-.03.03-6.01,6,.03-.03,6.01ZM42.16,5.97l6,.03-.03,6.01-6-.03.03-6.01ZM42.1,17.99l6,.03-.03,6.01-6-.03.03-6.01ZM30.1,17.93l6,.03-.03,6.01,6,.03-.03,6.01s-6-.03-6-.03l.03-6.01-6-.03.03-6.01ZM30.01,35.95l-.03,6.01s-6-.03-6-.03l.03-6.01,6,.03ZM24.04,29.91l-.03,6h0s0,0,0,0l-6-.03.03-6,6,.03ZM12.07,23.85l6,.03-.03,6.01-6-.03.03-6.01ZM5.95,47.85l.03-6.01,6,.03-.03,6.01,6,.03-.03,6.01s-6-.03-6-.03l.03-6.01-6-.03ZM17.93,53.91l6,.03-.03,6h0s0,0,0,0l-6-.03.03-6ZM29.87,65.98l-6-.03.03-6.01,6,.03-.03,6.01ZM41.92,54.03l-6-.03.03-6.01-6-.03.03-6.01,6,.03-.03,6.01,6,.03-.03,6.01ZM42.02,36l.03-6,6,.03-.03,6h0s0,0,0,0l-6-.03ZM59.9,60.12h0s-6-.02-6-.02l-.03,6-6-.03.03-6.01,6,.03.03-6,6,.03-.03,6ZM65.93,54.14l-6-.03.03-6.01,6,.03-.03,6.01Z"/>
</svg>