<?xml version="1.0" encoding="UTF-8"?>
<svg id="Layer_1" xmlns="http://www.w3.org/2000/svg" version="1.1" viewBox="0 0 94 69">
  <!-- Generator: Adobe Illustrator 30.4.0, SVG Export Plug-In . SVG Version: 2.1.4 Build 226)  -->
  <defs>
    <style>
      .st0 {
        fill: #fff;
      }
    </style>
  </defs>
  <rect class="st0" x="44.22" y="20.6" width="5.56" height="5.56"/>
  <path class="st0" d="M0,0v69h94V0H0ZM72,3.92h5.56v5.56h-5.56V3.92ZM60.89,3.92h5.55v5.56h-5.55V3.92ZM60.89,15.04h5.55v5.56h-5.55v-5.56ZM55.33,31.72h5.55v-5.56h5.55v5.56h-5.55v5.56s-5.55,0-5.55,0v-5.56ZM38.67,3.92h5.55v5.56h-5.55V3.92ZM27.56,3.92h5.56v5.56h-5.56V3.92ZM27.56,15.04h5.56v5.56h-5.56v-5.56ZM27.56,42.84h5.56v5.56h-5.56v-5.56ZM16.45,3.92h5.56v5.56h-5.56V3.92ZM5.34,3.92h5.56v5.56h-5.56V3.92ZM22,65.08h-5.56v-5.56h5.56v5.56ZM27.56,48.4h-5.56v5.56h-5.56v-27.8h-5.55s-5.55,0-5.55,0v-5.56h11.11v-5.56h5.56v27.8h5.56v5.56ZM55.33,42.84h-5.56v5.56h5.56v5.56h-5.56v-5.56h-5.56v5.56h-5.55v5.56s-5.55,0-5.55,0v5.56h-5.56v-5.56h5.55v-5.56h5.55v-5.56h5.55v-5.56h-5.55v-5.56h-5.55v-5.56h-5.55v-5.56h5.56v5.56h5.55v5.56s5.55,0,5.55,0v5.56s5.56,0,5.56,0v-5.56h5.56v5.56ZM55.33,20.6v5.56h-5.56v5.56h-5.56v-5.56h-5.55s0-5.56,0-5.56v-5.56h16.66v5.56ZM55.33,9.48h-5.56V3.92h5.56v5.56ZM66.44,65.08h-5.55v-5.56h-5.55v-5.56h5.56v5.56s5.55,0,5.55,0v5.56ZM72,48.4h-11.11v-5.56h11.11v5.56ZM77.55,65.08h-5.56v-5.56h5.56v5.56ZM83.11,26.16h-5.55v27.8h-5.56V15.04h5.56v5.56h5.55v5.56ZM88.66,26.16h-5.55v-5.56h5.55v5.56ZM88.66,9.48h-5.55V3.92h5.55v5.56Z"/>
</svg>