<svg width="195" height="195" viewBox="0 0 195 195" fill="none" xmlns="http://www.w3.org/2000/svg">
<path d="M195 195H0V0H195V195ZM83.6084 121.089C85.8176 116.571 87.4859 108.278 79.5459 109.376C72.4439 110.102 61.0424 118.693 55.5674 123.132C46.0635 130.839 37.3958 139.524 29.707 149.043C25.2521 154.511 15.2895 167.587 16.04 174.778C16.1697 176.021 16.6755 177.053 17.6602 177.839C18.8882 178.818 20.4436 178.878 21.9385 178.71C34.5307 176.614 54.7184 157.977 63.6592 148.429C68.3443 143.415 72.7168 138.118 76.752 132.567C79.4776 128.75 81.5543 125.288 83.6084 121.089ZM125.43 113.413C121.813 111.339 117.182 108.889 112.891 109.384C109.527 109.922 108.865 113.202 109.488 116.11C110.384 120.281 112.62 124.165 114.819 127.776C125.733 144.493 140.891 159.652 157.151 171.187C161.414 174.21 169.871 179.394 175.164 178.699C176.433 178.378 177.437 177.881 178.127 176.718C179.143 175.007 178.794 172.683 178.31 170.863C177.016 166.005 174.023 161.328 171.219 157.221C160.778 141.936 141.488 122.622 125.43 113.413ZM108.974 155.858C108.694 149.469 103.296 144.514 96.9072 144.781C90.5016 145.048 85.5293 150.465 85.8096 156.871C86.09 163.278 91.5171 168.24 97.9219 167.947C104.308 167.655 109.253 162.247 108.974 155.858ZM94.001 103.87C93.3791 105.207 91.2367 108.322 90.9639 109.457C90.8252 110.048 90.8641 110.668 91.0771 111.237C91.4952 112.353 92.7811 113.01 93.9111 113.135C94.8807 113.046 95.6964 112.818 96.3604 112.026C96.6508 111.68 96.8569 111.271 96.9629 110.832C97.183 109.925 97.0444 105.762 97.0537 104.546C95.7825 104.416 95.241 104.194 94.0459 103.771L94.001 103.87ZM100.49 103.842C99.3833 104.249 98.8943 104.439 97.7295 104.544C97.7236 105.683 97.6248 109.965 97.8232 110.81C97.9497 111.367 98.236 111.876 98.6465 112.271C99.331 112.934 100.258 113.15 101.182 113.109C103.703 112.441 104.656 110.501 103.317 108.3C102.443 106.862 101.662 105.34 100.756 103.908C100.601 103.844 100.633 103.828 100.49 103.842ZM103.414 101.316C102.649 102.247 102.212 102.704 101.271 103.453C101.881 104.498 103.914 108.271 104.532 108.903C104.884 109.266 105.328 109.526 105.815 109.655C106.473 109.829 107.003 109.739 107.635 109.566C110.619 108.357 110.27 104.649 107.44 103.559C106.672 103.263 104.017 101.373 103.414 101.316ZM91.1982 101.322C89.6489 102.309 87.2707 103.32 85.9766 104.473C84.118 106.126 85.1869 108.903 87.4541 109.661C90.9211 110.218 91.8787 105.893 93.5469 103.425C92.7324 102.892 92.0068 102.089 91.3779 101.348L91.1982 101.322ZM49.957 96.2012C49.2996 89.8287 43.5994 85.1975 37.2285 85.8584C30.8627 86.5189 26.2357 92.2138 26.8926 98.5811C27.5494 104.948 33.2418 109.578 39.6084 108.926C45.9799 108.271 50.6143 102.573 49.957 96.2012ZM167.894 96.2373C167.255 89.8572 161.562 85.2071 155.184 85.8564C148.822 86.5048 144.187 92.1813 144.823 98.5449C145.459 104.908 151.128 109.554 157.491 108.93C163.871 108.303 168.532 102.617 167.894 96.2373ZM90.2373 97.7412C89.2206 97.7389 84.3248 97.6739 83.627 97.7881C82.723 98.2945 82.1041 98.8276 81.8037 99.8809C81.5712 100.711 81.6864 101.599 82.1221 102.342C83.059 103.975 85.0167 104.324 86.5273 103.314C86.9441 103.035 87.4463 102.775 87.8789 102.501C88.6559 102.079 90.3047 101.041 91.0156 100.742C90.5994 99.5696 90.355 98.9887 90.2373 97.7412ZM103.799 96.8809C103.515 93.3491 100.426 90.7139 96.8945 90.9912C93.3544 91.2693 90.7106 94.368 90.9951 97.9082C91.2785 101.448 94.3818 104.086 97.9209 103.796C101.452 103.507 104.082 100.412 103.799 96.8809ZM110.978 97.8389C110.145 97.6246 105.652 97.7389 104.542 97.7471C104.393 99.0247 104.213 99.5172 103.749 100.73L103.856 100.78C106.493 102.029 109.131 105.034 111.933 103.204C113.266 101.942 113.642 99.9514 112.256 98.5684C111.901 98.2172 111.46 97.9659 110.978 97.8389ZM85.2412 90.9365C84.9403 90.8394 84.3842 90.9164 84.0527 90.9609C83.0356 91.3825 82.3505 91.8105 81.9014 92.9131C81.5876 93.6982 81.5974 94.5764 81.9287 95.3545C82.9399 97.6967 86.3964 97.0282 88.5723 97.041H90.2393C90.3675 95.7723 90.5826 95.2307 91.0234 94.0469L90.917 93.9971C89.0843 93.1269 87.1722 91.5589 85.2412 90.9365ZM109.854 90.8926C109.635 90.9037 109.418 90.9268 109.202 90.9619C107.85 91.6781 104.931 93.5473 103.74 94.0527C104.203 95.2751 104.398 95.7331 104.538 97.041H107.657C108.737 97.0539 110.468 97.2179 111.454 96.791C112.486 96.3436 113.115 95.2162 113.114 94.0791C113.108 93.2109 112.751 92.3821 112.125 91.7803C111.524 91.198 110.696 90.85 109.854 90.8926ZM107.356 91.2812C111.206 89.7605 110.067 84.6195 105.95 85.082C105.679 85.1699 105.046 85.3669 104.87 85.5479C103.452 87.0077 102.37 89.5935 101.233 91.3623C102.092 91.9519 102.839 92.6889 103.441 93.5391C103.766 93.3395 104.155 93.0713 104.506 92.9512C105.016 92.6069 106.828 91.4903 107.356 91.2812ZM90.251 85.8799C89.6754 85.1128 88.4572 84.978 87.5742 85.0869C86.6106 85.3961 85.8643 85.7846 85.4111 86.7441C83.5867 90.6046 89.0266 91.8237 91.1797 93.458L91.3516 93.4561C92.0372 92.6814 92.6922 91.9629 93.5137 91.3281C92.4604 89.5254 91.491 87.534 90.251 85.8799ZM96.1396 82.5098C95.4154 81.7996 94.3971 81.5982 93.4199 81.707C91.7657 82.2387 90.221 83.8369 91.0244 85.5391C91.8312 87.2451 93.0125 89.2819 94.0283 90.875C94.1864 90.9377 94.1534 90.9533 94.2998 90.9375C95.4123 90.5335 95.8961 90.3476 97.0537 90.2422C97.0584 89.0845 97.1554 84.794 96.96 83.9727C96.8317 83.4171 96.5477 82.9091 96.1396 82.5098ZM100.237 81.707C99.335 81.9834 98.5944 82.3578 98.1084 83.2168C97.38 84.505 97.7322 88.6073 97.7305 90.2393C98.563 90.3324 100.477 90.9453 100.733 90.8994C100.807 90.7928 100.875 90.7165 100.917 90.6006C101.489 89.6368 103.525 86.361 103.795 85.4658C103.94 84.9886 103.952 84.4807 103.832 83.9971C103.417 82.3953 101.836 81.5075 100.237 81.707ZM177.206 16.9863C176.012 16.0346 174.461 15.9061 172.995 16.0488C160.268 18.1137 140.071 36.7943 131.099 46.3809C126.514 51.2934 122.227 56.4748 118.258 61.8975C115.466 65.778 113.337 69.2974 111.23 73.5723C108.994 78.1119 107.219 86.5712 115.308 85.3945C122.293 84.7147 133.898 75.9646 139.312 71.5693C148.567 64.0603 157.024 55.6185 164.552 46.3789C169.184 40.7447 179.501 27.3557 178.734 20.0625C178.608 18.8648 178.175 17.7583 177.206 16.9863ZM38.5127 24.2051C34.108 21.0209 25.226 15.4245 19.6982 16.0645C18.4007 16.3856 17.3937 16.8501 16.6748 18.0371C15.651 19.728 15.9834 22.0314 16.4531 23.8398C17.66 28.4859 20.4799 32.9692 23.125 36.9131C33.5214 52.4143 52.8976 71.8051 69.0371 81.1855C72.3937 83.1365 77.8804 86.0811 81.8604 85.3975C85.2038 84.8933 85.9025 81.6862 85.3164 78.7959C84.472 74.6333 82.2212 70.73 80.043 67.1309C69.3114 50.6163 54.4426 35.721 38.5127 24.2051ZM108.931 37.3008C108.315 30.9242 102.644 26.2562 96.2676 26.877C89.8986 27.4971 85.2356 33.1625 85.8516 39.5332C86.4676 45.9038 92.1294 50.5697 98.5 49.958C104.876 49.3456 109.547 43.6775 108.931 37.3008Z" fill="white"/>
</svg>
