<?xml version="1.0" encoding="UTF-8"?>
<svg id="Layer_1" xmlns="http://www.w3.org/2000/svg" version="1.1" viewBox="0 0 193 192">
  <!-- Generator: Adobe Illustrator 30.4.0, SVG Export Plug-In . SVG Version: 2.1.4 Build 226)  -->
  <defs>
    <style>
      .st0 {
        fill: #fff;
      }
    </style>
  </defs>
  <polygon class="st0" points="36.08 121.33 44.74 146.94 70.37 156.43 69.43 122.26 36.08 121.33"/>
  <path class="st0" d="M95.65,127.38c11.76,0,14.93.16,25.36-5.92,6.08-10.42,5.2-14.51,5.2-26.26l-22.42,10.25-8.14,21.94Z"/>
  <path class="st0" d="M70.37,156.43c11.12,5.8,12.74,6.62,25.28,6.62s14.24,0,25.35-5.8l-25.35-29.86-25.28,29.04Z"/>
  <polygon class="st0" points="156.11 70.68 146.63 45.06 121 35.57 123.15 67.96 156.11 70.68"/>
  <polygon class="st0" points="70.37 35.57 44.74 45.06 35.26 70.68 69.43 68.38 70.37 35.57"/>
  <path class="st0" d="M69.43,68.38c-6.08,10.42-6.08,15.07-6.08,26.82l23.46-6.72,8.49-22.93c-11.65-1.08-15.44-2.97-25.87,2.83Z"/>
  <path class="st0" d="M126.2,95.2c1.45-5.74,3.03-16.81-3.05-27.24-10.55-4.27-16-3.5-27.85-2.42l8.49,22.93,22.42,6.72Z"/>
  <path class="st0" d="M35.26,70.68c-6.08,11.12-5.26,11.98-5.26,24.52s0,15.01,6.08,26.13l27.28-26.13-28.1-24.52Z"/>
  <polygon class="st0" points="121 157.24 146.63 146.94 156.11 121.82 121 121.46 121 157.24"/>
  <path class="st0" d="M126.2,95.2l29.91,26.62c6.08-10.79,6.89-13.18,6.89-25.36s-.81-14.66-6.89-25.78l-29.91,24.52Z"/>
  <path class="st0" d="M0,0v192h193V0H0ZM192.85,119.67l-36.74,2.15,9.48,25.13,25.63,9.48-25.63,9.48-9.48,25.63-9.48-25.63-25.63-8.67-2.22,34.29-23.13-28.49-23.05,28.49-2.22-35.11-25.63,9.48-9.48,25.63-9.48-25.63L.15,156.43l25.63-9.48,10.3-25.62L.15,119.11l29.85-23.9L.15,72.92l35.11-2.24-9.48-25.63L.15,35.57l25.63-9.48L35.26.46l9.48,25.63,25.63,9.48L72.59.46l23.9,29.85c-12.54,0-15.01-.82-26.13,5.26l24.93,29.97,25.7-29.97c-10.42-6.08-12.74-5.26-24.5-5.26L118.92.46l2.08,35.11,25.63-9.48L156.11.46l9.48,25.63,25.63,9.48-25.63,9.48-9.48,25.63,36.74,2.24-29.85,23.54,29.85,23.21Z"/>
  <path class="st0" d="M63.35,95.2c0,11.76,0,16.63,6.08,27.06,10.42,6.08,14.46,5.12,26.21,5.12l-8.83-21.94-23.46-10.25Z"/>
</svg>