<?xml version="1.0" encoding="UTF-8"?>
<svg id="Layer_2" data-name="Layer 2" xmlns="http://www.w3.org/2000/svg" viewBox="0 0 72.15 33.64">
  <defs>
    <style>
      .cls-1 {
        fill: #fff;
      }
    </style>
  </defs>
  <g id="Layer_1-2" data-name="Layer 1">
    <g>
      <path class="cls-1" d="M9.32,24.5H1.76V5.29H0v17.33c0,.32.03.58.13.86.8,2.37,2.08,4.29,3.52,5.57.1.06.16.1.29.1h3.2c.13,0,.19-.03.29-.1,1.44-1.28,2.72-3.2,3.52-5.57.1-.29.13-.54.13-.86V5.29h-1.76v19.22Z"/>
      <path class="cls-1" d="M56.78,25.31h-6.47c-.13,0-.19-.03-.29-.1-.42-.35-.7-.74-.86-1.25-.06-.13-.06-.19-.06-.32v-3.23h9.67v-3.62c0-.32-.03-.58-.16-.86-.67-1.67-1.57-2.66-3.04-3.81-.26-.19-.48-.26-.8-.26h-3.14c-.32,0-.54.1-.8.29-1.76,1.47-2.69,3.07-3.3,5.06-.1.29-.13.54-.13.86v4.87c0,.32.03.58.16.86.77,2.24,1.76,3.84,3.3,5.09.26.19.48.26.8.26h3.52c.32,0,.54-.06.8-.29,1.86-1.51,2.75-3.01,3.36-5.09.03-.13.03-.19.03-.32v-.06h-1.51l-1.09,1.92ZM49.09,15.7h7.97v3.11h-7.97v-3.11Z"/>
      <path class="cls-1" d="M72.12,17.39c-.93-2.88-1.99-4.29-3.17-5.12-.29-.19-.51-.26-.83-.26h-.99c-.32,0-.54.06-.8.26-.8.64-1.57,1.7-2.08,2.43h-.77l-.32-2.53h-3.3v3.68h3.04v10.09h-3.04v3.2h8.74v-3.2h-4v-10.09h4.96l1.09,1.92h1.51v-.06c0-.13,0-.19-.03-.32Z"/>
      <path class="cls-1" d="M30.53,22.36c.6-.37,1.12-.81,1.55-1.32.9-1.03,1.71-3.37,2.43-7.02l-.88-.12c-.33.99-.67,1.67-1.02,2.02-.2.2-.54.45-1.02.76-.49.31-1.13.69-1.93,1.14-.8.43-1.46.89-1.99,1.37-.53.49-.93.98-1.2,1.49l-1.73,3.12c-.32.52-.64,1.01-.96,1.41-.01.02-.03.04-.05.05v-7.21c0-.32-.03-.58-.16-.86-.83-2.21-1.76-3.68-3.27-4.9-.26-.22-.48-.29-.8-.29h-1.38c-.32,0-.54.06-.83.22-.87.64-1.95,1.92-2.47,2.66h-.93l-.32-2.72h-1.28v16.97h1.7v-12.65h8.04v10.46c-.51.43-1.12.92-1.85,1.48-2.18,1.66-4.23,3.15-6.14,4.47l.23.73c1.7-.35,3.55-.82,5.56-1.4.97-.29,1.75-.54,2.34-.74.59-.2.95-.38,1.11-.51.29-.23.73-1.19,1.32-2.87.29-.84.56-1.56.8-2.18.24-.61.54-1.11.89-1.51.03-.03.08-.05.11-.09.44-.37,1.13-.72,2.11-1.06.74-.25,1.41-.57,2.02-.94Z"/>
      <path class="cls-1" d="M48.63,10.68c.4-1.3.72-2.47.95-3.52l-1.05-.15c-.29.78-.55,1.45-.78,2-.22.55-.44,1.05-.64,1.49-.2.44-.43.88-.69,1.33-.02.04-.05.09-.08.13v-7s-1.7,0-1.7,0v9.51h-.93c-.51-.74-1.6-1.83-2.47-2.4-.29-.16-.51-.22-.83-.22h-1.25c-.32,0-.54.1-.8.29-1.76,1.47-2.69,3.17-3.3,5.16-.1.29-.13.54-.13.86v4.38c-.41.27-.8.52-1.07.71l.23.73c.22-.06.6-.17,1-.28.83,2.24,1.76,3.91,3.27,5.16.26.22.48.29.8.29h1.34c.32,0,.54-.06.83-.22.86-.58,1.95-1.67,2.47-2.4h.93l.31,2.66h1.28v-12.63c.32-.64.62-1.32.92-2.03.52-1.27.97-2.55,1.37-3.85ZM43.47,15.76c-.51.51-1.05,1.02-1.66,1.56-.83.73-1.68,1.45-2.54,2.16-.69.57-1.81,1.31-2.63,1.88v-5.6h6.83ZM36.64,25.24v-2.02c.7-.25,1.58-.59,2.12-.77.76-.25,1.49-.51,2.21-.76.71-.25,1.33-.5,1.86-.73.53-.23.87-.42,1.02-.56.27-.26.53-.57.8-.93v5.77h-8.01Z"/>
      <path class="cls-1" d="M49.37,4.59l1.86-1.86c.24-.24.24-.63,0-.87l-1.86-1.86-1.86,1.86c-.24.24-.24.63,0,.87l1.86,1.86Z"/>
      <rect class="cls-1" x="27.1" y="25.97" width="6.43" height="3.18"/>
    </g>
  </g>
</svg>