<svg width="168" height="115" viewBox="0 0 168 115" fill="none" xmlns="http://www.w3.org/2000/svg">
<path d="M89 83.356L91.4736 97.8562H158.096L162.878 83.356L158.096 78.6599H149.356L144.903 77.4241L142.1 71.7394L146.223 61.6881L149.356 57.6511V46.9407V42.9037L142.1 28.7331L133.277 20H122.971H118.518L107.552 28.7331L101.285 30.628L98.3997 42.9037V52.955L101.285 57.6511L104.666 64.9012L107.552 71.7394L103.1 73.6343L101.285 78.6599H95.5963L89 83.356Z" fill="#685450"/>
<path d="M10 83.356L12.4736 97.8562H79.0959L83.8782 83.356L79.0959 78.6599H70.3558L65.9034 77.4241L63.0999 71.7394L67.2226 61.6881L70.3558 57.6511V46.9407V42.9037L63.0999 28.7331L54.2774 20H43.9708H39.5183L28.552 28.7331L22.2855 30.628L19.3997 42.9037V52.955L22.2855 57.6511L25.6661 64.9012L28.552 71.7394L24.0995 73.6343L22.2855 78.6599H16.5963L10 83.356Z" fill="#685450"/>
<path d="M131 0H121V10H131V0Z" fill="#685450"/>
<path d="M52 0H42V10H52V0Z" fill="#685450"/>
<path d="M131 105H121V115H131V105Z" fill="#685450"/>
<path d="M52 105H42V115H52V105Z" fill="#685450"/>
<path d="M168 44H158V54H168V44Z" fill="#685450"/>
<path d="M89 44H79V54H89V44Z" fill="#685450"/>
<path d="M10 44H0V54H10V44Z" fill="#685450"/>
</svg>
