<svg width="89" height="115" viewBox="0 0 89 115" fill="none" xmlns="http://www.w3.org/2000/svg">
<path d="M10 83.356L12.4736 97.8562H79.0959L83.8782 83.356L79.0959 78.6599H70.3558L65.9034 77.4241L63.0999 71.7394L67.2226 61.6881L70.3558 57.6511V46.9407V42.9037L63.0999 28.7331L54.2774 20H43.9708H39.5183L28.552 28.7331L22.2855 30.628L19.3997 42.9037V52.955L22.2855 57.6511L25.6661 64.9012L28.552 71.7394L24.0995 73.6343L22.2855 78.6599H16.5963L10 83.356Z" fill="#685450"/>
<rect x="42" width="10" height="10" fill="#685450"/>
<rect x="42" y="105" width="10" height="10" fill="#685450"/>
<rect x="79" y="44" width="10" height="10" fill="#685450"/>
<rect y="44" width="10" height="10" fill="#685450"/>
</svg>
